<?xml version="1.0" standalone="no"?>
<!DOCTYPE svg PUBLIC "-//W3C//DTD SVG 1.1//EN" "http://www.w3.org/Graphics/SVG/1.1/DTD/svg11.dtd" >
<svg xmlns="http://www.w3.org/2000/svg" xmlns:xlink="http://www.w3.org/1999/xlink" version="1.1">
<metadata></metadata>
<defs>
<font id="sunantwerpenextrabold" horiz-adv-x="1024" >
<font-face units-per-em="2048" ascent="1638" descent="-410" />
<missing-glyph horiz-adv-x="491" />
<glyph unicode="&#x2e;&#x2e;&#x2e;" horiz-adv-x="1591" d="M127 150q0 55 7.5 88.5t27 53.5t53.5 29t90 9q55 0 89.5 -9t53 -28.5t26 -53t7.5 -87.5q0 -53 -7.5 -86t-26 -53t-53 -29t-89.5 -9t-89.5 9t-54 28.5t-27 52t-7.5 85.5zM614 150q0 55 8 88.5t27.5 53.5t54 29t91.5 9q55 0 89 -9t52.5 -28.5t26.5 -53t8 -87.5 q0 -53 -8 -86t-27.5 -53t-53.5 -29t-89 -9t-89.5 9t-54 28.5t-27.5 52t-8 85.5zM1102 150q0 55 7.5 88.5t27 53.5t54.5 29t91 9q55 0 89 -9t53 -28.5t26.5 -53t7.5 -87.5q0 -53 -7.5 -86t-27 -53t-54 -29t-89.5 -9t-89.5 9t-54 28.5t-27 52t-7.5 85.5z" />
<glyph unicode="&#xfb01;" horiz-adv-x="1165" d="M18 807v226h111v103q0 81 16 144t51.5 107.5t94 68t143.5 23.5q69 0 124.5 -14t90.5 -29l-33 -203q-16 5 -37 8t-41 3q-46 0 -63.5 -24t-17.5 -76v-111h600v-1033h-328v807h-272v-807h-328v807h-111zM700 1290q0 45 9.5 77t31 51.5t59 28t94.5 8.5t94.5 -7.5t59 -27 t29.5 -51.5t8 -79q0 -45 -8.5 -76.5t-30 -51t-59 -29t-93.5 -9.5q-58 0 -95.5 9t-59 28t-30.5 50.5t-9 78.5z" />
<glyph unicode="&#xfb02;" horiz-adv-x="1189" d="M18 807v226h111v63q0 90 16.5 161t59.5 120t117 75.5t190 26.5q29 0 60.5 -2.5t63 -6t60 -8.5t54.5 -10h303v-1129q0 -42 3 -66t10 -36t19.5 -15.5t29.5 -3.5q13 0 25 0.5t18 0.5l12 -190q-22 -8 -45 -14t-50 -10t-58.5 -6t-67.5 -2q-54 0 -96 9.5t-70.5 33.5t-43 65 t-14.5 104v1036q-15 4 -32 7t-34 5.5t-35 3.5t-33 1q-38 0 -63 -7t-41.5 -24t-23 -42.5t-6.5 -62.5v-77h136v-226h-136v-807h-328v807h-111z" />
<glyph unicode="&#xfb03;" horiz-adv-x="1765" d="M18 807v226h111v83q0 80 16 144t52 108t95 68t143 24q71 0 131.5 -15t112.5 -42l-35 -192q-20 6 -48.5 10.5t-50.5 4.5q-49 0 -68.5 -24.5t-19.5 -77.5v-91h272v103q0 81 16 144t52 107.5t94 68t143 23.5q69 0 124.5 -14t90.5 -29l-32 -203q-16 5 -37.5 8t-41.5 3 q-46 0 -63.5 -24t-17.5 -76v-111h600v-1033h-328v807h-272v-807h-328v807h-272v-807h-328v807h-111zM1300 1290q0 45 9.5 77t31.5 51.5t59 28t94 8.5t94.5 -7.5t59 -27t30 -51.5t8.5 -79q0 -45 -9 -76.5t-30.5 -51t-59 -29t-93.5 -9.5q-58 0 -95.5 9t-59 28t-30.5 50.5 t-9 78.5z" />
<glyph unicode="&#xfb04;" horiz-adv-x="1789" d="M18 807v226h111v83q0 80 16 144t52 108t95 68t143 24q71 0 131.5 -15t112.5 -42l-43 -191q-20 6 -44.5 10t-46.5 4q-49 0 -68.5 -24.5t-19.5 -77.5v-91h272v63q0 90 17 161t59.5 120t116.5 75.5t190 26.5q29 0 60.5 -2.5t63 -6t60 -8.5t54.5 -10h303v-1129q0 -42 3 -66 t10 -36t19.5 -15.5t29.5 -3.5q13 0 25 0.5t18 0.5l12 -190q-22 -8 -44.5 -14t-50 -10t-59 -6t-67.5 -2q-54 0 -96 9.5t-70.5 33.5t-43 65t-14.5 104v1036q-15 4 -32 7t-34 5.5t-34.5 3.5t-33.5 1q-37 0 -62.5 -7t-42 -24t-23 -42.5t-6.5 -62.5v-77h136v-226h-136v-807h-328 v807h-272v-807h-328v807h-111z" />
<glyph horiz-adv-x="0" />
<glyph horiz-adv-x="0" />
<glyph unicode="&#xd;" horiz-adv-x="0" />
<glyph unicode=" "  horiz-adv-x="491" />
<glyph unicode="&#x09;" horiz-adv-x="491" />
<glyph unicode="&#xa0;" horiz-adv-x="491" />
<glyph unicode="!" horiz-adv-x="724" d="M194 1382h398l-51 -983h-294zM201 147q0 45 8.5 77t30.5 52t59.5 28.5t94.5 8.5q58 0 95.5 -8t60 -27.5t31.5 -51t9 -78.5t-9.5 -79t-31.5 -51.5t-59.5 -28t-95.5 -8.5q-57 0 -94.5 8.5t-59.5 28t-30.5 51.5t-8.5 78z" />
<glyph unicode="&#x22;" horiz-adv-x="995" d="M119 1382h312l-31 -542h-249zM560 1382h312l-30 -542h-250z" />
<glyph unicode="#" horiz-adv-x="1062" d="M48 399v196h137l28 247h-165v191h188l38 349h237l-39 -349h193l38 349h238l-39 -349h113v-191h-135l-28 -247h163v-196h-184l-45 -399h-237l45 399h-193l-45 -399h-236l45 399h-117zM422 595h192l29 247h-193z" />
<glyph unicode="$" d="M51 133l88 171q30 -15 64 -27t70 -21t73.5 -14t73.5 -5q51 0 87 11.5t57.5 30.5t31 44t9.5 53q0 39 -23 67t-60.5 51t-85 44t-97.5 45t-97.5 55.5t-85 74.5t-60 101t-22.5 137q0 71 20.5 130.5t60 106.5t96.5 79t132 49l19 218h187l21 -209q83 -8 158.5 -39t133.5 -81 l-90 -163q-27 14 -55.5 26t-59 20.5t-63.5 12.5t-68 4q-39 0 -67.5 -10.5t-48 -28t-29 -40t-9.5 -48.5q0 -43 23.5 -72.5t62.5 -54t88.5 -45.5t101 -44.5t101.5 -54t88.5 -73t62.5 -100.5t24 -136q0 -70 -22 -133.5t-67 -115t-111.5 -87t-153.5 -49.5l-21 -234h-187l-19 229 q-108 9 -188 42t-144 83z" />
<glyph unicode="%" horiz-adv-x="1456" d="M77 1077q0 87 21.5 149.5t63.5 103t105 60t147 19.5q88 0 148 -19.5t96.5 -59.5t52.5 -103.5t16 -151.5q0 -171 -84.5 -250.5t-251.5 -79.5q-88 0 -148.5 18.5t-97 58.5t-52.5 103t-16 152zM126 43l1041 1390l164 -94l-1041 -1389zM312 1076q0 -47 7 -78t18.5 -50 t28.5 -27t36 -8q22 0 38.5 9t28 28t18 50t6.5 76q0 46 -7 77.5t-18.5 51t-28 28t-38.5 8.5q-18 0 -34.5 -7.5t-28.5 -26t-19 -50.5t-7 -81zM729 305q0 87 21.5 149.5t64 103t105 60t146.5 19.5q88 0 148.5 -19.5t97.5 -59.5t52 -103.5t15 -151.5q0 -171 -84 -250.5 t-251 -79.5q-89 0 -149 18.5t-97 58.5t-53 103t-16 152zM965 304q0 -47 6.5 -78t18 -50t28.5 -27t37 -8q22 0 38 9t28 28t18 50t6 76q0 46 -6 77.5t-18.5 51t-29 28t-36.5 8.5q-19 0 -36 -7.5t-29 -26t-18.5 -50.5t-6.5 -81z" />
<glyph unicode="&#x26;" horiz-adv-x="1374" d="M58 357q0 69 19 125t51 101.5t75 83.5t92 70q-32 44 -58.5 86t-45.5 83.5t-29 84t-10 85.5q0 72 26 132.5t78.5 104.5t133.5 68.5t190 24.5q86 0 156 -18t120 -53t77.5 -87.5t27.5 -121.5q0 -73 -22.5 -129.5t-60 -103t-89 -86.5t-109.5 -78q26 -31 53.5 -62t56.5 -62 t59 -61.5t58 -59.5q16 34 27.5 72t19 77.5t11 80t2.5 82.5h307q0 -77 -10.5 -149t-29.5 -136.5t-46 -122t-59 -105.5q43 -37 75 -56t56 -19h58v-200q-11 -5 -25 -11t-32.5 -10.5t-43.5 -8t-59 -3.5q-24 0 -49.5 8t-54.5 22t-62 35.5t-70 48.5q-44 -29 -93 -49.5t-100 -34.5 t-104 -21.5t-106 -7.5q-127 0 -215 31.5t-143 83.5t-79 121.5t-24 144.5zM370 383q0 -45 14 -79.5t40 -57t61 -33.5t77 -11q24 0 46 4t42.5 10.5t39 16.5t34.5 21q-37 33 -73.5 68.5t-71.5 72.5t-70 76t-67 78q-15 -16 -28.5 -34.5t-23 -38t-15 -43t-5.5 -50.5zM457 1105 q0 -20 5 -43t15 -47.5t26 -50.5t39 -55q33 27 56 51t37 48.5t21 49.5t7 53q0 23 -7 40.5t-19 31t-31 20.5t-44 7q-27 0 -46 -7t-32.5 -20.5t-20 -33t-6.5 -44.5z" />
<glyph unicode="'" horiz-adv-x="655" d="M188 1382h298l-29 -542h-238z" />
<glyph unicode="(" horiz-adv-x="634" d="M86 559q0 134 20.5 261t58 244.5t89 224.5t114.5 203l221 -71q-44 -76 -82.5 -169.5t-67 -201.5t-45.5 -229.5t-17 -251.5q0 -133 17.5 -255.5t46.5 -231t67.5 -202.5t80.5 -170l-221 -67q-62 92 -114 195.5t-89 218t-58 240t-21 262.5z" />
<glyph unicode=")" horiz-adv-x="634" d="M46 -287q43 76 82 169.5t67.5 202t45.5 229t17 251.5q0 133 -17.5 255.5t-46.5 231t-67.5 203t-80.5 169.5l221 68q61 -92 113.5 -195.5t89.5 -218t58 -240.5t21 -263q0 -135 -20.5 -261.5t-58 -243.5t-89.5 -224t-114 -203z" />
<glyph unicode="*" d="M61 950l264 94l-264 95l145 252l213 -183l-50 276h289l-49 -276l213 183l145 -252l-264 -95l264 -94l-145 -252l-213 182l49 -275h-289l50 275l-213 -182z" />
<glyph unicode="+" d="M70 501v229h305v335h273v-335h305v-229h-305v-343h-273v343h-305z" />
<glyph unicode="," horiz-adv-x="616" d="M51 -233q86 72 117 117.5t31 80.5q0 25 -12.5 38t-28 30.5t-27.5 43t-12 73.5q0 57 7 95t28.5 60.5t58.5 31.5t98 9q55 0 90 -11t54.5 -35t25.5 -60.5t6 -89.5q0 -147 -72.5 -269.5t-236.5 -234.5z" />
<glyph unicode="-" horiz-adv-x="489" d="M45 461v239h442v-239h-442z" />
<glyph unicode="&#xad;" horiz-adv-x="489" d="M45 461v239h442v-239h-442z" />
<glyph unicode="." horiz-adv-x="593" d="M117 158q0 55 8 91t28.5 57.5t57.5 30.5t94 9q55 0 91 -8t56.5 -29.5t27.5 -57.5t7 -91q0 -53 -7 -89t-27.5 -57.5t-56.5 -31t-93 -9.5t-93 9.5t-56.5 31t-28.5 56t-8 88.5z" />
<glyph unicode="/" d="M0 -213l731 1665h284l-731 -1665h-284z" />
<glyph unicode="0" d="M46 679q0 200 29 339t88.5 226t148 126t208.5 39q119 0 205.5 -34t142.5 -114.5t82.5 -216t26.5 -337.5q0 -207 -32 -348t-92.5 -226t-149.5 -122.5t-202 -37.5q-82 0 -146.5 15.5t-115.5 50.5t-87.5 89t-59.5 132.5t-34.5 182.5t-11.5 236zM376 699q0 -141 6.5 -233.5 t22.5 -147t42.5 -75.5t65.5 -21q24 0 43 9t34 31t26 57t18 87.5t10 123.5t3 163t-3 163.5t-9.5 124t-17.5 88t-25.5 57.5t-34 31t-44.5 9q-26 0 -45 -8.5t-34.5 -29.5t-26.5 -55.5t-17.5 -86.5t-10 -123t-3.5 -164z" />
<glyph unicode="1" d="M67 1196l387 186h273v-1086h227v-296h-843v296h257v756l-222 -76z" />
<glyph unicode="2" d="M44 1288q51 27 103.5 49.5t108 38.5t118 24.5t135.5 8.5q84 0 160 -21t133.5 -66.5t91.5 -118.5t34 -178q0 -79 -22 -152.5t-76.5 -157.5t-147 -185.5t-235.5 -233.5h516v-296h-907v286q100 108 175 191.5t128 149.5t86 116.5t51.5 90t25 72.5t6.5 64q0 45 -11 74.5 t-32 48t-50 25.5t-65 7q-34 0 -69 -5.5t-69 -14.5t-67 -19.5t-62 -20.5z" />
<glyph unicode="3" d="M35 76l20 188q86 -17 155 -25t122 -8q75 0 122.5 14t74.5 38.5t36.5 59t9.5 75.5q0 40 -9.5 73t-33 56t-62.5 35t-96 12h-164v248h159q49 0 83.5 9.5t56 30t31.5 53t10 77.5q0 36 -9 61.5t-28 42t-50.5 24t-75.5 7.5q-33 0 -66.5 -3.5t-68.5 -11t-70 -17t-68 -21.5 l-41 216q47 19 95.5 37t101 32t109 22t118.5 8q112 0 191.5 -26t130.5 -74t75.5 -117.5t24.5 -156.5q0 -56 -14 -102t-40 -82.5t-61.5 -63.5t-80.5 -47q57 -10 101 -39.5t73.5 -70.5t44 -91.5t14.5 -103.5q0 -126 -37.5 -213.5t-107 -142.5t-165 -80.5t-210.5 -25.5 q-43 0 -90.5 6t-99 18.5t-105.5 32t-106 46.5z" />
<glyph unicode="4" d="M30 296v264q36 93 78.5 195.5t90 208t99 211.5t105.5 207h474v-800h116v-286h-116v-296h-331v296h-516zM309 582h237v523q-33 -68 -64.5 -135.5t-61.5 -134t-58 -130.5t-53 -123z" />
<glyph unicode="5" d="M33 76l22 180q97 -13 173 -21.5t134 -8.5q70 0 116 11.5t73.5 34t37.5 59t10 86.5q0 48 -9.5 86t-32.5 64.5t-62.5 40t-98.5 13.5q-36 0 -70 -3t-71 -7t-77.5 -10.5t-89.5 -15.5l48 797h284h440v-278h-457l-16 -235q26 5 57 8t67 3q116 0 200 -29.5t139.5 -85.5 t82 -138.5t26.5 -188.5q0 -119 -35 -206t-101 -144.5t-160.5 -86t-212.5 -28.5q-84 0 -186.5 23t-230.5 80z" />
<glyph unicode="6" d="M59 684q0 134 18 240t51 186t79 137t103 92t122.5 51.5t137.5 16.5q82 0 170 -21.5t187 -73.5l-30 -184q-72 15 -142 24.5t-139 9.5q-49 0 -90.5 -20.5t-72 -64.5t-50 -115t-24.5 -171q33 19 63.5 34t61 25t61 15.5t64.5 5.5q96 0 162.5 -26.5t107.5 -78t59 -126 t18 -168.5q0 -110 -31 -201t-89 -156.5t-141.5 -102t-189.5 -36.5q-75 0 -137.5 11.5t-114.5 40.5t-92 80t-67 129.5t-41 189t-14 257.5zM388 567q0 -102 10 -170t28 -108t45.5 -56.5t62.5 -16.5q29 0 51 11.5t37.5 37.5t23.5 69.5t8 108.5q0 49 -6 83t-20.5 54.5t-37 29 t-55.5 8.5q-19 0 -37 -2t-35 -7t-35 -12.5t-40 -17.5v-12z" />
<glyph unicode="7" d="M55 1104v278h920v-258l-250 -530q-31 -66 -60.5 -125t-60 -113.5t-60.5 -105t-59.5 -98t-60.5 -92.5t-62 -87l-225 82l449 1049h-531z" />
<glyph unicode="8" d="M45 353q0 59 16.5 108.5t44.5 90t65.5 73t79.5 60.5q-37 27 -70.5 59.5t-58.5 74.5t-39 94t-14 118q0 81 27 150t82.5 120t141.5 79.5t201 28.5t197 -23.5t133.5 -68.5t76 -111.5t24.5 -151.5q0 -59 -14 -107t-40 -86.5t-59 -69.5t-69 -57q43 -26 81 -57t66 -74 t44.5 -98.5t16.5 -128.5q0 -86 -27 -160t-85 -127.5t-150.5 -84.5t-226.5 -31q-122 0 -206.5 28t-137.5 77.5t-76.5 119.5t-23.5 155zM360 367q0 -37 9.5 -67.5t28 -51.5t48 -32.5t69.5 -11.5q36 0 63.5 11t46 31t28 47.5t9.5 59.5q0 40 -13.5 71t-37 56t-56 46.5 t-70.5 40.5q-28 -20 -50 -41.5t-39 -45.5t-26.5 -52.5t-9.5 -60.5zM384 1044q0 -36 10 -64t28.5 -52t42.5 -43t53 -36q25 16 47 34.5t39 40.5t26.5 47.5t9.5 56.5q0 41 -7.5 70.5t-23.5 48.5t-41.5 28.5t-60.5 9.5q-29 0 -52 -9.5t-38.5 -28t-24 -44.5t-8.5 -59z" />
<glyph unicode="9" d="M49 916q0 110 31.5 200.5t89.5 155t141.5 101t188.5 36.5q74 0 137.5 -11.5t115 -40t91.5 -78.5t67 -128.5t41 -188.5t14 -257q0 -135 -18 -242t-51.5 -188t-80 -138t-103.5 -93.5t-123 -53.5t-137 -17q-42 0 -85.5 4.5t-91.5 15t-99.5 29.5t-109.5 50l21 178 q52 -8 95 -14.5t81.5 -10t73.5 -5t68 -1.5q50 0 91.5 19.5t73 64.5t51.5 117.5t25 177.5q-34 -20 -64.5 -35t-60.5 -25.5t-61 -15.5t-64 -5q-97 0 -163 26.5t-107 78.5t-59.5 126t-18.5 168zM372 945q0 -50 6 -83.5t20.5 -54t37 -29t54.5 -8.5q19 0 38 2t36.5 7t35 12.5 t38.5 18.5v11q0 101 -10 168.5t-28 107.5t-46 56t-61 16q-30 0 -52.5 -11t-38 -37t-23 -69t-7.5 -107z" />
<glyph unicode=":" horiz-adv-x="626" d="M160 152q0 92 44 128.5t134 36.5q94 0 137 -34.5t43 -128.5q0 -96 -44 -131t-136 -35q-90 0 -134 34.5t-44 129.5zM160 881q0 92 44 129t134 37q94 0 137 -35t43 -131q0 -94 -44 -130t-136 -36q-90 0 -134 35.5t-44 130.5z" />
<glyph unicode=";" horiz-adv-x="626" d="M76 -252q88 66 128 120t40 107q0 19 -16.5 35.5t-33 29.5t-28.5 37.5t-12 67.5q0 94 43 131t139 37q94 0 135 -37t41 -133q0 -127 -76.5 -253.5t-234.5 -241.5zM154 881q0 90 43.5 128t136.5 38q94 0 136 -37t42 -129q0 -91 -43 -128.5t-135 -37.5q-93 0 -136.5 37.5 t-43.5 128.5z" />
<glyph unicode="&#x3c;" d="M69 506v219l783 396l95 -235l-557 -268l557 -266l-95 -242z" />
<glyph unicode="=" d="M86 311v224h852v-224h-852zM86 696v224h852v-224h-852z" />
<glyph unicode="&#x3e;" d="M77 345l557 267l-557 267l95 242l783 -396v-219l-783 -396z" />
<glyph unicode="?" d="M98 1292q194 113 418 113q207 0 313.5 -90.5t106.5 -259.5q0 -74 -20 -130t-50.5 -94.5t-85 -88.5t-78 -74.5t-45 -65.5t-24.5 -94l-6 -109h-289l-6 101q-7 78 6 134.5t37.5 95t56.5 70t65 65.5t50.5 69t17.5 82q0 54 -39 90.5t-116 36.5q-51 0 -107.5 -12.5 t-112.5 -34.5zM287 147q0 92 42.5 129t153.5 37q59 0 96 -8.5t58 -27.5t30 -50t9 -80t-9 -80t-30.5 -50.5t-58.5 -28t-97 -8.5q-112 0 -153 36.5t-41 130.5z" />
<glyph unicode="@" horiz-adv-x="2111" d="M90 457q0 217 78 403.5t226.5 324.5t359.5 214t469 76q202 0 349.5 -47t241.5 -133t138.5 -202.5t44.5 -258.5q0 -158 -46 -289t-134 -226t-215.5 -145.5t-286.5 -50.5h-144l-18 149q-73 -84 -145 -126t-150 -42q-145 0 -215 100t-70 277q0 145 42.5 254t119.5 178.5 t181 103.5t229 34q98 0 187.5 -13.5t166.5 -40.5l-72 -641q123 0 201 117t78 307q0 103 -27.5 190t-89.5 152t-165 101.5t-248 36.5q-194 0 -344 -63.5t-250 -172t-149.5 -241t-49.5 -269.5q0 -157 42 -280.5t124.5 -209.5t203 -131t275.5 -45q120 0 262 28t256 71l51 -185 q-135 -62 -296 -96.5t-326 -34.5q-204 0 -367.5 52t-279 156t-177 259t-61.5 359zM905 528q0 -93 16 -130.5t54 -37.5q35 0 70.5 27.5t82.5 95.5l39 324q-18 4 -35.5 6t-33.5 2q-86 0 -139.5 -70.5t-53.5 -216.5z" />
<glyph unicode="A" horiz-adv-x="1228" d="M10 0q75 345 167.5 689.5t203.5 692.5h461q109 -328 198.5 -662t178.5 -720h-371q-10 60 -25 133.5t-26 120.5h-412q-11 -55 -24 -123t-23 -131h-328zM438 508h305q-41 163 -80 309t-77 270q-17 -65 -37 -139t-40 -150.5t-37.5 -151t-33.5 -138.5z" />
<glyph unicode="B" horiz-adv-x="1216" d="M129 0v1382h508q221 0 331.5 -89.5t110.5 -243.5q0 -106 -43 -176.5t-125 -112.5q110 -23 175 -109t65 -202q0 -94 -35 -176t-108.5 -144t-189 -97.5t-271.5 -35.5q-49 0 -193 2t-225 2zM469 240q28 -2 58.5 -4.5t52.5 -2.5q109 0 157.5 51t48.5 142q0 37 -11.5 68.5 t-37 57t-67.5 39t-101 13.5h-100v-364zM469 834h80q93 0 136.5 45.5t43.5 115.5q0 69 -38.5 109.5t-117.5 40.5h-104v-311z" />
<glyph unicode="C" horiz-adv-x="1052" d="M66 664q0 361 145 553t403 192q130 0 233 -56.5t163 -168.5l-154 -154q-39 50 -87 77.5t-105 27.5q-59 0 -104.5 -31t-75 -87t-44 -135t-14.5 -175q0 -128 16 -216.5t46.5 -141t75 -76t104.5 -23.5q62 0 117.5 29t109.5 90l139 -179q-70 -103 -183.5 -160t-242.5 -57 q-275 0 -408.5 170.5t-133.5 520.5z" />
<glyph unicode="D" horiz-adv-x="1239" d="M129 0v1382q83 0 227.5 2t208.5 2q164 0 281 -47t189 -133.5t105.5 -205.5t33.5 -269q0 -359 -165 -549t-507 -190q-69 0 -199.5 3.5t-173.5 4.5zM473 256q29 -2 44 -3t30 -1q137 0 201.5 114t64.5 330q0 229 -65.5 333t-198.5 104q-25 0 -42 -0.5t-34 -2.5v-874z" />
<glyph unicode="E" horiz-adv-x="974" d="M129 0v1382h754v-260h-410v-291h342v-247h-342v-322h418v-262h-762z" />
<glyph unicode="F" horiz-adv-x="933" d="M129 0v1382h745v-260h-401v-315h358v-254h-358v-553h-344z" />
<glyph unicode="G" horiz-adv-x="1183" d="M66 657q0 186 42 328t120.5 236.5t189 141t248.5 46.5q133 0 240 -62.5t173 -170.5l-151 -138q-69 53 -126.5 77t-121.5 24q-126 0 -191 -102.5t-65 -325.5q0 -128 14 -218t41 -144t65 -78.5t89 -24.5q34 0 63.5 8.5t51.5 21.5v297h-142v248h479v-680 q-98 -79 -225 -123.5t-280 -44.5q-257 0 -385.5 173t-128.5 511z" />
<glyph unicode="H" horiz-adv-x="1347" d="M129 0v1382h344v-520h401v520h345v-1382h-345v575h-401v-575h-344z" />
<glyph unicode="I" horiz-adv-x="602" d="M129 0v1382h344v-1382h-344z" />
<glyph unicode="J" horiz-adv-x="608" d="M16 -225q38 46 62 92.5t36.5 95t16.5 101.5t4 122v1196h344v-1232q0 -164 -72.5 -292t-226.5 -218z" />
<glyph unicode="K" horiz-adv-x="1153" d="M129 0v1382h344v-569h6l266 569h365l-332 -610l361 -772h-385l-275 614h-6v-614h-344z" />
<glyph unicode="L" horiz-adv-x="862" d="M129 0v1382h344v-1118h358v-264h-702z" />
<glyph unicode="M" horiz-adv-x="1746" d="M98 0q9 354 33 696t64 686h452l234 -827h2l237 827h430q37 -344 62 -685.5t41 -696.5h-363q-3 244 -12.5 481t-26.5 461h-2l-252 -942h-295l-249 942h-2q-15 -225 -23 -457t-10 -485h-320z" />
<glyph unicode="N" horiz-adv-x="1331" d="M129 0v1382h413l282 -592q23 -49 43 -97t34 -87q18 -45 32 -86h4q-5 52 -8 110q-4 49 -6 110t-2 121v521h280v-1382h-374l-323 682q-24 49 -43.5 96.5t-32.5 85.5q-17 44 -31 84h-3q5 -52 8 -108q3 -48 6 -108.5t3 -121.5v-610h-282z" />
<glyph unicode="O" horiz-adv-x="1316" d="M66 664q0 190 41 331t120 233t190.5 136.5t254.5 44.5q147 0 255 -38.5t180.5 -121t108 -214t35.5 -316.5q0 -190 -41.5 -331t-120 -233.5t-190.5 -137t-254 -44.5q-147 0 -255 38.5t-180.5 121t-108 214t-35.5 317.5zM426 715q0 -143 16 -237t46.5 -146.5t74 -74 t103.5 -21.5q52 0 92.5 19t70 67t46 133t16.5 213q0 143 -16 237.5t-46.5 147.5t-74 74.5t-103.5 21.5q-52 0 -92.5 -20t-70 -68t-46 -133t-16.5 -213z" />
<glyph unicode="P" horiz-adv-x="1140" d="M129 0v1382q77 0 232 2t227 2q139 0 239 -30t162.5 -88t91.5 -139.5t29 -186.5q0 -115 -32 -207t-102.5 -158.5t-184.5 -102.5t-275 -36h-43v-438h-344zM473 688h64q109 0 161 57t52 168q0 115 -49.5 169.5t-163.5 54.5h-64v-449z" />
<glyph unicode="Q" horiz-adv-x="1316" d="M66 666q0 193 42 333t120.5 231t191 135t254.5 44q143 0 251.5 -38t181.5 -120t108.5 -213t35.5 -315q0 -168 -30.5 -294t-87 -214t-133 -141.5t-169.5 -75.5q45 -51 91.5 -69.5t93.5 -21.5q20 -1 41 -1q27 0 55 2q16 1 33 1q33 0 69 -5q52 -8 108 -37t118 -96l-107 -131 q-61 35 -125 41q-56 5 -112 5h-18h-65.5h-64.5q-63 1 -121.5 26.5t-110.5 86t-95 176.5h-7q-274 0 -410 162q-138 164 -138 529zM426 719q0 -147 16.5 -241.5t47 -148t75.5 -73.5t101 -20q49 0 90 18t71.5 66.5t47 132.5t16.5 217q0 145 -16.5 238t-47 146.5t-75.5 74 t-101 20.5q-49 0 -90 -18.5t-71.5 -66.5t-47 -132t-16.5 -213z" />
<glyph unicode="R" horiz-adv-x="1163" d="M129 0v1382q116 3 243.5 5t233.5 2q129 0 224 -30.5t156 -84.5t89.5 -127.5t28.5 -161.5q0 -75 -18 -134.5t-50 -105t-74 -78t-94 -55.5l287 -612h-389l-219 532h-74v-532h-344zM473 782h82q93 0 141.5 46.5t48.5 134.5q0 84 -45 131t-143 47h-84v-359z" />
<glyph unicode="S" horiz-adv-x="1015" d="M37 121l80 174q89 -34 164.5 -52t128.5 -18q90 0 139 36t49 104q0 53 -35.5 92t-103 75.5t-138.5 75.5t-128.5 88t-94.5 123t-37 176q0 93 34 169t96.5 130.5t148 82.5t186.5 28q102 0 200 -29.5t194 -93.5l-80 -174q-69 27 -132.5 39t-117.5 12q-83 0 -125.5 -33 t-42.5 -92q0 -54 37 -93.5t109 -79t144.5 -78t132 -87t98 -121.5t38.5 -172q0 -89 -31.5 -166t-95.5 -136t-160.5 -92.5t-220.5 -33.5q-122 0 -232 38.5t-204 107.5z" />
<glyph unicode="T" horiz-adv-x="956" d="M27 1120v262h901v-262h-281v-1120h-344v1120h-276z" />
<glyph unicode="U" horiz-adv-x="1335" d="M127 459v923h344v-888q0 -150 46 -210.5t151 -60.5q51 0 88.5 12.5t62.5 41t38 76.5t13 120v909h338v-888q0 -140 -41 -240t-116 -162t-177.5 -90.5t-228.5 -28.5q-262 0 -390 114t-128 372z" />
<glyph unicode="V" horiz-adv-x="1148" d="M12 1382h375q28 -220 83.5 -482t133.5 -558q67 242 117.5 506.5t83.5 533.5h334q-63 -381 -147 -718.5t-201 -663.5h-424q-118 343 -204.5 682.5t-150.5 699.5z" />
<glyph unicode="W" horiz-adv-x="1777" d="M20 1382h369q12 -94 28 -192.5t44.5 -263.5t45.5 -265.5t38 -228.5h2l37 213l164 737h342l170 -745l36 -205h4q23 139 42.5 262t36.5 238.5t32 227t29 222.5h317q-32 -185 -65.5 -361t-71 -346.5t-78 -337.5t-86.5 -337h-379l-153 645l-41 232h-2l-39 -230l-142 -647 h-374q-48 169 -89.5 336.5t-78.5 336t-70.5 343t-67.5 366.5z" />
<glyph unicode="X" horiz-adv-x="1132" d="M8 0q155 411 336 729q-45 83 -84 159.5t-75.5 154.5t-71.5 161.5t-72 177.5h367q40 -108 86 -216t88 -191q46 84 95.5 196t84.5 211h325q-68 -184 -143.5 -342t-163.5 -303q90 -159 177 -344.5t165 -392.5h-374q-50 127 -103 243.5t-104 215.5q-52 -99 -103.5 -216.5 t-95.5 -242.5h-334z" />
<glyph unicode="Y" horiz-adv-x="1011" d="M-14 1382h370q38 -138 80.5 -262.5t91.5 -238.5q47 105 86.5 230t75.5 271h336q-80 -255 -166 -457.5t-184 -361.5v-563h-344v563q-105 187 -190 385t-156 434z" />
<glyph unicode="Z" horiz-adv-x="1009" d="M53 0v233l477 881h-456l6 268h856v-231l-475 -881h497l-6 -270h-899z" />
<glyph unicode="[" horiz-adv-x="747" d="M175 -354v1867h456v-191h-180v-1485h180v-191h-456z" />
<glyph unicode="\" d="M8 1452h285l731 -1665h-285z" />
<glyph unicode="]" horiz-adv-x="747" d="M116 -163h180v1485h-180v191h455v-1867h-455v191z" />
<glyph unicode="^" d="M35 823l352 629h254l350 -631l-254 -86l-225 451l-229 -451z" />
<glyph unicode="_" d="M0 -135h1024v-236h-1024v236z" />
<glyph unicode="`" horiz-adv-x="638" d="M70 1376l227 117l270 -281l-164 -84z" />
<glyph unicode="a" horiz-adv-x="1064" d="M43 279q0 169 138 266.5t401 97.5h53v57q0 125 -168 125q-75 0 -159.5 -16.5t-166.5 -44.5l-41 197q111 47 221.5 72.5t225.5 25.5q200 0 305.5 -86t105.5 -242v-731h-251l-21 96q-68 -59 -142.5 -91t-166.5 -32q-163 0 -248.5 77.5t-85.5 228.5zM360 315 q0 -112 113 -112h2q37 0 80 19.5t80 49.5v177h-66q-111 0 -160 -35t-49 -99z" />
<glyph unicode="b" horiz-adv-x="1114" d="M109 23v1429h327v-487q52 42 113.5 68t128.5 26q96 0 168.5 -39t118.5 -108t68 -159.5t22 -193.5q0 -153 -39 -264.5t-112.5 -182.5t-176.5 -105t-235 -34q-93 0 -194 14t-189 36zM436 221q19 -7 44.5 -11.5t56.5 -4.5q85 0 134.5 77.5t49.5 237.5q0 145 -36.5 217 t-100.5 72q-30 0 -69.5 -17t-78.5 -49v-522z" />
<glyph unicode="c" horiz-adv-x="862" d="M59 504q0 120 30.5 221.5t89 176.5t141.5 116t188 41q198 0 317 -129l-112 -170q-38 30 -75.5 43.5t-78.5 13.5q-73 0 -116.5 -72t-43.5 -219q0 -166 38.5 -235.5t119.5 -69.5q93 0 191 72l96 -168q-66 -66 -156.5 -107t-204.5 -41q-424 0 -424 527z" />
<glyph unicode="d" horiz-adv-x="1114" d="M59 473q0 153 38 265t107.5 182.5t164.5 104.5t211 34q27 0 54.5 -1t41.5 -3v397h328v-1452h-267l-22 98q-66 -59 -136.5 -92t-146.5 -33q-95 0 -166 39t-117 108t-68 159.5t-22 193.5zM393 514q0 -147 36 -218t101 -71t146 66v522q-25 7 -49 11.5t-52 4.5 q-86 0 -134 -77.5t-48 -237.5z" />
<glyph unicode="e" horiz-adv-x="1064" d="M59 492q0 276 131.5 421.5t364.5 145.5q110 0 194.5 -31t143 -101.5t85.5 -190.5q19 -83 19 -191q0 -48 -4 -101h-600v-10q0 -108 51 -160.5t148 -52.5q69 0 163 15t189 43l43 -185q-106 -57 -223.5 -89t-235.5 -32q-110 0 -195 28t-146.5 89t-94.5 160.5t-33 241.5z M395 643h285v4q0 103 -34 150t-101 47q-68 0 -106.5 -53t-43.5 -148z" />
<glyph unicode="f" horiz-adv-x="634" d="M18 807v227h111v101q0 168 71.5 256t235.5 88q78 0 141.5 -18t120.5 -50l-41 -184q-65 18 -110 18q-49 0 -69.5 -24.5t-20.5 -77.5v-109h159v-227h-159v-807h-328v807h-111z" />
<glyph unicode="g" horiz-adv-x="1114" d="M59 492q0 144 39 252t112.5 177.5t175.5 103.5t230 34q90 0 195 -13.5t193 -33.5v-969q0 -122 -36.5 -204.5t-100.5 -130t-147 -67.5t-183 -20q-87 0 -182.5 23.5t-211.5 74.5l23 179q100 -16 183 -25.5t151 -9.5q94 0 135 30t41 107v102q-57 -43 -117 -68.5t-127 -25.5 q-93 0 -163.5 38t-117.5 105t-69.5 154t-22.5 187zM393 532q0 -142 36.5 -211t100.5 -69q32 0 71 18t75 47v494q-22 8 -47.5 13t-53.5 5q-84 0 -133 -75t-49 -222z" />
<glyph unicode="h" horiz-adv-x="1128" d="M109 0v1452h327v-494q54 46 122 73.5t144 27.5q167 0 245.5 -111t78.5 -362q0 -46 -4 -249.5t-4 -336.5h-328q0 124 4 309.5t4 225.5q0 85 -6.5 137.5t-20 79.5t-32.5 37t-49 10q-63 0 -154 -62v-737h-327z" />
<glyph unicode="i" horiz-adv-x="546" d="M80 1290q0 92 41.5 129t152.5 37q58 0 95.5 -8.5t57.5 -27.5t29 -50t9 -80q0 -92 -40.5 -129t-150.5 -37q-59 0 -96.5 9t-59 28t-30 49.5t-8.5 79.5zM109 0v1034h327v-1034h-327z" />
<glyph unicode="j" horiz-adv-x="546" d="M-20 -287q61 78 95 159t34 173v989h327v-934q0 -152 -56 -263t-181 -216zM80 1290q0 92 40 129t154 37q57 0 94.5 -8t59 -27.5t29.5 -51.5t8 -79q0 -90 -39 -128t-152 -38q-59 0 -96 8.5t-59.5 28t-30.5 51t-8 78.5z" />
<glyph unicode="k" horiz-adv-x="1046" d="M109 0v1452h327v-827h13l190 409h373l-267 -442l291 -592h-379l-208 489h-13v-489h-327z" />
<glyph unicode="l" horiz-adv-x="575" d="M109 193v1259h327v-1130q0 -41 3 -65t11 -35.5t19 -15t31 -3.5h43l12 -191q-45 -16 -99 -24t-124 -8q-114 0 -168.5 47t-54.5 166z" />
<glyph unicode="m" horiz-adv-x="1691" d="M109 0v1034h268l22 -102q62 59 138.5 93t160.5 34q92 0 157 -36.5t97 -102.5q75 69 153.5 104t166.5 35q166 0 242.5 -112t76.5 -359q0 -45 -4 -248.5t-4 -339.5h-328q0 76 1 151t2.5 142.5t2.5 136.5t1 102q0 86 -6 139t-18 80.5t-31 37.5t-48 10q-30 0 -69.5 -18 t-85.5 -50q4 -26 6 -58.5t2 -76.5v-596h-328v532q0 86 -5.5 139t-17.5 80.5t-30 37.5t-45 10q-30 0 -68 -16.5t-82 -45.5v-737h-327z" />
<glyph unicode="n" horiz-adv-x="1128" d="M109 0v1034h268l22 -102q65 61 141.5 94t164.5 33q168 0 244.5 -112t76.5 -361q0 -44 -4 -247t-4 -339h-328q0 126 4 311t4 224q0 85 -6.5 137t-19.5 79.5t-32.5 37.5t-49.5 10q-33 0 -71.5 -16t-82.5 -46v-737h-327z" />
<glyph unicode="o" horiz-adv-x="1124" d="M59 496q0 282 136.5 422.5t386.5 140.5q119 0 208.5 -29t150.5 -91t92.5 -162t31.5 -240q0 -281 -136 -422.5t-386 -141.5q-242 0 -363 123.5t-121 399.5zM395 541q0 -101 11.5 -166.5t33.5 -100t51.5 -48t71.5 -13.5q37 0 67 14t52.5 45.5t34.5 86.5t12 135 q0 100 -11.5 165t-33.5 100.5t-52 48.5t-71 13q-38 0 -68 -13.5t-52 -46t-34 -87t-12 -133.5z" />
<glyph unicode="p" horiz-adv-x="1114" d="M109 -354v1388h266l24 -100q62 59 133 92t146 33q96 0 168.5 -39t118.5 -108t68 -159t22 -192q0 -152 -38 -264t-107.5 -183.5t-165.5 -106t-214 -34.5q-25 0 -50.5 1.5t-43.5 5.5v-334h-327zM436 221q43 -16 101 -16q87 0 135.5 77.5t48.5 237.5q0 144 -37 216.5 t-100 72.5q-67 0 -148 -66v-522z" />
<glyph unicode="q" horiz-adv-x="1114" d="M59 473q0 153 38.5 264.5t112 182.5t176.5 105t237 34q89 0 193 -13.5t188 -33.5v-1366h-328v424q-48 -41 -111 -69t-131 -28q-96 0 -167.5 39t-117.5 108t-68 159.5t-22 193.5zM393 514q0 -145 36 -217t99 -72q33 0 71 17.5t77 48.5v522q-19 7 -44.5 11.5t-53.5 4.5 q-86 0 -135.5 -78t-49.5 -237z" />
<glyph unicode="r" horiz-adv-x="768" d="M109 0v1034h268l24 -149q72 96 126.5 134t113.5 38q29 0 57 -5.5t54 -19.5l-39 -280q-32 8 -55.5 11t-43.5 3q-40 0 -78 -29.5t-100 -107.5v-629h-327z" />
<glyph unicode="s" horiz-adv-x="870" d="M41 70l25 163q89 -16 149 -23t109 -7q85 0 122 24.5t37 65.5q0 31 -22 52t-50.5 33t-93 36t-107.5 46.5t-81 57.5t-61 88t-23 127q0 73 28.5 133.5t82 103.5t127.5 66t163 23q78 0 153 -20t163 -68l-31 -162q-71 16 -119.5 22.5t-93.5 6.5q-66 0 -98.5 -22.5t-32.5 -57.5 q0 -31 22.5 -52t51 -33.5t94.5 -36.5t110 -46.5t82 -57t61 -88t23 -127.5t-30 -136t-88 -108.5t-141.5 -72t-186.5 -25.5q-89 0 -171 23.5t-173 71.5z" />
<glyph unicode="t" horiz-adv-x="716" d="M18 807v227h123q20 69 38.5 141t37.5 162h240v-303h196v-227h-196v-483q0 -59 17.5 -82t55.5 -23q28 0 59 3t70 14l23 -187q-77 -40 -143.5 -57t-132.5 -17q-151 0 -214 60.5t-63 208.5v563h-111z" />
<glyph unicode="u" horiz-adv-x="1128" d="M100 449q0 44 4.5 246.5t4.5 338.5h329q0 -126 -4 -311t-4 -225q0 -85 6.5 -137.5t19.5 -79t32.5 -36t50.5 -9.5t69 16t82 45v737h328v-1034h-266l-23 100q-68 -60 -144 -93.5t-161 -33.5q-169 0 -246.5 113t-77.5 363z" />
<glyph unicode="v" horiz-adv-x="1015" d="M12 1034h355l127 -520l38 -225q57 223 88.5 399t41.5 346h337q-35 -273 -102.5 -526.5t-169.5 -507.5h-448z" />
<glyph unicode="w" horiz-adv-x="1595" d="M20 1034h351l100 -518l29 -170h2l24 166l99 522h385l120 -534l23 -152h2q41 195 68.5 358.5t31.5 327.5h316q-29 -274 -90.5 -525t-149.5 -509h-397l-117 524l-24 158h-5l-14 -156l-104 -526h-402z" />
<glyph unicode="x" horiz-adv-x="1003" d="M10 0l264 539l-233 495h365l116 -315q14 32 30.5 74.5t31.5 87.5t27.5 85.5t19.5 67.5h325l-235 -465l274 -569h-372l-144 356q-44 -113 -75 -198.5t-52 -157.5h-342z" />
<glyph unicode="y" horiz-adv-x="1011" d="M12 1034h350l136 -559q18 -66 27 -121q6 -39 6 -71q0 -14 -1 -27q55 200 89.5 401.5t37.5 376.5h336q-41 -367 -124.5 -636.5t-193 -438.5t-233 -248.5t-249.5 -79.5q-37 0 -84 13.5t-91 38.5v186q25 -4 58 -6t57 -2q85 0 127 33q45 36 45 83q0 26 -8.5 64t-28.5 98z" />
<glyph unicode="z" horiz-adv-x="819" d="M43 0v207l330 586h-316l11 241h677v-205l-329 -583h360l-8 -246h-725z" />
<glyph unicode="{" horiz-adv-x="794" d="M75 474v232h64q27 0 45 7t28.5 22t15 36.5t4.5 49.5v398q0 70 18 124.5t56 92.5t96 57.5t137 19.5h126v-190h-70q-24 0 -40 -5.5t-26.5 -19.5t-16 -35t-5.5 -50v-363q0 -46 -7 -85.5t-24.5 -72.5t-46.5 -59t-72 -43q43 -17 72 -43t46.5 -59t24.5 -73.5t7 -86.5v-382 q0 -32 4 -53.5t14.5 -34.5t27 -17.5t43.5 -4.5h69v-190h-130q-81 0 -138.5 20.5t-94.5 58.5t-53.5 93.5t-16.5 124.5v412q0 29 -4.5 51t-14.5 37t-28 23t-46 8h-64z" />
<glyph unicode="|" horiz-adv-x="522" d="M119 -354v1896h282v-1896h-282z" />
<glyph unicode="}" horiz-adv-x="794" d="M129 -164h70q23 0 39.5 5.5t26.5 19.5t16 34.5t6 50.5v384q0 46 7 85.5t24.5 72t46 58t71.5 44.5q-43 16 -71.5 42t-46 59.5t-24.5 73.5t-7 87v361q0 32 -4.5 53.5t-14.5 34.5t-27 17.5t-43 4.5h-69v190h130q81 0 138.5 -20t94 -58.5t53 -94t16.5 -123.5v-393 q0 -30 4.5 -51.5t15 -36.5t28.5 -22.5t45 -7.5h65v-232h-65q-27 0 -44.5 -7.5t-28.5 -22.5t-15.5 -36.5t-4.5 -49.5v-417q0 -71 -18 -125.5t-55.5 -92t-95.5 -57.5t-137 -20h-126v190z" />
<glyph unicode="~" d="M34 895v57q0 82 22 147.5t64 112t102.5 72t135.5 25.5q59 0 101.5 -16.5t72.5 -40.5t50.5 -52.5t36 -52.5t28.5 -40t30 -16q15 0 26 7t17.5 25.5t9 51t2.5 85.5h250v-61q0 -80 -22 -145.5t-64.5 -112t-103.5 -72t-138 -25.5q-59 0 -101.5 16.5t-72 40.5t-50 52.5 t-35.5 52.5t-28 40.5t-28 16.5q-14 0 -25 -6.5t-18 -24.5t-10.5 -51t-3.5 -86h-248z" />
<glyph unicode="&#xa1;" horiz-adv-x="724" d="M134 -213l51 983h294l53 -983h-398zM136 1022q0 46 9 78.5t31.5 51.5t60 28t95.5 9q56 0 94 -9t60 -28t30.5 -51.5t8.5 -78.5t-8.5 -77.5t-30.5 -51.5t-60 -28.5t-94 -8.5q-58 0 -96 8t-60 27.5t-31 52t-9 78.5z" />
<glyph unicode="&#xa2;" d="M87 680q0 98 27 179.5t76 144t116.5 104t148.5 61.5l23 223h194l23 -223q60 -12 111.5 -38t99.5 -70l-108 -166q-38 27 -80.5 43t-87.5 16q-35 0 -71.5 -11.5t-66 -40t-48 -75.5t-18.5 -115q0 -87 17.5 -141t45 -83.5t62 -40.5t67.5 -11q30 0 58.5 4.5t55 14.5t52.5 24.5 t53 34.5l93 -169q-25 -19 -51 -37t-54.5 -33t-61 -27t-67.5 -20l-24 -240h-194l-22 222q-85 11 -153.5 42t-116.5 87t-73.5 140t-25.5 201z" />
<glyph unicode="&#xa3;" d="M55 591v212h124q-6 18 -11 42t-9.5 50.5t-7.5 53.5t-3 55q0 103 29.5 178t85 124t136 72t183.5 23q47 0 95 -6t94 -18t87.5 -28t76.5 -36l-27 -174q-69 12 -123 17.5t-97 5.5q-61 0 -99 -9.5t-59.5 -29.5t-29.5 -50.5t-8 -73.5q0 -26 2.5 -50t6.5 -48t10 -49t12 -49h296 v-212h-268q4 -56 2 -102.5t-12.5 -87t-29.5 -75.5t-49 -68h499v-258h-886v211q43 46 71.5 90.5t45.5 89.5t22 94.5t1 105.5h-160z" />
<glyph unicode="&#xa4;" d="M39 129l128 141q-31 43 -47.5 105.5t-16.5 144.5q0 85 19 153t57 118l-140 155l209 120l120 -161q34 13 72.5 19.5t84.5 6.5q40 0 74 -5t65 -16l115 156l209 -120l-132 -146q33 -43 50 -103t17 -138q0 -86 -20 -152.5t-58 -117.5l143 -160l-212 -121l-117 163 q-37 -13 -77 -20.5t-87 -7.5q-39 0 -72 5.5t-62 14.5l-112 -155zM375 557q0 -76 9.5 -122.5t28 -72t43.5 -35t57 -9.5q29 0 53 10t41.5 32.5t27 61t9.5 95.5q0 76 -9 122.5t-27 72t-43 34.5t-56 9t-55 -9.5t-41.5 -32t-27.5 -60.5t-10 -96z" />
<glyph unicode="&#xa5;" d="M15 1382h356q17 -60 36.5 -116.5t39.5 -108.5t41.5 -100t45.5 -92q24 41 45 90t40 102.5t37 110.5t33 114h324q-37 -94 -77 -184t-82 -175t-87 -163.5t-94 -148.5v-24h251v-206h-251v-129h251v-206h-251v-146h-322v146h-251v206h251v129h-251v206h251v24 q-50 78 -95 158.5t-86.5 164t-80 170.5t-74.5 178z" />
<glyph unicode="&#xa6;" horiz-adv-x="522" d="M121 -354v769h280v-769h-280zM121 740v808h280v-808h-280z" />
<glyph unicode="&#xa7;" horiz-adv-x="1040" d="M47 709q0 85 23 170t64 161.5t96 143t119 115t133.5 76.5t138.5 28q67 0 131 -22t116 -59l-59 -180q-49 14 -97 21t-87 7q-34 0 -55.5 -6.5t-34.5 -19t-17.5 -30t-4.5 -39.5q0 -36 20.5 -68t55 -64.5t77.5 -66.5t88.5 -73.5t88.5 -86.5t76.5 -104.5t54.5 -127.5t21 -156 q0 -84 -23 -168t-63.5 -160.5t-95 -142.5t-119.5 -114.5t-136 -76t-143 -27.5q-38 0 -72.5 5.5t-66.5 16t-64 27t-64 39.5l63 177q55 -18 105 -26t91 -8q37 0 61 6.5t37 19.5t18 30.5t5 39.5q0 35 -20.5 67.5t-54 64.5t-76.5 66.5t-88.5 74.5t-89 86t-77.5 103t-54.5 126.5 t-20.5 154.5zM306 751q0 -54 17.5 -99t45.5 -83.5t63.5 -72t73.5 -65.5t72.5 -63.5t62.5 -66.5t44 -74t14 -86q8 15 15 32t11.5 35t7 37.5t2.5 41.5q0 54 -17.5 99.5t-46 85t-65.5 74t-74 66.5t-72.5 64t-62.5 65.5t-42.5 70t-11.5 78.5q-10 -14 -17 -30.5t-11 -34.5 t-6.5 -36.5t-2.5 -37.5z" />
<glyph unicode="&#xa8;" horiz-adv-x="860" d="M70 1292q0 79 34 112.5t117 33.5q85 0 118.5 -32.5t33.5 -113.5q0 -76 -34 -108.5t-118 -32.5q-83 0 -117 31.5t-34 109.5zM487 1292q0 79 34 112.5t118 33.5q83 0 116 -32.5t33 -113.5q0 -76 -33.5 -108.5t-115.5 -32.5q-84 0 -118 31t-34 110z" />
<glyph unicode="&#xa9;" horiz-adv-x="1591" d="M62 682q0 101 25.5 196t72 176t112.5 147.5t147 114t176 73.5t200 26q106 0 202 -25t177 -70t146 -109.5t111.5 -144t71.5 -172.5t25 -195q0 -103 -25 -196.5t-72 -175t-113 -148t-147 -114.5t-176.5 -74t-198.5 -26q-106 0 -201.5 24.5t-176.5 69.5t-146.5 109.5 t-112 144t-72 173.5t-25.5 196zM291 690q0 -116 39.5 -212.5t107 -167.5t159.5 -110.5t199 -39.5q104 0 196 40t160.5 111t107.5 167.5t39 211.5q0 116 -38.5 213.5t-106.5 168t-160.5 110t-197.5 39.5q-106 0 -198 -40t-160 -111t-107.5 -168.5t-39.5 -211.5zM429 681 q0 93 26 171t76.5 134.5t121 88.5t160.5 32q85 0 148.5 -25t113.5 -75l-97 -133q-25 18 -56.5 30t-67.5 12q-28 0 -52 -12.5t-41 -39t-27 -66.5t-10 -93q0 -67 8.5 -111t24.5 -71.5t38 -40t49 -12.5q48 0 88 14t77 39l82 -133q-25 -23 -56 -42.5t-68.5 -34.5t-82 -24 t-96.5 -9q-180 0 -269.5 98.5t-89.5 302.5z" />
<glyph unicode="&#xaa;" horiz-adv-x="940" d="M95 902q0 60 25 108t75 81t123.5 51t171.5 18h44v38q0 20 -7 34.5t-20.5 24t-34.5 13.5t-51 4q-49 0 -109.5 -9.5t-134.5 -31.5l-33 160q45 17 88 31t85.5 24t84.5 14.5t85 4.5q80 0 138 -15t96 -46.5t56 -79t18 -113.5v-519h-206l-16 70q-26 -20 -52.5 -36t-56 -27 t-59.5 -16.5t-63 -5.5q-51 0 -96 15t-79 43t-53 70t-19 95zM138 404v175h661v-175h-661zM344 925q0 -17 5.5 -30.5t15.5 -23t24 -14.5t33 -5q13 0 27 3.5t27.5 9.5t28 14t29.5 17v117h-52q-39 0 -65 -6.5t-42.5 -17.5t-23.5 -27.5t-7 -36.5z" />
<glyph unicode="&#xab;" horiz-adv-x="1046" d="M49 596l284 433l216 -73l-192 -360l192 -364l-217 -69zM484 596l260 405l210 -68l-164 -337l164 -339l-212 -67z" />
<glyph unicode="&#xac;" d="M69 501v229h864v-503h-261v274h-603z" />
<glyph unicode="&#xae;" horiz-adv-x="1161" d="M78 989q0 106 38.5 196t106 155.5t160 102.5t201.5 37q112 0 203.5 -36t157.5 -100.5t102 -153t36 -194.5t-38 -195.5t-106 -155t-160.5 -102.5t-200.5 -37q-112 0 -203.5 36t-157.5 100.5t-102.5 153t-36.5 193.5zM253 993q0 -71 22.5 -132.5t65 -107.5t103 -73 t137.5 -27q76 0 136.5 27t103 73t65 108t22.5 132t-22.5 132t-65 108t-103.5 72.5t-136 26.5q-77 0 -137.5 -26.5t-103 -72.5t-65 -108t-22.5 -132zM396 772v460q56 0 102.5 1.5t84.5 1.5q45 0 81 -9t62.5 -26t40 -44.5t13.5 -62.5q0 -43 -22.5 -77t-55.5 -52l90 -192h-166 l-60 169h-23v-169h-147zM543 1034h31q31 0 45 15.5t14 35.5q0 26 -13.5 39.5t-48.5 13.5h-28v-104z" />
<glyph unicode="&#xaf;" horiz-adv-x="737" d="M70 1184v223h596v-223h-596z" />
<glyph unicode="&#xb0;" horiz-adv-x="923" d="M112 1135q0 78 23.5 137t69 98t111.5 59t152 20q89 0 155 -17.5t109 -54t63.5 -94.5t20.5 -141q0 -79 -23 -138t-68 -98.5t-111 -59.5t-151 -20q-90 0 -156.5 17.5t-109.5 55t-64 96t-21 140.5zM350 1140q0 -35 6 -59.5t19.5 -40.5t35.5 -22.5t54 -6.5q30 0 51.5 6.5 t35 22.5t20.5 40t7 60q0 35 -7 59.5t-20 39t-34.5 21t-52.5 6.5t-52.5 -7.5t-36 -22t-20.5 -38.5t-6 -58z" />
<glyph unicode="&#xb1;" d="M77 0v217h868v-217h-868zM77 634v217h303v311h264v-311h301v-217h-301v-320h-264v320h-303z" />
<glyph unicode="&#xb2;" horiz-adv-x="757" d="M61 1431q44 16 80 27t75 21q38 9 80 14t87 5q63 0 117 -12t95 -39t64 -69t23 -99q0 -43 -13 -81t-44 -81q-32 -42 -88 -94q-56 -51 -142 -115h307v-198h-634v192q98 78 160 134t96 94q33 38 45 63t12 47q0 18 -6 32q-6 13 -19 21q-12 8 -29 11q-17 4 -40 4t-48 -4 q-26 -4 -51 -10t-48 -13q-24 -7 -42 -12z" />
<glyph unicode="&#xb3;" horiz-adv-x="747" d="M41 745l18 135q30 -5 54.5 -9t48.5 -6.5t50 -4t52 -1.5q39 0 66 6t43 15.5t23 24t7 32.5q0 20 -7 35t-24 25t-46 15t-72 5h-98v172h108q65 0 93 17.5t28 56.5q0 32 -21.5 46.5t-72.5 14.5q-17 0 -40.5 -2t-49 -6.5t-51.5 -10.5t-50 -14l-37 152q78 27 154.5 41t151.5 14 q79 0 136.5 -13.5t95 -40.5t55.5 -66.5t18 -90.5q0 -32 -8.5 -59.5t-23.5 -49.5t-37.5 -38t-51.5 -25q36 -8 62.5 -24t44 -37.5t26 -47.5t8.5 -57q0 -72 -27.5 -122.5t-76 -81t-112.5 -44.5t-140 -14t-151.5 14.5t-145.5 43.5z" />
<glyph unicode="&#xb4;" horiz-adv-x="638" d="M70 1212l272 281l225 -117l-331 -248z" />
<glyph unicode="&#xb5;" horiz-adv-x="1134" d="M110 -354v1387h325v-561q0 -72 4.5 -117.5t17 -72.5t33 -36.5t52.5 -9.5q16 0 34.5 4t37.5 12t39.5 19.5t40.5 25.5v736h328v-1033h-267l-23 101q-25 -24 -52.5 -44t-57 -35.5t-60 -24.5t-57.5 -9q-23 0 -43 9.5t-30 24.5v-16t0.5 -42.5t0.5 -60.5t0.5 -69.5t1 -69 t1 -60.5t0.5 -42v-16h-326z" />
<glyph unicode="&#xb6;" horiz-adv-x="1349" d="M73 959q0 97 29 175.5t86 133.5t140 84.5t190 29.5h671v-1597h-248v1400h-188v-1400h-248v764q-93 -6 -172.5 20t-137.5 79.5t-90 132.5t-32 178z" />
<glyph unicode="&#xb7;" horiz-adv-x="577" d="M109 612q0 56 7.5 91t27.5 55.5t55 29.5t94 9q55 0 89.5 -9t54 -29.5t27 -55t7.5 -89.5t-7.5 -88.5t-27 -53.5t-54.5 -29t-91 -9q-57 0 -92 9t-55 28t-27.5 53t-7.5 88z" />
<glyph unicode="&#xb8;" horiz-adv-x="520" d="M70 -313q75 65 94.5 114t1.5 113h276q18 -93 -27 -164.5t-155 -130.5z" />
<glyph unicode="&#xb9;" horiz-adv-x="714" d="M70 1375l237 105h213v-582h142v-188h-580v188h160v360l-138 -38z" />
<glyph unicode="&#xba;" horiz-adv-x="890" d="M67 1059q0 101 29 177.5t80.5 127t121.5 76.5t151 26q80 0 147 -22.5t115.5 -68.5t75.5 -117t27 -169q0 -101 -29 -177t-81 -128t-123 -78t-153 -26q-81 0 -147 21t-113.5 66t-74 117t-26.5 175zM117 404v175h661v-175h-661zM328 1095q0 -75 8.5 -120t24 -70t36.5 -33.5 t46 -8.5q23 0 43 8.5t34.5 29t23 56t8.5 92.5q0 75 -8 120.5t-23.5 71t-35.5 34t-44 8.5q-26 0 -46 -9t-35 -31t-23.5 -58.5t-8.5 -89.5z" />
<glyph unicode="&#xbb;" horiz-adv-x="1046" d="M91 259l165 337l-165 338l212 67l258 -405l-260 -406zM497 236l191 360l-191 363l217 70l282 -433l-283 -433z" />
<glyph unicode="&#xbc;" horiz-adv-x="1531" d="M70 1375l237 105h213v-582h142v-188h-580v188h160v360l-138 -38zM142 -90l1177 1591l164 -92l-1178 -1589zM807 -6v178q22 50 49 108q28 57 59 117q32 60 65 119t67 111h374v-445h78v-188h-78v-133h-268v133h-346zM1001 182h152v281q-18 -27 -39 -62t-42 -73 q-20 -38 -39 -76q-18 -37 -32 -70z" />
<glyph unicode="&#xbd;" horiz-adv-x="1634" d="M70 1375l237 105h213v-582h142v-188h-580v188h160v360l-138 -38zM142 -90l1177 1591l164 -92l-1178 -1589zM937 582q44 16 80 27t74 21q38 9 80 14t87 5q63 0 118 -12q54 -12 94 -39q41 -27 64 -69t24 -99q0 -43 -13 -81t-45 -81q-32 -42 -87 -93q-56 -51 -142 -116h307 v-198h-635v192q98 78 161 134q62 56 95 95q33 38 45 63t12 46q0 18 -6 32q-6 13 -18 21t-29 11q-17 4 -41 4q-23 0 -48 -4q-26 -4 -50 -10q-25 -6 -49 -13t-41 -12z" />
<glyph unicode="&#xbe;" horiz-adv-x="1515" d="M41 745l18 135q30 -5 54.5 -9t48.5 -6.5t50 -4t52 -1.5q39 0 66 6t43 15.5t23 24t7 32.5q0 20 -7 35t-24 25t-46 15t-72 5h-98v172h108q65 0 93 17.5t28 56.5q0 32 -21.5 46.5t-72.5 14.5q-17 0 -40.5 -2t-49 -6.5t-51.5 -10.5t-50 -14l-37 152q78 27 154.5 41t151.5 14 q79 0 136.5 -13.5t95 -40.5t55.5 -66.5t18 -90.5q0 -32 -8.5 -59.5t-23.5 -49.5t-37.5 -38t-51.5 -25q36 -8 62.5 -24t44 -37.5t26 -47.5t8.5 -57q0 -72 -27.5 -122.5t-76 -81t-112.5 -44.5t-140 -14t-151.5 14.5t-145.5 43.5zM124 -90l1177 1591l164 -92l-1178 -1589z M788 -6v178q22 50 50 108q28 57 59 117q32 60 65 119t66 111h375v-445h78v-188h-78v-133h-268v133h-347zM983 182h152v281q-18 -27 -40 -62q-21 -35 -41 -73t-39 -76q-18 -37 -32 -70z" />
<glyph unicode="&#xbf;" d="M89 118q0 77 21.5 131t54 95t70.5 74t72 67t57.5 75.5t26.5 99.5l5 110h290l7 -99q6 -84 -8 -141t-40.5 -97.5t-58.5 -70t-60 -59t-47 -63.5t-19 -82q0 -27 8.5 -50.5t26.5 -41.5t47.5 -28.5t70.5 -10.5q27 0 54 3t55.5 9t56 15t54.5 21l94 -198q-47 -28 -98 -49 t-103.5 -35.5t-107 -22t-109.5 -7.5q-104 0 -183 24t-132 69t-79 111t-26 151zM347 1022q0 46 9.5 78.5t31.5 51.5t59 28t96 9q56 0 93.5 -9t60 -28t31.5 -51.5t9 -78.5t-9.5 -77.5t-32 -51.5t-60.5 -28.5t-95 -8.5t-94.5 8t-59 27.5t-30.5 52t-9 78.5z" />
<glyph unicode="&#xc0;" horiz-adv-x="1228" d="M10 0q75 345 167.5 689.5t203.5 692.5h461q109 -328 198.5 -662t178.5 -720h-371q-10 60 -25 133.5t-26 120.5h-412q-11 -55 -24 -123t-23 -131h-328zM257 1575l145 188l387 -166l-100 -137zM438 508h305q-41 163 -80 309t-77 270q-17 -65 -37 -139t-40 -150.5 t-37.5 -151t-33.5 -138.5z" />
<glyph unicode="&#xc1;" horiz-adv-x="1228" d="M10 0q75 345 167.5 689.5t203.5 692.5h461q109 -328 198.5 -662t178.5 -720h-371q-10 60 -25 133.5t-26 120.5h-412q-11 -55 -24 -123t-23 -131h-328zM427 1597l387 166l145 -188l-432 -115zM438 508h305q-41 163 -80 309t-77 270q-17 -65 -37 -139t-40 -150.5 t-37.5 -151t-33.5 -138.5z" />
<glyph unicode="&#xc2;" horiz-adv-x="1228" d="M10 0q75 345 167.5 689.5t203.5 692.5h461q109 -328 198.5 -662t178.5 -720h-371q-10 60 -25 133.5t-26 120.5h-412q-11 -55 -24 -123t-23 -131h-328zM286 1587l325 176l322 -170l-82 -133l-244 96l-241 -96zM438 508h305q-41 163 -80 309t-77 270q-17 -65 -37 -139 t-40 -150.5t-37.5 -151t-33.5 -138.5z" />
<glyph unicode="&#xc3;" horiz-adv-x="1228" d="M10 0q75 345 167.5 689.5t203.5 692.5h461q109 -328 198.5 -662t178.5 -720h-371q-10 60 -25 133.5t-26 120.5h-412q-11 -55 -24 -123t-23 -131h-328zM235 1559q48 96 113 146t155 50q46 0 81 -12t60.5 -30t50 -34t43.5 -16q27 0 47.5 18.5t57.5 71.5l129 -88 q-46 -96 -111.5 -146.5t-156.5 -50.5q-46 0 -80.5 12.5t-60 29.5l-49.5 33t-44 16q-28 0 -49.5 -18.5t-54.5 -70.5zM438 508h305q-41 163 -80 309t-77 270q-17 -65 -37 -139t-40 -150.5t-37.5 -151t-33.5 -138.5z" />
<glyph unicode="&#xc4;" horiz-adv-x="1228" d="M10 0q75 345 167.5 689.5t203.5 692.5h461q109 -328 198.5 -662t178.5 -720h-371q-10 60 -25 133.5t-26 120.5h-412q-11 -55 -24 -123t-23 -131h-328zM246 1606q0 73 34.5 104t116.5 31q83 0 116.5 -30t33.5 -105q0 -72 -34 -102.5t-116 -30.5q-84 0 -117.5 29t-33.5 104 zM438 508h305q-41 163 -80 309t-77 270q-17 -65 -37 -139t-40 -150.5t-37.5 -151t-33.5 -138.5zM676 1606q0 73 33.5 104t117.5 31q82 0 116 -30t34 -105q0 -71 -34.5 -102t-115.5 -31q-85 0 -118 29t-33 104z" />
<glyph unicode="&#xc5;" horiz-adv-x="1228" d="M10 0q75 345 167.5 689.5t203.5 692.5h461q109 -328 198.5 -662t178.5 -720h-371q-10 60 -25 133.5t-26 120.5h-412q-11 -55 -24 -123t-23 -131h-328zM349 1585q0 83 70.5 130.5t193.5 47.5q130 0 191 -43t61 -129q0 -84 -70.5 -132t-191.5 -48q-130 0 -192 43.5 t-62 130.5zM438 508h305q-41 163 -80 309t-77 270q-17 -65 -37 -139t-40 -150.5t-37.5 -151t-33.5 -138.5zM533 1587q0 -68 76 -67q73 -1 73 67t-73 68q-76 0 -76 -68z" />
<glyph unicode="&#xc6;" horiz-adv-x="1533" d="M-54 0q63 182 128 359t133 349t139 339.5t146 334.5h950v-260h-410v-289h342v-249h-342v-321h418v-263h-762v255h-328q-9 -26 -19 -57t-21 -64.5t-21.5 -67t-18.5 -66.5h-334zM442 508h246v619h-2q-36 -83 -69 -164.5t-64.5 -160.5t-59 -154t-51.5 -140z" />
<glyph unicode="&#xc7;" horiz-adv-x="1052" d="M66 664q0 361 145 553t403 192q130 0 233 -56.5t163 -168.5l-154 -154q-39 50 -87 77.5t-105 27.5q-59 0 -104.5 -31t-75 -87t-44 -135t-14.5 -175q0 -128 16 -216.5t46.5 -141t75 -76t104.5 -23.5q62 0 117.5 29t109.5 90l139 -179q-70 -103 -183.5 -160t-242.5 -57 q-275 0 -408.5 170.5t-133.5 520.5zM365 -313q75 65 94.5 114t1.5 113h276q18 -93 -27 -164.5t-155 -130.5z" />
<glyph unicode="&#xc8;" horiz-adv-x="974" d="M129 0v1382h754v-260h-410v-291h342v-247h-342v-322h418v-262h-762zM140 1575l145 188l387 -166l-100 -137z" />
<glyph unicode="&#xc9;" horiz-adv-x="974" d="M129 0v1382h754v-260h-410v-291h342v-247h-342v-322h418v-262h-762zM342 1597l387 166l145 -188l-432 -115z" />
<glyph unicode="&#xca;" horiz-adv-x="974" d="M129 0v1382h754v-260h-410v-291h342v-247h-342v-322h418v-262h-762zM182 1587l325 176l322 -170l-82 -133l-244 96l-241 -96z" />
<glyph unicode="&#xcb;" horiz-adv-x="974" d="M129 0v1382h754v-260h-410v-291h342v-247h-342v-322h418v-262h-762zM140 1606q0 73 34.5 104t116.5 31q83 0 116.5 -30t33.5 -105q0 -72 -34 -102.5t-116 -30.5q-84 0 -117.5 29t-33.5 104zM570 1606q0 73 33.5 104t117.5 31q82 0 116 -30t34 -105q0 -71 -34.5 -102 t-115.5 -31q-85 0 -118 29t-33 104z" />
<glyph unicode="&#xcc;" horiz-adv-x="602" d="M-58 1575l145 188l387 -166l-100 -137zM129 0v1382h344v-1382h-344z" />
<glyph unicode="&#xcd;" horiz-adv-x="602" d="M109 1597l387 166l145 -188l-432 -115zM129 0v1382h344v-1382h-344z" />
<glyph unicode="&#xce;" horiz-adv-x="602" d="M-23 1587l325 176l322 -170l-82 -133l-244 96l-241 -96zM129 0v1382h344v-1382h-344z" />
<glyph unicode="&#xcf;" horiz-adv-x="602" d="M-63 1606q0 73 34.5 104t116.5 31q83 0 116.5 -30t33.5 -105q0 -72 -34 -102.5t-116 -30.5q-84 0 -117.5 29t-33.5 104zM129 0v1382h344v-1382h-344zM367 1606q0 73 33.5 104t117.5 31q82 0 116 -30t34 -105q0 -71 -34.5 -102t-115.5 -31q-85 0 -118 29t-33 104z" />
<glyph unicode="&#xd0;" horiz-adv-x="1259" d="M52 584v249h98v549q121 0 227 2t209 2q112 0 200 -22t156 -62t116 -98.5t78.5 -131.5t44.5 -159t14 -181q0 -177 -40 -314.5t-122 -232t-209.5 -144t-301.5 -49.5q-45 0 -91 1t-93 2.5t-94 2.5l-94 2v584h-98zM494 256q19 -3 37.5 -3h34.5q71 0 121.5 29.5t83 87.5 t48 140t15.5 186q0 78 -7.5 141t-22 111t-37.5 83.5t-52 57.5t-66 33t-79 11h-19h-19t-19 -0.5t-19 -2.5v-297h168v-249h-168v-328z" />
<glyph unicode="&#xd1;" horiz-adv-x="1331" d="M129 0v1382h413l282 -592q23 -49 43 -97t34 -87q18 -45 32 -86h4q-5 52 -8 110q-4 49 -6 110t-2 121v521h280v-1382h-374l-323 682q-24 49 -43.5 96.5t-32.5 85.5q-17 44 -31 84h-3q5 -52 8 -108q3 -48 6 -108.5t3 -121.5v-610h-282zM316 1559q48 96 113 146t155 50 q46 0 81 -12t60.5 -30t50 -34t43.5 -16q27 0 47.5 18.5t57.5 71.5l129 -88q-46 -96 -111.5 -146.5t-156.5 -50.5q-46 0 -80.5 12.5t-60 29.5l-49.5 33t-44 16q-28 0 -49.5 -18.5t-54.5 -70.5z" />
<glyph unicode="&#xd2;" horiz-adv-x="1316" d="M66 664q0 190 41 331t120 233t190.5 136.5t254.5 44.5q147 0 255 -38.5t180.5 -121t108 -214t35.5 -316.5q0 -190 -41.5 -331t-120 -233.5t-190.5 -137t-254 -44.5q-147 0 -255 38.5t-180.5 121t-108 214t-35.5 317.5zM238 1575l145 188l387 -166l-100 -137zM426 715 q0 -143 16 -237t46.5 -146.5t74 -74t103.5 -21.5q52 0 92.5 19t70 67t46 133t16.5 213q0 143 -16 237.5t-46.5 147.5t-74 74.5t-103.5 21.5q-52 0 -92.5 -20t-70 -68t-46 -133t-16.5 -213z" />
<glyph unicode="&#xd3;" horiz-adv-x="1316" d="M66 664q0 190 41 331t120 233t190.5 136.5t254.5 44.5q147 0 255 -38.5t180.5 -121t108 -214t35.5 -316.5q0 -190 -41.5 -331t-120 -233.5t-190.5 -137t-254 -44.5q-147 0 -255 38.5t-180.5 121t-108 214t-35.5 317.5zM426 715q0 -143 16 -237t46.5 -146.5t74 -74 t103.5 -21.5q52 0 92.5 19t70 67t46 133t16.5 213q0 143 -16 237.5t-46.5 147.5t-74 74.5t-103.5 21.5q-52 0 -92.5 -20t-70 -68t-46 -133t-16.5 -213zM503 1597l387 166l145 -188l-432 -115z" />
<glyph unicode="&#xd4;" horiz-adv-x="1316" d="M66 664q0 190 41 331t120 233t190.5 136.5t254.5 44.5q147 0 255 -38.5t180.5 -121t108 -214t35.5 -316.5q0 -190 -41.5 -331t-120 -233.5t-190.5 -137t-254 -44.5q-147 0 -255 38.5t-180.5 121t-108 214t-35.5 317.5zM335 1587l325 176l322 -170l-82 -133l-244 96 l-241 -96zM426 715q0 -143 16 -237t46.5 -146.5t74 -74t103.5 -21.5q52 0 92.5 19t70 67t46 133t16.5 213q0 143 -16 237.5t-46.5 147.5t-74 74.5t-103.5 21.5q-52 0 -92.5 -20t-70 -68t-46 -133t-16.5 -213z" />
<glyph unicode="&#xd5;" horiz-adv-x="1316" d="M66 664q0 190 41 331t120 233t190.5 136.5t254.5 44.5q147 0 255 -38.5t180.5 -121t108 -214t35.5 -316.5q0 -190 -41.5 -331t-120 -233.5t-190.5 -137t-254 -44.5q-147 0 -255 38.5t-180.5 121t-108 214t-35.5 317.5zM290 1559q48 96 113 146t155 50q46 0 81 -12 t60.5 -30t50 -34t43.5 -16q27 0 47.5 18.5t57.5 71.5l129 -88q-46 -96 -111.5 -146.5t-156.5 -50.5q-46 0 -80.5 12.5t-60 29.5l-49.5 33t-44 16q-28 0 -49.5 -18.5t-54.5 -70.5zM426 715q0 -143 16 -237t46.5 -146.5t74 -74t103.5 -21.5q52 0 92.5 19t70 67t46 133 t16.5 213q0 143 -16 237.5t-46.5 147.5t-74 74.5t-103.5 21.5q-52 0 -92.5 -20t-70 -68t-46 -133t-16.5 -213z" />
<glyph unicode="&#xd6;" horiz-adv-x="1316" d="M66 664q0 190 41 331t120 233t190.5 136.5t254.5 44.5q147 0 255 -38.5t180.5 -121t108 -214t35.5 -316.5q0 -190 -41.5 -331t-120 -233.5t-190.5 -137t-254 -44.5q-147 0 -255 38.5t-180.5 121t-108 214t-35.5 317.5zM291 1606q0 73 34.5 104t116.5 31q83 0 116.5 -30 t33.5 -105q0 -72 -34 -102.5t-116 -30.5q-84 0 -117.5 29t-33.5 104zM426 715q0 -143 16 -237t46.5 -146.5t74 -74t103.5 -21.5q52 0 92.5 19t70 67t46 133t16.5 213q0 143 -16 237.5t-46.5 147.5t-74 74.5t-103.5 21.5q-52 0 -92.5 -20t-70 -68t-46 -133t-16.5 -213z M721 1606q0 73 33.5 104t117.5 31q82 0 116 -30t34 -105q0 -71 -34.5 -102t-115.5 -31q-85 0 -118 29t-33 104z" />
<glyph unicode="&#xd7;" d="M87 360l255 255l-254 253l172 173l254 -254l254 254l172 -172l-254 -254l254 -254l-172 -173l-254 255l-255 -255z" />
<glyph unicode="&#xd8;" horiz-adv-x="1316" d="M66 664q0 128 18.5 233t55 188t89 144t119.5 101t149 59.5t175 19.5q81 0 150 -13.5t127 -39.5l120 198l170 -91l-131 -213q71 -82 107 -212.5t36 -318.5q0 -129 -19 -234t-54.5 -188t-88.5 -144t-120 -101t-149 -59.5t-175 -19.5q-79 0 -149 12.5t-128 41.5l-120 -199 l-170 91l129 215q-69 80 -105 210.5t-36 319.5zM403 717q0 -72 4.5 -135.5t8.5 -106.5l388 643q-32 26 -70 37t-84 11q-54 0 -99 -18.5t-78 -68.5t-51.5 -137.5t-18.5 -224.5zM514 266q30 -27 68.5 -38t85.5 -11q35 0 67.5 8t59 27.5t48.5 52.5t38 82.5t24 118t8 160.5 q0 78 -3.5 138.5t-7.5 106.5z" />
<glyph unicode="&#xd9;" horiz-adv-x="1335" d="M127 459v923h344v-888q0 -150 46 -210.5t151 -60.5q51 0 88.5 12.5t62.5 41t38 76.5t13 120v909h338v-888q0 -140 -41 -240t-116 -162t-177.5 -90.5t-228.5 -28.5q-262 0 -390 114t-128 372zM256 1575l145 188l387 -166l-100 -137z" />
<glyph unicode="&#xda;" horiz-adv-x="1335" d="M127 459v923h344v-888q0 -150 46 -210.5t151 -60.5q51 0 88.5 12.5t62.5 41t38 76.5t13 120v909h338v-888q0 -140 -41 -240t-116 -162t-177.5 -90.5t-228.5 -28.5q-262 0 -390 114t-128 372zM543 1597l387 166l145 -188l-432 -115z" />
<glyph unicode="&#xdb;" horiz-adv-x="1335" d="M127 459v923h344v-888q0 -150 46 -210.5t151 -60.5q51 0 88.5 12.5t62.5 41t38 76.5t13 120v909h338v-888q0 -140 -41 -240t-116 -162t-177.5 -90.5t-228.5 -28.5q-262 0 -390 114t-128 372zM344 1587l325 176l322 -170l-82 -133l-244 96l-241 -96z" />
<glyph unicode="&#xdc;" horiz-adv-x="1335" d="M127 459v923h344v-888q0 -150 46 -210.5t151 -60.5q51 0 88.5 12.5t62.5 41t38 76.5t13 120v909h338v-888q0 -140 -41 -240t-116 -162t-177.5 -90.5t-228.5 -28.5q-262 0 -390 114t-128 372zM302 1606q0 73 34.5 104t116.5 31q83 0 116.5 -30t33.5 -105q0 -72 -34 -102.5 t-116 -30.5q-84 0 -117.5 29t-33.5 104zM732 1606q0 73 33.5 104t117.5 31q82 0 116 -30t34 -105q0 -71 -34.5 -102t-115.5 -31q-85 0 -118 29t-33 104z" />
<glyph unicode="&#xdd;" horiz-adv-x="1011" d="M-14 1382h370q38 -138 80.5 -262.5t91.5 -238.5q47 105 86.5 230t75.5 271h336q-80 -255 -166 -457.5t-184 -361.5v-563h-344v563q-105 187 -190 385t-156 434zM384 1597l387 166l145 -188l-432 -115z" />
<glyph unicode="&#xde;" horiz-adv-x="1140" d="M129 0v1382h344v-204q17 1 35 1.5t35.5 0.5h44.5q139 0 239 -30.5t162.5 -88t91.5 -139.5t29 -187q0 -114 -32 -205.5t-103 -158.5t-185.5 -103.5t-275.5 -36.5h-41v-231h-344zM473 479h64q109 0 161 57.5t52 170.5q0 114 -50.5 168.5t-162.5 54.5h-64v-451z" />
<glyph unicode="&#xdf;" horiz-adv-x="1183" d="M109 0v1010q0 225 129 347t358 122q113 0 196.5 -23t137 -65.5t79 -100.5t25.5 -129q0 -95 -24.5 -150.5t-58 -86.5t-66.5 -65.5t-33 -76.5q0 -31 19.5 -57t53.5 -53t77.5 -62t75.5 -73t52.5 -90.5t20.5 -120.5q0 -72 -21 -134.5t-64.5 -109.5t-109.5 -73.5t-153 -26.5 q-153 0 -277 75l23 160q46 -7 86 -11.5t74 -4.5q56 0 83 26t27 66q0 36 -19.5 64t-57 57t-76 58t-70 64t-52 85t-20.5 116q0 50 14 89t35 67.5t57.5 64.5t52 53.5t29 45t13.5 61.5q0 61 -33.5 94t-99.5 33q-85 0 -120.5 -53t-35.5 -172v-1020h-327z" />
<glyph unicode="&#xe0;" horiz-adv-x="1064" d="M43 279q0 169 138 266.5t401 97.5h53v57q0 125 -168 125q-75 0 -159.5 -16.5t-166.5 -44.5l-41 197q111 47 221.5 72.5t225.5 25.5q200 0 305.5 -86t105.5 -242v-731h-251l-21 96q-68 -59 -142.5 -91t-166.5 -32q-163 0 -248.5 77.5t-85.5 228.5zM182 1376l227 117 l270 -281l-164 -84zM360 315q0 -113 115 -112q37 0 80 19.5t80 49.5v177h-66q-111 0 -160 -35t-49 -99z" />
<glyph unicode="&#xe1;" horiz-adv-x="1064" d="M43 279q0 169 138 266.5t401 97.5h53v57q0 125 -168 125q-75 0 -159.5 -16.5t-166.5 -44.5l-41 197q111 47 221.5 72.5t225.5 25.5q200 0 305.5 -86t105.5 -242v-731h-251l-21 96q-68 -59 -142.5 -91t-166.5 -32q-163 0 -248.5 77.5t-85.5 228.5zM360 315 q0 -113 115 -112q37 0 80 19.5t80 49.5v177h-66q-111 0 -160 -35t-49 -99zM372 1212l272 281l225 -117l-331 -248z" />
<glyph unicode="&#xe2;" horiz-adv-x="1064" d="M43 279q0 169 138 266.5t401 97.5h53v57q0 125 -168 125q-75 0 -159.5 -16.5t-166.5 -44.5l-41 197q111 47 221.5 72.5t225.5 25.5q200 0 305.5 -86t105.5 -242v-731h-251l-21 96q-68 -59 -142.5 -91t-166.5 -32q-163 0 -248.5 77.5t-85.5 228.5zM223 1255l317 252 l305 -247l-96 -130l-215 134l-217 -134zM360 315q0 -113 115 -112q37 0 80 19.5t80 49.5v177h-66q-111 0 -160 -35t-49 -99z" />
<glyph unicode="&#xe3;" horiz-adv-x="1064" d="M43 279q0 169 138 266.5t401 97.5h53v57q0 125 -168 125q-75 0 -159.5 -16.5t-166.5 -44.5l-41 197q111 47 221.5 72.5t225.5 25.5q200 0 305.5 -86t105.5 -242v-731h-251l-21 96q-68 -59 -142.5 -91t-166.5 -32q-163 0 -248.5 77.5t-85.5 228.5zM164 1243 q47 98 109 148.5t149 50.5q45 0 78 -12.5t57 -30t48.5 -33.5t43.5 -16q26 0 46 19t54 73l123 -90q-45 -97 -107 -148t-149 -51q-45 0 -78 12.5t-58.5 30t-49 33.5t-41.5 16q-26 0 -46 -19t-54 -73zM360 315q0 -113 115 -112q37 0 80 19.5t80 49.5v177h-66q-111 0 -160 -35 t-49 -99z" />
<glyph unicode="&#xe4;" horiz-adv-x="1064" d="M43 279q0 169 138 266.5t401 97.5h53v57q0 125 -168 125q-75 0 -159.5 -16.5t-166.5 -44.5l-41 197q111 47 221.5 72.5t225.5 25.5q200 0 305.5 -86t105.5 -242v-731h-251l-21 96q-68 -59 -142.5 -91t-166.5 -32q-163 0 -248.5 77.5t-85.5 228.5zM175 1292q0 79 34 112.5 t117 33.5q85 0 118.5 -32.5t33.5 -113.5q0 -76 -34 -108.5t-118 -32.5q-83 0 -117 31.5t-34 109.5zM360 315q0 -113 115 -112q37 0 80 19.5t80 49.5v177h-66q-111 0 -160 -35t-49 -99zM592 1292q0 79 34 112.5t118 33.5q83 0 116 -32.5t33 -113.5q0 -76 -33.5 -108.5 t-115.5 -32.5q-84 0 -118 31t-34 110z" />
<glyph unicode="&#xe5;" horiz-adv-x="1064" d="M43 279q0 169 138 266.5t401 97.5h53v57q0 125 -168 125q-75 0 -159.5 -16.5t-166.5 -44.5l-41 197q111 47 221.5 72.5t225.5 25.5q200 0 305.5 -86t105.5 -242v-731h-251l-21 96q-68 -59 -142.5 -91t-166.5 -32q-163 0 -248.5 77.5t-85.5 228.5zM258 1325 q0 104 74 164.5t202 60.5q137 0 202.5 -54.5t65.5 -162.5q0 -105 -74 -165t-202 -60q-138 0 -203 54.5t-65 162.5zM360 315q0 -113 115 -112q37 0 80 19.5t80 49.5v177h-66q-111 0 -160 -35t-49 -99zM452 1329q0 -82 78 -82t78 82t-78 82t-78 -82z" />
<glyph unicode="&#xe6;" horiz-adv-x="1624" d="M43 279q0 82 34 149.5t101 115t168 73.5t237 26h51v58q0 31 -10.5 54.5t-31 39.5t-51.5 23.5t-73 7.5q-40 0 -81.5 -5t-83.5 -13t-83 -19.5t-79 -24.5l-40 195q51 23 105 41.5t110 31t113 19.5t116 7q49 0 92.5 -7.5t79.5 -20.5t64.5 -31.5t48.5 -41.5q29 25 59.5 44 t65 32t75 20t87.5 7q69 0 130.5 -13t112.5 -42t90.5 -76t65 -115.5t35.5 -160t2 -209.5h-601v-10q0 -55 13.5 -94.5t39 -65.5t62.5 -39t84 -13q34 0 75.5 3.5t87 10.5t93.5 17.5t97 25.5l43 -186q-104 -54 -221 -87t-237 -33q-61 0 -115.5 9.5t-100.5 29t-82.5 50 t-63.5 74.5q-32 -35 -69 -64.5t-81.5 -51t-94 -34.5t-105.5 -13q-165 0 -249.5 77t-84.5 229zM361 314q0 -27 7.5 -47t22.5 -34.5t35.5 -21.5t47.5 -7q47 0 89 25.5t71 64.5v74.5v78.5h-65q-57 0 -97 -9t-64.5 -26.5t-35.5 -42t-11 -55.5zM954 643h285v3q0 53 -8.5 91 t-25.5 61.5t-42.5 35t-58.5 11.5q-35 0 -61 -14t-45 -39.5t-30.5 -63.5t-13.5 -85z" />
<glyph unicode="&#xe7;" horiz-adv-x="862" d="M59 504q0 120 30.5 221.5t89 176.5t141.5 116t188 41q198 0 317 -129l-112 -170q-38 30 -75.5 43.5t-78.5 13.5q-73 0 -116.5 -72t-43.5 -219q0 -166 38.5 -235.5t119.5 -69.5q93 0 191 72l96 -168q-66 -66 -156.5 -107t-204.5 -41q-424 0 -424 527zM239 -313 q75 65 94.5 114t1.5 113h276q18 -93 -27 -164.5t-155 -130.5z" />
<glyph unicode="&#xe8;" horiz-adv-x="1064" d="M59 492q0 276 131.5 421.5t364.5 145.5q110 0 194.5 -31t143 -101.5t85.5 -190t15 -292.5h-600v-10q0 -108 51 -160.5t148 -52.5q69 0 163 15t189 43l43 -185q-106 -57 -223.5 -89t-235.5 -32q-110 0 -195 28t-146.5 89t-94.5 160.5t-33 241.5zM198 1376l227 117 l270 -281l-164 -84zM395 643h285v4q0 103 -34 150t-101 47q-68 0 -106.5 -53t-43.5 -148z" />
<glyph unicode="&#xe9;" horiz-adv-x="1064" d="M59 492q0 276 131.5 421.5t364.5 145.5q110 0 194.5 -31t143 -101.5t85.5 -190t15 -292.5h-600v-10q0 -108 51 -160.5t148 -52.5q69 0 163 15t189 43l43 -185q-106 -57 -223.5 -89t-235.5 -32q-110 0 -195 28t-146.5 89t-94.5 160.5t-33 241.5zM381 1212l272 281 l225 -117l-331 -248zM395 643h285v4q0 103 -34 150t-101 47q-68 0 -106.5 -53t-43.5 -148z" />
<glyph unicode="&#xea;" horiz-adv-x="1064" d="M59 492q0 276 131.5 421.5t364.5 145.5q110 0 194.5 -31t143 -101.5t85.5 -190t15 -292.5h-600v-10q0 -108 51 -160.5t148 -52.5q69 0 163 15t189 43l43 -185q-106 -57 -223.5 -89t-235.5 -32q-110 0 -195 28t-146.5 89t-94.5 160.5t-33 241.5zM236 1255l317 252 l305 -247l-96 -130l-215 134l-217 -134zM395 643h285v4q0 103 -34 150t-101 47q-68 0 -106.5 -53t-43.5 -148z" />
<glyph unicode="&#xeb;" horiz-adv-x="1064" d="M59 492q0 276 131.5 421.5t364.5 145.5q110 0 194.5 -31t143 -101.5t85.5 -190t15 -292.5h-600v-10q0 -108 51 -160.5t148 -52.5q69 0 163 15t189 43l43 -185q-106 -57 -223.5 -89t-235.5 -32q-110 0 -195 28t-146.5 89t-94.5 160.5t-33 241.5zM188 1292q0 79 34 112.5 t117 33.5q85 0 118.5 -32.5t33.5 -113.5q0 -76 -34 -108.5t-118 -32.5q-83 0 -117 31.5t-34 109.5zM395 643h285v4q0 103 -34 150t-101 47q-68 0 -106.5 -53t-43.5 -148zM605 1292q0 79 34 112.5t118 33.5q83 0 116 -32.5t33 -113.5q0 -76 -33.5 -108.5t-115.5 -32.5 q-84 0 -118 31t-34 110z" />
<glyph unicode="&#xec;" horiz-adv-x="546" d="M-29 1376l227 117l270 -281l-164 -84zM110 0v1033h327v-1033h-327z" />
<glyph unicode="&#xed;" horiz-adv-x="546" d="M98 1212l272 281l225 -117l-331 -248zM110 0v1033h327v-1033h-327z" />
<glyph unicode="&#xee;" horiz-adv-x="546" d="M-39 1255l317 252l305 -247l-96 -130l-215 134l-217 -134zM110 0v1033h327v-1033h-327z" />
<glyph unicode="&#xef;" horiz-adv-x="546" d="M-56 1292q0 78 32 112t115 34q41 0 69 -8t45 -24.5t24 -44.5t7 -69q0 -38 -7 -64.5t-24 -43.5t-45 -25t-69 -8q-42 0 -70 7t-45 24t-24.5 44t-7.5 66zM110 0v1033h327v-1033h-327zM312 1292q0 78 32.5 112t115.5 34q41 0 69.5 -8t45.5 -24.5t24.5 -44.5t7.5 -69 q0 -38 -7.5 -64.5t-24.5 -43.5t-45.5 -25t-69.5 -8q-42 0 -70.5 7t-45 24t-24.5 44t-8 66z" />
<glyph unicode="&#xf0;" horiz-adv-x="1110" d="M48 468q0 127 32 232.5t95 181.5t155.5 118.5t213.5 42.5q9 0 19.5 -1t20.5 -2t18 -2.5t13 -2.5q-8 13 -17.5 28.5t-21 32t-24 33t-26.5 31.5l-179 -55l-124 147l176 54q-41 40 -82.5 76t-89.5 70h397q12 -8 25.5 -18t26 -21t25 -22.5t22.5 -21.5l163 49l124 -147 l-160 -49q42 -55 79 -121t64.5 -139.5t43.5 -155.5t16 -170q0 -122 -17.5 -217.5t-50 -169t-80 -124.5t-107 -84.5t-130.5 -49t-151 -15.5q-117 0 -204.5 33.5t-146 96t-88.5 153.5t-30 209zM401 518q0 -77 10.5 -132t29 -90.5t46.5 -52.5t65 -17q33 0 59.5 11t45.5 45.5 t29 101t10 175.5q0 78 -8 143t-20 109q-8 3 -18.5 5t-22 3l-23 2t-22.5 1q-46 0 -80 -20t-56.5 -58t-33.5 -95t-11 -131z" />
<glyph unicode="&#xf1;" horiz-adv-x="1128" d="M109 0v1034h268l22 -102q65 61 141.5 94t164.5 33q168 0 244.5 -112t76.5 -361q0 -44 -4 -247t-4 -339h-328q0 126 4 311t4 224q0 85 -6.5 137t-19.5 79.5t-32.5 37.5t-49.5 10q-33 0 -71.5 -16t-82.5 -46v-737h-327zM216 1243q47 98 109 148.5t149 50.5q45 0 78 -12.5 t57 -30t48.5 -33.5t43.5 -16q26 0 46 19t54 73l123 -90q-45 -97 -107 -148t-149 -51q-45 0 -78 12.5t-58.5 30t-49 33.5t-41.5 16q-26 0 -46 -19t-54 -73z" />
<glyph unicode="&#xf2;" horiz-adv-x="1124" d="M59 496q0 282 136.5 422.5t386.5 140.5q119 0 208.5 -29t150.5 -91t92.5 -162t31.5 -240q0 -281 -136 -422.5t-386 -141.5q-242 0 -363 123.5t-121 399.5zM215 1376l227 117l270 -281l-164 -84zM395 541q0 -101 11.5 -166.5t33.5 -100t51.5 -48t71.5 -13.5q37 0 67 14 t52.5 45.5t34.5 86.5t12 135q0 100 -11.5 165t-33.5 100.5t-52 48.5t-71 13q-38 0 -68 -13.5t-52 -46t-34 -87t-12 -133.5z" />
<glyph unicode="&#xf3;" horiz-adv-x="1124" d="M59 496q0 282 136.5 422.5t386.5 140.5q119 0 208.5 -29t150.5 -91t92.5 -162t31.5 -240q0 -281 -136 -422.5t-386 -141.5q-242 0 -363 123.5t-121 399.5zM387 1212l272 281l225 -117l-331 -248zM395 541q0 -101 11.5 -166.5t33.5 -100t51.5 -48t71.5 -13.5q37 0 67 14 t52.5 45.5t34.5 86.5t12 135q0 100 -11.5 165t-33.5 100.5t-52 48.5t-71 13q-38 0 -68 -13.5t-52 -46t-34 -87t-12 -133.5z" />
<glyph unicode="&#xf4;" horiz-adv-x="1124" d="M59 496q0 282 136.5 422.5t386.5 140.5q119 0 208.5 -29t150.5 -91t92.5 -162t31.5 -240q0 -281 -136 -422.5t-386 -141.5q-242 0 -363 123.5t-121 399.5zM255 1255l317 252l305 -247l-96 -130l-215 134l-217 -134zM395 541q0 -101 11.5 -166.5t33.5 -100t51.5 -48 t71.5 -13.5q37 0 67 14t52.5 45.5t34.5 86.5t12 135q0 100 -11.5 165t-33.5 100.5t-52 48.5t-71 13q-38 0 -68 -13.5t-52 -46t-34 -87t-12 -133.5z" />
<glyph unicode="&#xf5;" horiz-adv-x="1124" d="M59 496q0 282 136.5 422.5t386.5 140.5q119 0 208.5 -29t150.5 -91t92.5 -162t31.5 -240q0 -281 -136 -422.5t-386 -141.5q-242 0 -363 123.5t-121 399.5zM210 1243q47 98 109 148.5t149 50.5q45 0 78 -12.5t57 -30t48.5 -33.5t43.5 -16q26 0 46 19t54 73l123 -90 q-45 -97 -107 -148t-149 -51q-45 0 -78 12.5t-58.5 30t-49 33.5t-41.5 16q-26 0 -46 -19t-54 -73zM395 541q0 -101 11.5 -166.5t33.5 -100t51.5 -48t71.5 -13.5q37 0 67 14t52.5 45.5t34.5 86.5t12 135q0 100 -11.5 165t-33.5 100.5t-52 48.5t-71 13q-38 0 -68 -13.5 t-52 -46t-34 -87t-12 -133.5z" />
<glyph unicode="&#xf6;" horiz-adv-x="1124" d="M59 496q0 282 136.5 422.5t386.5 140.5q119 0 208.5 -29t150.5 -91t92.5 -162t31.5 -240q0 -281 -136 -422.5t-386 -141.5q-242 0 -363 123.5t-121 399.5zM208 1292q0 79 34 112.5t117 33.5q85 0 118.5 -32.5t33.5 -113.5q0 -76 -34 -108.5t-118 -32.5q-83 0 -117 31.5 t-34 109.5zM395 541q0 -101 11.5 -166.5t33.5 -100t51.5 -48t71.5 -13.5q37 0 67 14t52.5 45.5t34.5 86.5t12 135q0 100 -11.5 165t-33.5 100.5t-52 48.5t-71 13q-38 0 -68 -13.5t-52 -46t-34 -87t-12 -133.5zM625 1292q0 79 34 112.5t118 33.5q83 0 116 -32.5t33 -113.5 q0 -76 -33.5 -108.5t-115.5 -32.5q-84 0 -118 31t-34 110z" />
<glyph unicode="&#xf7;" d="M70 501v229h883v-229h-883zM343 219q0 47 6.5 78.5t25.5 50t52.5 26t86.5 7.5q50 0 83 -7.5t51.5 -26t25 -49.5t6.5 -78q0 -46 -6.5 -76t-25.5 -48.5t-51.5 -26.5t-83.5 -8q-53 0 -86 8t-52 26.5t-25.5 48t-6.5 75.5zM343 1009q0 47 6.5 77.5t25.5 49t52 26t86 7.5 q51 0 83.5 -7.5t51.5 -26t25.5 -49.5t6.5 -78q0 -46 -6.5 -76t-25 -48.5t-51.5 -26t-83 -7.5q-53 0 -86.5 7.5t-52.5 26t-25.5 49t-6.5 76.5z" />
<glyph unicode="&#xf8;" horiz-adv-x="1124" d="M59 497q0 94 16 173.5t47 141.5t76 109t102.5 77.5t128 46t152.5 15.5q55 0 105 -6.5t87 -21.5l108 170l170 -89l-110 -173q62 -63 93 -163.5t31 -238.5q0 -96 -16.5 -175t-46.5 -141.5t-75.5 -109t-103.5 -77.5t-128 -46.5t-151 -15.5q-53 0 -102 7.5t-92 20.5 l-106 -170l-170 91l107 173q-59 61 -90.5 158t-31.5 244zM369 543q0 -50 1 -88.5t3 -72.5l271 441q-15 8 -36.5 12.5t-46.5 4.5q-41 0 -76 -14t-61 -48.5t-40.5 -91.5t-14.5 -143zM480 210q13 -8 37 -12t46 -4q40 0 75.5 13.5t61.5 47.5t41 91t15 146q0 51 -1.5 88.5 t-2.5 70.5z" />
<glyph unicode="&#xf9;" horiz-adv-x="1128" d="M100 449q0 44 4.5 246.5t4.5 338.5h329q0 -126 -4 -311t-4 -225q0 -85 6.5 -137.5t19.5 -79t32.5 -36t50.5 -9.5t69 16t82 45v737h328v-1034h-266l-23 100q-68 -60 -144 -93.5t-161 -33.5q-169 0 -246.5 113t-77.5 363zM236 1376l227 117l270 -281l-164 -84z" />
<glyph unicode="&#xfa;" horiz-adv-x="1128" d="M100 449q0 44 4.5 246.5t4.5 338.5h329q0 -126 -4 -311t-4 -225q0 -85 6.5 -137.5t19.5 -79t32.5 -36t50.5 -9.5t69 16t82 45v737h328v-1034h-266l-23 100q-68 -60 -144 -93.5t-161 -33.5q-169 0 -246.5 113t-77.5 363zM394 1212l272 281l225 -117l-331 -248z" />
<glyph unicode="&#xfb;" horiz-adv-x="1128" d="M100 449q0 44 4.5 246.5t4.5 338.5h329q0 -126 -4 -311t-4 -225q0 -85 6.5 -137.5t19.5 -79t32.5 -36t50.5 -9.5t69 16t82 45v737h328v-1034h-266l-23 100q-68 -60 -144 -93.5t-161 -33.5q-169 0 -246.5 113t-77.5 363zM254 1255l317 252l305 -247l-96 -130l-215 134 l-217 -134z" />
<glyph unicode="&#xfc;" horiz-adv-x="1128" d="M100 449q0 44 4.5 246.5t4.5 338.5h329q0 -126 -4 -311t-4 -225q0 -85 6.5 -137.5t19.5 -79t32.5 -36t50.5 -9.5t69 16t82 45v737h328v-1034h-266l-23 100q-68 -60 -144 -93.5t-161 -33.5q-169 0 -246.5 113t-77.5 363zM204 1292q0 79 34 112.5t117 33.5 q85 0 118.5 -32.5t33.5 -113.5q0 -76 -34 -108.5t-118 -32.5q-83 0 -117 31.5t-34 109.5zM621 1292q0 79 34 112.5t118 33.5q83 0 116 -32.5t33 -113.5q0 -76 -33.5 -108.5t-115.5 -32.5q-84 0 -118 31t-34 110z" />
<glyph unicode="&#xfd;" horiz-adv-x="1011" d="M12 1034h350l136 -559q18 -66 27 -121.5t5 -97.5q55 200 89.5 401.5t37.5 376.5h336q-41 -367 -124.5 -636.5t-193 -438.5t-233 -248.5t-249.5 -79.5q-37 0 -84 13.5t-91 38.5v186q25 -4 58 -6t57 -2q85 0 127 33q45 36 45 83q0 26 -8.5 64t-28.5 98zM365 1212l272 281 l225 -117l-331 -248z" />
<glyph unicode="&#xfe;" horiz-adv-x="1114" d="M110 -354v1806h327v-488q23 19 50 36t57.5 30.5t64.5 21.5t70 8q98 0 169.5 -41t117 -109.5t67.5 -159t22 -190.5q0 -156 -39 -267t-108 -181.5t-165.5 -104.5t-211.5 -34q-12 0 -25.5 0.5t-26 1.5t-24 1.5t-18.5 3.5v-334h-327zM437 221q8 -4 19 -7t24 -5t26.5 -3 t29.5 -1q42 0 75.5 18.5t57.5 56.5t38 97t14 142q0 75 -10 129.5t-27.5 90t-43.5 53t-56 17.5q-31 0 -69 -18t-78 -55v-515z" />
<glyph unicode="&#xff;" horiz-adv-x="1011" d="M12 1034h350l136 -559q18 -66 27 -121.5t5 -97.5q55 200 89.5 401.5t37.5 376.5h336q-41 -367 -124.5 -636.5t-193 -438.5t-233 -248.5t-249.5 -79.5q-37 0 -84 13.5t-91 38.5v186q25 -4 58 -6t57 -2q85 0 127 33q45 36 45 83q0 26 -8.5 64t-28.5 98zM152 1292 q0 79 34 112.5t117 33.5q85 0 118.5 -32.5t33.5 -113.5q0 -76 -34 -108.5t-118 -32.5q-83 0 -117 31.5t-34 109.5zM569 1292q0 79 34 112.5t118 33.5q83 0 116 -32.5t33 -113.5q0 -76 -33.5 -108.5t-115.5 -32.5q-84 0 -118 31t-34 110z" />
<glyph unicode="&#x152;" horiz-adv-x="1617" d="M66 667q0 127 18.5 232t55 187.5t89 143t120 100.5t149.5 59.5t176 19.5q60 0 116 -6.5t106 -20.5h631v-260h-411v-289h343v-249h-343v-321h419v-263h-679q-48 -13 -101.5 -20t-109.5 -7q-142 0 -250 36t-181.5 118t-110.5 214t-37 326zM427 720q0 -147 16 -241.5 t46.5 -148.5t75 -74t101.5 -20q31 0 58 5t48 18v857q-25 18 -55 25t-66 7q-49 0 -90 -18t-70.5 -66t-46.5 -131.5t-17 -212.5z" />
<glyph unicode="&#x153;" horiz-adv-x="1726" d="M59 498q0 95 16 174t47 141.5t75.5 109t101.5 76.5t126.5 45.5t149.5 15.5q52 0 100 -6.5t90.5 -21.5t79.5 -39.5t66 -60.5q25 29 56.5 52.5t70 40t83.5 26t96 9.5q70 0 131.5 -13t113 -42t91 -76t65.5 -115.5t36 -160t2 -209.5h-601v-10q0 -55 13 -94.5t39 -65.5t62 -39 t84 -13q34 0 75.5 3.5t87 10.5t94 17.5t97.5 25.5l43 -186q-104 -54 -221 -87t-238 -33q-50 0 -94 7t-83.5 21t-74.5 38t-65 58q-29 -34 -65 -57t-78 -37.5t-89.5 -22t-97.5 -7.5q-116 0 -206 28.5t-152 90.5t-94.5 162t-32.5 244zM394 543q0 -104 12 -169t34.5 -100.5 t53.5 -48.5t71 -13q35 0 65 13.5t52.5 45.5t34.5 86t12 135q0 103 -12 167.5t-33.5 100.5t-52.5 48.5t-68 12.5t-68 -12.5t-53 -44.5t-35 -86t-13 -135zM1057 643h284v3q0 53 -8.5 91t-25.5 61.5t-42.5 35t-58.5 11.5q-35 0 -61 -14t-45 -39.5t-30 -63.5t-13 -85z" />
<glyph unicode="&#x178;" horiz-adv-x="1011" d="M-14 1382h370q38 -138 80.5 -262.5t91.5 -238.5q47 105 86.5 230t75.5 271h336q-80 -255 -166 -457.5t-184 -361.5v-563h-344v563q-105 187 -190 385t-156 434zM154 1606q0 73 34.5 104t116.5 31q83 0 116.5 -30t33.5 -105q0 -72 -34 -102.5t-116 -30.5q-84 0 -117.5 29 t-33.5 104zM584 1606q0 73 33.5 104t117.5 31q82 0 116 -30t34 -105q0 -71 -34.5 -102t-115.5 -31q-85 0 -118 29t-33 104z" />
<glyph unicode="&#x2c6;" horiz-adv-x="761" d="M70 1255l317 252l305 -247l-96 -130l-215 134l-217 -134z" />
<glyph unicode="&#x2dc;" horiz-adv-x="849" d="M70 1243q47 98 109 148.5t149 50.5q45 0 78 -12.5t57 -30t48.5 -33.5t43.5 -16q26 0 46 19t54 73l123 -90q-45 -97 -107 -148t-149 -51q-45 0 -78 12.5t-58.5 30t-49 33.5t-41.5 16q-26 0 -46 -19t-54 -73z" />
<glyph unicode="&#x2000;" horiz-adv-x="881" />
<glyph unicode="&#x2001;" horiz-adv-x="1763" />
<glyph unicode="&#x2002;" horiz-adv-x="881" />
<glyph unicode="&#x2003;" horiz-adv-x="1763" />
<glyph unicode="&#x2004;" horiz-adv-x="587" />
<glyph unicode="&#x2005;" horiz-adv-x="440" />
<glyph unicode="&#x2006;" horiz-adv-x="293" />
<glyph unicode="&#x2007;" horiz-adv-x="293" />
<glyph unicode="&#x2008;" horiz-adv-x="220" />
<glyph unicode="&#x2009;" horiz-adv-x="352" />
<glyph unicode="&#x200a;" horiz-adv-x="97" />
<glyph unicode="&#x2010;" horiz-adv-x="489" d="M45 461v239h442v-239h-442z" />
<glyph unicode="&#x2011;" horiz-adv-x="489" d="M45 461v239h442v-239h-442z" />
<glyph unicode="&#x2012;" horiz-adv-x="489" d="M45 461v239h442v-239h-442z" />
<glyph unicode="&#x2013;" d="M90 500v231h844v-231h-844z" />
<glyph unicode="&#x2014;" horiz-adv-x="2048" d="M238 500v231h1572v-231h-1572z" />
<glyph unicode="&#x2018;" horiz-adv-x="589" d="M106 1161q0 143 73 263t229 227l124 -117q-79 -68 -111 -113.5t-32 -81.5q0 -19 6 -27.5t28.5 -33.5t33 -50t10.5 -67q0 -56 -8 -92t-28 -57.5t-56.5 -31t-95.5 -9.5q-54 0 -88 10t-52.5 32t-25.5 57.5t-7 90.5z" />
<glyph unicode="&#x2019;" horiz-adv-x="595" d="M61 1022q79 68 111.5 113.5t32.5 81.5q0 19 -6 27.5t-27.5 33.5t-32 50t-10.5 67q0 56 7.5 92t27.5 57.5t56 31t95 9.5q55 0 89 -10t52.5 -32t25.5 -57.5t7 -90.5q0 -144 -73 -263.5t-230 -226.5z" />
<glyph unicode="&#x201a;" horiz-adv-x="614" d="M57 -231q79 68 111.5 113t32.5 81q0 19 -6.5 28t-28 33.5t-31.5 49.5t-10 67q0 56 7.5 92t28 57.5t56.5 31.5t94 10q55 0 89.5 -10.5t53 -32.5t25 -57.5t6.5 -90.5q0 -144 -72 -263.5t-229 -225.5z" />
<glyph unicode="&#x201c;" horiz-adv-x="995" d="M106 1163q0 138 69.5 254t225.5 228l115 -111q-84 -73 -116.5 -119.5t-32.5 -81.5q0 -19 5.5 -27.5t26 -32.5t30 -48t9.5 -64q0 -54 -7 -88t-26 -55t-53 -30t-88 -9q-50 0 -80.5 10t-47.5 31.5t-23.5 55.5t-6.5 87zM545 1163q0 137 67 252.5t211 216.5l117 -110 q-74 -63 -104.5 -108.5t-30.5 -80.5q0 -19 5.5 -27.5t26 -32.5t30.5 -48t10 -64q0 -54 -7.5 -88t-26.5 -55t-52.5 -30t-88.5 -9q-50 0 -80.5 10t-47.5 31.5t-23 55.5t-6 87z" />
<glyph unicode="&#x201d;" horiz-adv-x="1001" d="M61 1034q74 62 105 107t31 80q0 19 -6 27t-26.5 32.5t-30 48.5t-9.5 64q0 54 7 87.5t26 54.5t53 30.5t88 9.5q50 0 81 -10.5t47.5 -32t23 -55t6.5 -86.5q0 -137 -67 -252.5t-212 -216.5zM483 1020q85 72 117.5 118.5t32.5 82.5q0 19 -5.5 27t-25.5 32.5t-29.5 48.5 t-9.5 64q0 54 7.5 87.5t26 54.5t52.5 30.5t88 9.5q50 0 81 -10.5t48 -32t23 -55t6 -86.5q0 -138 -69 -254t-226 -228z" />
<glyph unicode="&#x201e;" horiz-adv-x="1019" d="M57 -219q74 62 105 106.5t31 79.5q0 19 -6 27.5t-26.5 32.5t-30 48t-9.5 64q0 54 7 88t26 55t53 30.5t88 9.5q50 0 81 -10.5t47.5 -32t23 -55.5t6.5 -87q0 -137 -67.5 -252t-211.5 -217zM481 -233q84 73 117 119t33 81q0 19 -5.5 27.5t-26 32.5t-30.5 48t-10 64 q0 54 7 88t26 55t53 30.5t88 9.5q50 0 81 -10.5t48 -32t23 -55.5t6 -87q0 -138 -69 -253.5t-226 -227.5z" />
<glyph unicode="&#x2022;" d="M104 618q0 83 31.5 157.5t88.5 131.5t131 88t157 31t157 -31t131 -88t88.5 -131.5t31.5 -157.5t-31.5 -157t-88.5 -131t-131 -88t-157 -31t-157 31t-131 88t-88.5 131.5t-31.5 156.5z" />
<glyph unicode="&#x202f;" horiz-adv-x="352" />
<glyph unicode="&#x2039;" horiz-adv-x="634" d="M51 596l284 433l222 -73l-191 -360l191 -364l-223 -69z" />
<glyph unicode="&#x203a;" horiz-adv-x="634" d="M78 236l191 360l-191 363l223 70l282 -433l-284 -433z" />
<glyph unicode="&#x205f;" horiz-adv-x="440" />
<glyph unicode="&#x20ac;" d="M2 429v204h100q-1 15 -1 28v27t0.5 32t1.5 37h-101v204h123q22 108 67.5 191.5t109 140.5t144.5 86.5t175 29.5q53 0 104 -12t97 -36t85 -61t70 -89l-133 -145q-33 44 -77.5 68.5t-103.5 24.5q-42 0 -75 -15t-57.5 -41.5t-41.5 -62.5t-26 -79h255v-204h-282 q-2 -14 -2.5 -26.5t-0.5 -27.5q0 -17 0.5 -34t2.5 -36h282v-204h-255q8 -49 25.5 -86.5t43 -63t59 -38.5t73.5 -13q31 0 59.5 6t54 18t48.5 29t42 38l126 -162q-34 -41 -74.5 -75t-89 -58t-103.5 -37.5t-118 -13.5q-105 0 -189 29t-145.5 86t-100.5 142t-54 199h-118z" />
<glyph unicode="&#x2122;" horiz-adv-x="872" d="M38 1275v107h264v-107h-62v-238h-136v238h-66zM322 1037q1 89 5 173t11 172h180l53 -186l52 186h169q9 -89 13 -172.5t6 -172.5h-126q0 23 -0.5 47t-0.5 46.5t-0.5 43.5t-1.5 39l-54 -176h-129l-56 175q0 -18 -0.5 -38.5t-0.5 -43v-46.5t-1 -47h-119z" />
<glyph unicode="&#x25fc;" horiz-adv-x="1034" d="M0 0v1034h1034v-1034h-1034z" />
</font>
</defs>
</svg>
