<?xml version="1.0" standalone="no"?>
<!DOCTYPE svg PUBLIC "-//W3C//DTD SVG 1.1//EN" "http://www.w3.org/Graphics/SVG/1.1/DTD/svg11.dtd" >
<svg xmlns="http://www.w3.org/2000/svg" xmlns:xlink="http://www.w3.org/1999/xlink" version="1.1">
<metadata></metadata>
<defs>
<font id="sunantwerpenbold_italic" horiz-adv-x="1024" >
<font-face units-per-em="2048" ascent="1638" descent="-410" />
<missing-glyph horiz-adv-x="491" />
<glyph unicode="&#x2e;&#x2e;&#x2e;" horiz-adv-x="1591" d="M76 68q0 22 4 47.5t10.5 50t15.5 44.5t19 31q19 19 49 26.5t76 7.5q37 0 62 -4.5t41 -14.5t23 -27t7 -42q0 -23 -3.5 -48t-10.5 -49.5t-16 -45t-19 -30.5q-18 -19 -48 -26.5t-77 -7.5q-37 0 -61.5 4.5t-41 14.5t-23.5 27t-7 42zM555 68q0 22 4 47.5t11 50t15.5 44.5 t18.5 31q19 19 49 26.5t76 7.5q37 0 62 -4.5t41 -14.5t23 -27t7 -42q0 -23 -3.5 -48t-10 -49.5t-16 -45t-19.5 -30.5q-18 -19 -48.5 -26.5t-76.5 -7.5q-37 0 -62 4.5t-41 14.5t-23 27t-7 42zM1034 68q0 22 4 47.5t11 50t15.5 44.5t18.5 31q19 19 49 26.5t76 7.5 q37 0 62 -4.5t41 -14.5t23 -27t7 -42q0 -23 -3.5 -48t-10 -49.5t-15.5 -45t-20 -30.5q-18 -19 -48.5 -26.5t-76.5 -7.5q-37 0 -62 4.5t-40.5 14.5t-23 27t-7.5 42z" />
<glyph unicode="&#xfb01;" horiz-adv-x="1142" d="M-271 -309l57 150q31 -11 59.5 -17.5t56.5 -6.5q60 0 93 30t47 103l173 892h-131l36 184h131l28 138q14 75 40 133t67 97.5t98 60t134 20.5q65 0 114 -13.5t87 -33.5l-58 -160l-28 8q-13 3 -28 5.5t-32 2.5q-56 0 -88 -30t-45 -103l-25 -125h591l-200 -1026h-263l163 842 h-328l-173 -893q-14 -75 -40.5 -134.5t-67.5 -101.5t-99.5 -64.5t-136.5 -22.5q-39 0 -72 6t-62 14.5t-53.5 20t-44.5 24.5zM862 1244q0 14 3 36.5t9.5 44.5t14.5 40.5t18 29.5q10 10 22.5 17t29 11.5t37.5 7.5t50 3q38 0 65 -5t44 -14.5t25.5 -26t8.5 -39.5q0 -15 -3 -37 t-9.5 -44t-15 -41.5t-17.5 -28.5q-10 -10 -22.5 -18t-29 -12.5t-37.5 -6.5t-49 -2q-39 0 -67 4.5t-44.5 14.5t-24.5 26.5t-8 39.5z" />
<glyph unicode="&#xfb02;" horiz-adv-x="1171" d="M-271 -309l57 150q31 -11 59.5 -17.5t56.5 -6.5q60 0 93 30t47 103l173 892h-131l36 184h132l16 87q18 92 51.5 160t86.5 113t127.5 67t177.5 22q59 0 118 -6.5t104 -16.5h253l-223 -1148q-7 -34 -10.5 -56t-3.5 -36q0 -15 3 -24.5t10.5 -14.5t17 -7t24.5 -2q14 0 28 0.5 t22 1.5l-18 -156q-19 -6 -40 -11t-43.5 -8.5t-48.5 -5.5t-56 -2q-43 0 -75.5 7.5t-55 25t-33 46.5t-10.5 73q0 22 3 51t11 66l199 1016q-36 9 -74 13t-73 4q-43 0 -77 -8t-60 -27.5t-43.5 -52t-27.5 -80.5l-17 -91h161l-35 -184h-163l-173 -893q-14 -75 -40.5 -134.5 t-67.5 -101.5t-99.5 -64.5t-136.5 -22.5q-39 0 -72 6t-62 14.5t-53.5 20t-44.5 24.5z" />
<glyph unicode="&#xfb03;" horiz-adv-x="1732" d="M-271 -309l57 150q31 -11 59.5 -17.5t56.5 -6.5q60 0 93 30t47 103l173 892h-130l36 184h131l19 111q14 74 41 133t68 101t98.5 64.5t133.5 22.5q69 0 126 -15.5t100 -38.5l-59 -156q-24 8 -52.5 14t-53.5 6q-58 0 -91 -31t-47 -102l-21 -109h328l27 138q13 75 40 133 t67.5 97.5t98 60t134.5 20.5q63 0 113 -13.5t88 -33.5l-58 -160l-28 8q-13 3 -28 5.5t-32 2.5q-56 0 -88 -30t-47 -103l-23 -125h591l-200 -1026h-263l163 842h-328l-170 -876q-14 -75 -40 -134t-67.5 -101t-98.5 -64.5t-134 -22.5q-70 0 -126.5 15t-98.5 39l58 155 q24 -7 52.5 -13t53.5 -6q59 0 91.5 30.5t46.5 102.5l170 875h-328l-173 -893q-14 -75 -40.5 -134.5t-67.5 -101.5t-99.5 -64.5t-136.5 -22.5q-39 0 -72 6t-62 14.5t-53.5 20t-44.5 24.5zM1452 1244q0 14 3.5 36.5t9.5 44.5t14.5 40.5t18.5 29.5q10 10 22.5 17t29 11.5 t37.5 7.5t48 3q39 0 66.5 -5t44.5 -14.5t25.5 -26t8.5 -39.5q0 -15 -3 -37t-9.5 -44t-15 -41.5t-18.5 -28.5q-9 -10 -22 -18t-29 -12.5t-37.5 -6.5t-49.5 -2q-39 0 -66.5 4.5t-44.5 14.5t-25 26.5t-8 39.5z" />
<glyph unicode="&#xfb04;" horiz-adv-x="1763" d="M-271 -309l57 150q31 -11 59.5 -17.5t56.5 -6.5q60 0 93 30t47 103l173 892h-130l36 184h131l19 111q14 74 41 133t68 101t98.5 64.5t133.5 22.5q69 0 126 -15.5t100 -38.5l-59 -156q-24 8 -52.5 14t-53.5 6q-58 0 -91 -31t-47 -102l-21 -109h329l16 88q17 92 51 160 t88 112.5t128.5 66.5t175.5 22q59 0 118 -6.5t104 -16.5h253l-225 -1148q-6 -34 -9 -56t-3 -36q0 -15 3 -24.5t10 -14.5t17 -7t23 -2q14 0 28.5 0.5t23.5 1.5l-18 -156q-19 -6 -40 -11t-44 -8.5t-49 -5.5t-55 -2q-43 0 -75.5 7.5t-55 25t-33 46.5t-10.5 73q0 22 3 51t11 66 l197 1012q-35 10 -72.5 15t-72.5 5q-43 0 -77 -8t-60 -27.5t-43.5 -51.5t-27.5 -80l-17 -91h162l-37 -184h-162l-170 -876q-14 -75 -40 -134t-67.5 -101t-98.5 -64.5t-134 -22.5q-70 0 -126.5 15t-98.5 39l58 155q24 -7 52.5 -13t53.5 -6q59 0 91.5 30.5t46.5 102.5l170 875 h-328l-173 -893q-14 -75 -40.5 -134.5t-67.5 -101.5t-99.5 -64.5t-136.5 -22.5q-39 0 -72 6t-62 14.5t-53.5 20t-44.5 24.5z" />
<glyph horiz-adv-x="0" />
<glyph horiz-adv-x="0" />
<glyph unicode="&#xd;" horiz-adv-x="0" />
<glyph unicode=" "  horiz-adv-x="491" />
<glyph unicode="&#x09;" horiz-adv-x="491" />
<glyph unicode="&#xa0;" horiz-adv-x="491" />
<glyph unicode="!" horiz-adv-x="735" d="M167 81q0 22 3 43t8.5 40.5t13.5 35t17 24.5q22 22 54.5 31t86.5 9q40 0 68 -5t45 -17t25 -30.5t8 -45.5q0 -22 -3.5 -43.5t-9 -41t-13 -34.5t-16.5 -24q-22 -22 -54.5 -31t-87.5 -9q-40 0 -68 5t-45 16.5t-24.5 30.5t-7.5 46zM260 362l155 1020h321l-243 -1020h-233z " />
<glyph unicode="&#x22;" horiz-adv-x="954" d="M230 848l76 534h255l-130 -534h-201zM645 848l76 534h255l-130 -534h-201z" />
<glyph unicode="#" horiz-adv-x="1052" d="M32 412l30 160h153l91 294h-186l31 160h204l110 356h197l-110 -356h214l110 356h195l-109 -356h134l-31 -160h-153l-91 -294h187l-31 -160h-204l-127 -412h-195l127 412h-216l-126 -412h-196l127 412h-135zM411 572h215l91 294h-214z" />
<glyph unicode="$" d="M3 124l91 140q27 -15 59.5 -28t68 -22.5t73 -14.5t72.5 -5q67 0 115.5 14t80.5 40t48.5 62t16.5 79q0 37 -19.5 66t-51 54.5t-72 49t-82.5 48.5t-82 54t-71.5 66.5t-51 85t-19.5 109.5q0 65 22 128.5t68 118t117.5 94t170.5 54.5l58 214h154l-23 -211q78 -10 144 -37.5 t114 -69.5l-89 -135q-22 13 -49 24.5t-58 19.5t-65 13.5t-69 5.5q-48 0 -88 -13.5t-69.5 -37.5t-45.5 -57t-16 -71q0 -39 20 -69.5t52.5 -56t74 -48.5t85.5 -47.5t85.5 -53.5t74 -65.5t53 -84t20.5 -108.5q0 -80 -30.5 -151t-86 -127.5t-135 -94t-178.5 -50.5l-61 -225h-154 l27 225q-94 10 -169.5 41t-129.5 77z" />
<glyph unicode="%" horiz-adv-x="1443" d="M46 42l1287 1384l127 -86l-1286 -1384zM194 971q0 46 6 96.5t22 98.5t43 92t68.5 76.5t98.5 51.5t135 19q69 0 117.5 -13.5t79.5 -41t44 -68.5t13 -98q0 -47 -6 -97.5t-22 -98.5t-43 -91.5t-68.5 -76t-99.5 -51.5t-135 -19q-69 0 -116.5 13t-79 40t-44.5 68.5t-13 99.5z M387 991q0 -55 21 -77.5t64 -22.5q31 0 54.5 14.5t41 38.5t29 53t18.5 59.5t10 58.5t3 48q0 55 -20.5 78t-64.5 23q-31 0 -54.5 -14.5t-41 -38.5t-29 -53.5t-18.5 -60t-10 -58t-3 -48.5zM685 199q0 46 6 96.5t22 98.5t43 91.5t68.5 76.5t99 52t135.5 19q69 0 117.5 -13.5 t79 -41t44.5 -68.5t14 -98q0 -47 -7 -97.5t-22.5 -98.5t-43 -91.5t-68.5 -76.5t-98.5 -52t-135.5 -19q-69 0 -117 13.5t-78.5 40.5t-44.5 68.5t-14 99.5zM879 219q0 -55 21 -77.5t64 -22.5q31 0 54 14t40.5 38.5t29.5 53.5t18.5 59.5t9.5 58.5t3 48q0 55 -20.5 78t-64.5 23 q-31 0 -54.5 -14.5t-40.5 -38.5t-29 -53.5t-18.5 -60t-9.5 -58t-3 -48.5z" />
<glyph unicode="&#x26;" horiz-adv-x="1394" d="M39 285q0 66 17.5 126.5t57.5 118.5t103 112t155 109q-19 42 -36 81t-28.5 76.5t-18 73t-6.5 68.5q0 42 10 84.5t32 81t58 73t85.5 59.5t115 40t148.5 15q75 0 135.5 -17t102.5 -47t64.5 -73.5t22.5 -96.5q0 -60 -19.5 -115t-64 -108.5t-118 -108t-179.5 -112.5 q24 -38 50 -77.5t54.5 -78t57.5 -75.5t58 -71q30 42 56 86t46 90t35 92.5t24 93.5h249q-14 -74 -40 -146t-60 -139.5t-74.5 -128t-85.5 -109.5q46 -46 78.5 -69.5t55.5 -23.5h75l-29 -162q-13 -6 -26.5 -11t-30 -9t-38 -6.5t-49.5 -2.5q-39 0 -93.5 35t-127.5 101 q-100 -66 -212 -100t-224 -34q-102 0 -175.5 23.5t-120 65t-68.5 96.5t-22 120zM298 321q0 -40 13 -69.5t36.5 -49t58 -29.5t77.5 -10q33 0 65.5 7t63 19.5t59.5 27t54 32.5q-35 37 -69.5 79t-68 85.5t-64.5 88.5t-58 90q-50 -36 -82 -70t-51 -67t-26.5 -67t-7.5 -67z M532 1063q0 -38 14 -84t42 -102q63 38 105.5 73.5t68.5 69t37.5 64.5t11.5 62q0 22 -6.5 39t-20.5 29.5t-35 19.5t-50 7q-40 0 -70.5 -14t-52 -38.5t-33 -56.5t-11.5 -69z" />
<glyph unicode="'" horiz-adv-x="655" d="M304 848l76 534h245l-129 -534h-192z" />
<glyph unicode="(" horiz-adv-x="634" d="M91 260q0 145 27.5 299t86 310t149 312.5t216.5 307.5l171 -65q-68 -90 -124.5 -187t-102.5 -199t-81.5 -207t-59.5 -210t-35.5 -209.5t-11.5 -203.5q0 -153 22.5 -281t58.5 -230l-184 -52q-31 63 -55 135t-41 149t-26.5 160.5t-9.5 170.5z" />
<glyph unicode=")" horiz-adv-x="634" d="M-91 -290q70 93 127.5 192.5t103.5 202t81 206.5t58 208t34.5 206t11.5 200q0 153 -22.5 281.5t-58.5 231.5l183 52q30 -65 54.5 -136t41.5 -148.5t26 -159.5t9 -170q0 -146 -26.5 -299.5t-84.5 -309t-149 -312.5t-218 -309z" />
<glyph unicode="*" d="M176 945l286 109l-255 109l147 206l204 -181l-1 289h238l-81 -289l254 181l89 -206l-285 -109l254 -109l-148 -207l-203 182v-289h-238l82 289l-254 -182z" />
<glyph unicode="+" d="M74 519l37 188h325l69 352h221l-69 -352h324l-38 -188h-322l-69 -359h-222l68 359h-324z" />
<glyph unicode="," horiz-adv-x="620" d="M-72 -227q57 38 93 68.5t56 55.5t27.5 45.5t7.5 39.5q0 15 -6.5 24.5t-13.5 20t-13 25.5t-6 39q0 18 3.5 41t10 45.5t16 42.5t21.5 32q19 19 52.5 27.5t84.5 8.5q38 0 62.5 -6.5t39.5 -19t21 -32.5t6 -47q0 -43 -9 -88.5t-28 -91t-49 -90.5t-70.5 -88.5t-94 -83.5 t-120.5 -76z" />
<glyph unicode="-" horiz-adv-x="485" d="M45 489l38 195h430l-38 -195h-430z" />
<glyph unicode="&#xad;" horiz-adv-x="485" d="M45 489l38 195h430l-38 -195h-430z" />
<glyph unicode="." horiz-adv-x="593" d="M71 72q0 23 4 49t10.5 52t16 47t20.5 31q19 19 50 28t81 9q38 0 64 -4.5t43 -15.5t24 -29t7 -44q0 -23 -4 -49.5t-11 -52t-16.5 -46.5t-19.5 -32q-19 -19 -50.5 -28t-80.5 -9q-38 0 -64 5t-43 15.5t-24 28.5t-7 45z" />
<glyph unicode="/" d="M-150 -213l1098 1665h247l-1099 -1665h-246z" />
<glyph unicode="0" horiz-adv-x="1003" d="M77.5 258q-7.5 78 1.5 182t35 237q17 88 37 163.5t42.5 139.5t48 117.5t55 96.5t61.5 76.5t68 57.5q30 20 62 34.5t66.5 24t71.5 14t75 4.5q109 0 182.5 -32.5t110.5 -111.5t36 -213.5t-40 -338.5q-15 -81 -33.5 -152t-39 -131.5t-43.5 -112t-49 -94t-54.5 -76.5 t-58.5 -61q-34 -28 -69.5 -48t-74 -32.5t-80 -18.5t-86.5 -6q-74 0 -130.5 14.5t-97.5 48.5t-65 87t-31.5 131zM339.5 284.5q9.5 -59.5 38.5 -82.5t77 -23q33 0 61.5 11.5t53.5 40.5q11 12 22 28.5t21 36t19.5 43t19.5 52t19 60.5t18 69.5t18.5 79.5t18.5 89 q19 101 30 179.5t13 136t-4 96.5t-20.5 63t-37.5 34t-54 10q-32 0 -59 -10t-50 -35q-11 -11 -22.5 -26.5t-22.5 -35t-21 -42.5t-20.5 -51t-20 -61.5t-18.5 -71t-18.5 -81t-19.5 -93.5q-30 -155 -40.5 -256t-1 -160.5z" />
<glyph unicode="1" horiz-adv-x="1003" d="M41 0l45 238h273l170 876l-256 -90l-29 177l405 181h213l-222 -1144h243l-45 -238h-797z" />
<glyph unicode="2" horiz-adv-x="1003" d="M-10 0l44 226q125 112 219.5 201t164 160.5t117 128.5t77.5 103.5t46.5 86t23.5 76.5q11 57 4 94.5t-28.5 60t-54 32t-72.5 9.5q-33 0 -67 -6t-69.5 -14t-71 -19.5t-71.5 -22.5l-10 180q54 24 105.5 44.5t105 35t111 22t122.5 7.5q77 0 144 -20t112 -65t63 -117.5 t-3 -176.5q-11 -55 -31 -108.5t-54.5 -108.5t-85 -116t-120 -130t-160.5 -149.5t-207 -175.5h540l-45 -238h-849z" />
<glyph unicode="3" horiz-adv-x="1003" d="M-22 71l50 154q88 -20 159 -29.5t128 -9.5q49 0 89 7t70.5 20t53 32.5t39 44t26.5 55t17 64.5q10 50 6.5 90t-25 67.5t-62.5 42t-105 14.5h-159l40 201h154q53 0 94 12t70.5 37t48.5 63t29 90q7 41 3.5 72.5t-21 52.5t-51.5 31.5t-87 10.5q-31 0 -67 -3.5t-72.5 -10.5 t-73.5 -16.5t-71 -20.5l1 175q44 16 91.5 32t99.5 29t107 20t115 7q102 0 170.5 -25.5t107 -72.5t48 -113t-5.5 -145q-12 -61 -36 -110.5t-58 -87.5t-75.5 -64.5t-88.5 -43.5q56 -8 95.5 -37.5t61 -72.5t27 -96.5t-6.5 -109.5q-15 -81 -42.5 -145t-66 -113.5t-87 -86 t-106.5 -59.5t-124.5 -34.5t-140.5 -11.5q-40 0 -84 5.5t-90.5 17t-95.5 29.5t-99 42z" />
<glyph unicode="4" horiz-adv-x="1003" d="M14 306l43 211q62 103 133 213.5t146 221t152 220t153 210.5h373l-165 -845h132l-45 -231h-132l-59 -306h-261l58 306h-528zM284 537h303l121 621q-50 -72 -104 -149t-108.5 -156.5t-107.5 -159t-104 -156.5z" />
<glyph unicode="5" horiz-adv-x="1003" d="M-24 70l50 147q94 -15 170.5 -25t138.5 -10q46 0 84 6t68 17.5t53 29.5t40.5 43.5t29.5 59t20 74.5q11 56 7.5 101t-25.5 77t-64 48t-108 16q-35 0 -68.5 -2.5t-69.5 -6.5t-76 -10t-85 -14l195 761h671l-44 -226h-461l-78 -304q14 3 31.5 5t36.5 3.5t39 2.5t41 1 q109 0 183.5 -29t117.5 -84.5t54 -135.5t-9 -182q-15 -78 -41.5 -141.5t-64 -114t-85 -88.5t-106 -62.5t-125.5 -37t-144 -12.5q-78 0 -172 21t-204 72z" />
<glyph unicode="6" d="M77 361q0 45 5.5 113.5t19 150t35.5 169.5t53 172t74 159t97 129q41 41 86 69.5t91.5 46.5t96 26t100.5 8q78 0 161 -19t171 -65l-52 -152q-67 15 -135 25.5t-137 10.5q-60 0 -112.5 -24.5t-97.5 -78t-81.5 -138t-63.5 -204.5q40 20 76 36.5t70 28t68 17t72 5.5 q71 0 123.5 -20t87.5 -57t52.5 -89t17.5 -117q0 -56 -11 -121t-35.5 -129.5t-64.5 -124.5t-97.5 -106.5t-135 -74t-175.5 -27.5q-83 0 -149.5 17t-113 60.5t-71.5 117.5t-25 186zM332 357q0 -49 8.5 -83.5t25.5 -56.5t42 -32.5t59 -10.5q40 0 72.5 18.5t57.5 47.5t42 66 t28.5 76t16 74.5t4.5 63.5q0 63 -30.5 92t-99.5 29q-24 0 -45 -3t-45 -10t-50.5 -18t-57.5 -26q-14 -76 -21 -131t-7 -96z" />
<glyph unicode="7" horiz-adv-x="1003" d="M83 43l695 1113h-568l44 226h876l-40 -205l-371 -568q-40 -61 -80 -119t-80.5 -113.5t-80 -108.5t-79 -103t-77 -97.5t-74.5 -90.5z" />
<glyph unicode="8" d="M19 268q0 70 18 130.5t56.5 113.5t97.5 100.5t141 92.5q-35 25 -63 52.5t-48 61t-30.5 72t-10.5 82.5q0 45 9.5 94.5t32 97.5t59.5 91.5t92 76.5t130.5 52.5t173.5 19.5q96 0 165.5 -20t116 -56.5t69 -87t22.5 -112.5q0 -43 -8 -81t-23 -74.5t-39 -71t-57.5 -66t-77 -62 t-96.5 -57.5q47 -29 82 -60t59 -65t36 -72.5t12 -80.5q0 -57 -12 -113t-38 -107t-68 -95.5t-101.5 -77t-139 -51t-178.5 -18.5q-100 0 -171.5 21.5t-118 60t-69.5 92.5t-23 117zM281 302q0 -65 40.5 -101t125.5 -36q52 0 94.5 18t71.5 48.5t45 70t16 83.5q0 32 -11 59.5 t-33 52t-53.5 47.5t-74.5 46q-67 -37 -109.5 -72.5t-67.5 -70t-34.5 -70.5t-9.5 -75zM438 1005q0 -28 7.5 -51.5t22 -45t38 -42t56.5 -40.5q67 36 111.5 68t70.5 64.5t37 67.5t11 76q0 29 -9.5 51.5t-28 37.5t-47 23t-67.5 8q-55 0 -93.5 -20.5t-62.5 -52.5t-35 -70.5 t-11 -73.5z" />
<glyph unicode="9" horiz-adv-x="1003" d="M8 63l48 148q44 -8 84 -15t76 -11.5t69 -6t66 -1.5q57 0 109.5 23.5t98 78t83.5 139.5t66 209q-40 -22 -76.5 -38.5t-70.5 -27.5t-67.5 -16t-69.5 -5q-88 0 -147 25.5t-90 75.5t-36.5 122.5t12.5 164.5q22 108 68.5 195.5t113.5 150t152 97t182 34.5q70 0 126.5 -12 t99 -40.5t70 -78.5t37.5 -126.5t2.5 -182.5t-35.5 -248q-22 -112 -50.5 -203t-63 -165t-74.5 -130.5t-84 -99t-92.5 -71t-98.5 -44.5q-20 -7 -41.5 -12t-42.5 -8t-42.5 -5t-43.5 -2q-38 0 -77 4t-80.5 13.5t-86 26.5t-94.5 42zM415 859q1 -40 15 -65.5t41.5 -37.5t70.5 -12 q22 0 43.5 3.5t45 10t48.5 17.5t54 27l1 2q0 1 1 2.5t1 3.5l1 2q20 111 24 186.5t-10 122.5t-44 68t-75 21q-27 0 -49.5 -6.5t-43 -20t-37.5 -34.5t-31.5 -49.5t-25.5 -64t-20 -79.5q-11 -57 -10 -97z" />
<glyph unicode=":" horiz-adv-x="626" d="M109 87q0 19 3 41t9 42t14.5 37.5t19.5 28.5q19 19 51 27t81 8q68 0 98.5 -21t30.5 -74q0 -19 -3 -40.5t-10 -42t-15.5 -38t-18.5 -27.5q-18 -19 -50.5 -27.5t-80.5 -8.5q-35 0 -59 5t-40 16t-23 29t-7 45zM257 849q0 19 3 41t9 42.5t15 38t19 27.5q19 18 51 27t81 9 q68 0 98.5 -21t30.5 -74q0 -19 -3 -41t-9.5 -42.5t-15.5 -38t-19 -27.5q-18 -18 -50.5 -27t-80.5 -9q-35 0 -59 5t-40 16t-23 29t-7 45z" />
<glyph unicode=";" horiz-adv-x="626" d="M-38 -231q55 36 90 65.5t54.5 53.5t26.5 44t7 38q0 14 -6 24t-12.5 20.5t-13 23.5t-6.5 38q0 17 3.5 38.5t10 43t15.5 40.5t21 31q35 35 132 35q35 0 59 -6t37.5 -18.5t20 -31.5t6.5 -44q0 -62 -20 -129t-62.5 -132t-111 -126t-164.5 -112zM253 849q0 19 3.5 41t9.5 42.5 t15 38t19 27.5q18 18 50.5 27t80.5 9q69 0 99.5 -21t30.5 -74q0 -19 -3.5 -41t-9.5 -42.5t-15 -38t-19 -27.5q-18 -18 -50.5 -27t-81.5 -9q-34 0 -58.5 5t-40 16t-23 29t-7.5 45z" />
<glyph unicode="&#x3c;" d="M73 524l33 178l864 401l39 -197l-661 -296l545 -296l-114 -190z" />
<glyph unicode="=" d="M53 328l35 183h841l-34 -183h-842zM128 716l36 182h842l-36 -182h-842z" />
<glyph unicode="&#x3e;" d="M49 321l661 295l-545 295l115 192l706 -401l-35 -178l-862 -400z" />
<glyph unicode="?" d="M238 81q0 22 3 43t8.5 40.5t13 35t17.5 24.5q22 22 54.5 31t86.5 9q40 0 68 -5t45 -17t24.5 -30.5t7.5 -45.5q0 -22 -3 -43.5t-8.5 -41t-13 -34.5t-17.5 -24q-22 -22 -54.5 -31t-86.5 -9q-41 0 -68.5 5t-44.5 16.5t-24.5 30.5t-7.5 46zM273 1306q49 24 98 41.5t97.5 30 t97 19t98.5 6.5q89 0 156.5 -20t112 -56.5t67.5 -88t23 -115.5q0 -88 -27.5 -152t-70.5 -113.5t-95 -91t-100 -84t-86 -92t-54 -117.5l-27 -111h-229l17 127q10 80 41.5 140t72 106.5t85.5 84.5t82 75t61 78t24 93q0 28 -9.5 51t-29 39t-49 25.5t-70.5 9.5q-30 0 -61 -3.5 t-61.5 -10t-61 -15t-58.5 -18.5z" />
<glyph unicode="@" horiz-adv-x="2080" d="M99 286q0 112 21 221.5t61 213.5t99 199.5t136.5 178t171 150t203.5 115.5t235.5 74t264.5 26q177 0 304 -39t208 -109t119.5 -168.5t38.5 -219.5q0 -85 -14 -163.5t-40 -150t-64.5 -135t-87 -117t-107.5 -96t-126 -71.5t-141.5 -45t-155.5 -16h-139l15 169 q-42 -43 -81.5 -76.5t-77 -56.5t-73.5 -34t-72 -11q-59 0 -102 17.5t-70.5 50t-40.5 81t-13 109.5t9 121.5t27 117.5t45.5 109.5t64 98.5t82.5 83.5t101.5 64t121 40.5t140.5 14q93 0 175 -11t148 -37l-167 -655q56 0 107 21t93.5 58t76 89t56.5 114t35.5 132t12.5 143 q0 85 -25.5 156.5t-80.5 124.5t-142 82t-211 29q-138 0 -257.5 -38.5t-217.5 -105t-174 -157t-128 -194.5t-79.5 -217t-27.5 -224q0 -119 34 -212.5t101 -158.5t167.5 -99.5t235.5 -34.5q58 0 125.5 8t136.5 21t135.5 31.5t124.5 40.5l33 -155q-71 -31 -147 -56.5 t-155 -43.5t-159.5 -27.5t-158.5 -9.5q-175 0 -310.5 40t-228.5 119.5t-142 200t-49 280.5zM817 427q0 -52 17.5 -77t55.5 -25q22 0 45 9t49.5 28.5t57.5 50t69 74.5l90 350q-18 5 -41.5 8t-51.5 3q-52 0 -93 -17.5t-74 -47.5t-56 -71.5t-38.5 -88t-22.5 -97t-7 -99.5z" />
<glyph unicode="A" horiz-adv-x="1175" d="M-83 0q73 172 151 347.5t160 349.5t167.5 346t173.5 339h363q26 -177 45 -350t33.5 -344t25.5 -342.5t18 -345.5h-289q0 30 -0.5 64.5t-1.5 70.5t-2.5 71.5t-2.5 66.5h-458q-12 -30 -26 -63t-28 -67.5t-28 -70.5t-27 -72h-274zM386 479h368q-6 80 -13.5 163t-15 166.5 t-16.5 167t-19 163.5q-36 -74 -74.5 -157t-78.5 -168.5t-79 -171t-72 -163.5z" />
<glyph unicode="B" horiz-adv-x="1189" d="M49 0l268 1382h429q106 0 180.5 -20.5t121.5 -56t68 -86t21 -108.5q0 -56 -15.5 -109t-45.5 -100.5t-76.5 -87t-109.5 -66.5q44 -8 81 -29.5t63 -53t41 -73t15 -90.5q0 -54 -14 -112.5t-45.5 -115t-81 -107t-121 -88.5t-166.5 -60.5t-217 -22.5q-44 0 -93.5 0.5 t-100.5 1.5t-102.5 1.5t-99.5 0.5zM359 198q11 -1 27.5 -2t34.5 -2t36.5 -2t32.5 -1q60 0 106.5 13.5t80 35.5t56 50.5t36 59.5t19 62t5.5 57q0 35 -12.5 64t-38.5 49.5t-68.5 32.5t-103.5 12h-127zM480 815h106q48 0 86.5 11.5t67.5 30.5t50 43.5t34 51.5t19 54t6 52 q0 29 -9.5 53t-29 41t-51 26.5t-74.5 9.5h-132z" />
<glyph unicode="C" horiz-adv-x="1056" d="M88 430q0 65 7.5 140.5t25 156t45.5 162.5t66.5 157t91 140.5t118.5 114.5t147.5 76.5t178.5 27.5q59 0 113 -13t99 -40t81 -70.5t59 -104.5l-146 -120q-35 61 -80.5 94t-111.5 33q-50 0 -94 -18.5t-81.5 -52t-68.5 -79t-56 -98.5t-44 -112t-31.5 -119t-18.5 -119 t-6 -112q0 -77 15 -129.5t41 -84.5t62.5 -45.5t80.5 -13.5q37 0 71.5 7.5t68.5 24t66.5 41.5t67.5 59l97 -145q-44 -50 -94.5 -89.5t-106.5 -66.5t-117.5 -41t-125.5 -14q-104 0 -182.5 29t-131.5 86.5t-79.5 141.5t-26.5 196z" />
<glyph unicode="D" horiz-adv-x="1220" d="M49 0l268 1382q52 0 99.5 0.5t92.5 1t89 1t90 0.5q136 0 231.5 -35t156 -98t87.5 -148.5t27 -185.5q0 -39 -4 -93.5t-15.5 -116.5t-30.5 -130t-48 -135t-69.5 -131t-93.5 -117q-46 -47 -100 -84t-117.5 -63t-137.5 -40t-162 -14q-48 0 -96 1t-94.5 1.5t-90 1.5t-82.5 2z M366 209q25 -3 48 -3.5t44 -0.5q76 0 135.5 26.5t106.5 73.5q39 39 70 90.5t52.5 107.5t36 114t23.5 111t12.5 97.5t3.5 75.5q0 70 -14 122.5t-44.5 87t-77 52t-112.5 17.5h-48.5t-46.5 -2z" />
<glyph unicode="E" horiz-adv-x="970" d="M49 0l268 1382h717l-42 -211h-439l-70 -357h366l-40 -203h-365l-76 -397h445l-39 -214h-725z" />
<glyph unicode="F" horiz-adv-x="929" d="M49 0l268 1382h707l-41 -211h-430l-74 -379h387l-40 -207h-388l-112 -585h-277z" />
<glyph unicode="G" horiz-adv-x="1179" d="M88 436q0 75 8 150.5t24.5 148t40.5 142t56 133t71 119t84 101.5q86 85 190.5 130t227.5 45q72 0 131 -15t106 -42t83.5 -65.5t60.5 -85.5l-134 -114q-28 25 -57 44t-58.5 32t-62 20.5t-64.5 7.5q-61 0 -112.5 -23.5t-94.5 -66.5q-36 -36 -65.5 -83t-53 -101t-41 -113.5 t-29.5 -119t-17.5 -119t-5.5 -112.5q0 -69 13 -117t37 -78t58 -43t75 -13q28 0 53 4t46 11t38 15.5t31 16.5l69 347h-165l40 203h435l-129 -660q-49 -35 -102.5 -63.5t-113 -49.5t-126 -33t-141.5 -12q-99 0 -174.5 29t-127.5 86.5t-78 143.5t-26 200z" />
<glyph unicode="H" horiz-adv-x="1347" d="M49 0l268 1382h277l-107 -545h491l107 545h277l-268 -1382h-277l116 605h-491l-116 -605h-277z" />
<glyph unicode="I" horiz-adv-x="579" d="M49 0l268 1382h277l-268 -1382h-277z" />
<glyph unicode="J" horiz-adv-x="589" d="M-105 -242q44 43 75.5 88t53.5 95t38 106t28 123l237 1212h276l-236 -1221q-18 -90 -46.5 -165.5t-71 -139.5t-101 -117t-135.5 -98z" />
<glyph unicode="K" horiz-adv-x="1120" d="M49 0l268 1382h277l-115 -587h5l439 587h310l-518 -645l267 -737h-298l-230 640h-4l-124 -640h-277z" />
<glyph unicode="L" horiz-adv-x="862" d="M49 0l268 1382h277l-226 -1167h401l-42 -215h-678z" />
<glyph unicode="M" horiz-adv-x="1736" d="M20 0q38 172 80 345t88 346.5t96 346.5t104 344h352l108 -930h2l470 930h356q-14 -171 -31 -344t-37.5 -346.5t-44 -346.5t-50.5 -345h-290q15 92 30.5 185t29 183.5t26 178t23 171t20.5 161.5t17 150h-2l-505 -1029h-233l-104 1029h-2q-32 -114 -62.5 -236.5t-61 -252.5 t-60.5 -265.5t-58 -274.5h-261z" />
<glyph unicode="N" horiz-adv-x="1316" d="M49 0l268 1382h324l243 -714l50 -148l44 228l124 634h229l-268 -1382h-276l-267 829l-51 157l-48 -246l-142 -740h-230z" />
<glyph unicode="O" horiz-adv-x="1312" d="M88 434q0 49 5 112t17.5 132.5t33 143t51 145t73 138t98.5 122.5q40 40 87.5 72.5t102.5 56t119.5 36.5t139.5 13q115 0 203 -26.5t147.5 -82.5t90 -142t30.5 -206q0 -50 -5 -112t-17.5 -132t-33.5 -144t-51.5 -145t-72.5 -137.5t-97 -121.5q-81 -81 -191.5 -130 t-258.5 -49q-116 0 -204 27t-147.5 82.5t-89.5 141.5t-30 206zM380 446q0 -72 13 -120t40 -79t67 -44.5t94 -13.5q60 0 109 23.5t87 60.5q41 40 71.5 96.5t53 119.5t38 129t24.5 126.5t13 110.5t4 83q0 70 -13 119t-40.5 79.5t-67 44t-93.5 13.5q-61 0 -109 -22.5t-87 -61.5 q-40 -40 -71.5 -96.5t-54 -119.5t-37.5 -128.5t-24.5 -126t-13 -111t-3.5 -82.5z" />
<glyph unicode="P" horiz-adv-x="1107" d="M49 0l268 1382q48 0 94.5 0.5t94 1t96.5 1t103 0.5q120 0 205 -24t140 -67.5t80 -106t25 -138.5q0 -65 -11.5 -133t-41 -132.5t-78 -122.5t-122.5 -101.5t-175 -68.5t-234 -25h-76l-91 -466h-277zM455 669h80q65 0 114 14.5t85.5 41t60.5 61t39 72.5t21 76.5t6 73.5 q0 42 -11.5 74.5t-37.5 55t-68 34t-103 11.5h-85z" />
<glyph unicode="Q" horiz-adv-x="1312" d="M88 434q0 49 5 112t17.5 132.5t33 143t51 145t73 138t98.5 122.5q40 40 87.5 72.5t102.5 56t119.5 36.5t139.5 13q115 0 203 -26.5t147.5 -82.5t90 -142t30.5 -206q0 -50 -5 -112t-17.5 -132t-33.5 -144t-51.5 -145t-72.5 -137.5t-97 -121.5q-33 -33 -68 -59t-74 -46.5 t-80.5 -35t-86.5 -22.5q27 -42 59.5 -63t67 -29.5t73 -8.5t77.5 2q26 1 52 1h27q40 -1 80 -13.5t77.5 -39t73.5 -76.5l-108 -109q-44 29 -92 39.5t-97 12.5q-19 1 -38 1l-58 -2q-27 -2 -53 -2q-21 0 -41 2q-46 2 -88 13t-78 40.5t-65 81.5t-48 135q-100 3 -180.5 30.5 t-137 82t-86 139t-29.5 204.5zM380 446q0 -72 13 -120t40 -79t67 -44.5t94 -13.5q60 0 109 23.5t87 60.5q41 40 71.5 96.5t53 119.5t38 129t24.5 126.5t13 110.5t4 83q0 70 -13 119t-40.5 79.5t-67 44t-93.5 13.5q-61 0 -109 -22.5t-87 -61.5q-40 -40 -71.5 -96.5 t-54 -119.5t-37.5 -128.5t-24.5 -126t-13 -111t-3.5 -82.5z" />
<glyph unicode="R" horiz-adv-x="1136" d="M49 0l268 1382q51 1 101.5 2t100 1.5t99.5 1.5t100 1q113 0 195 -22.5t136.5 -62t81 -97t26.5 -128.5q0 -46 -8 -94t-26.5 -95t-47.5 -91t-69.5 -81.5t-94 -64.5t-118.5 -41l221 -611h-305l-180 562h-93l-110 -562h-277zM474 765h113q55 0 97 12.5t72.5 33t51.5 48.5 t34 58.5t18 62t5 59.5q0 36 -11 63t-36 45.5t-64.5 28t-96.5 9.5h-102z" />
<glyph unicode="S" horiz-adv-x="1009" d="M-14 112l84 144q82 -37 152.5 -55t133.5 -18q61 0 110.5 15t83.5 42.5t52 66.5t18 89q0 42 -19 75t-50.5 60.5t-71.5 52t-81.5 51.5t-82 57t-71.5 68.5t-50 87.5t-19 113q0 94 34.5 174t99.5 140t158 94t210 34q50 0 97 -6.5t91 -20.5t85.5 -35.5t78.5 -49.5l-82 -144 q-30 14 -60.5 24.5t-61 17.5t-61.5 10t-58 3q-58 0 -102.5 -14t-74 -40.5t-45 -61t-15.5 -75.5q0 -42 20 -74.5t52.5 -60.5t74 -53t85 -52t85.5 -57t74.5 -69.5t52.5 -89t20 -113.5q0 -98 -37 -182.5t-107.5 -147t-172.5 -98.5t-231 -36q-63 0 -119 9.5t-105.5 27t-93 42 t-81.5 55.5z" />
<glyph unicode="T" horiz-adv-x="956" d="M154 1168l41 214h897l-42 -214h-312l-226 -1168h-276l226 1168h-308z" />
<glyph unicode="U" horiz-adv-x="1335" d="M123 329q0 34 4 73.5t15 95.5l172 884h277l-170 -872q-9 -48 -13 -83t-4 -62q0 -50 12 -85.5t36.5 -57.5t62 -32t86.5 -10q58 0 106 14.5t86 50t66 92.5t45 144l176 901h273l-176 -899q-28 -142 -84 -238.5t-135 -155.5t-180.5 -85.5t-218.5 -26.5q-105 0 -186 20.5 t-137 63.5t-84.5 109.5t-28.5 158.5z" />
<glyph unicode="V" horiz-adv-x="1118" d="M185 1382h294q-2 -68 -2 -138q-1 -61 1 -124q4 -134 11.5 -272.5t18 -281.5t22.5 -286q65 131 126 266.5t117 273.5t109.5 279t102.5 283h280q-66 -176 -137 -349.5t-149.5 -345.5t-164.5 -343.5t-182 -343.5h-336q-27 175 -47.5 346.5t-34 342.5t-21 343.5t-8.5 349.5z " />
<glyph unicode="W" horiz-adv-x="1769" d="M200 1382h288q-2 -95 -3 -188q0 -31 1 -61q1 -122 3.5 -247.5t5.5 -258t4 -279.5h2l70 184l361 850h268l40 -846v-188h3q54 135 105.5 264.5t100.5 257.5t95.5 255t92.5 257h265q-72 -187 -143.5 -363.5t-145.5 -347t-149.5 -337t-156.5 -334.5h-301l-40 743l1 218h-2 l-82 -218l-315 -743h-306q-18 172 -30 338.5t-19.5 335.5t-10 343.5t-2.5 364.5z" />
<glyph unicode="X" horiz-adv-x="1124" d="M-78 0q65 108 127.5 205t123.5 186t123.5 172.5t126.5 164.5q-29 77 -55 152t-50 154t-47 164.5t-46 183.5h287q14 -61 29 -123t31.5 -120t33.5 -111.5t34 -100.5q36 45 74.5 98t77 111.5t78 120.5t78.5 125h277q-57 -98 -113.5 -184t-112.5 -165.5t-112.5 -153 t-114.5 -145.5q30 -77 59.5 -159.5t58 -173.5t54.5 -190.5t50 -210.5h-294q-17 75 -36 144t-38 132.5t-39 122t-39 111.5q-39 -51 -80.5 -109t-85 -122t-87.5 -133.5t-90 -145.5h-283z" />
<glyph unicode="Y" horiz-adv-x="1001" d="M157 1382h293q11 -76 23.5 -147t27.5 -139t31.5 -134t36.5 -131q45 61 88.5 129.5t84.5 138.5t79.5 142t73.5 141h284q-65 -117 -129.5 -225t-130.5 -209t-133.5 -193.5t-137.5 -176.5l-112 -578h-277l113 578q-36 90 -67.5 182t-58 191t-49 206t-40.5 225z" />
<glyph unicode="Z" horiz-adv-x="1003" d="M-38 0l36 187l702 978h-489l49 217h824l-36 -185l-704 -977h539l-48 -220h-873z" />
<glyph unicode="[" horiz-adv-x="737" d="M32 -354l363 1867h411l-32 -159h-186l-301 -1549h187l-32 -159h-410z" />
<glyph unicode="\" d="M199 1452h218l462 -1665h-219z" />
<glyph unicode="]" horiz-adv-x="737" d="M-48 -354l32 159h186l300 1549h-186l31 159h411l-364 -1867h-410z" />
<glyph unicode="^" d="M109 814l480 638h211l229 -639l-214 -73l-161 497l-353 -497z" />
<glyph unicode="_" d="M-174 -366l38 192h1024l-38 -192h-1024z" />
<glyph unicode="`" horiz-adv-x="645" d="M219 1382l187 103l258 -277l-136 -71z" />
<glyph unicode="a" horiz-adv-x="1091" d="M54 318q0 69 11 150.5t37.5 162.5t72 156t114.5 133.5t166 93.5t226 35q71 0 137 -6.5t118 -14.5q60 -9 115 -21l-196 -1007h-218l23 185q-32 -45 -70 -83.5t-81.5 -66t-90 -43t-93.5 -15.5q-71 0 -122.5 28t-84.5 74.5t-48.5 108.5t-15.5 130zM325 354q0 -86 24 -128.5 t74 -42.5q37 0 78.5 27.5t81 79.5t72 129.5t53.5 178.5l47 244q-16 5 -35 9q-16 4 -38 7t-45 3q-61 0 -108.5 -27t-81.5 -71t-57.5 -100t-38 -111.5t-20.5 -108t-6 -89.5z" />
<glyph unicode="b" horiz-adv-x="1091" d="M35 19l279 1433h264l-88 -446q-4 -19 -9.5 -40.5t-10.5 -42t-10.5 -39.5t-9.5 -34q25 39 59 75.5t74 64t86 43.5t94 16q70 0 120.5 -27.5t83 -74.5t48 -109t15.5 -130q0 -70 -10 -151t-37 -162t-72.5 -156t-114.5 -133.5t-165.5 -93.5t-226.5 -35q-72 0 -137.5 6.5 t-118.5 14.5q-60 9 -113 21zM331 184q15 -5 35 -9q15 -4 36.5 -6.5t46.5 -2.5q61 0 107.5 27t81.5 71t58.5 99.5t37.5 111t20 108t6 89.5q0 86 -23.5 128.5t-73.5 42.5q-37 0 -78.5 -27.5t-81 -79.5t-73 -129.5t-52.5 -178.5z" />
<glyph unicode="c" horiz-adv-x="866" d="M55 336q0 48 7 104.5t21 115t36 118.5t54 115t73 102.5t93.5 82.5t116 55t138.5 20q49 0 91.5 -8.5t79 -24.5t66 -40.5t51.5 -54.5l-109 -137q-34 34 -72 51.5t-85 17.5q-53 0 -94.5 -25t-73 -67t-54 -95t-37 -108.5t-21 -109.5t-6.5 -97q0 -88 35 -130.5t110 -42.5 q55 0 110 21.5t110 65.5l64 -137q-35 -31 -74.5 -58t-84.5 -47t-96 -31.5t-110 -11.5q-83 0 -146 22.5t-106 67t-65 111t-22 155.5z" />
<glyph unicode="d" horiz-adv-x="1091" d="M54 318q0 69 11 150.5t37.5 162.5t72 156t114.5 133.5t166 93.5t226 35q20 0 40.5 -1t37.5 -4q18 -1 35 -3l79 411h265l-283 -1452h-218l23 185q-32 -45 -70 -83.5t-81.5 -66t-90 -43t-93.5 -15.5q-71 0 -122.5 28t-84.5 74.5t-48.5 108.5t-15.5 130zM325 354 q0 -86 24 -128.5t74 -42.5q37 0 78.5 27.5t81 79.5t72 129.5t53.5 178.5l47 244q-16 5 -35 9q-16 4 -38 7t-45 3q-61 0 -108.5 -27t-81.5 -71t-57.5 -100t-38 -111.5t-20.5 -108t-6 -89.5z" />
<glyph unicode="e" horiz-adv-x="1011" d="M54 335q0 30 4 77t15 102t30 116.5t49 121t72.5 114t101 94.5t134 64.5t170.5 24.5q75 0 137 -17.5t107.5 -50.5t70 -80.5t24.5 -107.5q0 -70 -32 -131t-105.5 -106t-195.5 -71t-304 -26q-3 -13 -5 -27.5t-3.5 -29t-3 -28t-1.5 -23.5q0 -44 11.5 -76t34 -54t57 -32.5 t79.5 -10.5q34 0 72 3.5t79 11t82 18t81 23.5l25 -150q-87 -47 -192 -77t-219 -30q-84 0 -153 20t-118 63t-76.5 111t-27.5 164zM366 623q75 0 130 5t94.5 14.5t64 23.5t39 31t20 37t5.5 42q0 23 -7 41t-22 30t-38 18.5t-54 6.5q-44 0 -80.5 -18.5t-66 -51.5t-50.5 -79 t-35 -100z" />
<glyph unicode="f" horiz-adv-x="622" d="M-271 -309l57 150q31 -11 59.5 -17.5t56.5 -6.5q60 0 93 30t47 103l173 892h-131l37 184h131l24 127q14 75 41 134.5t68.5 101t100 64t136.5 22.5q39 0 71.5 -5.5t61.5 -14t54 -20.5t45 -25l-57 -149q-30 10 -59.5 16.5t-57.5 6.5q-60 0 -93 -30t-46 -103l-26 -125h184 l-35 -184h-186l-173 -893q-14 -75 -40.5 -134.5t-67.5 -101.5t-99.5 -64.5t-136.5 -22.5q-39 0 -72 6t-62 14.5t-53.5 20t-44.5 24.5z" />
<glyph unicode="g" horiz-adv-x="1091" d="M2 -290l40 146q103 -17 180.5 -25t133.5 -8q55 0 95.5 9t68.5 29t45 53t26 81l16 84q2 17 7.5 35.5t10 37t9.5 35.5t9 31q-25 -40 -58.5 -77t-74 -65.5t-86 -45.5t-91.5 -17q-71 0 -122.5 26t-85.5 71.5t-50.5 107.5t-16.5 134q0 48 6 103.5t20 113.5t37 115.5t58 111.5 t81.5 100t108.5 80t139.5 53.5t172.5 19.5q71 0 137 -6.5t118 -14.5q60 -9 115 -21l-196 -1006q-22 -111 -68 -183t-110.5 -114.5t-145 -60t-171.5 -17.5q-41 0 -85 5t-89.5 16t-91.5 26.5t-92 36.5zM330 378q0 -39 6 -68t19 -49t31 -30.5t42 -10.5q37 0 78.5 26.5t81 77.5 t72 123.5t50.5 164.5l45 230q-16 5 -35 9q-16 4 -38 7t-45 3q-57 0 -102.5 -24t-79.5 -64t-57.5 -90t-39 -104t-22 -106.5t-6.5 -94.5z" />
<glyph unicode="h" horiz-adv-x="1116" d="M32 0l282 1452h264l-88 -446q-6 -19 -11 -40.5t-10 -42t-10 -39.5t-9 -34q25 39 59 75.5t74.5 64t86.5 43.5t96 16q61 0 109 -16.5t80 -51t48.5 -88t16.5 -126.5q0 -63 -11 -133t-29.5 -159t-44.5 -204.5t-54 -270.5h-264q31 159 56 275.5t42.5 201t27.5 142t10 99.5 q0 61 -21 90.5t-70 29.5q-40 0 -82.5 -30.5t-82.5 -88t-73 -141t-53 -188.5l-76 -390h-263z" />
<glyph unicode="i" horiz-adv-x="530" d="M32 0l198 1026h264l-199 -1026h-263zM251 1244q0 14 3 36.5t9 44.5t15 40.5t19 29.5q9 10 22 17t29 11.5t37.5 7.5t48.5 3q39 0 66 -5t44 -14.5t26 -26t9 -39.5q0 -15 -4 -37t-10 -44t-14 -41.5t-19 -28.5q-10 -10 -22 -18t-28.5 -12.5t-37.5 -6.5t-49 -2 q-39 0 -66.5 4.5t-45 14.5t-25 26.5t-7.5 39.5z" />
<glyph unicode="j" horiz-adv-x="530" d="M-159 -287q37 36 70 76.5t59 83.5t45 90t28 96l187 967h264l-182 -934q-14 -75 -38 -138.5t-61 -119t-88 -106.5t-121 -101zM252 1244q0 14 3.5 36.5t9 44.5t14.5 40.5t19 29.5q9 10 22 17t29 11.5t37.5 7.5t48.5 3q39 0 66 -5t44.5 -14.5t26 -26t8.5 -39.5q0 -15 -4 -37 t-9.5 -44t-14 -41.5t-18.5 -28.5q-10 -10 -22.5 -18t-29 -12.5t-37.5 -6.5t-49 -2q-39 0 -66.5 4.5t-45 14.5t-25 26.5t-7.5 39.5z" />
<glyph unicode="k" horiz-adv-x="1003" d="M32 0l281 1452h264l-164 -840h8l317 414h315l-399 -451l225 -575h-296l-182 505h-9l-97 -505h-263z" />
<glyph unicode="l" horiz-adv-x="563" d="M66 135q0 22 3 51t11 66l234 1200h264l-225 -1148q-6 -34 -9 -56t-3 -36q0 -15 3 -24.5t9.5 -14.5t17 -7t23.5 -2q14 0 28.5 0.5t22.5 1.5l-17 -156q-19 -6 -40 -11t-44 -8.5t-49 -5.5t-55 -2q-43 0 -75.5 7.5t-55 25t-33 46.5t-10.5 73z" />
<glyph unicode="m" horiz-adv-x="1681" d="M32 0l198 1026h219l-24 -185q30 45 68 83.5t80.5 66t89.5 43t96 15.5q53 0 95 -13.5t71 -40t47.5 -67t24.5 -92.5q31 46 69.5 84.5t81.5 67.5t90 45t98 16q60 0 107 -16.5t78.5 -51t48 -88t16.5 -126.5q0 -63 -10.5 -133t-29.5 -159t-44.5 -204.5t-54.5 -270.5h-263 q31 159 56 275.5t42 201t27 142t10 99.5q0 61 -20 90.5t-65 29.5q-36 0 -76.5 -26.5t-79 -78t-71 -128.5t-52.5 -177l-84 -428h-263l97 476q10 49 17 86t11 65t6 50t2 41q0 61 -20 90.5t-65 29.5q-36 0 -76 -26.5t-78.5 -78t-71.5 -128.5t-52 -177l-83 -428h-263z" />
<glyph unicode="n" horiz-adv-x="1116" d="M32 0l198 1026h219l-24 -185q30 45 68.5 83.5t82.5 66t91.5 43t98.5 15.5q61 0 109 -16.5t80 -51t48.5 -88t16.5 -126.5q0 -63 -11 -133t-29.5 -159t-44.5 -204.5t-54 -270.5h-264q31 159 56 275.5t42.5 201t27.5 142t10 99.5q0 61 -21 90.5t-70 29.5q-40 0 -82 -30 t-81.5 -83.5t-71.5 -129.5t-49 -167l-83 -428h-263z" />
<glyph unicode="o" horiz-adv-x="1101" d="M57 335q0 47 5.5 102.5t18 114t33.5 118.5t54 115t77.5 103t104 84t134.5 56.5t169 20.5q91 0 163 -20.5t121 -64t75.5 -111.5t26.5 -162q0 -47 -5 -102t-17.5 -114t-33.5 -118.5t-54 -115t-78 -103.5t-104.5 -84t-134.5 -56.5t-170 -20.5q-90 0 -161.5 20.5t-120.5 64 t-76 111.5t-27 162zM325 345q0 -94 37 -134t118 -40q43 0 79.5 16.5t65 44.5t50.5 65.5t38.5 79t28 85t18 84t9.5 75.5t3 60q0 94 -37.5 134t-118.5 40q-44 0 -79.5 -16.5t-64.5 -44.5t-51.5 -65.5t-38.5 -79t-27 -85t-17.5 -84t-9.5 -75t-3 -60.5z" />
<glyph unicode="p" horiz-adv-x="1091" d="M-38 -354l268 1380h219l-24 -185q30 45 68.5 83.5t82.5 66t91 43t94 15.5q71 0 122 -27.5t83.5 -74.5t48 -109t15.5 -130q0 -70 -10 -151t-37 -162t-72.5 -156t-114.5 -133.5t-165.5 -93.5t-226.5 -35q-22 0 -42 1.5t-35 3.5q-18 2 -35 3l-67 -339h-263zM331 184 q15 -5 35 -9q15 -4 36.5 -6.5t46.5 -2.5q61 0 107.5 27t81.5 71t58.5 99.5t37.5 111t20 108t6 89.5q0 86 -23.5 128.5t-73.5 42.5q-37 0 -78.5 -27.5t-81 -79.5t-73 -129.5t-52.5 -178.5z" />
<glyph unicode="q" horiz-adv-x="1091" d="M54 318q0 69 11 150.5t37.5 162.5t72 156t114.5 133.5t166 93.5t226 35q71 0 137 -6.5t118 -14.5q60 -9 115 -21l-266 -1361h-264l74 374q5 19 10 40.5t11 42t10.5 39.5t8.5 34q-25 -40 -58.5 -75.5t-73.5 -63.5t-86 -44t-94 -16q-71 0 -121.5 28t-83.5 74.5t-48.5 108.5 t-15.5 130zM325 354q0 -86 24 -128.5t74 -42.5q37 0 78.5 27.5t81 79.5t72 129.5t53.5 178.5l47 244q-16 5 -35 9q-16 4 -38 7t-45 3q-61 0 -108.5 -27t-81.5 -71t-57.5 -100t-38 -111.5t-20.5 -108t-6 -89.5z" />
<glyph unicode="r" horiz-adv-x="747" d="M32 0l198 1026h213l-22 -206q26 48 58.5 89.5t70.5 72t80 48t86 17.5q23 0 46.5 -5.5t46.5 -17.5l-67 -232q-22 8 -46.5 12t-46.5 4q-35 0 -74 -21.5t-76.5 -68t-70 -119t-51.5 -173.5l-82 -426h-263z" />
<glyph unicode="s" horiz-adv-x="851" d="M-30 65l43 135q43 -9 78 -16t64.5 -11t55 -6t48.5 -2q50 0 89.5 9t66 27t41 44t14.5 61q0 30 -16 51t-42 38t-59.5 30.5t-67.5 30.5t-67.5 36.5t-59 47.5t-41.5 66t-16 91q0 42 10 85t31.5 82t55 72.5t80 58.5t106.5 39t135 14q40 0 76.5 -4.5t71.5 -13t69.5 -23 t69.5 -34.5l-48 -135q-32 7 -59 13t-51.5 9.5t-46.5 5t-45 1.5q-39 0 -71 -8t-55 -24.5t-35.5 -40t-12.5 -54.5q0 -38 27 -62t69 -43.5t90 -40.5t89.5 -52t69.5 -77.5t28 -117.5q0 -81 -32 -148.5t-92.5 -116.5t-146 -76.5t-192.5 -27.5q-95 0 -175 22.5t-147 64.5z" />
<glyph unicode="t" horiz-adv-x="712" d="M85 842l36 184h139q15 35 30.5 69.5t30.5 71.5t29.5 76t29.5 82h191l-57 -299h227l-34 -184h-229l-99 -513q-5 -30 -8 -50t-3 -36q0 -36 17.5 -51.5t58.5 -15.5q12 0 27 1t31.5 3.5t35.5 7.5t42 12l7 -153q-40 -19 -75.5 -32t-67.5 -21t-62.5 -12t-58.5 -4 q-58 0 -101.5 11t-72 34t-42.5 58.5t-14 83.5q0 20 2.5 46t10.5 68l109 563h-130z" />
<glyph unicode="u" horiz-adv-x="1116" d="M90 260q0 62 11 132t30 159t44 204.5t54 270.5h265q-32 -159 -56.5 -275.5t-42.5 -201t-28 -142t-10 -98.5q0 -62 21 -91.5t72 -29.5q39 0 81 30t81 83.5t71 129.5t50 167l83 428h263l-199 -1026h-217l23 185q-32 -45 -69.5 -83.5t-81 -66t-92 -43t-98.5 -15.5 q-62 0 -110 17t-80 51.5t-48.5 87.5t-16.5 127z" />
<glyph unicode="v" horiz-adv-x="989" d="M120 1026h279l53 -579l1 -204q53 103 99.5 203.5t87 197.5t74.5 192.5t61 189.5h278q-46 -132 -100 -263.5t-116.5 -260.5t-132 -255t-146.5 -247h-345z" />
<glyph unicode="w" horiz-adv-x="1556" d="M129 1026h278l22 -566l2 -173h2l60 158l237 581h303l36 -586v-151h2q44 98 84.5 192t76.5 185.5t67 181t56 178.5h259q-41 -129 -90.5 -256t-107 -254.5t-123 -256.5t-138.5 -259h-307l-39 602l5 130h-3l-39 -126l-254 -606h-320z" />
<glyph unicode="x" horiz-adv-x="987" d="M-76 0l393 540l-154 486h284l85 -337q27 37 55.5 82.5t56.5 92t52 89t39 73.5h278l-338 -463l183 -563h-291l-107 388q-33 -49 -67 -100t-65.5 -101.5t-60 -97.5t-53.5 -89h-290z" />
<glyph unicode="y" horiz-adv-x="985" d="M-152 -324l30 153q10 -2 24.5 -3.5t29 -2t28 -1t24.5 -0.5q28 0 51.5 3t45 10.5t41.5 21t41 33.5q13 13 25 28.5t20 32.5t12 36.5t4 43.5q0 30 -2.5 71t-10.5 88l-91 836h275l50 -575q5 -35 8 -68.5t3 -68.5q0 -15 -1 -30.5t-3 -30.5t-5 -29.5t-7 -26.5q46 90 93.5 191.5 t91.5 209.5t81 216.5t65 211.5h279q-71 -202 -142.5 -369.5t-142.5 -303t-140.5 -242t-136.5 -186.5t-132 -135.5t-125.5 -90.5t-116 -50.5t-105.5 -15.5q-40 0 -81.5 11t-79.5 32z" />
<glyph unicode="z" horiz-adv-x="819" d="M-42 0l31 163l485 667h-339l47 196h644l-30 -162l-489 -664h387l-46 -200h-690z" />
<glyph unicode="{" horiz-adv-x="794" d="M81 496l38 188h57q34 0 58 11t41 29.5t27 45.5t15 58l80 406q12 67 39.5 119t70 87.5t100 54t130.5 18.5h105l-32 -155h-62q-28 0 -49 -9t-36.5 -24.5t-25.5 -39t-15 -53.5l-71 -364q-11 -58 -29 -103t-44.5 -79.5t-62.5 -58t-83 -36.5q41 -13 67 -37.5t39 -59t14 -81 t-11 -104.5l-73 -382q-7 -34 -7.5 -58t8.5 -38.5t28 -22t49 -7.5h63l-32 -155h-109q-76 0 -125 19.5t-75.5 55.5t-31.5 88.5t8 117.5l81 420q6 34 6.5 61.5t-9 47t-30 30t-54.5 10.5h-57z" />
<glyph unicode="|" horiz-adv-x="518" d="M-28 -354l369 1896h229l-368 -1896h-230z" />
<glyph unicode="}" horiz-adv-x="794" d="M-29 -354l32 155h63q27 0 48 9t36.5 24.5t25 39.5t15.5 53l75 383q12 58 30 104.5t44.5 80.5t62 57t82.5 37q-41 13 -67 37t-39 59t-13.5 81t9.5 104l70 362q7 33 7.5 57t-8.5 39t-27.5 22.5t-48.5 7.5h-64l32 155h109q77 0 126.5 -19.5t75.5 -56t31 -89t-7 -116.5 l-79 -399q-7 -34 -7 -62t9.5 -47t30 -29.5t54.5 -10.5h57l-37 -188h-58q-35 0 -59.5 -11.5t-41 -30.5t-26 -45.5t-15.5 -57.5l-83 -426q-12 -68 -39.5 -119.5t-69 -86.5t-99 -54t-132.5 -19h-105z" />
<glyph unicode="~" d="M120 913l9 46q14 75 45 136t75.5 104t102.5 66.5t127 23.5q58 0 96.5 -16.5t64.5 -40t42.5 -51.5t31 -52t30.5 -40.5t40 -16.5t42.5 10.5t34 32t27 54t19.5 78.5h203l-8 -46q-15 -73 -45 -133.5t-74.5 -104t-103.5 -68t-130 -24.5q-58 0 -97 16t-65 40.5t-42.5 53 t-30.5 52.5t-29.5 40t-39.5 16q-23 0 -41.5 -10t-34.5 -31t-27.5 -55t-19.5 -80h-202z" />
<glyph unicode="&#xa1;" horiz-adv-x="735" d="M23 -213l242 1020h233l-154 -1020h-321zM263 1004q0 22 3 43t9 40.5t13.5 35t16.5 24.5q22 22 54.5 31t86.5 9q40 0 68.5 -5t45.5 -17t24.5 -31t7.5 -45q0 -22 -3 -43.5t-9 -41t-13.5 -35t-16.5 -24.5q-22 -22 -54.5 -31t-86.5 -9q-41 0 -69 5t-44.5 17t-24.5 31t-8 46z " />
<glyph unicode="&#xa2;" d="M124 551q0 62 11.5 129.5t36.5 132.5t62 124.5t89 108t118.5 81.5t149.5 45l59 218h159l-24 -223q31 -5 57 -14t49.5 -22.5t44.5 -31.5t43 -41l-106 -135q-38 34 -83 51.5t-92 17.5q-49 0 -90.5 -17t-74 -46t-58 -69t-42.5 -85t-26 -93.5t-9 -96.5q0 -44 10 -78.5 t30 -58.5t51 -37t75 -13q32 0 62 5.5t60.5 16t61 27t63.5 38.5l63 -138q-29 -22 -60 -41t-64.5 -35t-70 -28t-75.5 -19l-66 -233h-159l25 225q-71 9 -124 36.5t-87 70.5t-51.5 100t-17.5 128z" />
<glyph unicode="&#xa3;" d="M-23 0l35 172q59 52 101.5 102t70.5 101.5t43.5 109t21.5 124.5h-171l34 175h142q-1 18 -2 40.5t-1 45.5q0 60 8 123.5t28 122.5t54.5 110.5t87.5 90.5t127 60.5t172 21.5q44 0 90.5 -5.5t91.5 -16.5t85.5 -26.5t73.5 -35.5l-50 -141q-35 8 -67 13.5t-62.5 9t-57.5 5 t-52 1.5q-47 0 -84 -8t-65 -25.5t-48 -44t-32 -63.5t-18 -84t-6 -105q0 -25 0.5 -46.5t1.5 -42.5h328l-34 -175h-304q-6 -65 -18.5 -119.5t-34 -103t-54.5 -92t-81 -85.5h553l-41 -209h-866z" />
<glyph unicode="&#xa4;" d="M-25 127l162 146q-13 28 -20 62t-7 76q0 51 9.5 105.5t28 106.5t44.5 98t59 79l-115 157l182 99l94 -165q42 19 87.5 28.5t99.5 9.5q45 0 81.5 -9t67.5 -25l150 161l158 -109l-168 -149q15 -28 23.5 -63t8.5 -78q0 -29 -6 -73.5t-21 -97.5t-43.5 -107t-71.5 -101 l116 -161l-185 -99l-91 167q-22 -10 -44 -17t-46.5 -12t-49.5 -8t-52 -3q-46 0 -81 9t-63 24l-150 -160zM336 429q0 -35 7.5 -61t23.5 -43t41 -24.5t60 -7.5q44 0 78.5 18t58.5 46.5t40.5 66t26 76.5t13.5 76t4 67q0 37 -7.5 63.5t-24 43t-41.5 23.5t-60 7q-47 0 -81.5 -19 t-58.5 -49t-40 -69t-24.5 -78t-12 -74.5t-3.5 -61.5z" />
<glyph unicode="&#xa5;" d="M45 169l34 171h267l28 146h-268l34 170h268l5 32q-37 81 -68.5 163.5t-59.5 168t-52.5 176t-48.5 186.5h282q12 -71 26.5 -135.5t30 -125t33 -117.5t39.5 -110q42 50 82 109.5t79 122t75 128t70 128.5h274q-118 -188 -242 -364t-259 -330l-6 -32h266l-34 -170h-266 l-28 -146h266l-33 -171h-267l-32 -169h-260l31 169h-266z" />
<glyph unicode="&#xa6;" horiz-adv-x="518" d="M-26 -354l151 765h226l-150 -765h-227zM189 744l156 804h226l-155 -804h-227z" />
<glyph unicode="&#xa7;" horiz-adv-x="1036" d="M25 -283l68 146q26 -8 50 -15t47 -11t46 -6t46 -2q29 0 53 6t44 17.5t34.5 27t24 34t14.5 40.5t5 45q0 43 -26.5 83.5t-65.5 82t-86 88t-85.5 103.5t-65.5 127t-27 158q0 90 30 181t80.5 175.5t117 158t140 128t149 86t144.5 31.5q36 0 68.5 -5t62.5 -14.5t55 -22 t45 -29.5l-67 -147q-41 13 -86.5 20t-87.5 7q-30 0 -54 -6.5t-42.5 -19t-32.5 -28.5t-22.5 -34.5t-13 -39t-4.5 -40.5q0 -44 26.5 -83.5t66.5 -81.5t86 -89t86 -104t66.5 -127.5t26.5 -158.5q0 -90 -29 -181t-79 -175t-116.5 -157.5t-140.5 -128t-152 -85.5t-151 -31 q-41 0 -74.5 4.5t-64 14t-57 24t-52.5 34.5zM323 700q0 -63 23 -114.5t58 -97.5t75.5 -87.5t76 -83t59 -84.5t23.5 -93q0 -18 -6.5 -37.5t-22.5 -43.5q25 30 45 65t33.5 70.5t21.5 73t8 74.5q0 61 -23.5 113t-58.5 97.5t-75.5 86.5t-75 82t-58.5 83t-24 89q0 18 6.5 37 t19.5 42q-27 -31 -46.5 -63.5t-32.5 -66.5t-19.5 -70t-6.5 -72z" />
<glyph unicode="&#xa8;" horiz-adv-x="872" d="M248 1261q0 15 3 33t8.5 36.5t13.5 34t18 25.5q15 16 41.5 23t63.5 7q58 0 86.5 -18t28.5 -63q0 -15 -3 -33.5t-8.5 -36.5t-13.5 -33.5t-18 -26.5q-16 -15 -42.5 -22t-63.5 -7q-58 0 -86 17.5t-28 63.5zM655 1261q0 15 3.5 33t8.5 36.5t13 34t17 25.5q16 16 43 23t64 7 q58 0 86.5 -18t28.5 -63q0 -15 -3.5 -33.5t-9 -36.5t-13.5 -33.5t-17 -26.5q-16 -15 -43 -22t-64 -7q-57 0 -85.5 17.5t-28.5 63.5z" />
<glyph unicode="&#xa9;" horiz-adv-x="1587" d="M102 646q0 111 28 210t78 184t120 153.5t154 116.5t180 74t196 26q154 0 281 -51.5t218 -142.5t140.5 -214.5t49.5 -267.5q0 -111 -27.5 -210t-78 -184t-120.5 -153t-154 -116t-179.5 -74.5t-195.5 -26.5q-155 0 -281.5 52t-217.5 142.5t-141 214.5t-50 267zM292 655 q0 -112 37.5 -207t105 -165.5t160.5 -110.5t205 -40q75 0 146 19.5t132.5 56.5t113 89.5t88.5 118t57.5 143.5t20.5 166q0 111 -37.5 206.5t-105 166t-160.5 110.5t-205 40q-76 0 -146.5 -19.5t-132 -56t-113 -89.5t-89 -118.5t-57.5 -143.5t-20 -166zM470 585 q0 61 12.5 123.5t36.5 120t60 106.5t84.5 85.5t108 57.5t133.5 21q83 0 140.5 -25.5t98.5 -73.5l-95 -108q-28 25 -59.5 36.5t-67.5 11.5q-35 0 -65 -16t-53 -43t-41 -62.5t-29.5 -73.5t-17 -77.5t-5.5 -73.5q0 -37 7 -64.5t21.5 -45.5t36 -26.5t49.5 -8.5q40 0 82.5 14.5 t86.5 44.5l57 -110q-30 -22 -62 -42t-68.5 -34.5t-78.5 -23t-91 -8.5q-66 0 -118 18t-88.5 54.5t-55.5 92t-19 130.5z" />
<glyph unicode="&#xaa;" horiz-adv-x="952" d="M120 416l28 146h647l-30 -146h-645zM187 932q0 59 11 121.5t34.5 122t61.5 112.5t92.5 92.5t127 62.5t164.5 23q35 0 70 -2t70 -6.5t70 -9.5t68 -11l-144 -743h-180l18 137q-24 -36 -53.5 -64.5t-62 -48.5t-67 -31t-66.5 -11q-51 0 -91 19t-67 53t-41.5 81t-14.5 103z M403 956q0 -31 4.5 -53.5t13 -37.5t21.5 -23t31 -8q28 0 58.5 18.5t60 56.5t53.5 94.5t38 131.5l34 176q-6 2 -14.5 4.5t-19 5t-23.5 3.5t-28 1q-45 0 -80 -20t-60 -51.5t-42 -71.5t-27 -81t-15 -79.5t-5 -65.5z" />
<glyph unicode="&#xab;" horiz-adv-x="1040" d="M83 602l346 415l169 -67l-261 -354l121 -363l-179 -52zM507 602l324 392l163 -63l-235 -335l103 -342l-172 -50z" />
<glyph unicode="&#xac;" d="M73 519l38 189h846l-90 -463h-214l54 274h-634z" />
<glyph unicode="&#xae;" horiz-adv-x="1161" d="M181 968q0 106 39 198t107.5 159.5t162 105.5t200.5 38q103 0 190 -34t149 -94.5t96 -143.5t34 -181q0 -111 -40 -202.5t-109 -158t-161 -103.5t-197 -37q-104 0 -190.5 34.5t-148.5 95t-97 143t-35 180.5zM328 976q0 -70 23.5 -131t66.5 -106.5t104 -71.5t135 -26 q77 0 142 27.5t112 77.5t74 117.5t27 146.5q0 69 -23 129.5t-66 106t-104.5 71.5t-136.5 26q-77 0 -142 -28t-112 -77t-73.5 -116t-26.5 -146zM454 764l91 472h48.5t43.5 0.5t39.5 1t36.5 0.5q40 0 71 -8t52.5 -23.5t33 -38t11.5 -51.5q0 -25 -7.5 -47t-21.5 -42.5 t-36 -37.5t-53 -31l63 -195h-141l-44 181h-23l-36 -181h-128zM635 1030h34q16 0 30.5 5t25 15.5t17 24.5t6.5 33q0 20 -13 30.5t-48 10.5h-30z" />
<glyph unicode="&#xaf;" horiz-adv-x="690" d="M184 1203l36 183h573l-36 -183h-573z" />
<glyph unicode="&#xb0;" horiz-adv-x="923" d="M253 1062q0 45 8 90.5t26 87t47.5 77.5t71 62t98 41t128.5 15q71 0 123.5 -12.5t87.5 -38.5t52 -67t17 -96q0 -46 -8 -91.5t-26 -87t-47 -77t-71 -61.5t-98.5 -41t-127.5 -15t-124 12t-87.5 38.5t-52 67t-17.5 96.5zM453 1082q0 -24 6.5 -39t18.5 -24.5t31.5 -14 t47.5 -4.5q30 0 53 7.5t40 20.5t29 31.5t19.5 40.5t11 47t3.5 53q0 23 -7 38.5t-19 25.5t-32 14t-47 4q-31 0 -53.5 -7t-39 -20.5t-29 -32t-19.5 -41t-10.5 -48t-3.5 -51.5z" />
<glyph unicode="&#xb1;" d="M-20 0l33 178h858l-33 -178h-858zM103 636l34 177h323l64 330h215l-64 -330h320l-33 -177h-322l-66 -338h-214l66 338h-323z" />
<glyph unicode="&#xb2;" horiz-adv-x="737" d="M113 724l32 160q119 83 197 143t123.5 105.5t64 79t18.5 65.5q0 35 -23 49t-69 14q-42 0 -91.5 -11t-103.5 -27l-12 133q38 14 75.5 25t75 19.5t75.5 12.5t76 4q58 0 104.5 -13t77.5 -36.5t48 -56.5t17 -73q0 -54 -22 -104.5t-67.5 -101t-115.5 -105t-165 -117.5h312 l-31 -165h-596z" />
<glyph unicode="&#xb3;" horiz-adv-x="731" d="M99 756l37 113q57 -11 106.5 -16.5t101.5 -5.5t86 11t53 28t26 39t7 44q0 16 -6 29.5t-22 23t-44 14.5t-73 5h-102l29 143h108q45 0 75 9.5t48 25t25 35.5t7 40q0 12 -3.5 22.5t-13.5 18.5t-28.5 12.5t-47.5 4.5q-19 0 -43.5 -2t-50.5 -6.5t-52.5 -10t-51.5 -11.5 l-15 124q69 24 141.5 37t148.5 13q73 0 121.5 -14.5t77.5 -38.5t41.5 -54.5t12.5 -62.5q0 -40 -12 -74.5t-33 -61.5t-51 -46t-67 -28q35 -7 58 -22.5t37 -34t19 -38.5t5 -36q0 -25 -5 -55t-19 -61t-40 -61t-68 -53t-102.5 -37t-143.5 -14q-67 0 -138.5 12.5t-138.5 39.5z " />
<glyph unicode="&#xb4;" horiz-adv-x="645" d="M201 1208l275 277l181 -103l-327 -245z" />
<glyph unicode="&#xb5;" horiz-adv-x="1125" d="M-38 -354l268 1380h263l-110 -569q-4 -18 -7 -35.5t-5 -33t-3.5 -30t-2.5 -27.5q-3 -38 0.5 -65t14 -44t30 -25.5t48.5 -8.5q39 0 81.5 30t80.5 83.5t70 129.5t50 167l83 428h263l-198 -1026h-218l23 185q-29 -43 -61 -78.5t-68.5 -62t-75.5 -41t-81 -14.5 q-45 0 -73.5 17.5t-38.5 43.5l-5 -30t-13 -75t-17 -97.5t-16.5 -97.5t-13.5 -74l-5 -30h-263z" />
<glyph unicode="&#xb6;" horiz-adv-x="1318" d="M181 887q0 65 14 126.5t42 116.5t70.5 101.5t99.5 80t129.5 52t159.5 18.5h618l-309 -1595h-204l277 1431h-193l-278 -1431h-204l152 786q-13 -2 -26 -3t-26 -1q-73 0 -132.5 24t-102 66.5t-65 101t-22.5 126.5z" />
<glyph unicode="&#xb7;" horiz-adv-x="561" d="M138 553q0 22 4 48.5t11.5 50.5t16 44.5t18.5 30.5q20 19 51.5 28t79.5 9q38 0 64.5 -4.5t42.5 -16t23.5 -29t7.5 -42.5q0 -24 -4 -49.5t-11 -49.5t-16.5 -44.5t-19.5 -30.5q-19 -19 -50 -28t-81 -9q-38 0 -63.5 4.5t-41.5 15.5t-24 28t-8 44z" />
<glyph unicode="&#xb8;" horiz-adv-x="632" d="M-55 -315q39 32 64 58.5t39 53t19.5 54.5t4.5 62h224q1 -92 -50.5 -161.5t-155.5 -126.5z" />
<glyph unicode="&#xb9;" horiz-adv-x="704" d="M129 724l31 156h170l81 413l-155 -42l-8 135l243 95h182l-118 -601h154l-31 -156h-549z" />
<glyph unicode="&#xba;" horiz-adv-x="890" d="M103 416l29 146h636l-29 -146h-636zM174 962q0 44 8.5 98t28 110.5t52.5 109t82 94t115 66.5t153 25q66 0 120.5 -17t95 -53t63.5 -90t23 -126q0 -46 -9 -101t-29.5 -110.5t-53.5 -107t-82.5 -91.5t-116 -64t-152.5 -24q-65 0 -119 16t-94 50t-62.5 87t-22.5 128z M392 964q0 -72 27.5 -100.5t84.5 -28.5q38 0 66.5 18t50.5 48t37 68t23.5 76.5t12.5 74.5t4 63q0 70 -26.5 99.5t-80.5 29.5q-40 0 -71 -18.5t-53 -49.5t-36 -68.5t-23 -76t-12.5 -74.5t-3.5 -61z" />
<glyph unicode="&#xbb;" horiz-adv-x="1040" d="M73 267l236 335l-104 342l173 50l183 -398l-324 -392zM471 248l260 354l-121 363l178 52l197 -421l-347 -415z" />
<glyph unicode="&#xbc;" horiz-adv-x="1505" d="M25 -83l1476 1582l128 -83l-1474 -1582zM129 724l31 156h170l81 413l-155 -42l-8 135l243 95h182l-118 -601h154l-31 -156h-549zM703 11l28 154q35 53 77.5 111.5t87.5 117.5t92 117t92 111h313l-87 -454h91l-31 -157h-91l-29 -142h-219l30 142h-354zM899 168h188l61 318 q-29 -31 -61 -70t-65.5 -81t-64.5 -85t-58 -82z" />
<glyph unicode="&#xbd;" horiz-adv-x="1593" d="M25 -83l1476 1582l128 -83l-1474 -1582zM129 724l31 156h170l81 413l-155 -42l-8 135l243 95h182l-118 -601h154l-31 -156h-549zM802 -131l32 160q119 83 197 143t123.5 105.5t64 79t18.5 65.5q0 35 -23 49t-69 14q-42 0 -91.5 -11t-103.5 -27l-12 133q38 14 75.5 25 t75 19.5t75.5 12.5t76 4q58 0 104.5 -13t77.5 -36.5t48 -56.5t17 -73q0 -54 -22 -104.5t-67.5 -101t-115.5 -105t-165 -117.5h312l-31 -165h-596z" />
<glyph unicode="&#xbe;" horiz-adv-x="1501" d="M22 -83l1476 1582l128 -83l-1474 -1582zM99 756l37 113q57 -11 106.5 -16.5t101.5 -5.5t86 11t53 28t26 39t7 44q0 16 -6 29.5t-22 23t-44 14.5t-73 5h-102l29 143h108q45 0 75 9.5t48 25t25 35.5t7 40q0 12 -3.5 22.5t-13.5 18.5t-28.5 12.5t-47.5 4.5q-19 0 -43.5 -2 t-50.5 -6.5t-52.5 -10t-51.5 -11.5l-15 124q69 24 141.5 37t148.5 13q73 0 121.5 -14.5t77.5 -38.5t41.5 -54.5t12.5 -62.5q0 -40 -12 -74.5t-33 -61.5t-51 -46t-67 -28q35 -7 58 -22.5t37 -34t19 -38.5t5 -36q0 -25 -5 -55t-19 -61t-40 -61t-68 -53t-102.5 -37t-143.5 -14 q-67 0 -138.5 12.5t-138.5 39.5zM701 11l28 154q35 53 77.5 111.5t87.5 117.5t92 117t92 111h313l-87 -454h91l-31 -157h-91l-29 -142h-219l30 142h-354zM897 168h188l61 318q-29 -31 -61 -70t-65.5 -81t-64.5 -85t-58 -82z" />
<glyph unicode="&#xbf;" d="M24 46q0 88 27.5 152t70.5 113.5t94.5 91t100 84t86.5 92.5t54 117l26 111h230l-18 -127q-11 -81 -41.5 -140.5t-71 -106t-85.5 -84.5t-82 -74.5t-61 -77.5t-24 -94q0 -28 9 -50.5t28.5 -39t49 -26t70.5 -9.5q30 0 61.5 4t62 10t60.5 14t58 20l44 -162q-49 -24 -97.5 -42 t-97.5 -30t-98 -18.5t-97 -6.5q-89 0 -156.5 19.5t-112.5 56t-67.5 88.5t-22.5 115zM480 1004q0 22 3 43t9 40.5t13.5 35t16.5 24.5q22 22 54.5 31t87.5 9q41 0 68.5 -5t44.5 -17t24.5 -31t7.5 -45q0 -22 -3 -43.5t-8.5 -41t-13.5 -35t-17 -24.5q-22 -22 -54.5 -31t-86.5 -9 q-40 0 -68.5 5t-45 17t-24.5 31t-8 46z" />
<glyph unicode="&#xc0;" horiz-adv-x="1175" d="M-83 0q73 172 151 347.5t160 349.5t167.5 346t173.5 339h363q26 -177 45 -350t33.5 -344t25.5 -342.5t18 -345.5h-289q0 30 -0.5 64.5t-1.5 70.5t-2.5 71.5t-2.5 66.5h-458q-12 -30 -26 -63t-28 -67.5t-28 -70.5t-27 -72h-274zM386 479h368q-6 80 -13.5 163t-15 166.5 t-16.5 167t-19 163.5q-36 -74 -74.5 -157t-78.5 -168.5t-79 -171t-72 -163.5zM440 1597l123 161l365 -172l-84 -113z" />
<glyph unicode="&#xc1;" horiz-adv-x="1175" d="M-83 0q73 172 151 347.5t160 349.5t167.5 346t173.5 339h363q26 -177 45 -350t33.5 -344t25.5 -342.5t18 -345.5h-289q0 30 -0.5 64.5t-1.5 70.5t-2.5 71.5t-2.5 66.5h-458q-12 -30 -26 -63t-28 -67.5t-28 -70.5t-27 -72h-274zM386 479h368q-6 80 -13.5 163t-15 166.5 t-16.5 167t-19 163.5q-36 -74 -74.5 -157t-78.5 -168.5t-79 -171t-72 -163.5zM621 1586l374 172l115 -161l-414 -124z" />
<glyph unicode="&#xc2;" horiz-adv-x="1175" d="M-83 0q73 172 151 347.5t160 349.5t167.5 346t173.5 339h363q26 -177 45 -350t33.5 -344t25.5 -342.5t18 -345.5h-289q0 30 -0.5 64.5t-1.5 70.5t-2.5 71.5t-2.5 66.5h-458q-12 -30 -26 -63t-28 -67.5t-28 -70.5t-27 -72h-274zM386 479h368q-6 80 -13.5 163t-15 166.5 t-16.5 167t-19 163.5q-36 -74 -74.5 -157t-78.5 -168.5t-79 -171t-72 -163.5zM461 1579l347 179l279 -176l-82 -109l-227 106l-263 -106z" />
<glyph unicode="&#xc3;" horiz-adv-x="1175" d="M-83 0q73 172 151 347.5t160 349.5t167.5 346t173.5 339h363q26 -177 45 -350t33.5 -344t25.5 -342.5t18 -345.5h-289q0 30 -0.5 64.5t-1.5 70.5t-2.5 71.5t-2.5 66.5h-458q-12 -30 -26 -63t-28 -67.5t-28 -70.5t-27 -72h-274zM386 479h368q-6 80 -13.5 163t-15 166.5 t-16.5 167t-19 163.5q-36 -74 -74.5 -157t-78.5 -168.5t-79 -171t-72 -163.5zM419 1558q25 45 51.5 79.5t57.5 57.5t67 35.5t79 12.5q50 0 85 -16t60.5 -35t47 -34.5t46.5 -15.5q14 0 27 5t27 16.5t29 30t35 46.5l107 -74q-25 -45 -51.5 -80t-57 -58t-67 -35t-79.5 -12 q-34 0 -60 7.5t-47.5 18.5t-38.5 23.5t-32 23.5t-30.5 18.5t-30.5 7.5t-28 -5t-26 -16.5t-28.5 -30t-35.5 -44.5z" />
<glyph unicode="&#xc4;" horiz-adv-x="1175" d="M-83 0q73 172 151 347.5t160 349.5t167.5 346t173.5 339h363q26 -177 45 -350t33.5 -344t25.5 -342.5t18 -345.5h-289q0 30 -0.5 64.5t-1.5 70.5t-2.5 71.5t-2.5 66.5h-458q-12 -30 -26 -63t-28 -67.5t-28 -70.5t-27 -72h-274zM386 479h368q-6 80 -13.5 163t-15 166.5 t-16.5 167t-19 163.5q-36 -74 -74.5 -157t-78.5 -168.5t-79 -171t-72 -163.5zM449 1567q0 17 3 35t8 34t11 28.5t13 19.5q17 17 42.5 24t68.5 7q32 0 53.5 -4t34.5 -13t18.5 -24.5t5.5 -38.5q0 -17 -2.5 -34.5t-7.5 -34t-11 -28.5t-13 -19q-17 -17 -42.5 -24.5t-68.5 -7.5 q-31 0 -52.5 4t-35 13.5t-19.5 24.5t-6 38zM871 1567q0 17 2.5 35t7.5 34t11.5 28.5t12.5 19.5q18 17 43.5 24t67.5 7q32 0 53 -4t35 -13t19.5 -24.5t5.5 -38.5q0 -17 -2.5 -34.5t-7.5 -34t-11 -28.5t-13 -19q-17 -17 -42.5 -24.5t-68.5 -7.5q-32 0 -53.5 4t-34.5 13.5 t-19 24.5t-6 38z" />
<glyph unicode="&#xc5;" horiz-adv-x="1175" d="M-83 0q73 172 151 347.5t160 349.5t167.5 346t173.5 339h363q26 -177 45 -350t33.5 -344t25.5 -342.5t18 -345.5h-289q0 30 -0.5 64.5t-1.5 70.5t-2.5 71.5t-2.5 66.5h-458q-12 -30 -26 -63t-28 -67.5t-28 -70.5t-27 -72h-274zM386 479h368q-6 80 -13.5 163t-15 166.5 t-16.5 167t-19 163.5q-36 -74 -74.5 -157t-78.5 -168.5t-79 -171t-72 -163.5zM540 1548q0 42 16.5 80t50 66.5t84.5 46t119 17.5q108 0 159.5 -33.5t51.5 -100.5q0 -42 -16.5 -80t-50 -66.5t-84 -46t-119.5 -17.5q-106 0 -158.5 34t-52.5 100zM697 1561q0 -26 17 -38t53 -12 q28 0 46 9t29.5 23.5t16.5 32t5 36.5q0 26 -17 37.5t-53 11.5q-28 0 -46 -8.5t-29.5 -22.5t-16.5 -32.5t-5 -36.5z" />
<glyph unicode="&#xc6;" horiz-adv-x="1505" d="M-145 0q101 180 204 357t208 349.5t212 341.5t216 334h873l-42 -211h-435l-70 -357h361l-40 -203h-361l-77 -397h444l-40 -214h-446h-275l52 273h-360q-17 -31 -36 -64.5t-38.5 -69.5t-38.5 -71t-35 -68h-276zM389 479h291l134 696h-2q-59 -93 -116 -184t-109.5 -178.5 t-102.5 -171.5t-95 -162z" />
<glyph unicode="&#xc7;" horiz-adv-x="1056" d="M88 430q0 65 7.5 140.5t25 156t45.5 162.5t66.5 157t91 140.5t118.5 114.5t147.5 76.5t178.5 27.5q59 0 113 -13t99 -40t81 -70.5t59 -104.5l-146 -120q-35 61 -80.5 94t-111.5 33q-50 0 -94 -18.5t-81.5 -52t-68.5 -79t-56 -98.5t-44 -112t-31.5 -119t-18.5 -119 t-6 -112q0 -77 15 -129.5t41 -84.5t62.5 -45.5t80.5 -13.5q37 0 71.5 7.5t68.5 24t66.5 41.5t67.5 59l97 -145q-44 -50 -94.5 -89.5t-106.5 -66.5t-117.5 -41t-125.5 -14q-104 0 -182.5 29t-131.5 86.5t-79.5 141.5t-26.5 196zM241 -315q39 32 64 58.5t39 53t19.5 54.5 t4.5 62h224q1 -92 -50.5 -161.5t-155.5 -126.5z" />
<glyph unicode="&#xc8;" horiz-adv-x="970" d="M49 0l268 1382h717l-42 -211h-439l-70 -357h366l-40 -203h-365l-76 -397h445l-39 -214h-725zM366 1597l123 161l365 -172l-84 -113z" />
<glyph unicode="&#xc9;" horiz-adv-x="970" d="M49 0l268 1382h717l-42 -211h-439l-70 -357h366l-40 -203h-365l-76 -397h445l-39 -214h-725zM561 1586l374 172l115 -161l-414 -124z" />
<glyph unicode="&#xca;" horiz-adv-x="970" d="M49 0l268 1382h717l-42 -211h-439l-70 -357h366l-40 -203h-365l-76 -397h445l-39 -214h-725zM391 1579l347 179l279 -176l-82 -109l-227 106l-263 -106z" />
<glyph unicode="&#xcb;" horiz-adv-x="970" d="M49 0l268 1382h717l-42 -211h-439l-70 -357h366l-40 -203h-365l-76 -397h445l-39 -214h-725zM372 1567q0 17 3 35t8 34t11 28.5t13 19.5q17 17 42.5 24t68.5 7q32 0 53.5 -4t34.5 -13t18.5 -24.5t5.5 -38.5q0 -17 -2.5 -34.5t-7.5 -34t-11 -28.5t-13 -19 q-17 -17 -42.5 -24.5t-68.5 -7.5q-31 0 -52.5 4t-35 13.5t-19.5 24.5t-6 38zM794 1567q0 17 2.5 35t7.5 34t11.5 28.5t12.5 19.5q18 17 43.5 24t67.5 7q32 0 53 -4t35 -13t19.5 -24.5t5.5 -38.5q0 -17 -2.5 -34.5t-7.5 -34t-11 -28.5t-13 -19q-17 -17 -42.5 -24.5 t-68.5 -7.5q-32 0 -53.5 4t-34.5 13.5t-19 24.5t-6 38z" />
<glyph unicode="&#xcc;" horiz-adv-x="579" d="M49 0l268 1382h277l-268 -1382h-277zM143 1597l123 161l365 -172l-84 -113z" />
<glyph unicode="&#xcd;" horiz-adv-x="579" d="M49 0l268 1382h277l-268 -1382h-277zM323 1586l374 172l115 -161l-414 -124z" />
<glyph unicode="&#xce;" horiz-adv-x="579" d="M49 0l268 1382h277l-268 -1382h-277zM175 1579l347 179l279 -176l-82 -109l-227 106l-263 -106z" />
<glyph unicode="&#xcf;" horiz-adv-x="579" d="M49 0l268 1382h277l-268 -1382h-277zM158 1567q0 17 3 35t8 34t11 28.5t13 19.5q17 17 42.5 24t68.5 7q32 0 53.5 -4t34.5 -13t18.5 -24.5t5.5 -38.5q0 -17 -2.5 -34.5t-7.5 -34t-11 -28.5t-13 -19q-17 -17 -42.5 -24.5t-68.5 -7.5q-31 0 -52.5 4t-35 13.5t-19.5 24.5 t-6 38zM580 1567q0 17 2.5 35t7.5 34t11.5 28.5t12.5 19.5q18 17 43.5 24t67.5 7q32 0 53 -4t35 -13t19.5 -24.5t5.5 -38.5q0 -17 -2.5 -34.5t-7.5 -34t-11 -28.5t-13 -19q-17 -17 -42.5 -24.5t-68.5 -7.5q-32 0 -53.5 4t-34.5 13.5t-19 24.5t-6 38z" />
<glyph unicode="&#xd0;" horiz-adv-x="1241" d="M70 0l118 611h-111l39 203h111l111 568q52 0 99 0.5t92 1t89.5 1t90.5 0.5q136 0 231 -35t155.5 -98t87.5 -148.5t27 -185.5q0 -39 -4 -93.5t-15 -116.5t-30 -130t-48.5 -135t-70 -131t-93.5 -117q-46 -47 -99.5 -84t-117 -63t-138 -40t-162.5 -14q-48 0 -95.5 1t-94 1.5 t-90 1.5t-82.5 2zM386 209q25 -3 48.5 -3.5t43.5 -0.5q76 0 136 26.5t107 73.5q39 39 69.5 90.5t52 107.5t36.5 114t23.5 111t12.5 97.5t4 75.5q0 70 -14 122.5t-45 87t-77.5 52t-111.5 17.5h-49t-47 -2l-71 -364h199l-39 -203h-200z" />
<glyph unicode="&#xd1;" horiz-adv-x="1316" d="M49 0l268 1382h324l243 -714l50 -148l44 228l124 634h229l-268 -1382h-276l-267 829l-51 157l-48 -246l-142 -740h-230zM523 1558q25 45 51.5 79.5t57.5 57.5t67 35.5t79 12.5q50 0 85 -16t60.5 -35t47 -34.5t46.5 -15.5q14 0 27 5t27 16.5t29 30t35 46.5l107 -74 q-25 -45 -51.5 -80t-57 -58t-67 -35t-79.5 -12q-34 0 -60 7.5t-47.5 18.5t-38.5 23.5t-32 23.5t-30.5 18.5t-30.5 7.5t-28 -5t-26 -16.5t-28.5 -30t-35.5 -44.5z" />
<glyph unicode="&#xd2;" horiz-adv-x="1312" d="M88 434q0 49 5 112t17.5 132.5t33 143t51 145t73 138t98.5 122.5q40 40 87.5 72.5t102.5 56t119.5 36.5t139.5 13q115 0 203 -26.5t147.5 -82.5t90 -142t30.5 -206q0 -50 -5 -112t-17.5 -132t-33.5 -144t-51.5 -145t-72.5 -137.5t-97 -121.5q-81 -81 -191.5 -130 t-258.5 -49q-116 0 -204 27t-147.5 82.5t-89.5 141.5t-30 206zM380 446q0 -72 13 -120t40 -79t67 -44.5t94 -13.5q60 0 109 23.5t87 60.5q41 40 71.5 96.5t53 119.5t38 129t24.5 126.5t13 110.5t4 83q0 70 -13 119t-40.5 79.5t-67 44t-93.5 13.5q-61 0 -109 -22.5t-87 -61.5 q-40 -40 -71.5 -96.5t-54 -119.5t-37.5 -128.5t-24.5 -126t-13 -111t-3.5 -82.5zM467 1597l123 161l365 -172l-84 -113z" />
<glyph unicode="&#xd3;" horiz-adv-x="1312" d="M88 434q0 49 5 112t17.5 132.5t33 143t51 145t73 138t98.5 122.5q40 40 87.5 72.5t102.5 56t119.5 36.5t139.5 13q115 0 203 -26.5t147.5 -82.5t90 -142t30.5 -206q0 -50 -5 -112t-17.5 -132t-33.5 -144t-51.5 -145t-72.5 -137.5t-97 -121.5q-81 -81 -191.5 -130 t-258.5 -49q-116 0 -204 27t-147.5 82.5t-89.5 141.5t-30 206zM380 446q0 -72 13 -120t40 -79t67 -44.5t94 -13.5q60 0 109 23.5t87 60.5q41 40 71.5 96.5t53 119.5t38 129t24.5 126.5t13 110.5t4 83q0 70 -13 119t-40.5 79.5t-67 44t-93.5 13.5q-61 0 -109 -22.5t-87 -61.5 q-40 -40 -71.5 -96.5t-54 -119.5t-37.5 -128.5t-24.5 -126t-13 -111t-3.5 -82.5zM721 1586l374 172l115 -161l-414 -124z" />
<glyph unicode="&#xd4;" horiz-adv-x="1312" d="M88 434q0 49 5 112t17.5 132.5t33 143t51 145t73 138t98.5 122.5q40 40 87.5 72.5t102.5 56t119.5 36.5t139.5 13q115 0 203 -26.5t147.5 -82.5t90 -142t30.5 -206q0 -50 -5 -112t-17.5 -132t-33.5 -144t-51.5 -145t-72.5 -137.5t-97 -121.5q-81 -81 -191.5 -130 t-258.5 -49q-116 0 -204 27t-147.5 82.5t-89.5 141.5t-30 206zM380 446q0 -72 13 -120t40 -79t67 -44.5t94 -13.5q60 0 109 23.5t87 60.5q41 40 71.5 96.5t53 119.5t38 129t24.5 126.5t13 110.5t4 83q0 70 -13 119t-40.5 79.5t-67 44t-93.5 13.5q-61 0 -109 -22.5t-87 -61.5 q-40 -40 -71.5 -96.5t-54 -119.5t-37.5 -128.5t-24.5 -126t-13 -111t-3.5 -82.5zM538 1579l347 179l279 -176l-82 -109l-227 106l-263 -106z" />
<glyph unicode="&#xd5;" horiz-adv-x="1312" d="M88 434q0 49 5 112t17.5 132.5t33 143t51 145t73 138t98.5 122.5q40 40 87.5 72.5t102.5 56t119.5 36.5t139.5 13q115 0 203 -26.5t147.5 -82.5t90 -142t30.5 -206q0 -50 -5 -112t-17.5 -132t-33.5 -144t-51.5 -145t-72.5 -137.5t-97 -121.5q-81 -81 -191.5 -130 t-258.5 -49q-116 0 -204 27t-147.5 82.5t-89.5 141.5t-30 206zM380 446q0 -72 13 -120t40 -79t67 -44.5t94 -13.5q60 0 109 23.5t87 60.5q41 40 71.5 96.5t53 119.5t38 129t24.5 126.5t13 110.5t4 83q0 70 -13 119t-40.5 79.5t-67 44t-93.5 13.5q-61 0 -109 -22.5t-87 -61.5 q-40 -40 -71.5 -96.5t-54 -119.5t-37.5 -128.5t-24.5 -126t-13 -111t-3.5 -82.5zM507 1558q25 45 51.5 79.5t57.5 57.5t67 35.5t79 12.5q50 0 85 -16t60.5 -35t47 -34.5t46.5 -15.5q14 0 27 5t27 16.5t29 30t35 46.5l107 -74q-25 -45 -51.5 -80t-57 -58t-67 -35t-79.5 -12 q-34 0 -60 7.5t-47.5 18.5t-38.5 23.5t-32 23.5t-30.5 18.5t-30.5 7.5t-28 -5t-26 -16.5t-28.5 -30t-35.5 -44.5z" />
<glyph unicode="&#xd6;" horiz-adv-x="1312" d="M88 434q0 49 5 112t17.5 132.5t33 143t51 145t73 138t98.5 122.5q40 40 87.5 72.5t102.5 56t119.5 36.5t139.5 13q115 0 203 -26.5t147.5 -82.5t90 -142t30.5 -206q0 -50 -5 -112t-17.5 -132t-33.5 -144t-51.5 -145t-72.5 -137.5t-97 -121.5q-81 -81 -191.5 -130 t-258.5 -49q-116 0 -204 27t-147.5 82.5t-89.5 141.5t-30 206zM380 446q0 -72 13 -120t40 -79t67 -44.5t94 -13.5q60 0 109 23.5t87 60.5q41 40 71.5 96.5t53 119.5t38 129t24.5 126.5t13 110.5t4 83q0 70 -13 119t-40.5 79.5t-67 44t-93.5 13.5q-61 0 -109 -22.5t-87 -61.5 q-40 -40 -71.5 -96.5t-54 -119.5t-37.5 -128.5t-24.5 -126t-13 -111t-3.5 -82.5zM521 1567q0 17 3 35t8 34t11 28.5t13 19.5q17 17 42.5 24t68.5 7q32 0 53.5 -4t34.5 -13t18.5 -24.5t5.5 -38.5q0 -17 -2.5 -34.5t-7.5 -34t-11 -28.5t-13 -19q-17 -17 -42.5 -24.5 t-68.5 -7.5q-31 0 -52.5 4t-35 13.5t-19.5 24.5t-6 38zM943 1567q0 17 2.5 35t7.5 34t11.5 28.5t12.5 19.5q18 17 43.5 24t67.5 7q32 0 53 -4t35 -13t19.5 -24.5t5.5 -38.5q0 -17 -2.5 -34.5t-7.5 -34t-11 -28.5t-13 -19q-17 -17 -42.5 -24.5t-68.5 -7.5q-32 0 -53.5 4 t-34.5 13.5t-19 24.5t-6 38z" />
<glyph unicode="&#xd7;" d="M75 353l315 264l-212 264l163 135l212 -263l314 263l118 -145l-313 -264l212 -264l-163 -135l-213 264l-315 -264z" />
<glyph unicode="&#xd8;" horiz-adv-x="1312" d="M-26 -82l183 229q-34 52 -51.5 122t-17.5 165q0 49 5 112t17.5 132.5t33 143t51 145t73 138t98.5 122.5q40 40 87.5 72.5t102.5 56t119.5 36.5t139.5 13q91 0 162 -17.5t124 -52.5l167 210l132 -81l-182 -229q33 -52 50.5 -123t17.5 -164q0 -50 -5 -112t-17.5 -132 t-33.5 -144t-51.5 -145t-72.5 -137.5t-97 -121.5q-81 -81 -191.5 -130t-258.5 -49q-90 0 -162 17.5t-125 53.5l-166 -211zM367 407l584 739q-30 32 -70 47t-98 15q-67 0 -120 -23.5t-95 -65.5q-62 -61 -105 -162t-72 -245q-19 -97 -24 -175t0 -130zM422 238q30 -33 70 -48 t98 -15q67 0 120.5 23.5t95.5 65.5q30 31 56 72t48 91t40 111t32 133q20 97 25 175t0 130z" />
<glyph unicode="&#xd9;" horiz-adv-x="1335" d="M123 329q0 34 4 73.5t15 95.5l172 884h277l-170 -872q-9 -48 -13 -83t-4 -62q0 -50 12 -85.5t36.5 -57.5t62 -32t86.5 -10q58 0 106 14.5t86 50t66 92.5t45 144l176 901h273l-176 -899q-28 -142 -84 -238.5t-135 -155.5t-180.5 -85.5t-218.5 -26.5q-105 0 -186 20.5 t-137 63.5t-84.5 109.5t-28.5 158.5zM474 1597l123 161l365 -172l-84 -113z" />
<glyph unicode="&#xda;" horiz-adv-x="1335" d="M123 329q0 34 4 73.5t15 95.5l172 884h277l-170 -872q-9 -48 -13 -83t-4 -62q0 -50 12 -85.5t36.5 -57.5t62 -32t86.5 -10q58 0 106 14.5t86 50t66 92.5t45 144l176 901h273l-176 -899q-28 -142 -84 -238.5t-135 -155.5t-180.5 -85.5t-218.5 -26.5q-105 0 -186 20.5 t-137 63.5t-84.5 109.5t-28.5 158.5zM763 1586l374 172l115 -161l-414 -124z" />
<glyph unicode="&#xdb;" horiz-adv-x="1335" d="M123 329q0 34 4 73.5t15 95.5l172 884h277l-170 -872q-9 -48 -13 -83t-4 -62q0 -50 12 -85.5t36.5 -57.5t62 -32t86.5 -10q58 0 106 14.5t86 50t66 92.5t45 144l176 901h273l-176 -899q-28 -142 -84 -238.5t-135 -155.5t-180.5 -85.5t-218.5 -26.5q-105 0 -186 20.5 t-137 63.5t-84.5 109.5t-28.5 158.5zM554 1579l347 179l279 -176l-82 -109l-227 106l-263 -106z" />
<glyph unicode="&#xdc;" horiz-adv-x="1335" d="M123 329q0 34 4 73.5t15 95.5l172 884h277l-170 -872q-9 -48 -13 -83t-4 -62q0 -50 12 -85.5t36.5 -57.5t62 -32t86.5 -10q58 0 106 14.5t86 50t66 92.5t45 144l176 901h273l-176 -899q-28 -142 -84 -238.5t-135 -155.5t-180.5 -85.5t-218.5 -26.5q-105 0 -186 20.5 t-137 63.5t-84.5 109.5t-28.5 158.5zM532 1567q0 17 3 35t8 34t11 28.5t13 19.5q17 17 42.5 24t68.5 7q32 0 53.5 -4t34.5 -13t18.5 -24.5t5.5 -38.5q0 -17 -2.5 -34.5t-7.5 -34t-11 -28.5t-13 -19q-17 -17 -42.5 -24.5t-68.5 -7.5q-31 0 -52.5 4t-35 13.5t-19.5 24.5t-6 38 zM954 1567q0 17 2.5 35t7.5 34t11.5 28.5t12.5 19.5q18 17 43.5 24t67.5 7q32 0 53 -4t35 -13t19.5 -24.5t5.5 -38.5q0 -17 -2.5 -34.5t-7.5 -34t-11 -28.5t-13 -19q-17 -17 -42.5 -24.5t-68.5 -7.5q-32 0 -53.5 4t-34.5 13.5t-19 24.5t-6 38z" />
<glyph unicode="&#xdd;" horiz-adv-x="1001" d="M157 1382h293q11 -76 23.5 -147t27.5 -139t31.5 -134t36.5 -131q45 61 88.5 129.5t84.5 138.5t79.5 142t73.5 141h284q-65 -117 -129.5 -225t-130.5 -209t-133.5 -193.5t-137.5 -176.5l-112 -578h-277l113 578q-36 90 -67.5 182t-58 191t-49 206t-40.5 225zM596 1586 l374 172l115 -161l-414 -124z" />
<glyph unicode="&#xde;" horiz-adv-x="1107" d="M49 0l268 1382h278l-41 -211h46h62q120 0 205 -24t140 -67.5t80.5 -106t25.5 -138.5q0 -65 -12 -133t-41.5 -132.5t-78 -122.5t-122.5 -101.5t-174.5 -68.5t-234.5 -25h-75l-49 -252h-277zM414 455h79q63 0 112.5 14.5t86.5 41t61.5 61t39 72.5t21 76.5t6.5 73.5 q0 42 -11.5 74.5t-38.5 55t-69 34t-102 11.5h-85z" />
<glyph unicode="&#xdf;" horiz-adv-x="1159" d="M-293 -309l57 150q31 -11 60.5 -17.5t56.5 -6.5q60 0 93 30t48 103l207 1069q22 111 63.5 195t106.5 142t156 88t212 30q83 0 147.5 -19t108.5 -53.5t67 -82.5t23 -107q0 -77 -21 -129t-52.5 -90.5t-68.5 -66t-69 -53.5t-53 -55.5t-21 -68.5q0 -36 18 -63t45 -52.5 t57.5 -51.5t57 -58t44.5 -74t18 -98q0 -68 -23.5 -134t-71.5 -118.5t-121 -84t-172 -31.5q-38 0 -73 3.5t-66.5 11.5t-59.5 20.5t-56 29.5l46 134q36 -9 79.5 -14.5t83.5 -5.5q36 0 66 11t51 30.5t33 45t12 56.5q0 38 -17.5 67t-43.5 54t-57 49t-57 54t-44 68t-18 91 q0 54 13.5 95t34.5 73t47.5 56.5t54.5 47t55 43.5t48 46.5t33.5 57t12.5 72.5q0 52 -31 78.5t-93 26.5q-56 0 -96 -17t-67.5 -49.5t-46 -81t-30.5 -111.5l-208 -1073q-15 -77 -42 -137.5t-68 -102t-100 -64.5t-136 -23q-39 0 -72 6t-62 14.5t-53.5 20t-45.5 24.5z" />
<glyph unicode="&#xe0;" horiz-adv-x="1091" d="M54 318q0 69 11 150.5t37.5 162.5t72 156t114.5 133.5t166 93.5t226 35q71 0 137 -6.5t118 -14.5q60 -9 115 -21l-196 -1007h-218l23 185q-32 -45 -70 -83.5t-81.5 -66t-90 -43t-93.5 -15.5q-71 0 -122.5 28t-84.5 74.5t-48.5 108.5t-15.5 130zM325 354q0 -86 24 -128.5 t74 -42.5q37 0 78.5 27.5t81 79.5t72 129.5t53.5 178.5l47 244q-16 5 -35 9q-16 4 -38 7t-45 3q-61 0 -108.5 -27t-81.5 -71t-57.5 -100t-38 -111.5t-20.5 -108t-6 -89.5zM384 1382l187 103l258 -277l-136 -71z" />
<glyph unicode="&#xe1;" horiz-adv-x="1091" d="M54 318q0 69 11 150.5t37.5 162.5t72 156t114.5 133.5t166 93.5t226 35q71 0 137 -6.5t118 -14.5q60 -9 115 -21l-196 -1007h-218l23 185q-32 -45 -70 -83.5t-81.5 -66t-90 -43t-93.5 -15.5q-71 0 -122.5 28t-84.5 74.5t-48.5 108.5t-15.5 130zM325 354q0 -86 24 -128.5 t74 -42.5q37 0 78.5 27.5t81 79.5t72 129.5t53.5 178.5l47 244q-16 5 -35 9q-16 4 -38 7t-45 3q-61 0 -108.5 -27t-81.5 -71t-57.5 -100t-38 -111.5t-20.5 -108t-6 -89.5zM549 1208l275 277l181 -103l-327 -245z" />
<glyph unicode="&#xe2;" horiz-adv-x="1091" d="M54 318q0 69 11 150.5t37.5 162.5t72 156t114.5 133.5t166 93.5t226 35q71 0 137 -6.5t118 -14.5q60 -9 115 -21l-196 -1007h-218l23 185q-32 -45 -70 -83.5t-81.5 -66t-90 -43t-93.5 -15.5q-71 0 -122.5 28t-84.5 74.5t-48.5 108.5t-15.5 130zM325 354q0 -86 24 -128.5 t74 -42.5q37 0 78.5 27.5t81 79.5t72 129.5t53.5 178.5l47 244q-16 5 -35 9q-16 4 -38 7t-45 3q-61 0 -108.5 -27t-81.5 -71t-57.5 -100t-38 -111.5t-20.5 -108t-6 -89.5zM380 1242l354 254l245 -252l-93 -104l-190 146l-249 -146z" />
<glyph unicode="&#xe3;" horiz-adv-x="1091" d="M54 318q0 69 11 150.5t37.5 162.5t72 156t114.5 133.5t166 93.5t226 35q71 0 137 -6.5t118 -14.5q60 -9 115 -21l-196 -1007h-218l23 185q-32 -45 -70 -83.5t-81.5 -66t-90 -43t-93.5 -15.5q-71 0 -122.5 28t-84.5 74.5t-48.5 108.5t-15.5 130zM325 354q0 -86 24 -128.5 t74 -42.5q37 0 78.5 27.5t81 79.5t72 129.5t53.5 178.5l47 244q-16 5 -35 9q-16 4 -38 7t-45 3q-61 0 -108.5 -27t-81.5 -71t-57.5 -100t-38 -111.5t-20.5 -108t-6 -89.5zM341 1244q26 45 52 80.5t55.5 58.5t64 35.5t76.5 12.5q33 0 58.5 -8t46.5 -19t38 -24t32 -23.5 t29.5 -18.5t30.5 -8q14 0 26.5 4.5t26 16.5t28.5 30.5t35 45.5l103 -74q-26 -46 -52.5 -81t-56.5 -58.5t-64.5 -35.5t-76.5 -12q-33 0 -58.5 8t-46.5 18.5t-37.5 23.5t-32 24t-29.5 19t-31 8q-14 0 -26.5 -5.5t-25 -16.5t-28 -30t-34.5 -46z" />
<glyph unicode="&#xe4;" horiz-adv-x="1091" d="M54 318q0 69 11 150.5t37.5 162.5t72 156t114.5 133.5t166 93.5t226 35q71 0 137 -6.5t118 -14.5q60 -9 115 -21l-196 -1007h-218l23 185q-32 -45 -70 -83.5t-81.5 -66t-90 -43t-93.5 -15.5q-71 0 -122.5 28t-84.5 74.5t-48.5 108.5t-15.5 130zM325 354q0 -86 24 -128.5 t74 -42.5q37 0 78.5 27.5t81 79.5t72 129.5t53.5 178.5l47 244q-16 5 -35 9q-16 4 -38 7t-45 3q-61 0 -108.5 -27t-81.5 -71t-57.5 -100t-38 -111.5t-20.5 -108t-6 -89.5zM362 1261q0 15 3 33t8.5 36.5t13.5 34t18 25.5q15 16 41.5 23t63.5 7q58 0 86.5 -18t28.5 -63 q0 -15 -3 -33.5t-8.5 -36.5t-13.5 -33.5t-18 -26.5q-16 -15 -42.5 -22t-63.5 -7q-58 0 -86 17.5t-28 63.5zM769 1261q0 15 3.5 33t8.5 36.5t13 34t17 25.5q16 16 43 23t64 7q58 0 86.5 -18t28.5 -63q0 -15 -3.5 -33.5t-9 -36.5t-13.5 -33.5t-17 -26.5q-16 -15 -43 -22 t-64 -7q-57 0 -85.5 17.5t-28.5 63.5z" />
<glyph unicode="&#xe5;" horiz-adv-x="1091" d="M54 318q0 69 11 150.5t37.5 162.5t72 156t114.5 133.5t166 93.5t226 35q71 0 137 -6.5t118 -14.5q60 -9 115 -21l-196 -1007h-218l23 185q-32 -45 -70 -83.5t-81.5 -66t-90 -43t-93.5 -15.5q-71 0 -122.5 28t-84.5 74.5t-48.5 108.5t-15.5 130zM325 354q0 -86 24 -128.5 t74 -42.5q37 0 78.5 27.5t81 79.5t72 129.5t53.5 178.5l47 244q-16 5 -35 9q-16 4 -38 7t-45 3q-61 0 -108.5 -27t-81.5 -71t-57.5 -100t-38 -111.5t-20.5 -108t-6 -89.5zM449 1275q0 43 13.5 87t46.5 80t86 59t132 23q57 0 98.5 -11t68.5 -31.5t40.5 -50.5t13.5 -70 q0 -29 -6 -58t-19.5 -56.5t-35 -52t-52 -42.5t-72 -28.5t-93.5 -10.5q-58 0 -100 10.5t-69 31t-39.5 51t-12.5 69.5zM612 1288q0 -28 17 -42t53 -14q31 0 50.5 11.5t31 28.5t16 37.5t4.5 39.5q0 27 -17 41t-51 14q-31 0 -51 -11.5t-32 -28t-16.5 -37t-4.5 -39.5z" />
<glyph unicode="&#xe6;" horiz-adv-x="1579" d="M8 223q0 60 15.5 113.5t47 98t80 79.5t113.5 59t148 37t182 13h75l13 69q4 13 5 26.5t1 26.5q0 57 -40 85t-126 28q-39 0 -80.5 -5t-82.5 -13.5t-80 -19t-76 -22.5l-8 161q50 19 99 36t100.5 28.5t106 18t112.5 6.5q49 0 90 -8t73.5 -22t56.5 -37t41 -52 q67 61 145.5 90.5t174.5 29.5q75 0 137.5 -17.5t107 -50.5t69.5 -80.5t25 -107.5q0 -70 -32 -131t-106 -106t-196 -71t-304 -26q-3 -16 -5 -31t-3.5 -28.5t-2.5 -26t-1 -22.5q0 -44 11 -76t34 -54t57 -32.5t79 -10.5q34 0 73 3.5t79 11t81 18t81 23.5l26 -150 q-88 -47 -192.5 -77t-218.5 -30q-61 0 -113.5 12t-95.5 37t-74.5 63t-51.5 89q-33 -45 -75.5 -82.5t-91 -63.5t-99 -40.5t-96.5 -14.5q-71 0 -124.5 17t-90 49t-55 77.5t-18.5 102.5zM274 279q0 -53 28.5 -81.5t86.5 -28.5q26 0 51.5 9.5t50 26.5t46.5 39.5t39.5 48t30.5 53 t18 54.5l13 66h-78q-53 0 -95.5 -6.5t-74.5 -18.5t-54 -29t-35.5 -37.5t-20 -45t-6.5 -50.5zM930 623q75 0 130 5t94 14.5t64 23.5t39.5 31t20 37t5.5 42q0 23 -7 41t-22.5 30t-38 18.5t-53.5 6.5q-45 0 -81.5 -18.5t-65.5 -51.5t-50.5 -79t-34.5 -100z" />
<glyph unicode="&#xe7;" horiz-adv-x="866" d="M55 336q0 48 7 104.5t21 115t36 118.5t54 115t73 102.5t93.5 82.5t116 55t138.5 20q49 0 91.5 -8.5t79 -24.5t66 -40.5t51.5 -54.5l-109 -137q-34 34 -72 51.5t-85 17.5q-53 0 -94.5 -25t-73 -67t-54 -95t-37 -108.5t-21 -109.5t-6.5 -97q0 -88 35 -130.5t110 -42.5 q55 0 110 21.5t110 65.5l64 -137q-35 -31 -74.5 -58t-84.5 -47t-96 -31.5t-110 -11.5q-83 0 -146 22.5t-106 67t-65 111t-22 155.5zM109 -315q39 32 64 58.5t39 53t19.5 54.5t4.5 62h224q1 -92 -50.5 -161.5t-155.5 -126.5z" />
<glyph unicode="&#xe8;" horiz-adv-x="1011" d="M54 335q0 30 4 77t15 102t30 116.5t49 121t72.5 114t101 94.5t134 64.5t170.5 24.5q75 0 137 -17.5t107.5 -50.5t70 -80.5t24.5 -107.5q0 -70 -32 -131t-105.5 -106t-195.5 -71t-304 -26q-3 -13 -5 -27.5t-3.5 -29t-3 -28t-1.5 -23.5q0 -44 11.5 -76t34 -54t57 -32.5 t79.5 -10.5q34 0 72 3.5t79 11t82 18t81 23.5l25 -150q-87 -47 -192 -77t-219 -30q-84 0 -153 20t-118 63t-76.5 111t-27.5 164zM347 1382l187 103l258 -277l-136 -71zM366 623q75 0 130 5t94.5 14.5t64 23.5t39 31t20 37t5.5 42q0 23 -7 41t-22 30t-38 18.5t-54 6.5 q-44 0 -80.5 -18.5t-66 -51.5t-50.5 -79t-35 -100z" />
<glyph unicode="&#xe9;" horiz-adv-x="1011" d="M54 335q0 30 4 77t15 102t30 116.5t49 121t72.5 114t101 94.5t134 64.5t170.5 24.5q75 0 137 -17.5t107.5 -50.5t70 -80.5t24.5 -107.5q0 -70 -32 -131t-105.5 -106t-195.5 -71t-304 -26q-3 -13 -5 -27.5t-3.5 -29t-3 -28t-1.5 -23.5q0 -44 11.5 -76t34 -54t57 -32.5 t79.5 -10.5q34 0 72 3.5t79 11t82 18t81 23.5l25 -150q-87 -47 -192 -77t-219 -30q-84 0 -153 20t-118 63t-76.5 111t-27.5 164zM366 623q75 0 130 5t94.5 14.5t64 23.5t39 31t20 37t5.5 42q0 23 -7 41t-22 30t-38 18.5t-54 6.5q-44 0 -80.5 -18.5t-66 -51.5t-50.5 -79 t-35 -100zM529 1208l275 277l181 -103l-327 -245z" />
<glyph unicode="&#xea;" horiz-adv-x="1011" d="M54 335q0 30 4 77t15 102t30 116.5t49 121t72.5 114t101 94.5t134 64.5t170.5 24.5q75 0 137 -17.5t107.5 -50.5t70 -80.5t24.5 -107.5q0 -70 -32 -131t-105.5 -106t-195.5 -71t-304 -26q-3 -13 -5 -27.5t-3.5 -29t-3 -28t-1.5 -23.5q0 -44 11.5 -76t34 -54t57 -32.5 t79.5 -10.5q34 0 72 3.5t79 11t82 18t81 23.5l25 -150q-87 -47 -192 -77t-219 -30q-84 0 -153 20t-118 63t-76.5 111t-27.5 164zM366 623q75 0 130 5t94.5 14.5t64 23.5t39 31t20 37t5.5 42q0 23 -7 41t-22 30t-38 18.5t-54 6.5q-44 0 -80.5 -18.5t-66 -51.5t-50.5 -79 t-35 -100zM367 1242l354 254l245 -252l-93 -104l-190 146l-249 -146z" />
<glyph unicode="&#xeb;" horiz-adv-x="1011" d="M54 335q0 30 4 77t15 102t30 116.5t49 121t72.5 114t101 94.5t134 64.5t170.5 24.5q75 0 137 -17.5t107.5 -50.5t70 -80.5t24.5 -107.5q0 -70 -32 -131t-105.5 -106t-195.5 -71t-304 -26q-3 -13 -5 -27.5t-3.5 -29t-3 -28t-1.5 -23.5q0 -44 11.5 -76t34 -54t57 -32.5 t79.5 -10.5q34 0 72 3.5t79 11t82 18t81 23.5l25 -150q-87 -47 -192 -77t-219 -30q-84 0 -153 20t-118 63t-76.5 111t-27.5 164zM344 1261q0 15 3 33t8.5 36.5t13.5 34t18 25.5q15 16 41.5 23t63.5 7q58 0 86.5 -18t28.5 -63q0 -15 -3 -33.5t-8.5 -36.5t-13.5 -33.5 t-18 -26.5q-16 -15 -42.5 -22t-63.5 -7q-58 0 -86 17.5t-28 63.5zM366 623q75 0 130 5t94.5 14.5t64 23.5t39 31t20 37t5.5 42q0 23 -7 41t-22 30t-38 18.5t-54 6.5q-44 0 -80.5 -18.5t-66 -51.5t-50.5 -79t-35 -100zM751 1261q0 15 3.5 33t8.5 36.5t13 34t17 25.5 q16 16 43 23t64 7q58 0 86.5 -18t28.5 -63q0 -15 -3.5 -33.5t-9 -36.5t-13.5 -33.5t-17 -26.5q-16 -15 -43 -22t-64 -7q-57 0 -85.5 17.5t-28.5 63.5z" />
<glyph unicode="&#xec;" horiz-adv-x="530" d="M32 0l198 1026h264l-199 -1026h-263zM105 1382l187 103l258 -277l-136 -71z" />
<glyph unicode="&#xed;" horiz-adv-x="530" d="M32 0l198 1026h264l-199 -1026h-263zM248 1208l275 277l181 -103l-327 -245z" />
<glyph unicode="&#xee;" horiz-adv-x="530" d="M32 0l198 1026h264l-199 -1026h-263zM97 1242l354 254l245 -252l-93 -104l-190 146l-249 -146z" />
<glyph unicode="&#xef;" horiz-adv-x="530" d="M32 0l198 1026h264l-199 -1026h-263zM113 1261q0 15 3 33t8 36.5t12.5 34t18.5 25.5q16 16 41.5 23t61.5 7q56 0 83.5 -18t27.5 -63q0 -15 -3 -33.5t-8 -36.5t-13 -33.5t-17 -26.5q-16 -15 -42.5 -22t-61.5 -7q-56 0 -83.5 17.5t-27.5 63.5zM464 1261q0 15 3 33t8 36.5 t13 34t18 25.5q16 16 41.5 23t61.5 7q56 0 84 -18t28 -63q0 -15 -3 -33.5t-8.5 -36.5t-13 -33.5t-17.5 -26.5q-16 -15 -42 -22t-62 -7q-56 0 -83.5 17.5t-27.5 63.5z" />
<glyph unicode="&#xf0;" horiz-adv-x="1091" d="M44 337q0 61 8.5 124t27 123.5t45.5 117.5t63.5 106.5t82 91.5t101 71.5t121 46t140.5 16.5q14 0 31.5 -1t32.5 -3t27.5 -4t17.5 -4q-5 16 -11.5 34.5t-15.5 38t-21 40t-25 41.5l-206 -76l-83 129l205 74q-31 39 -63.5 74.5t-77.5 74.5h317q10 -9 22 -20.5t23 -23t22 -24 t20 -23.5l188 67l81 -129l-189 -68q26 -44 47 -90.5t36.5 -98t23.5 -106t8 -113.5t-6.5 -126.5t-21.5 -138t-38.5 -141t-57.5 -134.5t-80.5 -119.5t-106 -96t-134 -64t-164.5 -23.5q-99 0 -172.5 23t-122 68t-72 111.5t-23.5 154.5zM330 360q0 -46 9 -79.5t27 -55.5 t44.5 -33t62.5 -11q41 0 75.5 20t62 53.5t48.5 77.5t37.5 93t26.5 101t17.5 99.5t10 88t2.5 69.5q0 15 -0.5 27.5t-0.5 25.5q-9 3 -23.5 6.5t-31.5 5.5t-35 3.5t-35 1.5q-58 0 -103.5 -26.5t-78 -70t-54.5 -97.5t-35.5 -108.5t-19.5 -105t-6 -85.5z" />
<glyph unicode="&#xf1;" horiz-adv-x="1116" d="M32 0l198 1026h219l-24 -185q30 45 68.5 83.5t82.5 66t91.5 43t98.5 15.5q61 0 109 -16.5t80 -51t48.5 -88t16.5 -126.5q0 -63 -11 -133t-29.5 -159t-44.5 -204.5t-54 -270.5h-264q31 159 56 275.5t42.5 201t27.5 142t10 99.5q0 61 -21 90.5t-70 29.5q-40 0 -82 -30 t-81.5 -83.5t-71.5 -129.5t-49 -167l-83 -428h-263zM356 1244q26 45 52 80.5t55.5 58.5t64 35.5t76.5 12.5q33 0 58.5 -8t46.5 -19t38 -24t32 -23.5t29.5 -18.5t30.5 -8q14 0 26.5 4.5t26 16.5t28.5 30.5t35 45.5l103 -74q-26 -46 -52.5 -81t-56.5 -58.5t-64.5 -35.5 t-76.5 -12q-33 0 -58.5 8t-46.5 18.5t-37.5 23.5t-32 24t-29.5 19t-31 8q-14 0 -26.5 -5.5t-25 -16.5t-28 -30t-34.5 -46z" />
<glyph unicode="&#xf2;" horiz-adv-x="1101" d="M57 335q0 47 5.5 102.5t18 114t33.5 118.5t54 115t77.5 103t104 84t134.5 56.5t169 20.5q91 0 163 -20.5t121 -64t75.5 -111.5t26.5 -162q0 -47 -5 -102t-17.5 -114t-33.5 -118.5t-54 -115t-78 -103.5t-104.5 -84t-134.5 -56.5t-170 -20.5q-90 0 -161.5 20.5t-120.5 64 t-76 111.5t-27 162zM325 345q0 -94 37 -134t118 -40q43 0 79.5 16.5t65 44.5t50.5 65.5t38.5 79t28 85t18 84t9.5 75.5t3 60q0 94 -37.5 134t-118.5 40q-44 0 -79.5 -16.5t-64.5 -44.5t-51.5 -65.5t-38.5 -79t-27 -85t-17.5 -84t-9.5 -75t-3 -60.5zM372 1382l187 103 l258 -277l-136 -71z" />
<glyph unicode="&#xf3;" horiz-adv-x="1101" d="M57 335q0 47 5.5 102.5t18 114t33.5 118.5t54 115t77.5 103t104 84t134.5 56.5t169 20.5q91 0 163 -20.5t121 -64t75.5 -111.5t26.5 -162q0 -47 -5 -102t-17.5 -114t-33.5 -118.5t-54 -115t-78 -103.5t-104.5 -84t-134.5 -56.5t-170 -20.5q-90 0 -161.5 20.5t-120.5 64 t-76 111.5t-27 162zM325 345q0 -94 37 -134t118 -40q43 0 79.5 16.5t65 44.5t50.5 65.5t38.5 79t28 85t18 84t9.5 75.5t3 60q0 94 -37.5 134t-118.5 40q-44 0 -79.5 -16.5t-64.5 -44.5t-51.5 -65.5t-38.5 -79t-27 -85t-17.5 -84t-9.5 -75t-3 -60.5zM539 1208l275 277 l181 -103l-327 -245z" />
<glyph unicode="&#xf4;" horiz-adv-x="1101" d="M57 335q0 47 5.5 102.5t18 114t33.5 118.5t54 115t77.5 103t104 84t134.5 56.5t169 20.5q91 0 163 -20.5t121 -64t75.5 -111.5t26.5 -162q0 -47 -5 -102t-17.5 -114t-33.5 -118.5t-54 -115t-78 -103.5t-104.5 -84t-134.5 -56.5t-170 -20.5q-90 0 -161.5 20.5t-120.5 64 t-76 111.5t-27 162zM325 345q0 -94 37 -134t118 -40q43 0 79.5 16.5t65 44.5t50.5 65.5t38.5 79t28 85t18 84t9.5 75.5t3 60q0 94 -37.5 134t-118.5 40q-44 0 -79.5 -16.5t-64.5 -44.5t-51.5 -65.5t-38.5 -79t-27 -85t-17.5 -84t-9.5 -75t-3 -60.5zM390 1242l354 254 l245 -252l-93 -104l-190 146l-249 -146z" />
<glyph unicode="&#xf5;" horiz-adv-x="1101" d="M57 335q0 47 5.5 102.5t18 114t33.5 118.5t54 115t77.5 103t104 84t134.5 56.5t169 20.5q91 0 163 -20.5t121 -64t75.5 -111.5t26.5 -162q0 -47 -5 -102t-17.5 -114t-33.5 -118.5t-54 -115t-78 -103.5t-104.5 -84t-134.5 -56.5t-170 -20.5q-90 0 -161.5 20.5t-120.5 64 t-76 111.5t-27 162zM325 345q0 -94 37 -134t118 -40q43 0 79.5 16.5t65 44.5t50.5 65.5t38.5 79t28 85t18 84t9.5 75.5t3 60q0 94 -37.5 134t-118.5 40q-44 0 -79.5 -16.5t-64.5 -44.5t-51.5 -65.5t-38.5 -79t-27 -85t-17.5 -84t-9.5 -75t-3 -60.5zM345 1244q26 45 52 80.5 t55.5 58.5t64 35.5t76.5 12.5q33 0 58.5 -8t46.5 -19t38 -24t32 -23.5t29.5 -18.5t30.5 -8q14 0 26.5 4.5t26 16.5t28.5 30.5t35 45.5l103 -74q-26 -46 -52.5 -81t-56.5 -58.5t-64.5 -35.5t-76.5 -12q-33 0 -58.5 8t-46.5 18.5t-37.5 23.5t-32 24t-29.5 19t-31 8 q-14 0 -26.5 -5.5t-25 -16.5t-28 -30t-34.5 -46z" />
<glyph unicode="&#xf6;" horiz-adv-x="1101" d="M57 335q0 47 5.5 102.5t18 114t33.5 118.5t54 115t77.5 103t104 84t134.5 56.5t169 20.5q91 0 163 -20.5t121 -64t75.5 -111.5t26.5 -162q0 -47 -5 -102t-17.5 -114t-33.5 -118.5t-54 -115t-78 -103.5t-104.5 -84t-134.5 -56.5t-170 -20.5q-90 0 -161.5 20.5t-120.5 64 t-76 111.5t-27 162zM325 345q0 -94 37 -134t118 -40q43 0 79.5 16.5t65 44.5t50.5 65.5t38.5 79t28 85t18 84t9.5 75.5t3 60q0 94 -37.5 134t-118.5 40q-44 0 -79.5 -16.5t-64.5 -44.5t-51.5 -65.5t-38.5 -79t-27 -85t-17.5 -84t-9.5 -75t-3 -60.5zM364 1261q0 15 3 33 t8.5 36.5t13.5 34t18 25.5q15 16 41.5 23t63.5 7q58 0 86.5 -18t28.5 -63q0 -15 -3 -33.5t-8.5 -36.5t-13.5 -33.5t-18 -26.5q-16 -15 -42.5 -22t-63.5 -7q-58 0 -86 17.5t-28 63.5zM771 1261q0 15 3.5 33t8.5 36.5t13 34t17 25.5q16 16 43 23t64 7q58 0 86.5 -18t28.5 -63 q0 -15 -3.5 -33.5t-9 -36.5t-13.5 -33.5t-17 -26.5q-16 -15 -43 -22t-64 -7q-57 0 -85.5 17.5t-28.5 63.5z" />
<glyph unicode="&#xf7;" d="M74 519l37 188h870l-37 -188h-870zM303 166q0 19 3.5 42.5t10 45.5t15 40.5t17.5 28.5q18 17 47 24.5t75 7.5q36 0 60.5 -4t40 -13.5t22 -25.5t6.5 -39q0 -20 -4 -43t-10.5 -45t-15.5 -40.5t-18 -27.5q-18 -17 -46.5 -25t-73.5 -8q-35 0 -60 4t-40.5 14t-22 25t-6.5 39z M457 952q0 19 3.5 43.5t10 46.5t15 40t18.5 27q17 18 46 25.5t75 7.5q36 0 60.5 -3.5t39.5 -13.5t22.5 -26t7.5 -38q0 -20 -4.5 -44t-11.5 -46t-15.5 -40.5t-17.5 -27.5q-18 -17 -46.5 -24.5t-73.5 -7.5q-35 0 -60 4t-40.5 13.5t-22 25.5t-6.5 38z" />
<glyph unicode="&#xf8;" horiz-adv-x="1101" d="M-20 -79l143 180q-34 41 -50 99.5t-16 134.5q0 47 5.5 102.5t18 114t33.5 118.5t54 115t77.5 103t104 84t134.5 56.5t169 20.5q60 0 111 -10.5t92 -29.5l143 179l125 -83l-147 -184q32 -41 47 -97t15 -133q0 -47 -5 -102t-17.5 -114t-33.5 -118.5t-54 -115t-78 -103.5 t-104.5 -84t-134.5 -56.5t-170 -20.5q-55 0 -104 9t-91 28l-143 -176zM314 416q0 -23 4 -41t10 -32l392 498q-19 15 -45.5 21t-61.5 6q-45 0 -81.5 -14t-66 -38.5t-52 -58t-39.5 -70t-28.5 -75t-18 -74.5t-10 -68t-3.5 -54zM383 181q18 -13 43.5 -18t56.5 -5q43 0 79 13 t65 36.5t51.5 55t39.5 67t29.5 73t19.5 73.5t10.5 67.5t3.5 56.5q0 23 -3.5 39.5t-10.5 33.5z" />
<glyph unicode="&#xf9;" horiz-adv-x="1116" d="M90 260q0 62 11 132t30 159t44 204.5t54 270.5h265q-32 -159 -56.5 -275.5t-42.5 -201t-28 -142t-10 -98.5q0 -62 21 -91.5t72 -29.5q39 0 81 30t81 83.5t71 129.5t50 167l83 428h263l-199 -1026h-217l23 185q-32 -45 -69.5 -83.5t-81 -66t-92 -43t-98.5 -15.5 q-62 0 -110 17t-80 51.5t-48.5 87.5t-16.5 127zM383 1382l187 103l258 -277l-136 -71z" />
<glyph unicode="&#xfa;" horiz-adv-x="1116" d="M90 260q0 62 11 132t30 159t44 204.5t54 270.5h265q-32 -159 -56.5 -275.5t-42.5 -201t-28 -142t-10 -98.5q0 -62 21 -91.5t72 -29.5q39 0 81 30t81 83.5t71 129.5t50 167l83 428h263l-199 -1026h-217l23 185q-32 -45 -69.5 -83.5t-81 -66t-92 -43t-98.5 -15.5 q-62 0 -110 17t-80 51.5t-48.5 87.5t-16.5 127zM554 1208l275 277l181 -103l-327 -245z" />
<glyph unicode="&#xfb;" horiz-adv-x="1116" d="M90 260q0 62 11 132t30 159t44 204.5t54 270.5h265q-32 -159 -56.5 -275.5t-42.5 -201t-28 -142t-10 -98.5q0 -62 21 -91.5t72 -29.5q39 0 81 30t81 83.5t71 129.5t50 167l83 428h263l-199 -1026h-217l23 185q-32 -45 -69.5 -83.5t-81 -66t-92 -43t-98.5 -15.5 q-62 0 -110 17t-80 51.5t-48.5 87.5t-16.5 127zM386 1242l354 254l245 -252l-93 -104l-190 146l-249 -146z" />
<glyph unicode="&#xfc;" horiz-adv-x="1116" d="M90 260q0 62 11 132t30 159t44 204.5t54 270.5h265q-32 -159 -56.5 -275.5t-42.5 -201t-28 -142t-10 -98.5q0 -62 21 -91.5t72 -29.5q39 0 81 30t81 83.5t71 129.5t50 167l83 428h263l-199 -1026h-217l23 185q-32 -45 -69.5 -83.5t-81 -66t-92 -43t-98.5 -15.5 q-62 0 -110 17t-80 51.5t-48.5 87.5t-16.5 127zM368 1261q0 15 3 33t8.5 36.5t13.5 34t18 25.5q15 16 41.5 23t63.5 7q58 0 86.5 -18t28.5 -63q0 -15 -3 -33.5t-8.5 -36.5t-13.5 -33.5t-18 -26.5q-16 -15 -42.5 -22t-63.5 -7q-58 0 -86 17.5t-28 63.5zM775 1261q0 15 3.5 33 t8.5 36.5t13 34t17 25.5q16 16 43 23t64 7q58 0 86.5 -18t28.5 -63q0 -15 -3.5 -33.5t-9 -36.5t-13.5 -33.5t-17 -26.5q-16 -15 -43 -22t-64 -7q-57 0 -85.5 17.5t-28.5 63.5z" />
<glyph unicode="&#xfd;" horiz-adv-x="985" d="M-152 -324l30 153q10 -2 24.5 -3.5t29 -2t28 -1t24.5 -0.5q28 0 51.5 3t45 10.5t41.5 21t41 33.5q13 13 25 28.5t20 32.5t12 36.5t4 43.5q0 30 -2.5 71t-10.5 88l-91 836h275l50 -575q5 -35 8 -68.5t3 -68.5q0 -15 -1 -30.5t-3 -30.5t-5 -29.5t-7 -26.5q46 90 93.5 191.5 t91.5 209.5t81 216.5t65 211.5h279q-71 -202 -142.5 -369.5t-142.5 -303t-140.5 -242t-136.5 -186.5t-132 -135.5t-125.5 -90.5t-116 -50.5t-105.5 -15.5q-40 0 -81.5 11t-79.5 32zM502 1208l275 277l181 -103l-327 -245z" />
<glyph unicode="&#xfe;" horiz-adv-x="1091" d="M-38 -354l352 1806h264l-88 -446q-4 -19 -9.5 -40.5t-10.5 -42t-10.5 -39.5t-9.5 -34q25 39 59 75.5t74 64t86 43.5t94 16q70 0 120.5 -27.5t83 -74.5t48 -109t15.5 -130q0 -70 -10 -151t-37 -162t-72.5 -156t-114.5 -133.5t-165.5 -93.5t-226.5 -35q-22 0 -42 1.5 t-35 3.5q-18 2 -35 3l-67 -339h-263zM331 184q15 -5 35 -9q15 -4 36.5 -6.5t46.5 -2.5q61 0 107.5 27t81.5 71t58.5 99.5t37.5 111t20 108t6 89.5q0 86 -23.5 128.5t-73.5 42.5q-25 0 -51.5 -12t-54.5 -36t-54 -58.5t-49.5 -81t-43 -103t-32.5 -124.5z" />
<glyph unicode="&#xff;" horiz-adv-x="985" d="M-152 -324l30 153q10 -2 24.5 -3.5t29 -2t28 -1t24.5 -0.5q28 0 51.5 3t45 10.5t41.5 21t41 33.5q13 13 25 28.5t20 32.5t12 36.5t4 43.5q0 30 -2.5 71t-10.5 88l-91 836h275l50 -575q5 -35 8 -68.5t3 -68.5q0 -15 -1 -30.5t-3 -30.5t-5 -29.5t-7 -26.5q46 90 93.5 191.5 t91.5 209.5t81 216.5t65 211.5h279q-71 -202 -142.5 -369.5t-142.5 -303t-140.5 -242t-136.5 -186.5t-132 -135.5t-125.5 -90.5t-116 -50.5t-105.5 -15.5q-40 0 -81.5 11t-79.5 32zM298 1261q0 15 3 33t8.5 36.5t13.5 34t18 25.5q15 16 41.5 23t63.5 7q58 0 86.5 -18 t28.5 -63q0 -15 -3 -33.5t-8.5 -36.5t-13.5 -33.5t-18 -26.5q-16 -15 -42.5 -22t-63.5 -7q-58 0 -86 17.5t-28 63.5zM705 1261q0 15 3.5 33t8.5 36.5t13 34t17 25.5q16 16 43 23t64 7q58 0 86.5 -18t28.5 -63q0 -15 -3.5 -33.5t-9 -36.5t-13.5 -33.5t-17 -26.5 q-16 -15 -43 -22t-64 -7q-57 0 -85.5 17.5t-28.5 63.5z" />
<glyph unicode="&#x152;" horiz-adv-x="1601" d="M88 434q0 49 5 112t17.5 132.5t33 143t51 145t73 138t98.5 122.5q40 40 87.5 72.5t102.5 56t119 36.5t138 13q57 0 109.5 -5t96.5 -18h644l-42 -211h-439l-69 -357h365l-40 -203h-365l-79 -397h449l-40 -214h-648q-49 -11 -99.5 -17t-95.5 -6q-116 0 -204 27t-148 82.5 t-90 141.5t-30 206zM380 446q0 -72 13.5 -120t40.5 -79t67 -44.5t93 -13.5q36 0 66.5 6t57.5 16l186 953q-25 15 -56 22.5t-68 7.5q-61 0 -109 -22.5t-87 -61.5q-40 -40 -71.5 -96.5t-54 -119.5t-37.5 -128.5t-24.5 -126t-13 -111t-3.5 -82.5z" />
<glyph unicode="&#x153;" horiz-adv-x="1683" d="M57 335q0 47 5.5 102.5t18 114t33.5 118.5t54 115t77.5 103t104 84t134.5 56.5t169 20.5q53 0 99.5 -9t85 -28t67 -49t47.5 -72q32 35 68.5 64t79.5 50t93 32.5t109 11.5q75 0 137 -17.5t107 -50.5t69.5 -80.5t24.5 -107.5q0 -70 -31.5 -131t-105 -106t-195.5 -71 t-304 -26q-3 -13 -5.5 -27.5t-4 -29t-2.5 -28t-1 -23.5q0 -44 11.5 -76t34 -54t56.5 -32.5t79 -10.5q34 0 72.5 3.5t79.5 11t82 18t81 23.5l24 -150q-87 -47 -192 -77t-218 -30q-51 0 -95.5 9t-81.5 27.5t-65.5 47.5t-46.5 71q-33 -35 -71.5 -63.5t-84 -49t-98.5 -31.5 t-116 -11q-90 0 -161.5 20.5t-120.5 64t-76 111.5t-27 162zM325 345q0 -94 37 -134t118 -40q43 0 79.5 16.5t65 44.5t50.5 65.5t38.5 79t28 85t18 84t9.5 75.5t3 60q0 94 -37.5 134t-118.5 40q-44 0 -79.5 -16.5t-64.5 -44.5t-51.5 -65.5t-38.5 -79t-27 -85t-17.5 -84 t-9.5 -75t-3 -60.5zM1037 623q75 0 130.5 5t95 14.5t64.5 23.5t39 31t20 37t6 42q0 23 -7.5 41t-22.5 30t-37.5 18.5t-54.5 6.5q-44 0 -80.5 -18.5t-66 -51.5t-50.5 -79t-36 -100z" />
<glyph unicode="&#x178;" horiz-adv-x="1001" d="M157 1382h293q11 -76 23.5 -147t27.5 -139t31.5 -134t36.5 -131q45 61 88.5 129.5t84.5 138.5t79.5 142t73.5 141h284q-65 -117 -129.5 -225t-130.5 -209t-133.5 -193.5t-137.5 -176.5l-112 -578h-277l113 578q-36 90 -67.5 182t-58 191t-49 206t-40.5 225zM377 1567 q0 17 3 35t8 34t11 28.5t13 19.5q17 17 42.5 24t68.5 7q32 0 53.5 -4t34.5 -13t18.5 -24.5t5.5 -38.5q0 -17 -2.5 -34.5t-7.5 -34t-11 -28.5t-13 -19q-17 -17 -42.5 -24.5t-68.5 -7.5q-31 0 -52.5 4t-35 13.5t-19.5 24.5t-6 38zM799 1567q0 17 2.5 35t7.5 34t11.5 28.5 t12.5 19.5q18 17 43.5 24t67.5 7q32 0 53 -4t35 -13t19.5 -24.5t5.5 -38.5q0 -17 -2.5 -34.5t-7.5 -34t-11 -28.5t-13 -19q-17 -17 -42.5 -24.5t-68.5 -7.5q-32 0 -53.5 4t-34.5 13.5t-19 24.5t-6 38z" />
<glyph unicode="&#x2c6;" horiz-adv-x="718" d="M195 1242l354 254l245 -252l-93 -104l-190 146l-249 -146z" />
<glyph unicode="&#x2dc;" horiz-adv-x="841" d="M219 1244q26 45 52 80.5t55.5 58.5t64 35.5t76.5 12.5q33 0 58.5 -8t46.5 -19t38 -24t32 -23.5t29.5 -18.5t30.5 -8q14 0 26.5 4.5t26 16.5t28.5 30.5t35 45.5l103 -74q-26 -46 -52.5 -81t-56.5 -58.5t-64.5 -35.5t-76.5 -12q-33 0 -58.5 8t-46.5 18.5t-37.5 23.5t-32 24 t-29.5 19t-31 8q-14 0 -26.5 -5.5t-25 -16.5t-28 -30t-34.5 -46z" />
<glyph unicode="&#x2000;" horiz-adv-x="879" />
<glyph unicode="&#x2001;" horiz-adv-x="1758" />
<glyph unicode="&#x2002;" horiz-adv-x="879" />
<glyph unicode="&#x2003;" horiz-adv-x="1758" />
<glyph unicode="&#x2004;" horiz-adv-x="586" />
<glyph unicode="&#x2005;" horiz-adv-x="439" />
<glyph unicode="&#x2006;" horiz-adv-x="293" />
<glyph unicode="&#x2007;" horiz-adv-x="293" />
<glyph unicode="&#x2008;" horiz-adv-x="219" />
<glyph unicode="&#x2009;" horiz-adv-x="351" />
<glyph unicode="&#x200a;" horiz-adv-x="97" />
<glyph unicode="&#x2010;" horiz-adv-x="485" d="M45 489l38 195h430l-38 -195h-430z" />
<glyph unicode="&#x2011;" horiz-adv-x="485" d="M45 489l38 195h430l-38 -195h-430z" />
<glyph unicode="&#x2012;" horiz-adv-x="485" d="M45 489l38 195h430l-38 -195h-430z" />
<glyph unicode="&#x2013;" d="M90 519l37 189h842l-38 -189h-841z" />
<glyph unicode="&#x2014;" horiz-adv-x="2048" d="M262 519l38 189h1519l-37 -189h-1520z" />
<glyph unicode="&#x2018;" horiz-adv-x="575" d="M245 1122q0 62 20 130t63.5 133.5t112 127.5t165.5 114l89 -104q-57 -37 -92 -67.5t-54 -55t-25.5 -45t-6.5 -37.5q0 -15 5.5 -24.5t13 -20t13 -25t5.5 -38.5q0 -17 -3 -39.5t-9 -44.5t-15.5 -41t-20.5 -31q-19 -18 -52 -26.5t-83 -8.5q-36 0 -60 6t-38.5 19t-21 32 t-6.5 46z" />
<glyph unicode="&#x2019;" horiz-adv-x="585" d="M186 1063q56 37 91 67t54.5 54.5t26.5 45t7 38.5q0 15 -6.5 24.5t-13 20t-12.5 25t-6 37.5q0 17 3 39.5t9 44.5t15.5 41.5t21.5 31.5q18 18 51 26.5t83 8.5q36 0 60.5 -6.5t39 -19t20.5 -32t6 -45.5q0 -63 -20 -130.5t-63.5 -133t-112 -127.5t-166.5 -115z" />
<glyph unicode="&#x201a;" horiz-adv-x="618" d="M-67 -225q57 37 92 67t55 54.5t27 44.5t7 39q0 14 -6 23.5t-13.5 20t-13.5 24.5t-6 39q0 17 3.5 39t9.5 44.5t15.5 41t21.5 31.5q19 18 51.5 26.5t82.5 8.5q36 0 60.5 -6.5t39 -18.5t20.5 -31.5t6 -45.5q0 -63 -20 -131t-63.5 -133.5t-112.5 -126.5t-166 -114z" />
<glyph unicode="&#x201c;" horiz-adv-x="966" d="M248 1125q0 62 19 128.5t61 131t108.5 125.5t161.5 113l75 -102q-55 -37 -90 -66.5t-54 -54t-26 -45t-7 -37.5q0 -14 5.5 -23.5t12.5 -19.5t12.5 -24t5.5 -38q0 -17 -3 -39t-9 -43.5t-15 -40.5t-22 -30q-9 -8 -19 -15t-24 -11t-32.5 -6t-41.5 -2q-36 0 -58.5 6t-36 18.5 t-18.5 31t-5 43.5zM663 1125q0 62 19 128.5t59.5 130t105.5 122t157 106.5l74 -103q-52 -33 -84 -60t-50.5 -50.5t-25.5 -43.5t-7 -37q0 -14 6 -23.5t13 -19.5t12.5 -24t5.5 -38q0 -17 -3.5 -39t-9.5 -43.5t-15.5 -40.5t-20.5 -30q-9 -8 -19.5 -15t-24 -11t-32 -6t-42.5 -2 q-36 0 -58.5 6t-35.5 18.5t-18.5 31t-5.5 43.5z" />
<glyph unicode="&#x201d;" horiz-adv-x="976" d="M194 1075q52 33 84.5 60t50.5 50t24.5 43t6.5 39q0 14 -5.5 23t-12 19.5t-12 24.5t-5.5 37q0 17 3 39t9 43.5t15 40t21 31.5q9 8 19.5 14.5t24.5 10.5t32 6.5t43 2.5q35 0 57.5 -6.5t36 -18.5t18.5 -30.5t5 -44.5q0 -62 -19 -128t-60 -129.5t-106 -122.5t-156 -106z M600 1065q55 36 89.5 65.5t54 53.5t26 44t6.5 39q0 14 -5.5 23t-12.5 19.5t-13 24.5t-6 37q0 17 3.5 39t10 43.5t15 40t20.5 31.5q9 8 19.5 14.5t25 10.5t32.5 6.5t42 2.5q35 0 58 -6.5t36 -18.5t18.5 -30.5t5.5 -44.5q0 -62 -19 -128t-61 -130.5t-109 -125.5t-162 -112z " />
<glyph unicode="&#x201e;" horiz-adv-x="1009" d="M-57 -214q51 33 83.5 60.5t51 50.5t25.5 43t7 38q0 14 -6 23l-13 19.5t-12.5 24t-5.5 37.5q0 17 3 38.5t9.5 43.5t15.5 41t21 31q9 9 19.5 15t24 10t31.5 6t43 2q36 0 58.5 -5.5t35.5 -18t18 -31t5 -43.5q0 -62 -19 -128.5t-59 -130t-105 -122t-158 -105.5zM348 -223 q55 36 90 65.5t54 53.5t25.5 44t6.5 38q0 14 -5.5 23t-12 19.5t-12.5 24t-6 37.5q0 17 3.5 38.5t9.5 43.5t15 41t21 31q10 9 20 15t24 10t32 6t42 2q35 0 58 -5.5t36.5 -18t18.5 -31t5 -43.5q0 -62 -19 -128.5t-61 -131t-109 -125t-161 -112.5z" />
<glyph unicode="&#x2022;" d="M174 606q0 79 29.5 146.5t80.5 117.5t117.5 78t139.5 28t135 -26.5t108 -73.5t73.5 -108.5t27.5 -132.5q0 -80 -30.5 -147t-81 -116t-117 -78t-140.5 -29q-72 0 -134.5 27t-108.5 73t-72.5 108.5t-26.5 132.5z" />
<glyph unicode="&#x202f;" horiz-adv-x="351" />
<glyph unicode="&#x2039;" horiz-adv-x="628" d="M87 606l346 411l173 -68l-261 -356l121 -360l-183 -52z" />
<glyph unicode="&#x203a;" horiz-adv-x="630" d="M52 249l260 357l-121 359l184 52l196 -424l-346 -412z" />
<glyph unicode="&#x205f;" horiz-adv-x="439" />
<glyph unicode="&#x20ac;" d="M-9 456l31 167h107q4 38 12.5 73.5t17.5 71.5h-108l32 167h124q42 116 100 203.5t129.5 147t156 89.5t178.5 30q57 0 108.5 -11.5t94 -36t74.5 -62.5t52 -93l-135 -118q-14 29 -32.5 51t-41.5 37t-51.5 22.5t-63.5 7.5q-53 0 -98 -21t-82.5 -56.5t-66.5 -85t-49 -104.5 h306l-31 -167h-328q-5 -18 -9.5 -36t-9 -36.5t-7 -36.5t-5.5 -36h329l-31 -167h-306q-3 -31 -1 -63.5t9.5 -62.5t22 -56.5t36.5 -46.5t52.5 -32t69.5 -12q36 0 69.5 7.5t65 21.5t62.5 35t61 49l88 -131q-42 -42 -88.5 -77t-97 -59.5t-106.5 -38t-119 -13.5 q-73 0 -131.5 16.5t-104 47t-77.5 73.5t-52.5 96t-29 115.5t-6.5 130.5h-120z" />
<glyph unicode="&#x2122;" horiz-adv-x="860" d="M191 1290l18 92h253l-18 -92h-66l-49 -251h-117l50 251h-71zM418 1039q20 86 41.5 171.5t46.5 171.5h150l21 -207l101 207h153q-7 -87 -18.5 -171.5t-27.5 -171.5h-110l10 52t9.5 51.5t8 50t6.5 48.5l-103 -202h-115l-24 201q-6 -24 -11 -48.5t-10.5 -49.5t-11.5 -51 l-12 -52h-104z" />
<glyph unicode="&#x25fc;" d="M0 0v1024h1024v-1024h-1024z" />
</font>
</defs>
</svg>
