<?xml version="1.0" standalone="no"?>
<!DOCTYPE svg PUBLIC "-//W3C//DTD SVG 1.1//EN" "http://www.w3.org/Graphics/SVG/1.1/DTD/svg11.dtd" >
<svg xmlns="http://www.w3.org/2000/svg" xmlns:xlink="http://www.w3.org/1999/xlink" version="1.1">
<metadata></metadata>
<defs>
<font id="sunantwerpenextrabold_italic" horiz-adv-x="1024" >
<font-face units-per-em="2048" ascent="1638" descent="-410" />
<missing-glyph horiz-adv-x="491" />
<glyph unicode="&#x2e;&#x2e;&#x2e;" horiz-adv-x="1591" d="M47 82q0 27 4.5 58t13 59.5t19 52t22.5 36.5q23 23 58.5 32t90.5 9q43 0 73 -5.5t49 -18t28 -33t9 -49.5q0 -28 -5 -58.5t-13 -59.5t-18.5 -52.5t-23.5 -35.5q-22 -23 -57.5 -32.5t-90.5 -9.5q-43 0 -73.5 6t-49 18.5t-27.5 32.5t-9 50zM537 82q0 27 4.5 58t12 59.5 t19 52t22.5 36.5q23 23 58.5 32t89.5 9q44 0 74.5 -5.5t49.5 -18t27.5 -33t8.5 -49.5q0 -28 -4.5 -58.5t-12.5 -59.5t-19.5 -52.5t-22.5 -35.5q-23 -23 -58.5 -32.5t-90.5 -9.5q-44 0 -73.5 6t-49 18.5t-27.5 32.5t-8 50zM1025 82q0 27 4.5 58t13 59.5t19 52t22.5 36.5 q23 23 59 32t90 9q44 0 73.5 -5.5t49 -18t28 -33t8.5 -49.5q0 -28 -5 -58.5t-12.5 -59.5t-18.5 -52.5t-23 -35.5q-23 -23 -58.5 -32.5t-89.5 -9.5q-44 0 -74.5 6t-49.5 18.5t-27.5 32.5t-8.5 50z" />
<glyph unicode="&#xfb01;" horiz-adv-x="1165" d="M-269 -311l67 184q30 -9 55.5 -13t50.5 -4q50 0 76.5 23.5t38.5 85.5l164 842h-110l43 226h110l25 119q14 80 41 141t70.5 102t104 62.5t145.5 21.5q69 0 119.5 -13t90.5 -33l-69 -200l-22 6q-10 2 -22 3.5t-25 1.5q-46 0 -71.5 -23.5t-37.5 -85.5l-20 -102h600 l-201 -1033h-327l156 807h-273l-163 -844q-16 -80 -43.5 -143t-71 -107.5t-105.5 -68t-147 -23.5q-42 0 -77.5 5.5t-66.5 14.5t-57 21.5t-48 26.5zM841 1230q0 18 3.5 43.5t10.5 51.5t17.5 48t22.5 34t27.5 21t35.5 15t45.5 9t60.5 3q47 0 80.5 -5.5t54.5 -18t31 -32.5 t10 -48q0 -19 -4 -44.5t-11 -51t-17.5 -47.5t-21.5 -34q-12 -12 -27.5 -21.5t-35.5 -16t-46 -9.5t-60 -3q-48 0 -81.5 6.5t-55 18.5t-30.5 32t-9 49z" />
<glyph unicode="&#xfb02;" horiz-adv-x="1189" d="M-269 -311l67 184q30 -9 55.5 -13t50.5 -4q50 0 76.5 23.5t38.5 85.5l164 842h-110l43 226h111l17 81q17 89 50 157.5t85.5 114.5t130.5 69.5t186 23.5q59 0 118 -7.5t106 -19.5h313l-218 -1119q-7 -33 -10 -53t-3 -33q0 -15 4 -24t10 -13.5t14.5 -6t21.5 -1.5t25 0.5 t18 0.5l-23 -190q-24 -8 -47 -14t-49 -10t-56.5 -6t-67.5 -2q-47 0 -83 8t-60.5 27.5t-37 51.5t-12.5 79q0 23 3.5 53.5t11.5 67.5l187 961q-31 9 -64 13t-64 4q-33 0 -59.5 -6t-47 -21.5t-34 -40.5t-21.5 -63l-16 -82h134l-43 -226h-136l-163 -844q-16 -80 -43.5 -143 t-71 -107.5t-105.5 -68t-147 -23.5q-42 0 -77.5 5.5t-66.5 14.5t-57 21.5t-48 26.5z" />
<glyph unicode="&#xfb03;" horiz-adv-x="1765" d="M-269 -311l67 184q30 -9 55.5 -13t50.5 -4q50 0 76.5 23.5t38.5 85.5l164 842h-110l44 226h110l16 85q14 80 41.5 143t71 107t104.5 68t145 24q75 0 135.5 -16t107.5 -41l-70 -192q-20 6 -46.5 10.5t-47.5 4.5q-48 0 -75 -24t-39 -86l-16 -83h272l25 119q14 80 42 141 t70.5 102t103 62.5t145.5 21.5q68 0 119 -13t91 -33l-68 -200q-11 3 -23 6q-10 2 -22 3.5t-25 1.5q-46 0 -71.5 -23.5t-36.5 -85.5l-21 -102h600l-201 -1033h-327l156 807h-272l-161 -825q-15 -80 -42 -143t-70.5 -107.5t-104.5 -68t-145 -23.5q-75 0 -135.5 15.5 t-107.5 40.5l69 192q22 -6 47.5 -10t47.5 -4q49 0 75.5 23.5t38.5 86.5l160 823h-273l-163 -844q-16 -80 -43.5 -143t-71 -107.5t-105.5 -68t-147 -23.5q-42 0 -77.5 5.5t-66.5 14.5t-57 21.5t-48 26.5zM1441 1230q0 18 3.5 43.5t10.5 51.5t17.5 48t22.5 34t27.5 21t35.5 15 t46 9t60 3q47 0 80.5 -5.5t54.5 -18t31 -32.5t10 -48q0 -19 -4 -44.5t-11 -51t-17.5 -47.5t-21.5 -34q-12 -12 -27.5 -21.5t-35.5 -16t-46 -9.5t-60 -3q-48 0 -81.5 6.5t-55 18.5t-30.5 32t-9 49z" />
<glyph unicode="&#xfb04;" horiz-adv-x="1789" d="M-269 -311l67 184q30 -9 55.5 -13t50.5 -4q50 0 76.5 23.5t38.5 85.5l164 842h-110l44 226h110l16 85q14 80 41.5 143t71 107t104.5 68t145 24q75 0 135.5 -16t107.5 -41l-70 -192q-20 6 -46.5 10.5t-47.5 4.5q-48 0 -75 -24t-39 -86l-16 -83h273l17 82q16 90 49.5 158 t88 114t132 69t182.5 23q59 0 118.5 -7.5t105.5 -19.5h313l-218 -1119q-7 -33 -9.5 -53t-2.5 -33q0 -15 3.5 -24t9.5 -13.5t14.5 -6t21.5 -1.5t25 0.5t18 0.5l-23 -190q-23 -8 -46 -14t-49.5 -10t-57 -6t-67.5 -2q-47 0 -83 8t-60.5 27.5t-36.5 51.5t-12 79q0 23 3 53.5 t11 67.5l186 955q-30 11 -63 16t-63 5q-33 0 -59.5 -5.5t-47 -20.5t-34.5 -40t-22 -63l-16 -82h136l-45 -226h-135l-161 -825q-15 -80 -42 -143t-70.5 -107.5t-104.5 -68t-145 -23.5q-75 0 -135.5 15.5t-107.5 40.5l69 192q22 -6 47.5 -10t47.5 -4q49 0 75.5 23.5t38.5 86.5 l160 823h-273l-163 -844q-16 -80 -43.5 -143t-71 -107.5t-105.5 -68t-147 -23.5q-42 0 -77.5 5.5t-66.5 14.5t-57 21.5t-48 26.5z" />
<glyph horiz-adv-x="0" />
<glyph horiz-adv-x="0" />
<glyph unicode="&#xd;" horiz-adv-x="0" />
<glyph unicode=" "  horiz-adv-x="491" />
<glyph unicode="&#x09;" horiz-adv-x="491" />
<glyph unicode="&#xa0;" horiz-adv-x="491" />
<glyph unicode="!" horiz-adv-x="724" d="M123 99q0 25 4 50t10 47.5t15.5 40.5t20.5 29q26 26 65.5 36.5t104.5 10.5q49 0 83 -6t55 -20.5t30 -37t9 -54.5q0 -26 -4 -50.5t-10 -47t-15.5 -40.5t-20.5 -29q-26 -26 -65 -36.5t-105 -10.5q-49 0 -83 6t-55 20.5t-30 37t-9 54.5zM221 399l138 983h399l-243 -983h-294 z" />
<glyph unicode="&#x22;" horiz-adv-x="995" d="M212 840l73 542h312l-135 -542h-250zM653 840l73 542h312l-135 -542h-250z" />
<glyph unicode="#" horiz-adv-x="1062" d="M17 0l123 399h-116l36 196h138l76 247h-164l36 191h188l106 349h237l-107 -349h193l106 349h238l-107 -349h113l-37 -191h-135l-77 -247h163l-37 -196h-183l-123 -399h-238l124 399h-193l-123 -399h-237zM434 595h194l77 247h-194z" />
<glyph unicode="$" d="M-19 133l110 171q27 -15 58.5 -27t66 -21t70.5 -14t68 -5q57 0 99.5 11t69.5 32t39.5 50.5t12.5 68.5q0 31 -17.5 55.5t-47.5 46.5t-67 43.5t-76.5 46t-77 54t-67 67t-47.5 85.5t-18 109q0 62 19 128t63.5 123t117 101.5t181.5 63.5l60 212h186l-19 -209 q81 -12 148 -42.5t115 -77.5l-110 -164q-23 15 -50 27t-56.5 20.5t-62 12.5t-66.5 4q-42 0 -76 -11t-58.5 -31.5t-37.5 -48t-13 -61.5q0 -33 19.5 -59t50 -49t70 -44t81 -45t81.5 -52t70.5 -64.5t49.5 -83.5t19 -109q0 -80 -28.5 -152.5t-84 -131.5t-135.5 -99.5t-182 -55.5 l-65 -229h-187l25 229q-95 12 -171.5 44.5t-129.5 80.5z" />
<glyph unicode="%" horiz-adv-x="1456" d="M31 51l1304 1382l154 -102l-1303 -1381zM175 973q0 49 6.5 101t23 101t45.5 91.5t72.5 74t103 50t140.5 18.5q74 0 125 -14t84 -41.5t47.5 -70t14.5 -101.5q0 -50 -7 -102t-23 -100.5t-45 -91t-72.5 -74t-103.5 -50.5t-141 -19q-74 0 -125 13.5t-83.5 41t-47 70.5 t-14.5 103zM407 998q0 -48 16.5 -66.5t50.5 -18.5q25 0 44.5 13t34 34t24.5 47t16 53t9 52.5t3 43.5q0 48 -17 66.5t-50 18.5q-26 0 -45 -13t-34 -33.5t-24.5 -47t-15.5 -53.5t-9 -52t-3 -44zM683 201q0 49 6.5 101t23.5 101t45.5 91.5t72 74t103.5 50t141 18.5 q74 0 125 -14t84 -41.5t47.5 -70t14.5 -101.5q0 -50 -7 -102t-23.5 -100.5t-45 -91t-72 -74.5t-103.5 -50.5t-141 -18.5q-74 0 -125.5 13.5t-83.5 41t-47 70.5t-15 103zM915 226q0 -48 17 -66.5t51 -18.5q25 0 44.5 13t34 34t24.5 47t16 53t8.5 52.5t2.5 43.5 q0 48 -16.5 66.5t-49.5 18.5q-26 0 -45.5 -13t-34 -34t-24 -47t-15.5 -53t-9.5 -52t-3.5 -44z" />
<glyph unicode="&#x26;" horiz-adv-x="1374" d="M18 297q0 66 17.5 126.5t57 117t100.5 108.5t149 104q-19 40 -35 78.5t-27.5 76t-17.5 72.5t-6 67q0 40 9.5 82.5t32.5 82t59 75t89 62t124 42t163 15.5q78 0 142.5 -17t110 -48t71 -76.5t25.5 -103.5q0 -60 -19 -116t-62 -110t-112.5 -107.5t-170.5 -108.5 q18 -31 39.5 -62.5t44.5 -62.5t46.5 -61t46.5 -59q24 38 43 77.5t35 80t27.5 81.5t19.5 83h307q-15 -77 -39 -150.5t-56 -140.5t-70 -126.5t-80 -107.5q31 -31 54 -47t39 -16h80l-37 -200q-13 -7 -27.5 -12.5t-33.5 -10t-44.5 -7.5t-56.5 -3q-37 0 -87 30t-115 85 q-97 -57 -206.5 -85.5t-217.5 -28.5q-111 0 -189 26.5t-128 70t-72.5 101.5t-22.5 123zM337 339q0 -35 11.5 -60.5t32.5 -42.5t51.5 -25.5t66.5 -8.5q25 0 49 4.5t48.5 12t47 17.5t40.5 21q-30 33 -59.5 69t-59 74t-57.5 77t-51 78q-35 -29 -58 -56.5t-37 -53.5t-19.5 -52.5 t-5.5 -53.5zM564 1062q0 -31 10.5 -69.5t33.5 -87.5q46 30 78 59.5t53 59t30.5 57.5t9.5 54q0 17 -5 31.5t-15.5 24t-26.5 14.5t-38 5q-33 0 -57.5 -12t-40 -32.5t-24 -47.5t-8.5 -56z" />
<glyph unicode="'" horiz-adv-x="655" d="M281 840l73 542h298l-134 -542h-237z" />
<glyph unicode="(" horiz-adv-x="634" d="M62 268q0 137 26.5 286t83.5 305.5t149.5 316t226.5 316.5l213 -77q-68 -90 -125 -187.5t-103 -199.5t-80.5 -207t-58 -209.5t-35 -207.5t-11.5 -199q0 -151 22.5 -277t58.5 -225l-227 -60q-32 65 -57 137t-44 150.5t-29 163t-10 174.5z" />
<glyph unicode=")" horiz-adv-x="634" d="M-112 -281q69 90 126.5 188t103 200t80 206.5t58 209t35 206.5t11.5 200q0 151 -23 277t-59 226l229 60q31 -65 56 -137.5t43.5 -151t28.5 -162.5t10 -174q0 -145 -26.5 -296t-84.5 -305.5t-150.5 -311t-223.5 -311.5z" />
<glyph unicode="*" d="M150 950l275 94l-250 95l181 252l187 -183l-12 276h290l-88 -276l239 183l108 -252l-276 -95l250 -94l-182 -252l-186 182l11 -275h-289l89 275l-240 -182z" />
<glyph unicode="+" d="M63 501l46 229h306l65 335h274l-66 -335h304l-45 -229h-304l-65 -343h-274l66 343h-307z" />
<glyph unicode="," horiz-adv-x="616" d="M-96 -226q59 41 95 72t56 56t26.5 45t6.5 39q0 16 -7 27.5t-16 23.5t-15.5 29t-6.5 47q0 22 4 48t12 53t19 50.5t25 37.5q24 24 64.5 34t102.5 10q44 0 74 -7.5t47.5 -23t24.5 -39.5t7 -56q0 -49 -10.5 -99.5t-31.5 -101.5t-53.5 -101t-78 -97.5t-103 -91.5t-129.5 -84z " />
<glyph unicode="-" horiz-adv-x="489" d="M32 461l46 238h443l-47 -238h-442z" />
<glyph unicode="&#xad;" horiz-adv-x="489" d="M32 461l46 238h443l-47 -238h-442z" />
<glyph unicode="." horiz-adv-x="593" d="M40 87q0 28 4.5 60t13.5 62.5t20 55t23 37.5q24 23 61.5 33.5t95.5 10.5q46 0 77.5 -5.5t51.5 -19t29 -35.5t9 -53q0 -28 -5 -60t-14 -62t-20 -55t-24 -38q-24 -24 -61 -34t-95 -10q-46 0 -77.5 6t-51.5 19t-28.5 34t-8.5 54z" />
<glyph unicode="/" d="M-152 -213l1055 1665h300l-1055 -1665h-300z" />
<glyph unicode="0" horiz-adv-x="1003" d="M59 260.5q-8 78.5 1.5 182.5t33.5 236q16 86 36.5 161t43.5 138.5t49.5 117.5t56.5 97.5t63.5 77.5t71.5 59q30 19 63.5 34t69.5 25t74 15t80 5q117 0 194.5 -34t116 -114.5t38 -215.5t-39.5 -338q-15 -81 -34 -151.5t-40.5 -131t-45 -112t-50.5 -94.5t-56 -77.5 t-61 -60.5q-35 -28 -71.5 -48.5t-76.5 -33t-83 -19t-90 -6.5q-80 0 -140 15.5t-103 50.5t-68 89t-33 132.5zM377.5 318.5q5.5 -54.5 27 -75.5t59.5 -21q25 0 47.5 10.5t42.5 36.5q8 11 17 26t17 33t16 40t16 47.5t16 56t16 64.5t16.5 73.5t17.5 83.5q17 92 28 163.5 t14.5 124t0 88t-13.5 57.5t-27 31t-42 9t-45.5 -8.5t-40.5 -30.5q-9 -11 -17.5 -24.5t-17.5 -31t-17.5 -39t-17 -47.5t-17 -56.5t-16.5 -66t-17 -76.5t-17 -87q-29 -141 -40 -233.5t-5.5 -147z" />
<glyph unicode="1" horiz-adv-x="1003" d="M27 0l56 296h253l146 756l-231 -76l-37 220l417 186h267l-212 -1086h223l-56 -296h-826z" />
<glyph unicode="2" horiz-adv-x="1003" d="M-27 0l56 286q120 108 209 191.5t153.5 149.5t106.5 116.5t68 90t39 72.5t20 64q8 45 2.5 74.5t-22.5 48t-45 25.5t-62 7q-33 0 -68.5 -5.5t-70.5 -14.5t-69.5 -19.5t-65.5 -20.5l-13 223q56 27 111.5 49.5t113.5 38.5t120 24.5t134 8.5q82 0 153 -21t118.5 -66.5 t66.5 -118.5t-2 -178q-10 -52 -28.5 -102t-50.5 -101.5t-78 -107t-110.5 -119t-149.5 -137.5t-194 -162h504l-58 -296h-888z" />
<glyph unicode="3" horiz-adv-x="1003" d="M-35 76l58 188q82 -17 147.5 -25t117.5 -8q48 0 86.5 6.5t66.5 18t48.5 28t35 37t23 45t14.5 52.5q8 40 5 73t-22 56t-54.5 35t-91.5 12h-161l49 248h156q48 0 84 9.5t61 30t40.5 53t24.5 77.5q6 36 2.5 61.5t-19 42t-45 24t-72.5 7.5q-33 0 -66.5 -3.5t-69 -11t-72 -17 t-71.5 -21.5l4 216q50 19 101 37t105 32t110.5 22t117.5 8q110 0 183 -26t113.5 -74t50.5 -117.5t-6 -156.5q-11 -56 -33.5 -102t-55.5 -82.5t-73.5 -63.5t-87.5 -47q54 -10 91.5 -39.5t58.5 -70.5t25.5 -91.5t-5.5 -103.5q-16 -84 -46 -150.5t-71.5 -117.5t-93.5 -87.5 t-113.5 -60t-130.5 -35t-144 -11.5q-42 0 -87.5 6t-93.5 18.5t-97.5 32t-96.5 46.5z" />
<glyph unicode="4" horiz-adv-x="1003" d="M3 296l52 264q52 93 113.5 195.5t129.5 208t139 211.5t145 207h464l-157 -800h113l-55 -286h-114l-56 -296h-324l55 296h-505zM332 582h232l102 523q-44 -68 -88 -135.5t-86.5 -134t-82.5 -130.5t-77 -123z" />
<glyph unicode="5" horiz-adv-x="1003" d="M-37 76l59 180q91 -13 163.5 -21.5t129.5 -8.5q46 0 82.5 5t64 15t48.5 25.5t35.5 36.5t24.5 48.5t16 60.5q10 48 7.5 86t-21 64.5t-54.5 40t-93 13.5q-35 0 -68.5 -3t-70.5 -7t-78.5 -10.5t-90.5 -15.5l202 797h709l-54 -278h-447l-61 -235q13 2 27 4.5t30 3.5l32 2 t34 1q113 0 190 -29.5t120.5 -85.5t54 -138.5t-10.5 -188.5q-16 -79 -44 -144t-67.5 -116.5t-90.5 -90t-111.5 -63.5t-129.5 -38t-147 -13q-82 0 -179 23t-211 80z" />
<glyph unicode="6" d="M54 373q0 44 5.5 110.5t18.5 146t34 166t52 169.5t74 157t97 129q42 42 87.5 71.5t94.5 48.5t101.5 27.5t106.5 8.5q84 0 174 -21.5t179 -73.5l-64 -184q-68 15 -136.5 24.5t-138.5 9.5q-50 0 -95 -20t-84.5 -64.5t-72 -115t-57.5 -171.5q36 19 69 34t65 25t63.5 15.5 t66.5 5.5q74 0 127 -20.5t87.5 -57.5t51.5 -89.5t17 -116.5q0 -59 -11 -127t-36.5 -135.5t-66.5 -130.5t-101.5 -111.5t-141.5 -77.5t-184 -29q-87 0 -157.5 17.5t-120 62t-77 121.5t-27.5 196zM370 362q0 -41 7 -69t19.5 -45t31.5 -24.5t44 -7.5q32 0 57.5 17t45 44 t33.5 61.5t23 69.5t13 66.5t4 55.5q0 48 -22.5 68t-72.5 20q-20 0 -38 -2t-36 -7t-38 -12.5t-44 -17.5q-14 -76 -20.5 -128t-6.5 -89z" />
<glyph unicode="7" horiz-adv-x="1003" d="M61 55l645 1049h-519l55 278h900l-51 -258l-348 -530q-43 -66 -84 -125t-80.5 -113.5t-79 -105t-78.5 -98t-77 -92.5t-77 -87z" />
<glyph unicode="8" d="M4 276q0 71 17 131.5t52.5 113t88.5 97t126 82.5q-30 23 -53.5 49t-41 58t-27 69t-9.5 81q0 47 9 99t31.5 101.5t61 95t96 80.5t136.5 55.5t184 20.5q98 0 172.5 -20t123.5 -57.5t73.5 -90.5t24.5 -120q0 -41 -7 -80t-21.5 -75.5t-36.5 -70.5t-52.5 -65.5t-68.5 -60 t-84 -53.5q40 -25 69.5 -54t50 -61t30 -67.5t9.5 -74.5q0 -58 -11 -116.5t-37 -112.5t-68.5 -101t-104.5 -81.5t-145.5 -54.5t-191.5 -20q-105 0 -180 22.5t-123 62.5t-70.5 96t-22.5 122zM325 317q0 -54 30.5 -83.5t97.5 -29.5q42 0 75.5 15t56.5 41.5t35.5 60t12.5 71.5 q0 27 -8.5 50t-26 43.5t-43.5 39t-60 35.5q-49 -29 -81.5 -57.5t-52 -58t-28 -61.5t-8.5 -66zM474 995q0 -23 5.5 -42.5t17.5 -37.5t30 -34t43 -31q52 30 87 57.5t56 55.5t30.5 59t9.5 67q0 24 -8 42t-22 29.5t-36 18t-52 6.5q-44 0 -74.5 -17t-49.5 -44.5t-28 -61t-9 -67.5 z" />
<glyph unicode="9" horiz-adv-x="1003" d="M-3 72l55 178q48 -8 89.5 -14.5t78.5 -10t71 -5t66 -1.5q48 0 93 19.5t84.5 64.5t73 117.5t60.5 177.5q-37 -20 -70.5 -35t-64.5 -25.5t-62.5 -15.5t-63.5 -5q-94 0 -154 26.5t-90.5 78.5t-34 126t14.5 168q22 110 70 200.5t118 155t159 101t191 36.5q73 0 132.5 -11.5 t105 -40t75 -78.5t40 -128.5t3 -188.5t-36.5 -257q-20 -106 -48 -194.5t-62.5 -160.5t-75 -128.5t-86 -99.5t-94.5 -72.5t-102 -47.5q-22 -7 -43.5 -12.5t-43.5 -9t-45 -5.5t-45 -2q-41 0 -83 4.5t-86.5 15t-91.5 29.5t-97 50zM455.5 861.5q-0.5 -33.5 9 -54t30 -29 t53.5 -8.5q19 0 37.5 2t36.5 7t36 12.5t40 18.5v2q1 2 1.5 3.5t0.5 3.5l1 2q19 101 23.5 168.5t-6 107.5t-33.5 56t-58 16q-19 0 -36.5 -5t-32.5 -15t-28 -28t-25 -43t-21.5 -58t-18.5 -75q-9 -50 -9.5 -83.5z" />
<glyph unicode=":" horiz-adv-x="626" d="M83 102q0 24 4 49.5t11 49.5t17.5 44t22.5 33q23 22 61.5 31.5t96.5 9.5q80 0 117 -25t37 -89q0 -24 -4.5 -49t-11.5 -49t-17 -44t-23 -32q-23 -23 -61.5 -33t-95.5 -10q-41 0 -69.5 6t-48 19.5t-28 35.5t-8.5 53zM225 829q0 24 3.5 49.5t11 49t17.5 44t23 33.5 q23 22 61.5 32t95.5 10q80 0 117 -25.5t37 -89.5q0 -24 -4 -49.5t-11.5 -49t-17.5 -43.5t-22 -32q-23 -23 -61.5 -33t-96.5 -10q-40 0 -68.5 6t-47.5 19.5t-28 35.5t-9 53z" />
<glyph unicode=";" horiz-adv-x="626" d="M-57 -232q56 38 90.5 68.5t53.5 54t25.5 43t6.5 35.5q0 17 -7 27.5l-15 22.5t-14.5 28t-6.5 44q0 20 3.5 45.5t11 51t18.5 47.5t24 36q42 42 159 42q42 0 70.5 -7t45 -22t23.5 -37.5t7 -52.5q0 -70 -22 -143.5t-69 -145t-120.5 -138t-176.5 -122.5zM220 829q0 24 4 49.5 t11.5 49t17.5 44t22 33.5q22 22 61 32t97 10q80 0 116.5 -25.5t36.5 -89.5q0 -24 -3.5 -49.5t-11 -49t-17.5 -43.5t-23 -32q-23 -23 -61.5 -33t-95.5 -10q-41 0 -70 6t-47.5 19.5t-27.5 35.5t-9 53z" />
<glyph unicode="&#x3c;" d="M65 506l43 219l860 396l45 -242l-610 -267l505 -267l-137 -235z" />
<glyph unicode="=" d="M44 311l42 223h853l-41 -223h-854zM119 697l43 223h854l-44 -223h-853z" />
<glyph unicode="&#x3e;" d="M46 352l610 268l-505 266l137 235l706 -396l-42 -219l-861 -396z" />
<glyph unicode="?" d="M210 99q0 25 3.5 50t10 47.5t15.5 40.5t20 29q26 26 65.5 36.5t104.5 10.5q49 0 83 -6t55 -20.5t30 -37t9 -54.5q0 -26 -3.5 -50.5t-10 -47t-16 -40.5t-20.5 -29q-25 -26 -64.5 -36.5t-104.5 -10.5q-50 0 -84 6t-54.5 20.5t-29.5 37t-9 54.5zM245 1293q52 28 104 49 t104.5 35.5t105.5 21.5t110 7q91 0 160.5 -20.5t116.5 -58t71.5 -91t24.5 -121.5q0 -91 -26.5 -155t-67.5 -112t-90.5 -87t-96 -77.5t-83.5 -84.5t-53 -109l-23 -91h-290l14 102q10 84 39 144t66 104.5t78 77.5t74.5 65.5t56 67.5t22.5 83q0 20 -8 39t-23.5 31.5t-40 21 t-60.5 8.5q-27 0 -55 -3.5t-56.5 -10t-58 -15t-58.5 -19.5z" />
<glyph unicode="@" horiz-adv-x="2084" d="M74 300q0 113 21.5 223.5t63 214t103 197.5t140.5 175.5t176.5 148t211 113t243 72t274.5 25.5q186 0 319.5 -39.5t218.5 -112.5t125.5 -174.5t40.5 -226.5q0 -86 -15.5 -165.5t-43 -151.5t-67.5 -135.5t-91 -116.5t-112 -94.5t-129.5 -70.5t-144 -44.5t-157.5 -15.5 h-171l4 149q-41 -40 -78 -70t-72.5 -49.5t-69 -29t-63.5 -9.5q-61 0 -106 19t-74 53t-42.5 85t-13.5 115q0 65 9.5 127t28.5 120t47 111t66 98.5t85 82.5t104 63t123.5 39.5t142.5 13.5q101 0 190.5 -12t162.5 -42l-161 -626q47 0 89.5 19.5t79 54t65.5 82t49 104 t31.5 119.5t11.5 127q0 80 -25.5 148.5t-79 119t-138 79.5t-204.5 29q-133 0 -246.5 -35t-208.5 -96t-168 -145t-124 -181t-77 -203.5t-26 -212.5q0 -117 33 -210t98 -158.5t160 -99.5t220 -34q61 0 128 7t134 20.5t133.5 31.5t126.5 39l40 -189q-75 -33 -153 -59.5 t-158.5 -45.5t-162 -29t-161.5 -10q-176 0 -316 41t-238 123.5t-150 208.5t-52 295zM866 438q0 -42 13 -60.5t40 -18.5q16 0 34 6.5t38 20.5t44.5 38.5t54.5 58.5l85 325q-15 3 -32.5 4.5t-36.5 1.5q-41 0 -75 -15t-60.5 -41t-46.5 -62t-32.5 -77.5t-19 -88t-6.5 -92.5z" />
<glyph unicode="A" horiz-adv-x="1228" d="M-92 0q74 178 150 353.5t156.5 349t163.5 342.5t170 337h460q25 -174 42 -344.5t29.5 -342t20.5 -344.5t15 -351h-359v60t-0.5 67.5t-1 67.5t-1.5 60h-411q-10 -26 -22.5 -56.5t-25 -63.5t-25.5 -67t-25 -68h-336zM444 508h306q-4 70 -9 144t-10.5 147.5t-12 147 t-13.5 142.5q-30 -66 -64 -139.5t-68.5 -149.5t-67.5 -151.5t-61 -140.5z" />
<glyph unicode="B" horiz-adv-x="1216" d="M27 0l268 1382h469q116 0 195 -20.5t129 -57t72.5 -88.5t22.5 -113q0 -51 -13 -102t-40.5 -97t-71 -85.5t-105.5 -66.5q44 -10 78.5 -33t58 -53.5t36 -70.5t12.5 -84q0 -56 -14.5 -115.5t-47.5 -117t-84 -108.5t-125.5 -90t-173.5 -61.5t-225 -22.5q-44 0 -97.5 0.5 t-110.5 1.5t-117 1.5t-116 0.5zM412 240q9 -1 23 -2t28.5 -1.5t29.5 -1.5t25 -1q49 0 87.5 11t66.5 29.5t46.5 42.5t30 50t16 53t4.5 51q0 28 -9.5 52.5t-31 42t-57 27.5t-87.5 10h-102zM527 834h82q40 0 71.5 9t55.5 24.5t41 36t27.5 43t15.5 45.5t5 44q0 25 -7.5 45 t-23.5 34t-41 22.5t-60 8.5h-105z" />
<glyph unicode="C" horiz-adv-x="1052" d="M70 430q0 59 7 133.5t23.5 154t43 162t65.5 159.5t92 144t121 117.5t154 79.5t189 29q62 0 118.5 -13.5t104 -40.5t85.5 -70.5t64 -103.5l-180 -153q-35 50 -76 79t-95 29q-45 0 -83 -17.5t-71 -48.5t-60.5 -72.5t-49 -90t-38 -102t-27.5 -108.5t-16.5 -108.5 t-5.5 -101.5q0 -72 14 -117.5t36.5 -72.5t53 -37.5t65.5 -10.5q34 0 65 7.5t61.5 22.5t59.5 37.5t60 53.5l119 -181q-43 -52 -95.5 -92.5t-110.5 -67.5t-121 -41.5t-128 -14.5q-112 0 -195 29.5t-138.5 87t-83 142.5t-27.5 198z" />
<glyph unicode="D" horiz-adv-x="1239" d="M27 0l268 1382q60 0 114 0.5t104.5 1.5t100 1.5t99.5 0.5q138 0 236 -34.5t160 -96t90.5 -147.5t28.5 -187q0 -40 -4 -94.5t-15 -117t-30 -130t-47.5 -135t-69 -131t-93.5 -116.5q-46 -47 -100.5 -84.5t-120 -65t-142.5 -41.5t-168 -14q-53 0 -106 1t-106 2.5t-102.5 2.5 t-96.5 2zM419 256q19 -3 37 -3h33q59 0 107.5 21.5t86.5 59.5q36 36 63.5 84t48 100.5t34.5 107.5t22 106t11.5 94.5t3.5 73.5q0 63 -12 108t-37.5 72.5t-62.5 40t-86 12.5h-39.5t-38.5 -3z" />
<glyph unicode="E" horiz-adv-x="974" d="M27 0l268 1382h755l-52 -260h-410l-56 -289h342l-48 -249h-342l-62 -321h417l-49 -263h-763z" />
<glyph unicode="F" horiz-adv-x="933" d="M27 0l268 1382h745l-51 -259h-401l-61 -316h358l-49 -254h-359l-106 -553h-344z" />
<glyph unicode="G" horiz-adv-x="1183" d="M70 435q0 75 8 150t24.5 147.5t40.5 142t54.5 132.5t69.5 118.5t84 100.5q91 91 202 137t242 46q78 0 142 -16.5t115.5 -46.5t89 -73t59.5 -97l-166 -137q-29 26 -58 45t-58 30.5t-59.5 18t-60.5 6.5q-54 0 -98 -20.5t-78 -55.5q-35 -34 -62 -79t-49 -96.5t-37.5 -108 t-26 -113t-15.5 -111.5t-5 -103q0 -58 10.5 -98t29 -64t46 -34t60.5 -10q19 0 37.5 3t34.5 7t29 10t24 12l58 295h-142l49 248h478l-133 -685q-54 -37 -112 -66.5t-121.5 -51t-134.5 -33.5t-151 -12q-104 0 -182.5 30.5t-131.5 89t-79.5 145t-26.5 197.5z" />
<glyph unicode="H" horiz-adv-x="1347" d="M27 0l268 1382h344l-102 -521h401l102 521h344l-268 -1382h-344l110 575h-401l-110 -575h-344z" />
<glyph unicode="I" horiz-adv-x="602" d="M27 0l268 1382h344l-268 -1382h-344z" />
<glyph unicode="J" horiz-adv-x="608" d="M-130 -217q46 46 78.5 91.5t54.5 93.5t36.5 102t27.5 116l233 1196h344l-235 -1212q-17 -89 -48.5 -166t-79.5 -143t-113.5 -121.5t-151.5 -100.5z" />
<glyph unicode="K" horiz-adv-x="1153" d="M27 0l268 1382h344l-111 -569h6l369 569h379l-464 -643l209 -739h-368l-164 614h-6l-118 -614h-344z" />
<glyph unicode="L" horiz-adv-x="862" d="M27 0l268 1382h344l-217 -1118h359l-51 -264h-703z" />
<glyph unicode="M" horiz-adv-x="1746" d="M-4 0q38 175 79.5 348t87 345t94.5 343.5t103 345.5h441l72 -826h3l399 826h440q-15 -174 -32.5 -345.5t-38.5 -343.5t-44.5 -345t-50.5 -348h-361q15 83 29 166t27 163.5t25 158.5t23 155t21 151t18 147h-2l-435 -941h-295l-64 941h-3q-31 -114 -59 -227.5t-54.5 -230 t-52.5 -237t-51 -246.5h-319z" />
<glyph unicode="N" horiz-adv-x="1312" d="M27 0l268 1382h400l190 -619l38 -127l39 197l106 549h282l-269 -1382h-352l-210 743l-40 142l-43 -220l-128 -665h-281z" />
<glyph unicode="O" horiz-adv-x="1316" d="M70 433q0 48 5 110.5t16.5 131.5t32 143t51.5 145.5t73.5 139t98.5 123.5q41 41 90 74.5t107 57.5t124.5 37.5t144.5 13.5q123 0 216 -27t155 -83.5t93.5 -143t31.5 -206.5q0 -49 -5.5 -110.5t-17 -131.5t-32 -144t-51.5 -145t-73.5 -138.5t-98.5 -122.5 q-82 -83 -196.5 -133.5t-269.5 -50.5q-124 0 -216.5 27.5t-154.5 83.5t-93 142t-31 207zM432 449q0 -62 11 -103.5t32.5 -66t54 -34t75.5 -9.5q47 0 85.5 18t69.5 48q37 38 65 91.5t48.5 114.5t35 125t22.5 122.5t11.5 105.5t3.5 75q0 61 -10.5 102t-32 65.5t-54.5 34.5 t-76 10q-47 0 -85.5 -18t-67.5 -49q-38 -37 -66.5 -90.5t-49 -114.5t-34 -125t-22.5 -122.5t-12.5 -105.5t-3.5 -74z" />
<glyph unicode="P" horiz-adv-x="1140" d="M27 0l268 1382q56 0 112 0.5t111 1.5t110 1.5t110 0.5q120 0 207 -24.5t143 -69.5t82.5 -109t26.5 -144q0 -63 -11 -132.5t-39.5 -136.5t-77 -127t-124 -105.5t-181 -72.5t-246.5 -27h-62l-85 -438h-344zM504 687h61q52 0 92 13.5t70 36.5t50 53t32 63.5t18 68t6 67.5 q0 36 -10 64t-31 46.5t-54 28.5t-82 10h-64z" />
<glyph unicode="Q" horiz-adv-x="1316" d="M70 433q0 48 5 110.5t16.5 131.5t32 143t51.5 145.5t73.5 139t98.5 123.5q41 41 90 74.5t107 57.5t124.5 37.5t144.5 13.5q123 0 216 -27t155 -83.5t93.5 -143t31.5 -206.5q0 -49 -5.5 -110.5t-17 -131.5t-32 -144t-51.5 -145t-73.5 -138.5t-98.5 -122.5q-33 -33 -67 -59 t-71.5 -46t-77.5 -35t-83 -23q26 -38 55.5 -57t62.5 -25q31 -7 63 -7q3 0 5 1q36 0 73 2h28q23 0 47 -2q38 -2 77 -15.5t76 -41.5t73 -79l-132 -131q-41 27 -87 36t-94 11h-36q-31 0 -62 -2q-21 -1 -41 -1q-28 0 -56 3q-46 3 -89 15t-78 44.5t-62 87t-42 142.5 q-102 4 -184.5 31.5t-140 82t-88 139t-30.5 205.5zM432 449q0 -62 11 -103.5t32.5 -66t54 -34t75.5 -9.5q47 0 85.5 18t69.5 48q37 38 65 91.5t48.5 114.5t35 125t22.5 122.5t11.5 105.5t3.5 75q0 61 -10.5 102t-32 65.5t-54.5 34.5t-76 10q-47 0 -85.5 -18t-67.5 -49 q-38 -37 -66.5 -90.5t-49 -114.5t-34 -125t-22.5 -122.5t-12.5 -105.5t-3.5 -74z" />
<glyph unicode="R" horiz-adv-x="1163" d="M27 0l268 1382q60 1 119 2t115 3t109 2.5t103 0.5q117 0 202.5 -23.5t141.5 -64.5t83.5 -100t27.5 -132q0 -44 -7 -90.5t-23 -93t-41 -91t-61.5 -83t-83 -69t-104.5 -47.5l167 -596h-374l-118 534h-76l-104 -534h-344zM522 781h83q45 0 80 11t60 29.5t42 42t27 50 t15 53.5t5 53q0 31 -9.5 53.5t-29.5 37t-51 22t-74 7.5h-79z" />
<glyph unicode="S" horiz-adv-x="1007" d="M-37 120l102 176q84 -37 152 -53.5t126 -16.5q52 0 93 11.5t68 33t41.5 53t14.5 71.5q0 37 -17.5 66t-46.5 55t-66 49.5t-75 49.5t-74.5 56t-65.5 69t-46 88.5t-17 113.5q0 97 34.5 181.5t102 147t166 99t224.5 36.5q50 0 98.5 -7t95.5 -21.5t91.5 -38.5t86.5 -57 l-101 -175q-30 14 -60.5 24t-60.5 16.5t-58.5 9.5t-52.5 3q-51 0 -88.5 -11.5t-62.5 -32.5t-37 -50t-12 -64q0 -36 18.5 -64.5t48.5 -54t69 -50t80 -50.5t80 -57t69 -70.5t48.5 -89t18.5 -112.5q0 -99 -36 -187t-108.5 -152.5t-178.5 -102t-245 -37.5q-67 0 -126 10.5 t-112 29.5t-98 45.5t-83 59.5z" />
<glyph unicode="T" horiz-adv-x="956" d="M141 1119l52 263h901l-53 -263h-279l-216 -1119h-345l217 1119h-277z" />
<glyph unicode="U" horiz-adv-x="1335" d="M100 331q0 33 4.5 71.5t15.5 97.5l173 882h344l-170 -872q-9 -47 -13 -78.5t-4 -55.5q0 -42 9.5 -71.5t29.5 -47.5t49.5 -26.5t69.5 -8.5q49 0 88.5 12.5t71 41t54 76.5t36.5 121l178 909h338l-176 -907q-29 -143 -86.5 -239t-140 -154t-187.5 -83.5t-226 -25.5 q-110 0 -194.5 21t-143 64.5t-89.5 111t-31 161.5z" />
<glyph unicode="V" horiz-adv-x="1148" d="M177 1382h365q-7 -116 -9 -240q-1 -45 -1 -91q0 -81 2 -164q4 -131 10 -268t15 -276q58 122 112.5 250t104.5 259.5t96.5 264.5t88.5 265h343q-63 -181 -132 -355t-145 -346t-159.5 -341.5t-177.5 -339.5h-424q-26 172 -44 342.5t-29 341.5q-11 170 -15 344q-2 99 -2 201 q0 76 1 153z" />
<glyph unicode="W" horiz-adv-x="1779" d="M184 1021q0 175 4 361h360q-7 -103 -9.5 -209t-5.5 -221t-6 -243t-8 -277h2l79 213l307 737h341l26 -745l-3 -205h4q48 135 92 259t84 240.5t76.5 228t70.5 222.5h326q-69 -186 -136.5 -362t-138 -346.5t-143 -338t-151.5 -335.5h-374l-30 645l4 232h-2l-83 -229 l-267 -648h-379q-15 171 -24 339q-9 167 -13 337q-4 151 -4 306q1 20 1 39z" />
<glyph unicode="X" horiz-adv-x="1132" d="M-94 0q60 105 119.5 202.5t119 188t119 175t120.5 164.5q-29 80 -53 157t-45 155.5t-41 162t-38 177.5h353q9 -52 20.5 -106.5t23 -107.5t25 -102t26.5 -91q30 40 63 89t66.5 102.5t66.5 108.5t62 107h339q-54 -97 -107.5 -183.5t-106.5 -166t-106.5 -152.5t-110.5 -144 q28 -75 55 -158t52.5 -175.5t48.5 -193t43 -209.5h-362q-13 65 -27 126t-28.5 119t-30 112.5t-31.5 102.5q-34 -47 -69.5 -100.5t-72.5 -112t-73 -120t-73 -127.5h-347z" />
<glyph unicode="Y" horiz-adv-x="1011" d="M152 1382h361q5 -68 12 -132t16 -126.5t19.5 -123.5t24.5 -120q37 57 71.5 118t67.5 124.5t63.5 129t59.5 130.5h345q-63 -125 -125.5 -238.5t-126 -216t-127.5 -193.5t-130 -172l-110 -562h-344l110 562q-34 90 -62 184t-51.5 194.5t-42 210.5t-31.5 231z" />
<glyph unicode="Z" horiz-adv-x="1009" d="M-48 0l44 233l631 881h-441l61 268h856l-46 -230l-631 -881h481l-57 -271h-898z" />
<glyph unicode="[" horiz-adv-x="747" d="M3 -354l364 1867h454l-37 -191h-180l-289 -1485h181l-37 -191h-456z" />
<glyph unicode="\" d="M190 1452h267l423 -1665h-267z" />
<glyph unicode="]" horiz-adv-x="747" d="M-56 -354l38 191h180l288 1485h-181l38 191h456l-364 -1867h-455z" />
<glyph unicode="^" d="M92 823l475 629h254l229 -631l-266 -86l-138 451l-315 -451z" />
<glyph unicode="_" d="M-175 -370l47 235h1024l-47 -235h-1024z" />
<glyph unicode="`" horiz-adv-x="645" d="M188 1376l229 116l264 -279l-168 -84z" />
<glyph unicode="a" horiz-adv-x="1112" d="M39 326q0 69 10 150.5t37.5 163t74 157t118 134t172 94t235.5 35.5q80 0 153.5 -8t131.5 -17q68 -10 127 -23l-198 -1012h-269l13 152q-33 -41 -70.5 -74.5t-79.5 -56.5t-85.5 -35.5t-86.5 -12.5q-77 0 -131 29t-87.5 77.5t-49 112t-15.5 134.5zM373 366 q0 -73 17.5 -105.5t53.5 -32.5q31 0 66 22t68.5 68t63 116.5t48.5 168.5l41 210q-13 4 -28 8q-13 3 -30.5 5.5t-37.5 2.5q-50 0 -89.5 -25.5t-68 -66.5t-48.5 -92t-32.5 -102t-18 -98.5t-5.5 -78.5z" />
<glyph unicode="b" horiz-adv-x="1112" d="M10 22l280 1430h327l-81 -415q-3 -18 -8.5 -37t-10.5 -38t-10 -36.5l-9 -31.5q24 34 55.5 63.5t69 52.5t80 36.5t87.5 13.5q75 0 128 -29t86.5 -77.5t49 -112t15.5 -132.5q0 -71 -10 -152.5t-37.5 -163t-74 -157t-118 -134t-172 -94t-235.5 -35.5q-80 0 -154 7.5 t-132 17.5q-68 9 -126 24zM377 220q12 -4 27 -8q12 -2 30.5 -4.5t38.5 -2.5q50 0 89 25t68 66t49 92t32.5 102.5t18 98.5t5.5 79q0 73 -17.5 105t-53.5 32q-31 0 -66 -22t-68.5 -67.5t-63 -116.5t-48.5 -168z" />
<glyph unicode="c" horiz-adv-x="862" d="M39 341q0 49 6.5 106.5t21.5 117.5t37.5 119.5t55.5 114.5t75.5 102.5t96 82.5t119.5 55.5t145 20.5q50 0 95 -8.5t83.5 -25t68.5 -41t54 -56.5l-132 -169q-30 29 -64.5 43.5t-74.5 14.5q-44 0 -79 -22t-62 -59.5t-47.5 -85t-33.5 -98t-19 -101.5t-6 -93q0 -73 29 -106 t90 -33q52 0 101.5 19t97.5 55l73 -169q-34 -30 -74.5 -56.5t-87 -47t-100 -33t-115.5 -12.5q-87 0 -153 23.5t-110.5 70t-67.5 114.5t-23 157z" />
<glyph unicode="d" horiz-adv-x="1112" d="M39 326q0 69 10 150.5t37.5 163t74 157t118 134t172 94t235.5 35.5q17 0 33 -1t30 -2q15 -2 28 -3l78 398h328l-283 -1452h-269l13 152q-33 -41 -70.5 -74.5t-79.5 -56.5t-85.5 -35.5t-86.5 -12.5q-77 0 -131 29t-87.5 77.5t-49 112t-15.5 134.5zM373 366 q0 -73 17.5 -105.5t53.5 -32.5q31 0 66 22t68.5 68t63 116.5t48.5 168.5l41 210q-13 4 -28 8q-13 3 -30.5 5.5t-37.5 2.5q-50 0 -89.5 -25.5t-68 -66.5t-48.5 -92t-32.5 -102t-18 -98.5t-5.5 -78.5z" />
<glyph unicode="e" horiz-adv-x="1034" d="M39 343q0 30 3.5 77t15 103t31 117t50 121t75 114t106 95t141 65.5t180.5 24.5q81 0 149.5 -18.5t118 -53.5t77.5 -86t28 -118q0 -71 -32.5 -133t-107 -108.5t-196.5 -74t-303 -27.5q-2 -9 -3.5 -19t-2.5 -20.5t-1.5 -20t-0.5 -17.5q0 -35 9 -61.5t28.5 -44.5t49 -27.5 t68.5 -9.5q35 0 75 3.5t84 11t88.5 17.5t87.5 23l27 -184q-99 -53 -212.5 -86t-234.5 -33q-90 0 -163 21t-125.5 65t-81 114.5t-28.5 169.5zM417 640q61 0 106 4t78 12t53 19t32 25t17 30t5 35t-6.5 34t-19.5 25.5t-32 15.5t-45 5q-36 0 -65 -14.5t-52.5 -40.5t-41 -64.5 t-29.5 -85.5z" />
<glyph unicode="f" horiz-adv-x="634" d="M-269 -311l67 184q30 -9 55.5 -13t50.5 -4q50 0 76.5 23.5t38.5 85.5l164 842h-110l44 226h110l21 104q15 80 42 142.5t70.5 107.5t106 68.5t147.5 23.5q43 0 78.5 -6t66.5 -14.5t56.5 -21.5t48.5 -26l-67 -184q-28 8 -54.5 12.5t-51.5 4.5q-50 0 -76.5 -23.5 t-39.5 -85.5l-20 -102h160l-45 -226h-160l-163 -844q-16 -80 -43.5 -143t-71 -107.5t-105.5 -68t-147 -23.5q-42 0 -77.5 5.5t-66.5 14.5t-57 21.5t-48 26.5z" />
<glyph unicode="g" horiz-adv-x="1112" d="M-10 -282l48 179q113 -18 194 -26.5t139 -8.5q50 0 85.5 7.5t59 23.5t36.5 41.5t20 62.5l13 64q3 14 7 31t8 32t8.5 30t9.5 26q-24 -34 -55.5 -65t-69.5 -55t-80 -38.5t-83 -14.5q-77 0 -132 27t-89.5 74t-51 110t-16.5 135q0 47 5 102.5t19.5 114.5t37.5 117t59 113 t84 102t112.5 82t145.5 55.5t182 20.5q80 0 153.5 -8t131.5 -17q68 -10 127 -23l-198 -1012q-22 -111 -71 -183.5t-118 -116t-155 -61.5t-179 -18q-44 0 -90 5.5t-95 17.5t-99 31t-103 43zM377 384q0 -32 4.5 -54.5t14.5 -38t23.5 -22.5t30.5 -7q30 0 65 21.5t68 66 t62.5 109t45.5 150.5l40 204q-13 4 -28 8q-13 3 -30.5 5.5t-37.5 2.5q-47 0 -84.5 -22.5t-66.5 -59.5t-49 -84t-33 -96.5t-19 -97t-6 -85.5z" />
<glyph unicode="h" horiz-adv-x="1126" d="M7 0l283 1452h327l-81 -415q-5 -18 -10 -37l-10 -38t-9.5 -36.5t-8.5 -31.5q24 34 55.5 63.5t69 52.5t80 36.5t88.5 13.5q66 0 114.5 -17.5t82.5 -52.5t51 -89t17 -129q0 -67 -11.5 -137t-30.5 -159.5t-44.5 -204.5t-54.5 -271h-328q31 160 56 276.5t42.5 200t27.5 140 t10 96.5q0 45 -15 65.5t-52 20.5q-32 0 -67 -27t-69 -79.5t-62.5 -131.5t-48.5 -181l-74 -380h-328z" />
<glyph unicode="i" horiz-adv-x="546" d="M7 0l201 1033h328l-201 -1033h-328zM221 1230q0 18 3.5 43.5t11 51.5t17.5 48t22 34t27.5 21t35 15t46 9t60.5 3q47 0 80.5 -5.5t54.5 -18t31.5 -32.5t10.5 -48q0 -19 -4.5 -44.5t-11.5 -51t-17 -47.5t-22 -34q-13 -12 -28 -21.5t-35 -16t-46 -9.5t-60 -3 q-48 0 -81.5 6.5t-54.5 18.5t-30.5 32t-9.5 49z" />
<glyph unicode="j" horiz-adv-x="546" d="M-179 -274q38 38 70.5 78.5t58 83.5t43.5 88.5t27 92.5l188 964h328l-183 -933q-14 -75 -39.5 -139.5t-64 -122.5t-93 -111t-126.5 -105zM222 1230q0 18 4 43.5t11.5 51.5t17 48t21.5 34t27.5 21t35.5 15t46.5 9t59.5 3q47 0 80.5 -5.5t55 -18t31.5 -32.5t10 -48 q0 -19 -4 -44.5t-11 -51t-17 -47.5t-23 -34q-12 -12 -27.5 -21.5t-35.5 -16t-46 -9.5t-60 -3q-47 0 -80.5 6.5t-54.5 18.5t-31 32t-10 49z" />
<glyph unicode="k" horiz-adv-x="1046" d="M7 0l282 1452h327l-161 -828h11l263 409h385l-359 -454l175 -579h-366l-124 489h-11l-94 -489h-328z" />
<glyph unicode="l" horiz-adv-x="575" d="M44 147q0 23 3 53.5t11 67.5l232 1184h327l-218 -1119q-7 -33 -9.5 -53t-2.5 -33q0 -15 3 -24t10 -13.5t15.5 -6t20.5 -1.5q13 0 25 0.5t18 0.5l-23 -190q-23 -8 -46 -14t-49.5 -10t-57 -6t-67.5 -2q-46 0 -82 8t-60.5 27.5t-37 51.5t-12.5 79z" />
<glyph unicode="m" horiz-adv-x="1691" d="M7 0l201 1033h269l-13 -151q31 41 68.5 74t78.5 56t84.5 35.5t89.5 12.5q54 0 97 -13t73 -36.5t49 -58t28 -78.5q32 42 69.5 76.5t79 58.5t86.5 37.5t92 13.5q65 0 113.5 -17.5t81.5 -52.5t50 -89t17 -129q0 -67 -11.5 -137t-29.5 -159.5t-44.5 -204.5t-54.5 -271h-329 q32 160 57 276.5t42.5 200t27 140t9.5 96.5q0 45 -13.5 65.5t-46.5 20.5q-29 0 -62 -21.5t-65.5 -66t-61 -115t-47.5 -165.5l-84 -431h-327l95 467q10 51 17.5 89t12 66.5t7 50t2.5 40.5q0 45 -14 65.5t-47 20.5q-30 0 -63 -21.5t-65 -66t-61 -115t-47 -165.5l-83 -431h-328 z" />
<glyph unicode="n" horiz-adv-x="1126" d="M7 0l201 1033h269l-13 -151q31 41 69 74t80 56t86.5 35.5t91.5 12.5q66 0 114.5 -17.5t82.5 -52.5t51 -89t17 -129q0 -67 -11.5 -137t-30.5 -159.5t-44.5 -204.5t-54.5 -271h-328q31 160 56 276.5t42.5 200t27.5 140t10 96.5q0 45 -15 65.5t-52 20.5q-32 0 -66.5 -26.5 t-67.5 -74.5t-60.5 -115.5t-43.5 -151.5l-83 -431h-328z" />
<glyph unicode="o" horiz-adv-x="1124" d="M41 339q0 47 5 103t18 115t34.5 119t54.5 116.5t80 104.5t108.5 84.5t141 57.5t179.5 21t177 -21t130.5 -65.5t81 -113.5t27.5 -166q0 -47 -4.5 -102.5t-17.5 -114.5t-34.5 -119.5t-55 -117t-80 -104.5t-108.5 -84.5t-141.5 -57.5t-178.5 -21t-177 21t-131 65.5t-81 114 t-28 165.5zM373 354q0 -81 30 -111.5t96 -30.5q37 0 67.5 16t55 42.5t43 62t32.5 74t23.5 78.5t15 76.5t8 67t2.5 50.5q0 81 -30 111.5t-94 30.5q-39 0 -69.5 -15.5t-55 -42.5t-43.5 -62t-32.5 -74t-23 -79t-15 -76.5t-8 -67t-2.5 -50.5z" />
<glyph unicode="p" horiz-adv-x="1112" d="M-62 -354l270 1387h269l-13 -151q31 41 69 74t80 56t86 35.5t87 12.5q76 0 130 -29t87.5 -77.5t49.5 -112t16 -132.5q0 -71 -10 -152.5t-37.5 -163t-74 -157t-118 -134t-172 -94t-235.5 -35.5q-17 0 -33.5 1t-29.5 2q-15 2 -28 4l-66 -334h-327zM377 220q12 -4 27 -8 q12 -2 30.5 -4.5t38.5 -2.5q50 0 89 25t68 66t49 92t32.5 102.5t18 98.5t5.5 79q0 73 -17.5 105t-53.5 32q-31 0 -66 -22t-68.5 -67.5t-63 -116.5t-48.5 -168z" />
<glyph unicode="q" horiz-adv-x="1112" d="M39 326q0 69 10 150.5t37.5 163t74 157t118 134t172 94t235.5 35.5q80 0 153.5 -8t131.5 -17q68 -10 127 -23l-268 -1366h-327l69 350q4 18 9.5 37t10.5 38t9 36.5t9 31.5q-24 -34 -55.5 -63.5t-69.5 -52.5t-80.5 -36.5t-86.5 -13.5q-76 0 -128.5 29t-86 77.5t-49 112 t-15.5 134.5zM373 366q0 -73 17.5 -105.5t53.5 -32.5q31 0 66 22t68.5 68t63 116.5t48.5 168.5l41 210q-13 4 -28 8q-13 3 -30.5 5.5t-37.5 2.5q-50 0 -89.5 -25.5t-68 -66.5t-48.5 -92t-32.5 -102t-18 -98.5t-5.5 -78.5z" />
<glyph unicode="r" horiz-adv-x="768" d="M7 0l201 1033h263l-12 -179q24 46 55.5 83.5t67 64t76 41.5t83.5 15q25 0 52 -5.5t52 -19.5l-85 -283q-23 8 -50.5 12.5t-49.5 4.5q-37 0 -72.5 -18.5t-67.5 -59t-58.5 -105t-43.5 -154.5l-83 -430h-328z" />
<glyph unicode="s" horiz-adv-x="870" d="M-45 71l49 162q46 -9 83 -14.5t67.5 -8.5t56 -4.5t47.5 -1.5q46 0 80.5 7t56.5 21.5t33 34.5t11 46q0 25 -15.5 43t-40.5 32t-57 27t-65.5 29t-65.5 35.5t-56.5 47.5t-40 67t-15.5 92q0 43 9.5 87.5t31 85.5t56.5 77.5t84.5 63.5t115 42.5t148.5 15.5q44 0 84.5 -4.5 t79 -14.5t76 -26.5t77.5 -40.5l-55 -163q-37 7 -67 13t-54.5 9.5t-46.5 5.5t-43 2q-34 0 -62 -7.5t-46.5 -20.5t-28.5 -31t-10 -42q0 -31 26.5 -50.5t67 -37.5t87 -38t87 -52t67.5 -78.5t27 -116.5q0 -85 -33.5 -157t-97.5 -123.5t-155.5 -80.5t-206.5 -29q-102 0 -186.5 24 t-159.5 72z" />
<glyph unicode="t" horiz-adv-x="716" d="M69 170q0 19 2 44t10 67l102 526h-110l44 226h124q16 35 33.5 70.5t34 72.5t32 77t32.5 84h240l-58 -304h198l-44 -226h-199l-89 -466q-5 -23 -7 -39t-2 -30q0 -29 14.5 -41.5t48.5 -12.5q12 0 25.5 1t28 3t30.5 5.5t35 9.5l4 -188q-44 -22 -82 -35.5t-72 -22t-66 -12.5 t-64 -4q-61 0 -107.5 11.5t-77.5 36t-45.5 61t-14.5 86.5z" />
<glyph unicode="u" horiz-adv-x="1126" d="M67 262q0 65 11 135.5t29.5 160t44 205t55.5 270.5h329q-32 -160 -56.5 -276t-42.5 -200t-28 -140.5t-10 -95.5q0 -45 14.5 -66t51.5 -21q32 0 67 26.5t68 74.5t60.5 115.5t44.5 152.5l82 430h328l-201 -1033h-269l13 152q-33 -41 -70 -74.5t-79 -56.5t-87 -35.5 t-91 -12.5q-65 0 -114.5 17.5t-83 52.5t-50 89t-16.5 130z" />
<glyph unicode="v" horiz-adv-x="1015" d="M112 1033h347l26 -518l-6 -227q50 108 91 204.5t75 187.5t61 178t49 175h342q-44 -140 -96 -272t-111 -260t-125.5 -252.5t-139.5 -248.5h-449z" />
<glyph unicode="w" horiz-adv-x="1595" d="M119 1033h345v-516l-4 -170h2l57 165l198 521h385l16 -528l-5 -156h2q39 96 73.5 185t64 172.5t54.5 164.5t43 162h319q-41 -136 -88.5 -266t-103 -257.5t-118 -254.5t-130.5 -255h-393l-16 524l8 157h-4l-47 -154l-206 -527h-405z" />
<glyph unicode="x" horiz-adv-x="1003" d="M-93 0l369 539l-136 494h352l57 -315q22 34 46.5 77.5t47.5 87.5t42.5 84t31.5 66h338l-325 -465l163 -568h-361l-74 355q-26 -45 -53 -91t-52.5 -91.5t-48.5 -89t-43 -83.5h-354z" />
<glyph unicode="y" horiz-adv-x="1011" d="M-146 -317l36 187q13 -2 29 -4t32 -2.5t31 -1t26 -0.5q27 0 48 2t39 7.5t33.5 16t31.5 24.5q9 10 17 21t13.5 22.5t8.5 25.5t3 30q0 22 -2 56.5t-7 72.5l-82 893h343l28 -558q2 -24 3.5 -49t1.5 -54q0 -13 -1 -28t-2.5 -30.5t-4.5 -30.5t-7 -28q43 92 84.5 190.5 t78.5 198t66 198t49 191.5h342q-58 -190 -122.5 -352t-132 -296.5t-137 -242.5t-140 -191.5t-140 -144t-136.5 -100t-130.5 -58t-121.5 -18.5q-43 0 -89 13.5t-89 39.5z" />
<glyph unicode="z" horiz-adv-x="819" d="M-58 0l39 205l427 587h-297l56 241h676l-39 -204l-431 -584h348l-56 -245h-723z" />
<glyph unicode="{" horiz-adv-x="794" d="M65 474l46 232h64q28 0 47 8t32 22.5t21.5 36.5t13.5 48l78 398q13 70 42 124.5t74 92.5t107 57.5t141 19.5h126l-38 -190h-69q-27 0 -45 -7t-30 -20.5t-20.5 -34.5t-13.5 -48l-71 -363q-8 -46 -23.5 -85.5t-39 -72.5t-57 -59t-80.5 -43q40 -17 63 -43t33.5 -59 t10.5 -73.5t-9 -86.5l-74 -382q-6 -30 -6.5 -51t6.5 -34t23.5 -19t44.5 -6h69l-38 -190h-131q-80 0 -133 20.5t-81.5 59t-35.5 93.5t8 124l80 412q5 31 5 53t-8.5 37t-24.5 22t-43 7h-64z" />
<glyph unicode="|" horiz-adv-x="522" d="M-52 -354l368 1896h283l-369 -1896h-282z" />
<glyph unicode="}" horiz-adv-x="794" d="M-43 -354l38 190h68q26 0 45 7t31.5 20.5t20 34.5t13.5 48l75 382q9 47 24 87.5t38.5 73t57 57.5t81.5 44q-40 16 -63.5 42t-34.5 59.5t-10.5 73.5t9.5 87l70 361q5 29 5.5 50t-6.5 34.5t-22.5 19.5t-43.5 6h-70l39 190h130q80 0 133.5 -21t82 -59t35.5 -93.5t-7 -122.5 l-78 -393q-6 -31 -5.5 -52.5t9 -36.5t25 -22t42.5 -7h65l-46 -232h-65q-29 0 -48.5 -8.5t-32 -23.5t-20.5 -36.5t-14 -47.5l-81 -417q-13 -71 -41.5 -125.5t-73.5 -92t-107 -57.5t-142 -20h-126z" />
<glyph unicode="~" d="M105 895l12 57q16 82 48.5 147.5t80 112t110 72t138.5 25.5q59 0 98 -16.5t64.5 -40.5t41.5 -52.5t27.5 -52.5t23.5 -40t30 -16q16 0 29 7.5t25 26.5t22 51.5t21 83.5h249l-11 -61q-15 -80 -47 -145.5t-80 -112t-111.5 -72t-141.5 -25.5q-59 0 -98 16.5t-65 40.5 t-41 52.5t-27.5 52.5t-23 40.5t-26.5 16.5t-30 -8t-26.5 -27t-22.5 -52t-19 -81h-250z" />
<glyph unicode="&#xa1;" horiz-adv-x="724" d="M-9 -213l242 983h293l-137 -983h-398zM228 975q0 25 4 50t10.5 47.5t15.5 40t21 29.5q25 26 64.5 36.5t105.5 10.5q49 0 82.5 -6t54 -20.5t30.5 -37t10 -55.5q0 -26 -4.5 -50.5t-11 -47t-15 -40.5t-20.5 -29q-26 -26 -65 -36.5t-104 -10.5q-49 0 -83 6t-55 20.5t-30.5 37 t-9.5 55.5z" />
<glyph unicode="&#xa2;" d="M106 556q0 63 12.5 131t37.5 132.5t64 123.5t92 107t120.5 80.5t149.5 45.5l63 216h195l-21 -223q30 -7 54.5 -16t47.5 -22t43.5 -30t40.5 -38l-128 -168q-32 27 -75 43t-88 16t-82 -14.5t-66 -40t-51.5 -60.5t-37.5 -75t-23 -83t-8 -86q0 -40 9.5 -69.5t27.5 -49.5 t45.5 -30t64.5 -10q30 0 59 4.5t57.5 14.5t58 24.5t58.5 34.5l74 -172q-28 -19 -58.5 -37t-63.5 -33t-67.5 -27.5t-71.5 -19.5l-73 -237h-193l22 226q-70 9 -123.5 35.5t-90.5 69.5t-56 102t-19 135z" />
<glyph unicode="&#xa3;" d="M-28 0l42 211q52 46 90 90.5t64 89.5t40.5 94.5t21.5 105.5h-162l42 212h127q-1 15 -2.5 35t-1.5 44q0 52 7 111t26.5 116.5t53.5 110.5t90 93.5t135.5 64t187.5 23.5q47 0 96.5 -5.5t96.5 -17.5t88.5 -28.5t72.5 -36.5l-59 -173q-33 6 -63 9.5t-57.5 6t-54 3.5t-49.5 1 q-44 0 -77.5 -6t-59 -20t-43.5 -35.5t-28.5 -52t-16 -70t-5.5 -88.5q0 -24 1.5 -44t2.5 -41h295l-40 -212h-269q-8 -56 -18.5 -102.5t-28 -87t-44 -75.5t-62.5 -68h496l-49 -258h-886z" />
<glyph unicode="&#xa4;" d="M-37 135l156 143q-13 27 -20.5 60t-7.5 75q0 50 10 104.5t28 106t44.5 96.5t57.5 78l-109 154l221 114l89 -160q37 13 77.5 19t86.5 6q40 0 72 -5.5t61 -16.5l147 157l192 -127l-162 -146q15 -28 23.5 -62t8.5 -76q0 -25 -4.5 -67.5t-19.5 -94.5t-42.5 -107t-73.5 -104 l111 -160l-225 -114l-85 162q-19 -6 -39 -11t-42 -9t-44.5 -5.5t-45.5 -1.5q-39 0 -70 5.5t-58 15.5l-143 -156zM367 434q0 -31 6 -52.5t18.5 -35.5t33 -21t50.5 -7q36 0 64 16.5t47.5 43t33.5 61t22 70t11.5 69t3.5 60.5q0 33 -6.5 55.5t-20 35.5t-33 19.5t-48.5 6.5 q-38 0 -66.5 -17.5t-48.5 -45.5t-33 -63.5t-20.5 -71t-10.5 -68t-3 -55.5z" />
<glyph unicode="&#xa5;" d="M27 146l40 206h250l25 129h-251l41 206h250l4 24q-35 78 -64 158.5t-53.5 164t-46 170.5t-41.5 178h346q6 -60 14.5 -116.5t18.5 -108.5t22.5 -100t27.5 -92q32 41 62 90t60.5 102.5t58.5 110.5t55 114h333q-112 -189 -228.5 -359t-241.5 -312l-4 -24h249l-40 -206h-250 l-24 -129h250l-41 -206h-250l-29 -146h-321l27 146h-249z" />
<glyph unicode="&#xa6;" horiz-adv-x="522" d="M-51 -354l150 769h281l-151 -769h-280zM163 740l156 808h281l-157 -808h-280z" />
<glyph unicode="&#xa7;" horiz-adv-x="1040" d="M0 -273l84 177q26 -9 51.5 -15.5t49.5 -10.5t46.5 -6t41.5 -2q26 0 47 4t38 13t29 21t21 27t13 33.5t4 38.5q0 37 -26 73t-64.5 74.5t-83.5 82.5t-83.5 99t-64 125t-25.5 160q0 95 31.5 189.5t85.5 181t124.5 162t147 130.5t155 87t147.5 32q38 0 72.5 -6t66 -16.5 t58 -25.5t49.5 -33l-81 -180q-46 14 -92.5 21t-85.5 7q-25 0 -44.5 -4.5t-35.5 -13.5t-27 -21.5t-18.5 -27t-12 -31.5t-4.5 -35q0 -39 26.5 -74t65 -74t84 -83t84 -100t64.5 -126t26 -160q0 -95 -31.5 -190t-84.5 -181.5t-123.5 -161t-148 -130.5t-158 -87t-154.5 -31 q-43 0 -78.5 5.5t-67.5 16t-60.5 27t-57.5 39.5zM344 695q0 -56 22 -102t55 -87.5t71 -79t71 -75t55 -77.5t22 -86q0 -11 -3.5 -21.5t-11.5 -25.5q15 23 28 48.5t21.5 51.5t13.5 53.5t5 54.5q0 53 -22 100t-54 87.5t-70.5 77.5t-71 74t-54.5 75.5t-22 81.5q0 11 3.5 21.5 t11.5 23.5q-17 -20 -30 -44t-22 -48t-13.5 -50t-4.5 -53z" />
<glyph unicode="&#xa8;" horiz-adv-x="884" d="M224 1249q0 17 3.5 38.5t10.5 43t16.5 40.5t21.5 30q18 18 49.5 27t74.5 9q69 0 103.5 -22t34.5 -76q0 -17 -4 -38t-10.5 -42.5t-16 -40.5t-22.5 -30q-18 -18 -49.5 -27t-74.5 -9q-69 0 -103 21.5t-34 75.5zM641 1249q0 17 3.5 38.5t10.5 43t16.5 40.5t20.5 30 q18 18 50 27t75 9q69 0 103 -22t34 -76q0 -17 -4 -38t-10.5 -42.5t-16.5 -40.5t-21 -30q-18 -18 -49.5 -27t-74.5 -9q-70 0 -103.5 21.5t-33.5 75.5z" />
<glyph unicode="&#xa9;" horiz-adv-x="1591" d="M91 641q0 114 28.5 214.5t80.5 186.5t123.5 155.5t157 117.5t183 74t199.5 26q154 0 282.5 -51t221 -141.5t144 -214t51.5 -269.5q0 -114 -29 -214.5t-80.5 -186.5t-123.5 -155t-157.5 -117.5t-182.5 -74.5t-199 -26q-155 0 -283 51.5t-220.5 142t-144 214t-51.5 268.5z M322 653q0 -106 35.5 -196t99.5 -156.5t151.5 -103.5t192.5 -37q70 0 137 18.5t125.5 52.5t108 84.5t85 113.5t55 138t19.5 160q0 105 -35.5 196t-99.5 157t-152 103.5t-191 37.5q-72 0 -138.5 -18.5t-125.5 -53t-108 -84.5t-85 -113t-55 -138.5t-19 -160.5zM451 587 q0 66 12.5 129.5t38.5 121.5t64 107.5t88.5 85.5t112 56t136.5 20q92 0 153 -26.5t104 -73.5l-113 -133q-24 20 -52.5 31t-64.5 11q-31 0 -56.5 -14.5t-46.5 -39.5t-36.5 -58t-25.5 -69t-15 -71.5t-5 -66.5q0 -34 6 -58.5t18 -39.5t30 -22t43 -7q38 0 78.5 14t80.5 39 l64 -133q-30 -23 -63 -42.5t-72 -34.5t-84 -24t-97 -9q-71 0 -126.5 18t-94 56t-58 96t-19.5 137z" />
<glyph unicode="&#xaa;" horiz-adv-x="956" d="M115 404l35 175h674l-34 -175h-675zM172 934q0 62 11.5 126t36.5 123t64.5 111.5t95.5 90.5t130.5 60t167.5 22q36 0 75 -2.5t78.5 -7.5t78.5 -11t77 -12l-144 -740h-219l10 112q-24 -33 -53 -57t-60.5 -41t-63 -25.5t-61.5 -8.5q-55 0 -97 20.5t-70 55.5t-42.5 82.5 t-14.5 101.5zM435 962q0 -26 2.5 -45t9 -31t16 -18t22.5 -6q23 0 48.5 16t50.5 48.5t47 84.5t36 123l28 152q-5 2 -11.5 4t-15.5 4t-19 3t-23 1q-37 0 -66 -18.5t-50 -48t-35 -66.5t-23.5 -74t-13 -71.5t-3.5 -57.5z" />
<glyph unicode="&#xab;" horiz-adv-x="1046" d="M62 600l360 429l211 -80l-262 -358l121 -367l-224 -61zM498 600l330 401l205 -75l-230 -335l98 -342l-215 -59z" />
<glyph unicode="&#xac;" d="M63 501l46 229h864l-99 -503h-262l54 274h-603z" />
<glyph unicode="&#xae;" horiz-adv-x="1161" d="M168 966q0 111 39.5 204.5t109.5 162.5t166.5 108t208.5 39q109 0 198 -34.5t152.5 -96t98 -146.5t34.5 -185q0 -115 -41 -208.5t-112.5 -161t-166 -105t-204.5 -37.5q-109 0 -197.5 34t-151.5 95.5t-98.5 145.5t-35.5 185zM343 978q0 -69 21.5 -127.5t62 -103 t99.5 -69.5t132 -25q76 0 139 27t107.5 75t69 113t24.5 142q0 67 -21.5 125.5t-62 102.5t-99 69t-132.5 25q-77 0 -139.5 -26.5t-107 -74t-69 -112.5t-24.5 -141zM443 772l89 460q28 0 53.5 0.5t49 1t44.5 1t40 0.5q40 0 71.5 -8t54.5 -23.5t35 -38t12 -53.5q0 -23 -6 -44.5 t-19 -41.5t-33 -37.5t-48 -31.5l51 -185h-159l-30 169h-24l-34 -169h-147zM642 1034h32q14 0 26.5 4t22 13.5t14.5 21.5t5 30q0 17 -11 26t-41 9h-27z" />
<glyph unicode="&#xaf;" horiz-adv-x="690" d="M169 1183l43 224h597l-43 -224h-597z" />
<glyph unicode="&#xb0;" horiz-adv-x="923" d="M223 1059q0 49 9 97t28.5 91t51 80t77 64t106 42.5t136.5 15.5q79 0 137.5 -14t97 -42t57.5 -72t19 -106q0 -49 -8.5 -96.5t-28 -91t-51.5 -80.5t-77.5 -64t-106 -42t-135.5 -15q-79 0 -138 13.5t-97.5 41.5t-57.5 72t-19 106zM464 1087q0 -22 5.5 -36.5t17.5 -24 t30.5 -13.5t44.5 -4q25 0 45.5 6t35.5 16.5t26.5 26.5t18.5 36t10 43t3 51q0 22 -5.5 36.5t-17 23.5t-30.5 13.5t-45 4.5t-45.5 -6t-35 -17t-27 -27t-18.5 -35.5t-10 -43.5t-3 -50z" />
<glyph unicode="&#xb1;" d="M-26 0l42 217h869l-42 -217h-869zM98 634l42 217h302l62 311h264l-61 -311h301l-41 -217h-302l-62 -320h-264l61 320h-302z" />
<glyph unicode="&#xb2;" horiz-adv-x="757" d="M103 711l39 196q118 81 192 137t115 96q41 39 56 67t15 54t-19 37q-19 12 -58 12q-42 0 -92 -13q-50 -12 -102 -27l-15 162q40 15 82 27q41 12 83 21q41 9 82 14t81 4q62 0 112 -13t84 -39q34 -25 52 -58q18 -34 18 -77q0 -53 -20 -101q-20 -47 -61 -94t-106 -97 t-156 -109h290l-39 -199h-633z" />
<glyph unicode="&#xb3;" horiz-adv-x="747" d="M83 745l43 137q53 -10 101 -16t103 -6q45 0 75 8.5t47.5 21.5t24.5 30.5t7 35.5q0 14 -5 25.5t-19 19.5t-41.5 12.5t-70.5 4.5h-98l34 172h109q42 0 69 7.5t42 20.5t21.5 29.5t6.5 33.5q0 8 -4 16.5t-12 14.5t-24 9.5t-39 3.5q-18 0 -41.5 -2t-49.5 -6.5t-53.5 -10.5 t-54.5 -14l-17 151q80 28 157 41.5t153 13.5q80 0 132.5 -15t84.5 -40.5t45 -57.5t13 -66q0 -42 -12 -77t-33 -62t-50 -46t-63 -28q35 -8 57 -23.5t34 -34t16 -37.5t4 -33q0 -26 -5 -56.5t-20 -63t-42 -63t-71.5 -54t-109 -38.5t-152.5 -15q-74 0 -150 14.5t-142 42.5z" />
<glyph unicode="&#xb4;" horiz-adv-x="645" d="M178 1213l280 279l223 -116l-342 -247z" />
<glyph unicode="&#xb5;" horiz-adv-x="1134" d="M-62 -354l270 1387h326l-109 -561q-4 -18 -6.5 -34.5t-4.5 -31.5t-4 -28.5t-3 -25.5q-3 -35 -1 -57.5t9.5 -36t22 -19t34.5 -5.5q32 0 66 26.5t67 74.5t60.5 115.5t44.5 152.5l83 430h327l-200 -1033h-270l14 152q-29 -38 -59.5 -68.5t-62 -51.5t-65.5 -31.5t-68 -10.5 q-29 0 -49 10.5t-29 27.5l-5 -28q-4 -29 -12 -71.5t-16.5 -92t-16 -92t-12.5 -70.5l-5 -28h-326z" />
<glyph unicode="&#xb6;" horiz-adv-x="1349" d="M152 868q0 68 13.5 133t42.5 122.5t72.5 105t101.5 81t133 53t166 19.5h674l-309 -1595h-248l271 1398h-189l-271 -1398h-248l148 762q-9 -2 -18.5 -2.5t-18.5 -0.5q-74 0 -133 24.5t-101 68t-64 102t-22 127.5z" />
<glyph unicode="&#xb7;" horiz-adv-x="577" d="M117 545q0 27 4.5 58.5t13 60t19.5 52.5t23 36q23 24 60.5 34t94.5 10q46 0 77 -6t50.5 -18.5t29 -33.5t9.5 -53q0 -28 -5.5 -59t-13.5 -59.5t-20 -52.5t-24 -36q-24 -24 -60.5 -34t-93.5 -10q-45 0 -76.5 5.5t-51 18.5t-28 34t-8.5 53z" />
<glyph unicode="&#xb8;" horiz-adv-x="632" d="M-82 -314q42 34 68 62t40 55t17.5 54t0.5 58h275q4 -95 -50 -166.5t-168 -128.5z" />
<glyph unicode="&#xb9;" horiz-adv-x="714" d="M118 711l37 189h158l71 354l-144 -36l-7 164l248 98h225l-114 -580h142l-37 -189h-579z" />
<glyph unicode="&#xba;" horiz-adv-x="890" d="M93 404l34 175h661l-33 -175h-662zM162 969q0 43 8.5 96.5t28.5 109t53.5 107.5t83.5 93.5t118.5 66t157.5 24.5q70 0 128.5 -19t100.5 -55.5t66 -91.5t24 -129q0 -44 -9.5 -97.5t-30 -108.5t-54.5 -106t-84.5 -91t-119 -64t-157.5 -24q-69 0 -126.5 17t-99 52t-65 89.5 t-23.5 130.5zM424 968q0 -60 21.5 -82.5t66.5 -22.5q30 0 53 17.5t40.5 44.5t29.5 61.5t19.5 70t11 67t3.5 55.5q0 58 -20 81t-61 23q-34 0 -59 -18t-43.5 -45.5t-30 -62.5t-18.5 -70t-10 -67t-3 -52z" />
<glyph unicode="&#xbb;" horiz-adv-x="1046" d="M39 265l230 335l-99 342l216 59l188 -410l-330 -401zM439 243l262 357l-120 368l222 61l207 -438l-361 -428z" />
<glyph unicode="&#xbc;" horiz-adv-x="1531" d="M38 -79l1443 1545l152 -98l-1442 -1545zM118 711l37 189h158l71 354l-144 -36l-7 164l248 98h225l-114 -580h142l-37 -189h-579zM702 -7l35 187q32 51 70 107t79 113t85 115q44 57 87 111h382l-84 -444h77l-37 -189h-78l-27 -132h-268l27 132h-348zM936 182h150l55 282 q-25 -28 -52 -63q-28 -35 -55 -73q-27 -37 -52 -75q-25 -37 -46 -71z" />
<glyph unicode="&#xbd;" horiz-adv-x="1634" d="M38 -79l1443 1545l152 -98l-1442 -1545zM118 711l37 189h158l71 354l-144 -36l-7 164l248 98h225l-114 -580h142l-37 -189h-579zM814 -139l39 196q118 81 191 138q74 56 115 95t56 67t16 54q0 26 -19 37q-19 12 -58 12q-42 0 -92 -13q-50 -12 -103 -27l-14 162 q40 15 82 27q41 12 83 21q41 9 82 14t81 4q62 0 112 -13t83 -39q34 -25 53 -58q18 -34 18 -77q0 -53 -20 -101q-20 -47 -61 -94t-107 -97q-65 -50 -155 -109h290l-39 -199h-633z" />
<glyph unicode="&#xbe;" horiz-adv-x="1515" d="M19 -79l1443 1545l152 -98l-1442 -1545zM85 747l42 134q52 -10 98.5 -15.5t100.5 -5.5q44 0 73.5 8t46.5 21t24 30t7 35q0 14 -5 25t-19 18.5t-40.5 12t-68.5 4.5h-96l33 168h107q41 0 67 7.5t41 20t21 28.5t6 33q0 8 -3.5 16t-11.5 14t-23.5 9.5t-38.5 3.5 q-18 0 -40.5 -2t-48 -6.5t-52.5 -10.5t-53 -13l-17 147q78 27 153.5 40.5t149.5 13.5q78 0 129.5 -14.5t82.5 -39.5t44 -56.5t13 -64.5q0 -41 -12 -75t-32.5 -60.5t-48.5 -45t-62 -27.5q34 -8 55.5 -23t33.5 -33t16 -36.5t4 -32.5q0 -25 -5 -55t-19.5 -61.5t-41 -61.5 t-70 -53t-106.5 -37.5t-149 -14.5q-72 0 -146.5 14t-138.5 41zM684 -7l35 187q32 51 69 107q38 56 80 113q41 57 85 115q44 57 86 111h382l-84 -444h77l-37 -189h-78l-26 -132h-268l26 132h-347zM918 182h150l54 282q-25 -28 -52 -63q-28 -35 -55 -73q-27 -37 -52 -75 q-25 -37 -45 -71z" />
<glyph unicode="&#xbf;" d="M4 54q0 91 26.5 155t67.5 112.5t91 87t96.5 77t84 84.5t52.5 109l22 91h290l-13 -101q-10 -85 -39.5 -144.5t-66 -104t-77.5 -78t-75 -65.5t-56 -67.5t-22 -83.5q0 -20 7.5 -38.5t23 -31.5t40 -21t60.5 -8q27 0 55 3t56.5 9t58.5 15t58 21l58 -199q-52 -28 -104.5 -49 t-104.5 -35t-106 -21.5t-109 -7.5q-91 0 -161 20.5t-117.5 58t-71.5 91.5t-24 121zM440 975q0 25 3.5 50t10.5 47.5t15.5 40t20.5 29.5q25 26 65 36.5t104 10.5q50 0 84 -6t54.5 -20.5t30 -37t9.5 -55.5q0 -26 -4 -50.5t-10.5 -47t-15 -40.5t-20.5 -29q-26 -26 -65 -36.5 t-105 -10.5q-49 0 -82.5 6t-54.5 20.5t-30.5 37t-9.5 55.5z" />
<glyph unicode="&#xc0;" horiz-adv-x="1228" d="M-92 0q74 178 150 353.5t156.5 349t163.5 342.5t170 337h460q25 -174 42 -344.5t29.5 -342t21 -344.5t14.5 -351h-359v60t-0.5 67.5t-1 67.5t-1.5 60h-411q-10 -26 -22.5 -56.5t-25 -63.5t-25.5 -67t-25 -68h-336zM444 508h306q-4 70 -9 144t-10.5 147.5t-12 147 t-13.5 142.5q-30 -66 -64 -139.5t-68.5 -149.5t-67.5 -151.5t-61 -140.5zM452 1575l151 189l381 -167l-104 -137z" />
<glyph unicode="&#xc1;" horiz-adv-x="1228" d="M-92 0q74 178 150 353.5t156.5 349t163.5 342.5t170 337h460q25 -174 42 -344.5t29.5 -342t21 -344.5t14.5 -351h-359v60t-0.5 67.5t-1 67.5t-1.5 60h-411q-10 -26 -22.5 -56.5t-25 -63.5t-25.5 -67t-25 -68h-336zM444 508h306q-4 70 -9 144t-10.5 147.5t-12 147 t-13.5 142.5q-30 -66 -64 -139.5t-68.5 -149.5t-67.5 -151.5t-61 -140.5zM621 1597l391 167l139 -189l-436 -115z" />
<glyph unicode="&#xc2;" horiz-adv-x="1228" d="M-92 0q74 178 150 353.5t156.5 349t163.5 342.5t170 337h460q25 -174 42 -344.5t29.5 -342t21 -344.5t14.5 -351h-359v60t-0.5 67.5t-1 67.5t-1.5 60h-411q-10 -26 -22.5 -56.5t-25 -63.5t-25.5 -67t-25 -68h-336zM444 508h306q-4 70 -9 144t-10.5 147.5t-12 147 t-13.5 142.5q-30 -66 -64 -139.5t-68.5 -149.5t-67.5 -151.5t-61 -140.5zM477 1588l356 176l291 -172l-98 -132l-227 95l-258 -95z" />
<glyph unicode="&#xc3;" horiz-adv-x="1228" d="M-92 0q74 178 150 353.5t156.5 349t163.5 342.5t170 337h460q25 -174 42 -344.5t29.5 -342t21 -344.5t14.5 -351h-359v60t-0.5 67.5t-1 67.5t-1.5 60h-411q-10 -26 -22.5 -56.5t-25 -63.5t-25.5 -67t-25 -68h-336zM436 1559q24 45 51.5 81.5t60 62.5t72.5 39t86 13 q52 0 86.5 -14.5t59.5 -31.5t44.5 -31.5t42.5 -14.5q13 0 24.5 4.5t24 15.5t26.5 27.5t31 43.5l128 -89q-23 -46 -50 -83t-60.5 -62t-73 -38.5t-86.5 -13.5q-35 0 -61 7t-47.5 17t-37.5 21.5t-31 21.5t-28.5 17t-28.5 7q-13 0 -25 -5t-23.5 -15t-25.5 -27t-31 -43zM444 508 h306q-4 70 -9 144t-10.5 147.5t-12 147t-13.5 142.5q-30 -66 -64 -139.5t-68.5 -149.5t-67.5 -151.5t-61 -140.5z" />
<glyph unicode="&#xc4;" horiz-adv-x="1228" d="M-92 0q74 178 150 353.5t156.5 349t163.5 342.5t170 337h460q25 -174 42 -344.5t29.5 -342t21 -344.5t14.5 -351h-359v60t-0.5 67.5t-1 67.5t-1.5 60h-411q-10 -26 -22.5 -56.5t-25 -63.5t-25.5 -67t-25 -68h-336zM444 508h306q-4 70 -9 144t-10.5 147.5t-12 147 t-13.5 142.5q-30 -66 -64 -139.5t-68.5 -149.5t-67.5 -151.5t-61 -140.5zM447 1568q0 19 3.5 39.5t9.5 39t13.5 33.5t14.5 23q22 20 51 28.5t80 8.5q38 0 63.5 -4.5t42 -16t23 -30.5t6.5 -44q0 -20 -3.5 -41t-9 -39.5t-12.5 -32.5t-15 -23q-20 -20 -50 -29t-81 -9 q-38 0 -64 5.5t-41.5 16.5t-23 29t-7.5 46zM878 1568q0 19 3.5 39.5t9.5 39t13 33.5t15 23q20 20 50 28.5t80 8.5q38 0 64 -4.5t42 -16t23.5 -30.5t7.5 -44q0 -20 -4 -41t-9.5 -39.5t-13 -32.5t-14.5 -23q-22 -20 -51 -29t-80 -9q-38 0 -64 5.5t-42 16.5t-23 29t-7 46z" />
<glyph unicode="&#xc5;" horiz-adv-x="1228" d="M-92 0q74 178 150 353.5t156.5 349t163.5 342.5t170 337h460q25 -174 42 -344.5t29.5 -342t21 -344.5t14.5 -351h-359v60t-0.5 67.5t-1 67.5t-1.5 60h-411q-10 -26 -22.5 -56.5t-25 -63.5t-25.5 -67t-25 -68h-336zM444 508h306q-4 70 -9 144t-10.5 147.5t-12 147 t-13.5 142.5q-30 -66 -64 -139.5t-68.5 -149.5t-67.5 -151.5t-61 -140.5zM548 1552q0 43 17.5 82t54 68t90.5 45.5t128 16.5q117 0 173.5 -34.5t56.5 -105.5q0 -44 -17 -82.5t-53 -67t-91 -45.5t-127 -17q-118 0 -175 34.5t-57 105.5zM731 1566q0 -23 16 -34t48 -11 q25 0 42 7.5t28 20t16 28t5 33.5q0 24 -16.5 35t-47.5 11q-26 0 -43 -8t-27.5 -20t-15.5 -28.5t-5 -33.5z" />
<glyph unicode="&#xc6;" horiz-adv-x="1533" d="M-157 0q99 182 198.5 359t200.5 349t204 339.5t210 334.5h952l-52 -260h-404l-56 -289h337l-49 -249h-337l-62 -321h412l-49 -263h-414h-344l49 255h-326q-14 -26 -30.5 -57t-33.5 -64.5l-34 -67t-33 -66.5h-339zM444 508h245l119 619h-2q-50 -83 -99.5 -164.5 t-95.5 -160.5t-88 -154t-79 -140z" />
<glyph unicode="&#xc7;" horiz-adv-x="1052" d="M70 430q0 59 7 133.5t23.5 154t43 162t65.5 159.5t92 144t121 117.5t154 79.5t189 29q62 0 118.5 -13.5t104 -40.5t85.5 -70.5t64 -103.5l-180 -153q-35 50 -76 79t-95 29q-45 0 -83 -17.5t-71 -48.5t-60.5 -72.5t-49 -90t-38 -102t-27.5 -108.5t-16.5 -108.5 t-5.5 -101.5q0 -72 14 -117.5t36.5 -72.5t53 -37.5t65.5 -10.5q34 0 65 7.5t61.5 22.5t59.5 37.5t60 53.5l119 -181q-43 -52 -95.5 -92.5t-110.5 -67.5t-121 -41.5t-128 -14.5q-112 0 -195 29.5t-138.5 87t-83 142.5t-27.5 198zM212 -314q42 34 68 62t40 55t17.5 54t0.5 58 h275q4 -95 -50 -166.5t-168 -128.5z" />
<glyph unicode="&#xc8;" horiz-adv-x="974" d="M27 0l268 1382h755l-52 -260h-410l-56 -289h342l-48 -249h-342l-62 -321h417l-49 -263h-763zM342 1575l151 189l381 -167l-104 -137z" />
<glyph unicode="&#xc9;" horiz-adv-x="974" d="M27 0l268 1382h755l-52 -260h-410l-56 -289h342l-48 -249h-342l-62 -321h417l-49 -263h-763zM536 1597l391 167l139 -189l-436 -115z" />
<glyph unicode="&#xca;" horiz-adv-x="974" d="M27 0l268 1382h755l-52 -260h-410l-56 -289h342l-48 -249h-342l-62 -321h417l-49 -263h-763zM379 1588l356 176l291 -172l-98 -132l-227 95l-258 -95z" />
<glyph unicode="&#xcb;" horiz-adv-x="974" d="M27 0l268 1382h755l-52 -260h-410l-56 -289h342l-48 -249h-342l-62 -321h417l-49 -263h-763zM341 1568q0 19 3.5 39.5t9.5 39t13.5 33.5t14.5 23q22 20 51 28.5t80 8.5q38 0 63.5 -4.5t42 -16t23 -30.5t6.5 -44q0 -20 -3.5 -41t-9 -39.5t-12.5 -32.5t-15 -23 q-20 -20 -50 -29t-81 -9q-38 0 -64 5.5t-41.5 16.5t-23 29t-7.5 46zM772 1568q0 19 3.5 39.5t9.5 39t13 33.5t15 23q20 20 50 28.5t80 8.5q38 0 64 -4.5t42 -16t23.5 -30.5t7.5 -44q0 -20 -4 -41t-9.5 -39.5t-13 -32.5t-14.5 -23q-22 -20 -51 -29t-80 -9q-38 0 -64 5.5 t-42 16.5t-23 29t-7 46z" />
<glyph unicode="&#xcc;" horiz-adv-x="602" d="M27 0l268 1382h344l-268 -1382h-344zM139 1575l151 189l381 -167l-104 -137z" />
<glyph unicode="&#xcd;" horiz-adv-x="602" d="M27 0l268 1382h344l-268 -1382h-344zM302 1597l391 167l139 -189l-436 -115z" />
<glyph unicode="&#xce;" horiz-adv-x="602" d="M27 0l268 1382h344l-268 -1382h-344zM174 1588l356 176l291 -172l-98 -132l-227 95l-258 -95z" />
<glyph unicode="&#xcf;" horiz-adv-x="602" d="M27 0l268 1382h344l-268 -1382h-344zM141 1568q0 19 3.5 39.5t9.5 39t13.5 33.5t14.5 23q22 20 51 28.5t80 8.5q38 0 63.5 -4.5t42 -16t23 -30.5t6.5 -44q0 -20 -3.5 -41t-9 -39.5t-12.5 -32.5t-15 -23q-20 -20 -50 -29t-81 -9q-38 0 -64 5.5t-41.5 16.5t-23 29t-7.5 46z M572 1568q0 19 3.5 39.5t9.5 39t13 33.5t15 23q20 20 50 28.5t80 8.5q38 0 64 -4.5t42 -16t23.5 -30.5t7.5 -44q0 -20 -4 -41t-9.5 -39.5t-13 -32.5t-14.5 -23q-22 -20 -51 -29t-80 -9q-38 0 -64 5.5t-42 16.5t-23 29t-7 46z" />
<glyph unicode="&#xd0;" horiz-adv-x="1259" d="M47 0l114 584h-99l49 249h98l106 549q60 0 114 0.5t105 1.5t100 1.5t99 0.5q138 0 236 -34.5t160.5 -96t90.5 -147.5t28 -187q0 -40 -4 -94.5t-14.5 -117t-29.5 -130t-48 -135t-69.5 -131t-93.5 -116.5q-46 -47 -100 -84.5t-120 -65t-142.5 -41.5t-167.5 -14 q-53 0 -106.5 1t-106 2.5t-102.5 2.5t-97 2zM439 256q19 -3 37.5 -3h33.5q59 0 107.5 21.5t85.5 59.5q36 36 64 84t48.5 100.5t34 107.5t22 106t12 94.5t3.5 73.5q0 63 -12.5 108t-38 72.5t-62.5 40t-86 12.5h-39t-39 -3l-57 -297h167l-48 -249h-169z" />
<glyph unicode="&#xd1;" horiz-adv-x="1312" d="M27 0l268 1382h400l190 -619l38 -127l39 197l106 549h282l-269 -1382h-352l-210 743l-40 142l-43 -220l-128 -665h-281zM512 1559q24 45 51.5 81.5t60 62.5t72.5 39t86 13q52 0 86.5 -14.5t59.5 -31.5t44.5 -31.5t42.5 -14.5q13 0 24.5 4.5t24 15.5t26.5 27.5t31 43.5 l128 -89q-23 -46 -50 -83t-60.5 -62t-73 -38.5t-86.5 -13.5q-35 0 -61 7t-47.5 17t-37.5 21.5t-31 21.5t-28.5 17t-28.5 7q-13 0 -25 -5t-23.5 -15t-25.5 -27t-31 -43z" />
<glyph unicode="&#xd2;" horiz-adv-x="1316" d="M70 433q0 48 5 110.5t16.5 131.5t32 143t51.5 145.5t73.5 139t98.5 123.5q41 41 90 74.5t107 57.5t124.5 37.5t144.5 13.5q123 0 216 -27t155 -83.5t93.5 -143t31.5 -206.5q0 -49 -5.5 -110.5t-17 -131.5t-32 -144t-51.5 -145t-73.5 -138.5t-98.5 -122.5 q-82 -83 -196.5 -133.5t-269.5 -50.5q-124 0 -216.5 27.5t-154.5 83.5t-93 142t-31 207zM432 449q0 -62 11 -103.5t32.5 -66t54 -34t75.5 -9.5q47 0 85.5 18t69.5 48q37 38 65 91.5t48.5 114.5t35 125t22.5 122.5t11.5 105.5t3.5 75q0 61 -10.5 102t-32 65.5t-54.5 34.5 t-76 10q-47 0 -85.5 -18t-67.5 -49q-38 -37 -66.5 -90.5t-49 -114.5t-34 -125t-22.5 -122.5t-12.5 -105.5t-3.5 -74zM437 1575l151 189l381 -167l-104 -137z" />
<glyph unicode="&#xd3;" horiz-adv-x="1316" d="M70 433q0 48 5 110.5t16.5 131.5t32 143t51.5 145.5t73.5 139t98.5 123.5q41 41 90 74.5t107 57.5t124.5 37.5t144.5 13.5q123 0 216 -27t155 -83.5t93.5 -143t31.5 -206.5q0 -49 -5.5 -110.5t-17 -131.5t-32 -144t-51.5 -145t-73.5 -138.5t-98.5 -122.5 q-82 -83 -196.5 -133.5t-269.5 -50.5q-124 0 -216.5 27.5t-154.5 83.5t-93 142t-31 207zM432 449q0 -62 11 -103.5t32.5 -66t54 -34t75.5 -9.5q47 0 85.5 18t69.5 48q37 38 65 91.5t48.5 114.5t35 125t22.5 122.5t11.5 105.5t3.5 75q0 61 -10.5 102t-32 65.5t-54.5 34.5 t-76 10q-47 0 -85.5 -18t-67.5 -49q-38 -37 -66.5 -90.5t-49 -114.5t-34 -125t-22.5 -122.5t-12.5 -105.5t-3.5 -74zM695 1597l391 167l139 -189l-436 -115z" />
<glyph unicode="&#xd4;" horiz-adv-x="1316" d="M70 433q0 48 5 110.5t16.5 131.5t32 143t51.5 145.5t73.5 139t98.5 123.5q41 41 90 74.5t107 57.5t124.5 37.5t144.5 13.5q123 0 216 -27t155 -83.5t93.5 -143t31.5 -206.5q0 -49 -5.5 -110.5t-17 -131.5t-32 -144t-51.5 -145t-73.5 -138.5t-98.5 -122.5 q-82 -83 -196.5 -133.5t-269.5 -50.5q-124 0 -216.5 27.5t-154.5 83.5t-93 142t-31 207zM432 449q0 -62 11 -103.5t32.5 -66t54 -34t75.5 -9.5q47 0 85.5 18t69.5 48q37 38 65 91.5t48.5 114.5t35 125t22.5 122.5t11.5 105.5t3.5 75q0 61 -10.5 102t-32 65.5t-54.5 34.5 t-76 10q-47 0 -85.5 -18t-67.5 -49q-38 -37 -66.5 -90.5t-49 -114.5t-34 -125t-22.5 -122.5t-12.5 -105.5t-3.5 -74zM531 1588l356 176l291 -172l-98 -132l-227 95l-258 -95z" />
<glyph unicode="&#xd5;" horiz-adv-x="1316" d="M70 433q0 48 5 110.5t16.5 131.5t32 143t51.5 145.5t73.5 139t98.5 123.5q41 41 90 74.5t107 57.5t124.5 37.5t144.5 13.5q123 0 216 -27t155 -83.5t93.5 -143t31.5 -206.5q0 -49 -5.5 -110.5t-17 -131.5t-32 -144t-51.5 -145t-73.5 -138.5t-98.5 -122.5 q-82 -83 -196.5 -133.5t-269.5 -50.5q-124 0 -216.5 27.5t-154.5 83.5t-93 142t-31 207zM432 449q0 -62 11 -103.5t32.5 -66t54 -34t75.5 -9.5q47 0 85.5 18t69.5 48q37 38 65 91.5t48.5 114.5t35 125t22.5 122.5t11.5 105.5t3.5 75q0 61 -10.5 102t-32 65.5t-54.5 34.5 t-76 10q-47 0 -85.5 -18t-67.5 -49q-38 -37 -66.5 -90.5t-49 -114.5t-34 -125t-22.5 -122.5t-12.5 -105.5t-3.5 -74zM499 1559q24 45 51.5 81.5t60 62.5t72.5 39t86 13q52 0 86.5 -14.5t59.5 -31.5t44.5 -31.5t42.5 -14.5q13 0 24.5 4.5t24 15.5t26.5 27.5t31 43.5l128 -89 q-23 -46 -50 -83t-60.5 -62t-73 -38.5t-86.5 -13.5q-35 0 -61 7t-47.5 17t-37.5 21.5t-31 21.5t-28.5 17t-28.5 7q-13 0 -25 -5t-23.5 -15t-25.5 -27t-31 -43z" />
<glyph unicode="&#xd6;" horiz-adv-x="1316" d="M70 433q0 48 5 110.5t16.5 131.5t32 143t51.5 145.5t73.5 139t98.5 123.5q41 41 90 74.5t107 57.5t124.5 37.5t144.5 13.5q123 0 216 -27t155 -83.5t93.5 -143t31.5 -206.5q0 -49 -5.5 -110.5t-17 -131.5t-32 -144t-51.5 -145t-73.5 -138.5t-98.5 -122.5 q-82 -83 -196.5 -133.5t-269.5 -50.5q-124 0 -216.5 27.5t-154.5 83.5t-93 142t-31 207zM432 449q0 -62 11 -103.5t32.5 -66t54 -34t75.5 -9.5q47 0 85.5 18t69.5 48q37 38 65 91.5t48.5 114.5t35 125t22.5 122.5t11.5 105.5t3.5 75q0 61 -10.5 102t-32 65.5t-54.5 34.5 t-76 10q-47 0 -85.5 -18t-67.5 -49q-38 -37 -66.5 -90.5t-49 -114.5t-34 -125t-22.5 -122.5t-12.5 -105.5t-3.5 -74zM495 1568q0 19 3.5 39.5t9.5 39t13.5 33.5t14.5 23q22 20 51 28.5t80 8.5q38 0 63.5 -4.5t42 -16t23 -30.5t6.5 -44q0 -20 -3.5 -41t-9 -39.5t-12.5 -32.5 t-15 -23q-20 -20 -50 -29t-81 -9q-38 0 -64 5.5t-41.5 16.5t-23 29t-7.5 46zM926 1568q0 19 3.5 39.5t9.5 39t13 33.5t15 23q20 20 50 28.5t80 8.5q38 0 64 -4.5t42 -16t23.5 -30.5t7.5 -44q0 -20 -4 -41t-9.5 -39.5t-13 -32.5t-14.5 -23q-22 -20 -51 -29t-80 -9 q-38 0 -64 5.5t-42 16.5t-23 29t-7 46z" />
<glyph unicode="&#xd7;" d="M55 368l304 254l-204 254l199 165l204 -254l303 254l146 -179l-304 -253l205 -255l-198 -166l-207 255l-302 -255z" />
<glyph unicode="&#xd8;" horiz-adv-x="1316" d="M-41 -76l179 224q-34 51 -51 121t-17 164q0 48 5 110.5t16.5 131.5t32 143t51.5 145.5t73.5 139t98.5 123.5q41 41 90 74.5t107 57.5t124.5 37.5t144.5 13.5q91 0 161 -15t125 -43l162 203l158 -96l-179 -224q34 -51 51.5 -122t17.5 -163q0 -49 -5.5 -110.5t-17 -131.5 t-32 -144t-51.5 -145t-73.5 -138.5t-98.5 -122.5q-82 -83 -196.5 -133.5t-269.5 -50.5q-88 0 -160.5 15.5t-124.5 44.5l-162 -205zM402 472l513 646q-26 26 -58.5 37t-79.5 11q-54 0 -99 -18.5t-81 -53.5q-56 -56 -93.5 -149.5t-64.5 -227.5q-16 -78 -23.5 -139.5 t-13.5 -105.5zM463 265q26 -27 58.5 -37.5t79.5 -10.5q54 0 99 18.5t81 54.5q28 29 51 66t42.5 83.5t35.5 103t29 123.5q16 78 24 139t14 105z" />
<glyph unicode="&#xd9;" horiz-adv-x="1335" d="M100 331q0 33 4.5 71.5t15.5 97.5l173 882h344l-170 -872q-9 -47 -13 -78.5t-4 -55.5q0 -42 9.5 -71.5t29.5 -47.5t49.5 -26.5t69.5 -8.5q49 0 88.5 12.5t71 41t54 76.5t36.5 121l178 909h338l-176 -907q-29 -143 -86.5 -239t-140 -154t-187.5 -83.5t-226 -25.5 q-110 0 -194.5 21t-143 64.5t-89.5 111t-31 161.5zM447 1575l151 189l381 -167l-104 -137z" />
<glyph unicode="&#xda;" horiz-adv-x="1335" d="M100 331q0 33 4.5 71.5t15.5 97.5l173 882h344l-170 -872q-9 -47 -13 -78.5t-4 -55.5q0 -42 9.5 -71.5t29.5 -47.5t49.5 -26.5t69.5 -8.5q49 0 88.5 12.5t71 41t54 76.5t36.5 121l178 909h338l-176 -907q-29 -143 -86.5 -239t-140 -154t-187.5 -83.5t-226 -25.5 q-110 0 -194.5 21t-143 64.5t-89.5 111t-31 161.5zM737 1597l391 167l139 -189l-436 -115z" />
<glyph unicode="&#xdb;" horiz-adv-x="1335" d="M100 331q0 33 4.5 71.5t15.5 97.5l173 882h344l-170 -872q-9 -47 -13 -78.5t-4 -55.5q0 -42 9.5 -71.5t29.5 -47.5t49.5 -26.5t69.5 -8.5q49 0 88.5 12.5t71 41t54 76.5t36.5 121l178 909h338l-176 -907q-29 -143 -86.5 -239t-140 -154t-187.5 -83.5t-226 -25.5 q-110 0 -194.5 21t-143 64.5t-89.5 111t-31 161.5zM543 1588l356 176l291 -172l-98 -132l-227 95l-258 -95z" />
<glyph unicode="&#xdc;" horiz-adv-x="1335" d="M100 331q0 33 4.5 71.5t15.5 97.5l173 882h344l-170 -872q-9 -47 -13 -78.5t-4 -55.5q0 -42 9.5 -71.5t29.5 -47.5t49.5 -26.5t69.5 -8.5q49 0 88.5 12.5t71 41t54 76.5t36.5 121l178 909h338l-176 -907q-29 -143 -86.5 -239t-140 -154t-187.5 -83.5t-226 -25.5 q-110 0 -194.5 21t-143 64.5t-89.5 111t-31 161.5zM503 1568q0 19 3.5 39.5t9.5 39t13.5 33.5t14.5 23q22 20 51 28.5t80 8.5q38 0 63.5 -4.5t42 -16t23 -30.5t6.5 -44q0 -20 -3.5 -41t-9 -39.5t-12.5 -32.5t-15 -23q-20 -20 -50 -29t-81 -9q-38 0 -64 5.5t-41.5 16.5 t-23 29t-7.5 46zM934 1568q0 19 3.5 39.5t9.5 39t13 33.5t15 23q20 20 50 28.5t80 8.5q38 0 64 -4.5t42 -16t23.5 -30.5t7.5 -44q0 -20 -4 -41t-9.5 -39.5t-13 -32.5t-14.5 -23q-22 -20 -51 -29t-80 -9q-38 0 -64 5.5t-42 16.5t-23 29t-7 46z" />
<glyph unicode="&#xdd;" horiz-adv-x="1011" d="M152 1382h361q5 -68 12 -132t16 -126.5t19.5 -123.5t24.5 -120q37 57 71.5 118t67.5 124.5t63.5 129t59.5 130.5h345q-63 -125 -125.5 -238.5t-126 -216t-127.5 -193.5t-130 -172l-110 -562h-344l110 562q-34 90 -62 184t-51.5 194.5t-42 210.5t-31.5 231zM581 1597 l391 167l139 -189l-436 -115z" />
<glyph unicode="&#xde;" horiz-adv-x="1140" d="M27 0l268 1382h345l-41 -203h42.5h55.5q120 0 207 -25t143 -69.5t82.5 -108.5t26.5 -143q0 -65 -11 -134t-39.5 -135.5t-77 -127t-124 -106t-181 -72.5t-246.5 -27h-61l-45 -231h-344zM463 479h61q52 0 92.5 13.5t70.5 36.5t50.5 53t32.5 64t17.5 69t5.5 66q0 36 -10 64 t-31.5 46.5t-54.5 28.5t-82 10h-64z" />
<glyph unicode="&#xdf;" horiz-adv-x="1183" d="M-289 -311l67 184q31 -9 56.5 -13t49.5 -4q49 0 76 23.5t39 85.5l204 1042q22 112 65 199t113 147.5t167.5 92.5t226.5 32q93 0 164.5 -21t120.5 -58t74 -88t25 -112q0 -75 -19.5 -127.5t-48.5 -91t-63.5 -66t-64 -52t-48.5 -50.5t-19 -58q0 -31 16 -55.5t40.5 -49 t52.5 -51t52 -59t40.5 -74t16.5 -94.5q0 -71 -23.5 -140.5t-73 -125t-126 -89.5t-182.5 -34q-41 0 -78 4t-70.5 13t-64 23t-60.5 33l52 162q37 -7 78 -11t78 -4q30 0 54.5 8.5t42 24t27 36t9.5 44.5q0 34 -16 59.5t-40 49t-52 47.5t-51.5 54t-40 67.5t-16.5 89.5 q0 53 12.5 94t32.5 73t45 57.5t51.5 47.5t51.5 43t45 44.5t32 51.5t12 64q0 44 -25 66.5t-80 22.5q-48 0 -81.5 -14.5t-58 -43.5t-40 -72t-27.5 -100l-203 -1051q-16 -80 -43.5 -144t-71 -108t-106 -68t-147.5 -24q-43 0 -78.5 5.5t-66 14.5t-56 21.5t-48.5 26.5z" />
<glyph unicode="&#xe0;" horiz-adv-x="1112" d="M39 326q0 69 10 150.5t37.5 163t74 157t118 134t172 94t235.5 35.5q80 0 153.5 -8t131.5 -17q68 -10 127 -23l-198 -1012h-269l13 152q-33 -41 -70.5 -74.5t-79.5 -56.5t-85.5 -35.5t-86.5 -12.5q-77 0 -131 29t-87.5 77.5t-49 112t-15.5 134.5zM370 1376l229 116 l264 -279l-168 -84zM373 366q0 -73 17.5 -105.5t53.5 -32.5q31 0 66 22t68.5 68t63 116.5t48.5 168.5l41 210q-13 4 -28 8q-13 3 -30.5 5.5t-37.5 2.5q-50 0 -89.5 -25.5t-68 -66.5t-48.5 -92t-32.5 -102t-18 -98.5t-5.5 -78.5z" />
<glyph unicode="&#xe1;" horiz-adv-x="1112" d="M39 326q0 69 10 150.5t37.5 163t74 157t118 134t172 94t235.5 35.5q80 0 153.5 -8t131.5 -17q68 -10 127 -23l-198 -1012h-269l13 152q-33 -41 -70.5 -74.5t-79.5 -56.5t-85.5 -35.5t-86.5 -12.5q-77 0 -131 29t-87.5 77.5t-49 112t-15.5 134.5zM373 366 q0 -73 17.5 -105.5t53.5 -32.5q31 0 66 22t68.5 68t63 116.5t48.5 168.5l41 210q-13 4 -28 8q-13 3 -30.5 5.5t-37.5 2.5q-50 0 -89.5 -25.5t-68 -66.5t-48.5 -92t-32.5 -102t-18 -98.5t-5.5 -78.5zM540 1213l280 279l223 -116l-342 -247z" />
<glyph unicode="&#xe2;" horiz-adv-x="1112" d="M39 326q0 69 10 150.5t37.5 163t74 157t118 134t172 94t235.5 35.5q80 0 153.5 -8t131.5 -17q68 -10 127 -23l-198 -1012h-269l13 152q-33 -41 -70.5 -74.5t-79.5 -56.5t-85.5 -35.5t-86.5 -12.5q-77 0 -131 29t-87.5 77.5t-49 112t-15.5 134.5zM373 366 q0 -73 17.5 -105.5t53.5 -32.5q31 0 66 22t68.5 68t63 116.5t48.5 168.5l41 210q-13 4 -28 8q-13 3 -30.5 5.5t-37.5 2.5q-50 0 -89.5 -25.5t-68 -66.5t-48.5 -92t-32.5 -102t-18 -98.5t-5.5 -78.5zM380 1256l367 251l256 -247l-111 -130l-189 134l-244 -134z" />
<glyph unicode="&#xe3;" horiz-adv-x="1112" d="M39 326q0 69 10 150.5t37.5 163t74 157t118 134t172 94t235.5 35.5q80 0 153.5 -8t131.5 -17q68 -10 127 -23l-198 -1012h-269l13 152q-33 -41 -70.5 -74.5t-79.5 -56.5t-85.5 -35.5t-86.5 -12.5q-77 0 -131 29t-87.5 77.5t-49 112t-15.5 134.5zM344 1243q24 47 51 84.5 t58.5 62.5t69.5 39t83 14q34 0 59.5 -7.5t46 -17.5t36.5 -22t29.5 -22t27 -16.5t27.5 -6.5q13 0 24.5 4.5t23 15t24.5 27.5t31 43l123 -90q-24 -46 -51.5 -83.5t-59.5 -62.5t-70 -39t-83 -14q-33 0 -58.5 7t-46 17.5t-36.5 22t-30 22t-27 17t-28 6.5q-13 0 -24.5 -4.5 t-22 -15.5t-24.5 -28t-31 -42zM373 366q0 -73 17.5 -105.5t53.5 -32.5q31 0 66 22t68.5 68t63 116.5t48.5 168.5l41 210q-13 4 -28 8q-13 3 -30.5 5.5t-37.5 2.5q-50 0 -89.5 -25.5t-68 -66.5t-48.5 -92t-32.5 -102t-18 -98.5t-5.5 -78.5z" />
<glyph unicode="&#xe4;" horiz-adv-x="1112" d="M39 326q0 69 10 150.5t37.5 163t74 157t118 134t172 94t235.5 35.5q80 0 153.5 -8t131.5 -17q68 -10 127 -23l-198 -1012h-269l13 152q-33 -41 -70.5 -74.5t-79.5 -56.5t-85.5 -35.5t-86.5 -12.5q-77 0 -131 29t-87.5 77.5t-49 112t-15.5 134.5zM341 1249q0 17 3.5 38.5 t10.5 43t16.5 40.5t21.5 30q18 18 49.5 27t74.5 9q69 0 103.5 -22t34.5 -76q0 -17 -4 -38t-10.5 -42.5t-16 -40.5t-22.5 -30q-18 -18 -49.5 -27t-74.5 -9q-69 0 -103 21.5t-34 75.5zM373 366q0 -73 17.5 -105.5t53.5 -32.5q31 0 66 22t68.5 68t63 116.5t48.5 168.5l41 210 q-13 4 -28 8q-13 3 -30.5 5.5t-37.5 2.5q-50 0 -89.5 -25.5t-68 -66.5t-48.5 -92t-32.5 -102t-18 -98.5t-5.5 -78.5zM758 1249q0 17 3.5 38.5t10.5 43t16.5 40.5t20.5 30q18 18 50 27t75 9q69 0 103 -22t34 -76q0 -17 -4 -38t-10.5 -42.5t-16.5 -40.5t-21 -30 q-18 -18 -49.5 -27t-74.5 -9q-70 0 -103.5 21.5t-33.5 75.5z" />
<glyph unicode="&#xe5;" horiz-adv-x="1112" d="M39 326q0 69 10 150.5t37.5 163t74 157t118 134t172 94t235.5 35.5q80 0 153.5 -8t131.5 -17q68 -10 127 -23l-198 -1012h-269l13 152q-33 -41 -70.5 -74.5t-79.5 -56.5t-85.5 -35.5t-86.5 -12.5q-77 0 -131 29t-87.5 77.5t-49 112t-15.5 134.5zM373 366 q0 -73 17.5 -105.5t53.5 -32.5q31 0 66 22t68.5 68t63 116.5t48.5 168.5l41 210q-13 4 -28 8q-13 3 -30.5 5.5t-37.5 2.5q-50 0 -89.5 -25.5t-68 -66.5t-48.5 -92t-32.5 -102t-18 -98.5t-5.5 -78.5zM436 1286q0 45 14.5 91.5t49 85t93 63t145.5 24.5q63 0 109.5 -11 t76.5 -33.5t45 -56t15 -77.5q0 -30 -6 -60.5t-20.5 -60t-37 -56t-56.5 -46t-79 -30.5t-103 -11q-65 0 -111 11t-76 34t-44.5 56t-14.5 77zM629 1302q0 -26 16 -40.5t48 -14.5q29 0 48.5 11t30 27.5t15.5 35.5t5 36q0 27 -16.5 41t-48.5 14q-29 0 -48.5 -11t-30 -27.5 t-15 -36t-4.5 -35.5z" />
<glyph unicode="&#xe6;" horiz-adv-x="1597" d="M-5 233q0 62 16 118t48.5 101t81.5 80t115.5 58.5t148.5 36.5t182 13h66l11 47q2 12 3.5 22.5t1.5 23.5q0 47 -36 70t-111 23q-39 0 -81 -5t-85 -13t-85.5 -19.5t-83.5 -24.5l-4 199q56 23 110.5 40.5t109.5 29t111.5 18.5t117.5 7q46 0 85 -6t71.5 -18t58 -30.5 t45.5 -42.5q68 51 144 75t167 24q81 0 149.5 -18.5t118 -53.5t77.5 -86t28 -118q0 -71 -33 -133t-107 -108.5t-196.5 -74t-302.5 -27.5q-3 -11 -4 -21t-2.5 -20t-2 -19t-0.5 -17q0 -35 9.5 -61.5t29 -44.5t48.5 -27.5t69 -9.5q34 0 74.5 3.5t84 11t88 17.5t88.5 23l27 -184 q-99 -53 -213 -86t-235 -33q-60 0 -112.5 11.5t-97 34t-78.5 56t-57 79.5q-33 -41 -74.5 -74.5t-89 -57t-96.5 -36.5t-94 -13q-75 0 -131.5 18t-95 52t-58 81.5t-19.5 108.5zM323 302q0 -46 23.5 -69.5t71.5 -23.5q19 0 38.5 6.5t38.5 19.5t37 29.5t32.5 37.5t24.5 43.5 t16 46.5l11 59h-64q-41 0 -74 -5t-58.5 -14t-44 -22t-30 -29.5t-17 -36.5t-5.5 -42zM978 640q61 0 106.5 4t78 12t53 19t32.5 25t16.5 30t4.5 35t-6.5 34t-19 25.5t-32 15.5t-44.5 5q-36 0 -65 -14.5t-52.5 -40.5t-41.5 -64.5t-30 -85.5z" />
<glyph unicode="&#xe7;" horiz-adv-x="862" d="M39 341q0 49 6.5 106.5t21.5 117.5t37.5 119.5t55.5 114.5t75.5 102.5t96 82.5t119.5 55.5t145 20.5q50 0 95 -8.5t83.5 -25t68.5 -41t54 -56.5l-132 -169q-30 29 -64.5 43.5t-74.5 14.5q-44 0 -79 -22t-62 -59.5t-47.5 -85t-33.5 -98t-19 -101.5t-6 -93q0 -73 29 -106 t90 -33q52 0 101.5 19t97.5 55l73 -169q-34 -30 -74.5 -56.5t-87 -47t-100 -33t-115.5 -12.5q-87 0 -153 23.5t-110.5 70t-67.5 114.5t-23 157zM83 -314q42 34 68 62t40 55t17.5 54t0.5 58h275q4 -95 -50 -166.5t-168 -128.5z" />
<glyph unicode="&#xe8;" horiz-adv-x="1034" d="M39 343q0 30 3.5 77t15 103t31 117t50 121t75 114t106 95t141 65.5t180.5 24.5q81 0 149.5 -18.5t118 -53.5t77.5 -86t28 -118q0 -71 -32.5 -133t-107 -108.5t-196.5 -74t-303 -27.5q-2 -9 -3.5 -19t-2.5 -20.5t-1.5 -20t-0.5 -17.5q0 -35 9 -61.5t28.5 -44.5t49 -27.5 t68.5 -9.5q35 0 75 3.5t84 11t88.5 17.5t87.5 23l27 -184q-99 -53 -212.5 -86t-234.5 -33q-90 0 -163 21t-125.5 65t-81 114.5t-28.5 169.5zM331 1376l229 116l264 -279l-168 -84zM417 640q61 0 106 4t78 12t53 19t32 25t17 30t5 35t-6.5 34t-19.5 25.5t-32 15.5t-45 5 q-36 0 -65 -14.5t-52.5 -40.5t-41 -64.5t-29.5 -85.5z" />
<glyph unicode="&#xe9;" horiz-adv-x="1034" d="M39 343q0 30 3.5 77t15 103t31 117t50 121t75 114t106 95t141 65.5t180.5 24.5q81 0 149.5 -18.5t118 -53.5t77.5 -86t28 -118q0 -71 -32.5 -133t-107 -108.5t-196.5 -74t-303 -27.5q-2 -9 -3.5 -19t-2.5 -20.5t-1.5 -20t-0.5 -17.5q0 -35 9 -61.5t28.5 -44.5t49 -27.5 t68.5 -9.5q35 0 75 3.5t84 11t88.5 17.5t87.5 23l27 -184q-99 -53 -212.5 -86t-234.5 -33q-90 0 -163 21t-125.5 65t-81 114.5t-28.5 169.5zM417 640q61 0 106 4t78 12t53 19t32 25t17 30t5 35t-6.5 34t-19.5 25.5t-32 15.5t-45 5q-36 0 -65 -14.5t-52.5 -40.5t-41 -64.5 t-29.5 -85.5zM514 1213l280 279l223 -116l-342 -247z" />
<glyph unicode="&#xea;" horiz-adv-x="1034" d="M39 343q0 30 3.5 77t15 103t31 117t50 121t75 114t106 95t141 65.5t180.5 24.5q81 0 149.5 -18.5t118 -53.5t77.5 -86t28 -118q0 -71 -32.5 -133t-107 -108.5t-196.5 -74t-303 -27.5q-2 -9 -3.5 -19t-2.5 -20.5t-1.5 -20t-0.5 -17.5q0 -35 9 -61.5t28.5 -44.5t49 -27.5 t68.5 -9.5q35 0 75 3.5t84 11t88.5 17.5t87.5 23l27 -184q-99 -53 -212.5 -86t-234.5 -33q-90 0 -163 21t-125.5 65t-81 114.5t-28.5 169.5zM370 1256l367 251l256 -247l-111 -130l-189 134l-244 -134zM417 640q61 0 106 4t78 12t53 19t32 25t17 30t5 35t-6.5 34t-19.5 25.5 t-32 15.5t-45 5q-36 0 -65 -14.5t-52.5 -40.5t-41 -64.5t-29.5 -85.5z" />
<glyph unicode="&#xeb;" horiz-adv-x="1034" d="M39 343q0 30 3.5 77t15 103t31 117t50 121t75 114t106 95t141 65.5t180.5 24.5q81 0 149.5 -18.5t118 -53.5t77.5 -86t28 -118q0 -71 -32.5 -133t-107 -108.5t-196.5 -74t-303 -27.5q-2 -9 -3.5 -19t-2.5 -20.5t-1.5 -20t-0.5 -17.5q0 -35 9 -61.5t28.5 -44.5t49 -27.5 t68.5 -9.5q35 0 75 3.5t84 11t88.5 17.5t87.5 23l27 -184q-99 -53 -212.5 -86t-234.5 -33q-90 0 -163 21t-125.5 65t-81 114.5t-28.5 169.5zM325 1249q0 17 3.5 38.5t10.5 43t16.5 40.5t21.5 30q18 18 49.5 27t74.5 9q69 0 103.5 -22t34.5 -76q0 -17 -4 -38t-10.5 -42.5 t-16 -40.5t-22.5 -30q-18 -18 -49.5 -27t-74.5 -9q-69 0 -103 21.5t-34 75.5zM417 640q61 0 106 4t78 12t53 19t32 25t17 30t5 35t-6.5 34t-19.5 25.5t-32 15.5t-45 5q-36 0 -65 -14.5t-52.5 -40.5t-41 -64.5t-29.5 -85.5zM742 1249q0 17 3.5 38.5t10.5 43t16.5 40.5 t20.5 30q18 18 50 27t75 9q69 0 103 -22t34 -76q0 -17 -4 -38t-10.5 -42.5t-16.5 -40.5t-21 -30q-18 -18 -49.5 -27t-74.5 -9q-70 0 -103.5 21.5t-33.5 75.5z" />
<glyph unicode="&#xec;" horiz-adv-x="546" d="M7 0l201 1033h328l-201 -1033h-328zM98 1376l229 116l264 -279l-168 -84z" />
<glyph unicode="&#xed;" horiz-adv-x="546" d="M7 0l201 1033h328l-201 -1033h-328zM227 1213l280 279l223 -116l-342 -247z" />
<glyph unicode="&#xee;" horiz-adv-x="546" d="M7 0l201 1033h328l-201 -1033h-328zM93 1256l367 251l256 -247l-111 -130l-189 134l-244 -134z" />
<glyph unicode="&#xef;" horiz-adv-x="546" d="M7 0l201 1033h328l-201 -1033h-328zM88 1249q0 17 3 38.5t9 43t16 40.5t22 30q18 18 48.5 27t72.5 9q67 0 99.5 -22t32.5 -76q0 -17 -3 -38t-9 -42.5t-16 -40.5t-22 -30q-18 -18 -48.5 -27t-72.5 -9q-67 0 -99.5 21.5t-32.5 75.5zM457 1249q0 17 3 38.5t9.5 43t15.5 40.5 t22 30q18 18 49 27t72 9q67 0 100 -22t33 -76q0 -17 -3.5 -38t-10 -42.5t-16 -40.5t-22.5 -30q-18 -18 -48 -27t-72 -9q-67 0 -99.5 21.5t-32.5 75.5z" />
<glyph unicode="&#xf0;" horiz-adv-x="1110" d="M28 343q0 68 9.5 135t29.5 129t49 118t67.5 105t85.5 88t103.5 67t121 43t137.5 15q11 0 24.5 -1t24.5 -2.5t21 -3t14 -3.5q-4 13 -10.5 28.5t-14 31.5t-17 32.5t-20.5 31.5l-192 -53l-101 153l193 54q-33 41 -64.5 74t-72.5 67h387q9 -7 20 -17t21 -19.5t19.5 -20.5 t18.5 -20l175 47l98 -153l-178 -50q23 -42 43 -87.5t34.5 -94.5t22.5 -101.5t8 -109.5q0 -66 -7 -136t-22 -142t-39.5 -142t-60.5 -133.5t-85.5 -118t-112 -93.5t-140 -62t-173.5 -23q-105 0 -183.5 23.5t-130.5 69t-77.5 114t-25.5 160.5zM382 374q0 -37 7 -65t21 -46.5 t34 -27.5t48 -9q35 0 63.5 18t51 48.5t40 70.5t30.5 85t22 91.5t14.5 89t8 79t2.5 61.5q0 12 -0.5 22t-0.5 20q-8 3 -18 5t-21.5 3t-24.5 2t-25 1q-49 0 -87 -25t-66 -65.5t-47 -89.5t-30.5 -99t-16.5 -95t-5 -74z" />
<glyph unicode="&#xf1;" horiz-adv-x="1126" d="M7 0l201 1033h269l-13 -151q31 41 69 74t80 56t86.5 35.5t91.5 12.5q66 0 114.5 -17.5t82.5 -52.5t51 -89t17 -129q0 -67 -11.5 -137t-30.5 -159.5t-44.5 -204.5t-54.5 -271h-328q31 160 56 276.5t42.5 200t27.5 140t10 96.5q0 45 -15 65.5t-52 20.5q-32 0 -66.5 -26.5 t-67.5 -74.5t-60.5 -115.5t-43.5 -151.5l-83 -431h-328zM352 1243q24 47 51 84.5t58.5 62.5t69.5 39t83 14q34 0 59.5 -7.5t46 -17.5t36.5 -22t29.5 -22t27 -16.5t27.5 -6.5q13 0 24.5 4.5t23 15t24.5 27.5t31 43l123 -90q-24 -46 -51.5 -83.5t-59.5 -62.5t-70 -39t-83 -14 q-33 0 -58.5 7t-46 17.5t-36.5 22t-30 22t-27 17t-28 6.5q-13 0 -24.5 -4.5t-22 -15.5t-24.5 -28t-31 -42z" />
<glyph unicode="&#xf2;" horiz-adv-x="1124" d="M41 339q0 47 5 103t18 115t34.5 119t54.5 116.5t80 104.5t108.5 84.5t141 57.5t179.5 21t177 -21t130.5 -65.5t81 -113.5t27.5 -166q0 -47 -4.5 -102.5t-17.5 -114.5t-34.5 -119.5t-55 -117t-80 -104.5t-108.5 -84.5t-141.5 -57.5t-178.5 -21t-177 21t-131 65.5t-81 114 t-28 165.5zM360 1376l229 116l264 -279l-168 -84zM373 354q0 -81 30 -111.5t96 -30.5q37 0 67.5 16t55 42.5t43 62t32.5 74t23.5 78.5t15 76.5t8 67t2.5 50.5q0 81 -30 111.5t-94 30.5q-39 0 -69.5 -15.5t-55 -42.5t-43.5 -62t-32.5 -74t-23 -79t-15 -76.5t-8 -67 t-2.5 -50.5z" />
<glyph unicode="&#xf3;" horiz-adv-x="1124" d="M41 339q0 47 5 103t18 115t34.5 119t54.5 116.5t80 104.5t108.5 84.5t141 57.5t179.5 21t177 -21t130.5 -65.5t81 -113.5t27.5 -166q0 -47 -4.5 -102.5t-17.5 -114.5t-34.5 -119.5t-55 -117t-80 -104.5t-108.5 -84.5t-141.5 -57.5t-178.5 -21t-177 21t-131 65.5t-81 114 t-28 165.5zM373 354q0 -81 30 -111.5t96 -30.5q37 0 67.5 16t55 42.5t43 62t32.5 74t23.5 78.5t15 76.5t8 67t2.5 50.5q0 81 -30 111.5t-94 30.5q-39 0 -69.5 -15.5t-55 -42.5t-43.5 -62t-32.5 -74t-23 -79t-15 -76.5t-8 -67t-2.5 -50.5zM517 1213l280 279l223 -116 l-342 -247z" />
<glyph unicode="&#xf4;" horiz-adv-x="1124" d="M41 339q0 47 5 103t18 115t34.5 119t54.5 116.5t80 104.5t108.5 84.5t141 57.5t179.5 21t177 -21t130.5 -65.5t81 -113.5t27.5 -166q0 -47 -4.5 -102.5t-17.5 -114.5t-34.5 -119.5t-55 -117t-80 -104.5t-108.5 -84.5t-141.5 -57.5t-178.5 -21t-177 21t-131 65.5t-81 114 t-28 165.5zM373 354q0 -81 30 -111.5t96 -30.5q37 0 67.5 16t55 42.5t43 62t32.5 74t23.5 78.5t15 76.5t8 67t2.5 50.5q0 81 -30 111.5t-94 30.5q-39 0 -69.5 -15.5t-55 -42.5t-43.5 -62t-32.5 -74t-23 -79t-15 -76.5t-8 -67t-2.5 -50.5zM390 1256l367 251l256 -247 l-111 -130l-189 134l-244 -134z" />
<glyph unicode="&#xf5;" horiz-adv-x="1124" d="M41 339q0 47 5 103t18 115t34.5 119t54.5 116.5t80 104.5t108.5 84.5t141 57.5t179.5 21t177 -21t130.5 -65.5t81 -113.5t27.5 -166q0 -47 -4.5 -102.5t-17.5 -114.5t-34.5 -119.5t-55 -117t-80 -104.5t-108.5 -84.5t-141.5 -57.5t-178.5 -21t-177 21t-131 65.5t-81 114 t-28 165.5zM349 1243q24 47 51 84.5t58.5 62.5t69.5 39t83 14q34 0 59.5 -7.5t46 -17.5t36.5 -22t29.5 -22t27 -16.5t27.5 -6.5q13 0 24.5 4.5t23 15t24.5 27.5t31 43l123 -90q-24 -46 -51.5 -83.5t-59.5 -62.5t-70 -39t-83 -14q-33 0 -58.5 7t-46 17.5t-36.5 22t-30 22 t-27 17t-28 6.5q-13 0 -24.5 -4.5t-22 -15.5t-24.5 -28t-31 -42zM373 354q0 -81 30 -111.5t96 -30.5q37 0 67.5 16t55 42.5t43 62t32.5 74t23.5 78.5t15 76.5t8 67t2.5 50.5q0 81 -30 111.5t-94 30.5q-39 0 -69.5 -15.5t-55 -42.5t-43.5 -62t-32.5 -74t-23 -79t-15 -76.5 t-8 -67t-2.5 -50.5z" />
<glyph unicode="&#xf6;" horiz-adv-x="1124" d="M41 339q0 47 5 103t18 115t34.5 119t54.5 116.5t80 104.5t108.5 84.5t141 57.5t179.5 21t177 -21t130.5 -65.5t81 -113.5t27.5 -166q0 -47 -4.5 -102.5t-17.5 -114.5t-34.5 -119.5t-55 -117t-80 -104.5t-108.5 -84.5t-141.5 -57.5t-178.5 -21t-177 21t-131 65.5t-81 114 t-28 165.5zM345 1249q0 17 3.5 38.5t10.5 43t16.5 40.5t21.5 30q18 18 49.5 27t74.5 9q69 0 103.5 -22t34.5 -76q0 -17 -4 -38t-10.5 -42.5t-16 -40.5t-22.5 -30q-18 -18 -49.5 -27t-74.5 -9q-69 0 -103 21.5t-34 75.5zM373 354q0 -81 30 -111.5t96 -30.5q37 0 67.5 16 t55 42.5t43 62t32.5 74t23.5 78.5t15 76.5t8 67t2.5 50.5q0 81 -30 111.5t-94 30.5q-39 0 -69.5 -15.5t-55 -42.5t-43.5 -62t-32.5 -74t-23 -79t-15 -76.5t-8 -67t-2.5 -50.5zM762 1249q0 17 3.5 38.5t10.5 43t16.5 40.5t20.5 30q18 18 50 27t75 9q69 0 103 -22t34 -76 q0 -17 -4 -38t-10.5 -42.5t-16.5 -40.5t-21 -30q-18 -18 -49.5 -27t-74.5 -9q-70 0 -103.5 21.5t-33.5 75.5z" />
<glyph unicode="&#xf7;" d="M63 501l46 229h884l-45 -229h-885zM275 159q0 24 5 51.5t12 53.5t17 47t22 32q22 20 56 29t88 9q42 0 72 -4.5t48 -16.5t26 -30.5t8 -45.5q0 -25 -4.5 -52t-13.5 -53t-19 -47t-22 -33q-22 -20 -55.5 -29t-85.5 -9q-42 0 -71.5 5t-48 16.5t-26.5 30t-8 46.5zM430 947 q0 24 4.5 51.5t12 53.5t17.5 47t21 33q22 20 56 28.5t89 8.5q42 0 71.5 -4.5t48 -16t26 -30t7.5 -46.5q0 -25 -4.5 -52t-13 -53t-19 -47t-21.5 -32q-22 -20 -55.5 -29t-85.5 -9q-42 0 -72 4.5t-48.5 16.5t-26 30.5t-7.5 45.5z" />
<glyph unicode="&#xf8;" horiz-adv-x="1124" d="M-34 -71l143 174q-35 42 -51.5 101t-16.5 135q0 47 5 103t18 115t34.5 119t54.5 116.5t80 104.5t108.5 84.5t141 57.5t179.5 21q61 0 112.5 -9.5t93.5 -25.5l146 177l149 -99l-147 -179q32 -42 47 -97.5t15 -132.5q0 -47 -4.5 -102.5t-17.5 -114.5t-34.5 -119.5t-55 -117 t-80 -104.5t-108.5 -84.5t-141.5 -57.5t-178.5 -21q-56 0 -106 8t-93 23l-143 -174zM359 447q0 -13 1.5 -22.5t6.5 -18.5l334 414q-16 11 -36 15.5t-49 4.5q-39 0 -70 -13t-56.5 -35.5t-45 -51.5t-34 -61.5t-24.5 -65.5t-15.5 -64.5t-8.5 -57.5t-3 -44zM426 208 q14 -8 33 -11t44 -3q37 0 67 11.5t55 32t44.5 47.5t34.5 58t25 63t17 62.5t10 57t3 45.5q0 13 -2 23t-5 19z" />
<glyph unicode="&#xf9;" horiz-adv-x="1126" d="M67 262q0 65 11 135.5t29.5 160t44 205t55.5 270.5h329q-32 -160 -56.5 -276t-42.5 -200t-28 -140.5t-10 -95.5q0 -45 14.5 -66t51.5 -21q32 0 67 26.5t68 74.5t60.5 115.5t44.5 152.5l82 430h328l-201 -1033h-269l13 152q-33 -41 -70 -74.5t-79 -56.5t-87 -35.5 t-91 -12.5q-65 0 -114.5 17.5t-83 52.5t-50 89t-16.5 130zM364 1376l229 116l264 -279l-168 -84z" />
<glyph unicode="&#xfa;" horiz-adv-x="1126" d="M67 262q0 65 11 135.5t29.5 160t44 205t55.5 270.5h329q-32 -160 -56.5 -276t-42.5 -200t-28 -140.5t-10 -95.5q0 -45 14.5 -66t51.5 -21q32 0 67 26.5t68 74.5t60.5 115.5t44.5 152.5l82 430h328l-201 -1033h-269l13 152q-33 -41 -70 -74.5t-79 -56.5t-87 -35.5 t-91 -12.5q-65 0 -114.5 17.5t-83 52.5t-50 89t-16.5 130zM525 1213l280 279l223 -116l-342 -247z" />
<glyph unicode="&#xfb;" horiz-adv-x="1126" d="M67 262q0 65 11 135.5t29.5 160t44 205t55.5 270.5h329q-32 -160 -56.5 -276t-42.5 -200t-28 -140.5t-10 -95.5q0 -45 14.5 -66t51.5 -21q32 0 67 26.5t68 74.5t60.5 115.5t44.5 152.5l82 430h328l-201 -1033h-269l13 152q-33 -41 -70 -74.5t-79 -56.5t-87 -35.5 t-91 -12.5q-65 0 -114.5 17.5t-83 52.5t-50 89t-16.5 130zM383 1256l367 251l256 -247l-111 -130l-189 134l-244 -134z" />
<glyph unicode="&#xfc;" horiz-adv-x="1126" d="M67 262q0 65 11 135.5t29.5 160t44 205t55.5 270.5h329q-32 -160 -56.5 -276t-42.5 -200t-28 -140.5t-10 -95.5q0 -45 14.5 -66t51.5 -21q32 0 67 26.5t68 74.5t60.5 115.5t44.5 152.5l82 430h328l-201 -1033h-269l13 152q-33 -41 -70 -74.5t-79 -56.5t-87 -35.5 t-91 -12.5q-65 0 -114.5 17.5t-83 52.5t-50 89t-16.5 130zM342 1249q0 17 3.5 38.5t10.5 43t16.5 40.5t21.5 30q18 18 49.5 27t74.5 9q69 0 103.5 -22t34.5 -76q0 -17 -4 -38t-10.5 -42.5t-16 -40.5t-22.5 -30q-18 -18 -49.5 -27t-74.5 -9q-69 0 -103 21.5t-34 75.5z M759 1249q0 17 3.5 38.5t10.5 43t16.5 40.5t20.5 30q18 18 50 27t75 9q69 0 103 -22t34 -76q0 -17 -4 -38t-10.5 -42.5t-16.5 -40.5t-21 -30q-18 -18 -49.5 -27t-74.5 -9q-70 0 -103.5 21.5t-33.5 75.5z" />
<glyph unicode="&#xfd;" horiz-adv-x="1011" d="M-146 -317l36 187q13 -2 29 -4t32 -2.5t31 -1t26 -0.5q27 0 48 2t39 7.5t33.5 16t31.5 24.5q9 10 17 21t13.5 22.5t8.5 25.5t3 30q0 22 -2 56.5t-7 72.5l-82 893h343l28 -558q2 -24 3.5 -49t1.5 -54q0 -13 -1 -28t-2.5 -30.5t-4.5 -30.5t-7 -28q43 92 84.5 190.5 t78.5 198t66 198t49 191.5h342q-58 -190 -122.5 -352t-132 -296.5t-137 -242.5t-140 -191.5t-140 -144t-136.5 -100t-130.5 -58t-121.5 -18.5q-43 0 -89 13.5t-89 39.5zM490 1213l280 279l223 -116l-342 -247z" />
<glyph unicode="&#xfe;" horiz-adv-x="1112" d="M-62 -354l352 1806h327l-81 -415q-3 -18 -8.5 -37t-10.5 -38t-10 -36.5l-9 -31.5q24 34 55.5 63.5t69 52.5t80 36.5t87.5 13.5q75 0 128 -29t86.5 -77.5t49 -112t15.5 -132.5q0 -71 -10 -152.5t-37.5 -163t-74 -157t-118 -134t-172 -94t-235.5 -35.5q-17 0 -33.5 1 t-29.5 2q-15 2 -28 4l-66 -334h-327zM377 220q12 -4 27 -8q12 -2 30.5 -4.5t38.5 -2.5q50 0 89 25t68 66t49 92t32.5 102.5t18 98.5t5.5 79q0 73 -17.5 105t-53.5 32q-20 0 -43 -9.5t-46 -29.5t-45.5 -50t-43 -72t-38 -95t-30.5 -118z" />
<glyph unicode="&#xff;" horiz-adv-x="1011" d="M-146 -317l36 187q13 -2 29 -4t32 -2.5t31 -1t26 -0.5q27 0 48 2t39 7.5t33.5 16t31.5 24.5q9 10 17 21t13.5 22.5t8.5 25.5t3 30q0 22 -2 56.5t-7 72.5l-82 893h343l28 -558q2 -24 3.5 -49t1.5 -54q0 -13 -1 -28t-2.5 -30.5t-4.5 -30.5t-7 -28q43 92 84.5 190.5 t78.5 198t66 198t49 191.5h342q-58 -190 -122.5 -352t-132 -296.5t-137 -242.5t-140 -191.5t-140 -144t-136.5 -100t-130.5 -58t-121.5 -18.5q-43 0 -89 13.5t-89 39.5zM286 1249q0 17 3.5 38.5t10.5 43t16.5 40.5t21.5 30q18 18 49.5 27t74.5 9q69 0 103.5 -22t34.5 -76 q0 -17 -4 -38t-10.5 -42.5t-16 -40.5t-22.5 -30q-18 -18 -49.5 -27t-74.5 -9q-69 0 -103 21.5t-34 75.5zM703 1249q0 17 3.5 38.5t10.5 43t16.5 40.5t20.5 30q18 18 50 27t75 9q69 0 103 -22t34 -76q0 -17 -4 -38t-10.5 -42.5t-16.5 -40.5t-21 -30q-18 -18 -49.5 -27 t-74.5 -9q-70 0 -103.5 21.5t-33.5 75.5z" />
<glyph unicode="&#x152;" horiz-adv-x="1617" d="M70 433q0 48 5 110.5t16.5 131.5t32 143t51.5 145.5t73.5 139t98.5 123.5q41 41 90 74.5t106.5 57.5t124 37.5t143.5 13.5q65 0 121 -6.5t103 -20.5h658l-52 -260h-410l-55 -289h342l-49 -249h-342l-63 -321h418l-49 -263h-660q-50 -13 -104.5 -20t-102.5 -7 q-124 0 -217 27.5t-155 83.5t-93 142t-31 207zM432 449q0 -62 11 -103.5t33 -66t54 -34t76 -9.5q33 0 61 6.5t53 16.5l167 857q-22 16 -50.5 24t-63.5 8q-47 0 -85.5 -18t-67.5 -49q-38 -37 -66.5 -90.5t-49 -114.5t-34 -125t-22.5 -122.5t-12.5 -105.5t-3.5 -74z" />
<glyph unicode="&#x153;" horiz-adv-x="1695" d="M41 339q0 47 5 103t18 115t34.5 119t54.5 116.5t80 104.5t108.5 84.5t141 57.5t179.5 21q51 0 97 -7t84.5 -22t69 -39t52.5 -58q33 29 69 52.5t78 39.5t89 25t103 9q81 0 149.5 -18.5t117.5 -53.5t77 -86t28 -118q0 -71 -32.5 -133t-107 -108.5t-196.5 -74t-303 -27.5 q-2 -9 -3.5 -19t-2.5 -20.5t-2 -20t-1 -17.5q0 -35 10 -61.5t29 -44.5t48.5 -27.5t69.5 -9.5q34 0 73.5 3.5t83.5 11t89 17.5t88 23l27 -184q-99 -53 -212.5 -86t-234.5 -33q-48 0 -90.5 7.5t-79 21.5t-65.5 37.5t-50 57.5q-35 -29 -73.5 -51.5t-82 -38.5t-93.5 -25t-107 -9 q-99 0 -177 21t-131 65.5t-81 114t-28 165.5zM373 354q0 -81 30 -111.5t96 -30.5q37 0 67.5 16t55 42.5t43 62t32.5 74t23.5 78.5t15 76.5t8 67t2.5 50.5q0 81 -30 111.5t-94 30.5q-39 0 -69.5 -15.5t-55 -42.5t-43.5 -62t-32.5 -74t-23 -79t-15 -76.5t-8 -67t-2.5 -50.5z M1078 640q61 0 107 4t78 12t52.5 19t32.5 25t16.5 30t4.5 35t-6 34t-19 25.5t-32.5 15.5t-44.5 5q-35 0 -64 -14.5t-53.5 -40.5t-41.5 -64.5t-30 -85.5z" />
<glyph unicode="&#x178;" horiz-adv-x="1011" d="M152 1382h361q5 -68 12 -132t16 -126.5t19.5 -123.5t24.5 -120q37 57 71.5 118t67.5 124.5t63.5 129t59.5 130.5h345q-63 -125 -125.5 -238.5t-126 -216t-127.5 -193.5t-130 -172l-110 -562h-344l110 562q-34 90 -62 184t-51.5 194.5t-42 210.5t-31.5 231zM355 1568 q0 19 3.5 39.5t9.5 39t13.5 33.5t14.5 23q22 20 51 28.5t80 8.5q38 0 63.5 -4.5t42 -16t23 -30.5t6.5 -44q0 -20 -3.5 -41t-9 -39.5t-12.5 -32.5t-15 -23q-20 -20 -50 -29t-81 -9q-38 0 -64 5.5t-41.5 16.5t-23 29t-7.5 46zM786 1568q0 19 3.5 39.5t9.5 39t13 33.5t15 23 q20 20 50 28.5t80 8.5q38 0 64 -4.5t42 -16t23.5 -30.5t7.5 -44q0 -20 -4 -41t-9.5 -39.5t-13 -32.5t-14.5 -23q-22 -20 -51 -29t-80 -9q-38 0 -64 5.5t-42 16.5t-23 29t-7 46z" />
<glyph unicode="&#x2c6;" horiz-adv-x="718" d="M185 1256l367 251l256 -247l-111 -130l-189 134l-244 -134z" />
<glyph unicode="&#x2dc;" horiz-adv-x="841" d="M213 1243q24 47 51 84.5t58.5 62.5t69.5 39t83 14q34 0 59.5 -7.5t46 -17.5t36.5 -22t29.5 -22t27 -16.5t27.5 -6.5q13 0 24.5 4.5t23 15t24.5 27.5t31 43l123 -90q-24 -46 -51.5 -83.5t-59.5 -62.5t-70 -39t-83 -14q-33 0 -58.5 7t-46 17.5t-36.5 22t-30 22t-27 17 t-28 6.5q-13 0 -24.5 -4.5t-22 -15.5t-24.5 -28t-31 -42z" />
<glyph unicode="&#x2000;" horiz-adv-x="882" />
<glyph unicode="&#x2001;" horiz-adv-x="1764" />
<glyph unicode="&#x2002;" horiz-adv-x="882" />
<glyph unicode="&#x2003;" horiz-adv-x="1764" />
<glyph unicode="&#x2004;" horiz-adv-x="588" />
<glyph unicode="&#x2005;" horiz-adv-x="441" />
<glyph unicode="&#x2006;" horiz-adv-x="294" />
<glyph unicode="&#x2007;" horiz-adv-x="294" />
<glyph unicode="&#x2008;" horiz-adv-x="220" />
<glyph unicode="&#x2009;" horiz-adv-x="352" />
<glyph unicode="&#x200a;" horiz-adv-x="98" />
<glyph unicode="&#x2010;" horiz-adv-x="489" d="M32 461l46 238h443l-47 -238h-442z" />
<glyph unicode="&#x2011;" horiz-adv-x="489" d="M32 461l46 238h443l-47 -238h-442z" />
<glyph unicode="&#x2012;" horiz-adv-x="489" d="M32 461l46 238h443l-47 -238h-442z" />
<glyph unicode="&#x2013;" d="M85 501l46 229h843l-45 -229h-844z" />
<glyph unicode="&#x2014;" horiz-adv-x="2048" d="M232 501l46 229h1572l-45 -229h-1573z" />
<glyph unicode="&#x2018;" horiz-adv-x="589" d="M223 1094q0 71 22.5 145.5t71 146.5t123 139.5t178.5 125.5l109 -124q-58 -40 -93 -71t-54 -55.5t-25 -44t-6 -36.5q0 -16 7 -27t15 -23.5t15 -28.5t7 -45q0 -20 -4 -47t-11.5 -52.5t-18.5 -48t-24 -36.5q-23 -22 -63 -32t-99 -10q-43 0 -72.5 7t-46 22.5t-24 38.5 t-7.5 56z" />
<glyph unicode="&#x2019;" horiz-adv-x="595" d="M159 1028q57 40 92.5 70.5t54 56t25 45t6.5 36.5q0 16 -7 26.5l-15 22.5t-15 29t-7 46q0 20 4 46t11 52t18 48.5t25 36.5q23 23 62.5 32.5t99.5 9.5q43 0 71.5 -7t46 -22.5t25 -38.5t7.5 -55q0 -72 -23 -146t-71 -146t-123 -139.5t-179 -126.5z" />
<glyph unicode="&#x201a;" horiz-adv-x="614" d="M-88 -223q57 39 92.5 69.5t54.5 55t25.5 44t6.5 37.5q0 16 -7 26t-16 22.5t-15.5 29.5t-6.5 45q0 22 3.5 47.5t11.5 51t19 48t25 37.5q23 23 62 32.5t100 9.5q42 0 71.5 -7.5t46.5 -22t24.5 -37.5t7.5 -54q0 -72 -23 -146.5t-71 -147t-123 -140t-180 -124.5z" />
<glyph unicode="&#x201c;" horiz-adv-x="995" d="M226 1098q0 70 21 143t67 143.5t118 137t173 123.5l90 -121q-56 -39 -90.5 -69.5t-52.5 -54.5t-24.5 -43.5t-6.5 -36.5q0 -15 7 -25.5t14.5 -22t14 -28t6.5 -44.5q0 -20 -4 -46t-11 -51t-18 -47.5t-25 -35.5q-10 -10 -22.5 -18t-29 -13t-38 -7.5t-50.5 -2.5 q-41 0 -68.5 7t-42.5 22t-21.5 37t-6.5 53zM665 1098q0 70 21 143t65.5 142t114 132.5t166.5 115.5l91 -121q-53 -34 -84.5 -62t-49.5 -50.5t-24 -41.5t-6 -36q0 -15 6.5 -25.5t14.5 -22t14.5 -28t6.5 -44.5q0 -20 -4 -46t-11 -51t-18.5 -47.5t-24.5 -35.5q-11 -10 -23 -18 t-28 -13t-38.5 -7.5t-50.5 -2.5q-42 0 -68.5 7t-42 22t-21.5 37t-6 53z" />
<glyph unicode="&#x201d;" horiz-adv-x="1001" d="M168 1043q52 34 84.5 62.5t49.5 51t23.5 41.5t6.5 36q0 15 -7 25.5t-14.5 22t-14 28t-6.5 44.5q0 20 3.5 45t11 51t18.5 48t25 36q10 10 22.5 18t29 13t38 7.5t49.5 2.5q42 0 69.5 -7t42.5 -22t21.5 -37t6.5 -53q0 -70 -21 -143t-65.5 -142t-115 -133t-167.5 -115z M595 1031q56 39 91 69t53.5 54.5t24.5 43.5t6 36q0 15 -6.5 25.5t-14.5 22t-14.5 28t-6.5 44.5q0 20 3.5 45t11.5 51t18 48t24 36q11 10 23.5 18t29 13t37.5 7.5t51 2.5q42 0 69 -7t42.5 -22t21.5 -37t6 -53q0 -70 -21 -143t-67 -143.5t-118.5 -136.5t-172.5 -123z" />
<glyph unicode="&#x201e;" horiz-adv-x="1019" d="M-79 -210q52 34 84 62t50 50.5t24 41.5t6 37q0 15 -6.5 25t-15 22t-14.5 28.5t-6 43.5q0 20 3.5 45.5t11 51t18 47.5t24.5 37q11 10 23.5 17.5t29 12.5t37.5 8t51 3q42 0 68.5 -7.5t42.5 -22t22 -37t6 -52.5q0 -70 -21.5 -143t-66 -142.5t-114 -133.5t-167.5 -115z M348 -221q56 38 90.5 68t53.5 54t24.5 43t5.5 37q0 15 -6 25t-14 22t-15 28.5t-7 43.5q0 20 4 45.5t11.5 51t18 47.5t25.5 37q11 10 22.5 17.5t28 12.5t38 8t51.5 3q42 0 68.5 -7.5t42.5 -22t22 -37t6 -52.5q0 -70 -21.5 -143t-67 -144t-117.5 -137t-174 -122z" />
<glyph unicode="&#x2022;" d="M121 601q0 90 34 168.5t92 135t135 89t161 32.5q83 0 154.5 -30.5t125 -84t84 -124.5t30.5 -152q0 -91 -34.5 -169t-92.5 -134.5t-134.5 -89t-161.5 -32.5q-82 0 -153.5 30.5t-125 83.5t-84 124.5t-30.5 152.5z" />
<glyph unicode="&#x202f;" horiz-adv-x="352" />
<glyph unicode="&#x2039;" horiz-adv-x="634" d="M65 604l359 425l217 -82l-262 -359l121 -364l-230 -61z" />
<glyph unicode="&#x203a;" horiz-adv-x="634" d="M20 244l263 360l-121 364l228 61l206 -441l-359 -425z" />
<glyph unicode="&#x205f;" horiz-adv-x="441" />
<glyph unicode="&#x20ac;" d="M-16 429l39 204h101q4 33 11 63.5t16 60.5h-104l39 204h123q43 113 100.5 196.5t129 139.5t155.5 84t179 28q58 0 110.5 -11.5t96 -35.5t76.5 -60t53 -88l-164 -148q-13 22 -29 39t-36 29t-44.5 18.5t-54.5 6.5q-41 0 -76 -15t-64.5 -41.5t-53 -62.5t-39.5 -79h254 l-39 -204h-282q-4 -15 -8 -30.5t-7.5 -31.5t-5.5 -31.5t-4 -30.5h281l-38 -204h-254q-2 -24 1 -48.5t10 -47t19 -41.5t29.5 -33t41 -22.5t53.5 -8.5q31 0 61 6t57.5 18t53.5 29t50 38l107 -162q-41 -41 -87 -75t-97 -58t-106.5 -37.5t-118.5 -13.5q-72 0 -130.5 15t-105 42 t-81 66.5t-57 90.5t-33.5 112t-10 130h-118z" />
<glyph unicode="&#x2122;" horiz-adv-x="872" d="M183 1275l21 107h264l-21 -107h-62l-47 -238h-134l46 238h-67zM420 1037q19 88 39 172.5t45 172.5h174l17 -186l88 186h174q-8 -89 -19 -172.5t-28 -172.5h-127q5 23 10 47t8.5 46.5t7.5 43.5t6 39l-88 -176h-129l-20 175q-4 -18 -9 -38.5t-9.5 -43t-9 -46.5t-9.5 -47 h-121z" />
<glyph unicode="&#x25fc;" horiz-adv-x="1034" d="M0 0v1034h1034v-1034h-1034z" />
</font>
</defs>
</svg>
