<?xml version="1.0" encoding="utf-8"?>
<!-- Generator: Adobe Illustrator 21.1.0, SVG Export Plug-In . SVG Version: 6.00 Build 0)  -->
<!DOCTYPE svg PUBLIC "-//W3C//DTD SVG 1.1//EN" "http://www.w3.org/Graphics/SVG/1.1/DTD/svg11.dtd">
<svg version="1.1" id="Digipolis" xmlns="http://www.w3.org/2000/svg" xmlns:xlink="http://www.w3.org/1999/xlink" x="0px" y="0px"
	 viewBox="0 0 1024 1024" style="enable-background:new 0 0 1024 1024;" xml:space="preserve">
<style type="text/css">
	.st0{fill:#FFFFFF;}
</style>
<path class="st0" d="M794,512c0,155.7-126.3,282-282,282S230,667.7,230,512s126.3-282,282-282S794,356.3,794,512z M512,300.2
	c-117,0-211.8,94.8-211.8,211.8S395,723.8,512,723.8S723.8,629,723.8,512S629,300.2,512,300.2z"/>
<path class="st0" d="M621.3,640.2H404.4c0,0-24.3-0.6-24.3-24.8c0-24.2,0-151.7,0-151.7s1.3-24.8,24.3-24.8c23,0,147.2,0,147.2,0
	v-72.9c0,0-0.5-3.8,3.1-3.8c3.5,0,67.3,0,67.3,0s3.1,0.2,3.1,4.6c0,4.4,0,121.3,0,121.3s-1.9,23.5-23.5,23.5
	c-21.7,0-148.3,0-148.3,0v56.1h168.2c0,0,3.5-0.1,3.5,3.5c0,3.6,0,66.3,0,66.3S625.4,640.2,621.3,640.2z"/>
</svg>
